<svg width="51" height="33" viewBox="0 0 51 33" fill="none" xmlns="http://www.w3.org/2000/svg">
<path d="M4 0.5H47C48.933 0.5 50.5 2.067 50.5 4V29C50.5 30.933 48.933 32.5 47 32.5H4C2.067 32.5 0.5 30.933 0.5 29V4C0.5 2.067 2.067 0.5 4 0.5Z" fill="#F6F6F6" stroke="#EEEEEE"/>
<path d="M31.6491 7.58369C30.6928 6.47523 28.9643 6 26.7529 6H20.335C19.883 6.00002 19.4981 6.33425 19.4273 6.78825L16.755 24.025C16.7019 24.3649 16.9607 24.6727 17.2994 24.6727H21.2616L22.2567 18.2537L22.2258 18.4547C22.2967 18.001 22.6782 17.6663 23.1301 17.6663H25.0129C28.7117 17.6663 31.608 16.1384 32.454 11.7184C32.4791 11.5877 32.5009 11.4605 32.5197 11.3362C32.4129 11.2786 32.4129 11.2786 32.5197 11.3362C32.7716 9.70249 32.5179 8.59047 31.6491 7.58369" fill="#27346A"/>
<path d="M23.7728 10.7477C23.8811 10.6952 23.9996 10.668 24.1195 10.6681H29.1511C29.7469 10.6681 30.3026 10.7075 30.8105 10.7906C30.9526 10.8137 31.0939 10.8412 31.2344 10.8731C31.4334 10.9178 31.6301 10.9725 31.8239 11.037C32.0735 11.1217 32.306 11.2205 32.5197 11.3362C32.7716 9.70186 32.5179 8.59047 31.6491 7.58369C30.6923 6.47523 28.9643 6 26.7529 6H20.3345C19.8826 6 19.4981 6.33459 19.4273 6.78825L16.755 24.0244C16.7019 24.3648 16.9607 24.6722 17.2988 24.6722H21.2616L23.3261 11.3577C23.3673 11.092 23.5343 10.8639 23.7728 10.7477Z" fill="#27346A"/>
<path d="M32.4535 11.7182C31.6075 16.1375 28.7113 17.6661 25.0125 17.6661H23.1291C22.6772 17.6661 22.2956 18.0008 22.2254 18.4545L20.9875 26.4358C20.9412 26.7332 21.1674 27.0028 21.4633 27.0028H24.8034C25.1986 27.0027 25.5351 26.7103 25.5969 26.3132L25.6294 26.1401L26.2589 22.0826L26.2995 21.8583C26.3612 21.4613 26.6977 21.1689 27.0929 21.1688H27.5928C30.8283 21.1688 33.3618 19.8319 34.1021 15.9656C34.4112 14.3499 34.2513 13.0009 33.4338 12.0534C33.1858 11.7664 32.8779 11.5294 32.5192 11.3359C32.4998 11.4609 32.4787 11.5875 32.4535 11.7182V11.7182Z" fill="#2790C3"/>
<path d="M31.6345 10.9771C31.5025 10.9379 31.3694 10.9032 31.2352 10.8731C31.0947 10.8417 30.9533 10.8144 30.8113 10.7912C30.3029 10.7075 29.7476 10.668 29.1512 10.668H24.1203C24.0002 10.6677 23.8817 10.6951 23.7735 10.7482C23.5348 10.8641 23.3676 11.0923 23.3268 11.3582L22.2574 18.2537L22.2266 18.4547C22.2969 18.0009 22.6785 17.6663 23.1304 17.6663H25.0137C28.7126 17.6663 31.6087 16.1383 32.4547 11.7184C32.4799 11.5876 32.5011 11.461 32.5205 11.3361C32.3062 11.2211 32.0744 11.1217 31.8246 11.0375C31.7616 11.0162 31.6982 10.9961 31.6345 10.9771" fill="#1F264F"/>
</svg>
