<svg width="86" height="80" viewBox="0 0 86 80" fill="none" xmlns="http://www.w3.org/2000/svg">
<path d="M59.13 9.56783C59.13 7.1687 61.0813 5.21739 63.4804 5.21739H64.3457C66.7439 5.21739 68.6952 7.1687 68.6952 9.56783V14.7817H73.9126V9.56783C73.9126 4.29217 69.6204 0 64.3448 0H63.4804C58.2048 0 53.9126 4.29217 53.9126 9.56783V50.7652C53.9126 52.5304 53.1509 54.0035 51.7109 55.0226L47.11 58.2826C43.3744 53.5052 37.3291 50.0609 29.7144 48.7087C26.4813 48.1348 23.2083 47.8452 19.9144 47.8287C19.5439 46.3009 18.1561 45.1539 16.4718 45.1539H16.4709L15.6057 45.1704C14.6787 45.1878 13.8117 45.5661 13.1648 46.2365C12.6178 46.8035 12.3013 47.5235 12.2222 48.2939C11.2883 48.4122 10.3535 48.5461 9.41784 48.7087C4.22479 49.6087 0.869141 53.0183 0.869141 57.3939V60.8983C3.02305 58.233 6.31349 56.5217 9.99958 56.5217C16.0326 56.5217 21.0109 61.0965 21.6622 66.9574H47.1761V68.6965H21.717C21.5874 72.2043 19.9222 75.3235 17.3622 77.3913H44.3448C46.1996 77.3913 47.9465 76.6661 49.2622 75.3487C50.5796 74.0313 51.3048 72.2852 51.3039 70.4304C51.3031 67.9722 50.8648 65.6348 50.0413 63.46L56.5804 58.7904C58.2248 57.6165 59.13 55.8557 59.13 53.8357V9.56783ZM43.93 64.8139C41.8413 59.3522 36.2431 55.6817 29.9996 55.6817C29.7335 55.6817 29.4683 55.6887 29.2031 55.7017L29.1126 53.9652C29.4083 53.9496 29.7031 53.9435 29.9996 53.9435C36.9587 53.9435 43.2083 58.0626 45.5535 64.193L43.93 64.8139Z" fill="#A3A9BD"/>
<path d="M17.9504 74.3104C17.9739 74.28 17.9991 74.2495 18.0226 74.2182C18.3096 73.8339 18.5713 73.4287 18.8017 73.0043C15.1165 72.7148 12.347 70.7382 12.347 68.2626C12.347 65.7869 15.1165 63.8104 18.8017 63.5208C17.1087 60.3913 13.7983 58.2617 10 58.2617C9.90174 58.2617 9.80609 58.2739 9.7087 58.2765C11.2974 61.6104 10.9696 64.993 8.82696 66.2304C8.30087 66.5348 7.71652 66.6791 7.10435 66.6791C5.22522 66.6791 3.08174 65.3104 1.50261 63.0165C0.556522 64.5443 0 66.3365 0 68.2617C0 70.1417 0.531304 71.8965 1.43739 73.4009C2.33043 72.1391 3.42609 71.12 4.5913 70.4913C4.85043 70.3513 5.10783 70.2408 5.36348 70.1443C5.83304 69.9652 6.29391 69.8582 6.73826 69.8235C6.73826 69.8235 6.74 69.8235 6.74174 69.8226C6.85304 69.8139 6.96261 69.8148 7.07217 69.8156C7.12783 69.8165 7.18435 69.8156 7.24 69.8182C7.33043 69.8235 7.41913 69.833 7.5087 69.8435C7.58348 69.8539 7.65739 69.8643 7.73043 69.8791C7.80522 69.8939 7.87913 69.9087 7.9513 69.9278C8.04174 69.9513 8.1313 69.9817 8.22 70.013C8.27565 70.0322 8.33217 70.0495 8.38609 70.0722C8.5287 70.1313 8.6687 70.1991 8.80261 70.2782C9.97478 70.9748 10.6243 72.3243 10.6322 74.0774C10.6391 75.4009 10.2678 76.8504 9.58783 78.24C9.72609 78.2461 9.86087 78.2617 10 78.2617C11.6704 78.2617 13.2461 77.8487 14.6322 77.1209L14.6348 77.1191C15.0617 76.8948 15.4687 76.6382 15.8565 76.3565C15.887 76.3348 15.9157 76.3113 15.9461 76.2895C16.3061 76.0217 16.647 75.7313 16.967 75.42C17.0017 75.3861 17.0357 75.3522 17.0704 75.3182C17.3852 75.0026 17.6791 74.6661 17.9504 74.3104Z" fill="#A3A9BD"/>
<path d="M7.91461 71.7727C7.06939 71.2736 5.98852 71.7136 5.41809 72.0214C4.34504 72.6005 3.33287 73.6214 2.53809 74.8953C3.892 76.4153 5.69722 77.5205 7.74504 77.9945C8.48678 76.6849 8.89896 75.3058 8.89287 74.0849C8.89026 73.4371 8.75896 72.2745 7.91461 71.7727Z" fill="#A3A9BD"/>
<path d="M73.9128 68.6964V64.3477H68.6954V68.6964H66.0867V72.1746H62.6111C60.345 72.1746 58.4154 73.6303 57.6963 75.6529H84.9128C84.1937 73.6303 82.265 72.1746 79.9989 72.1746H76.5215V68.6964H73.9128ZM67.8259 70.4355H74.7824V73.0442H67.8259V70.4355Z" fill="#A3A9BD"/>
<path d="M57.3916 77.3906V77.3924V79.9993H85.2177V77.3924V77.3906H57.3916Z" fill="#A3A9BD"/>
<path d="M7.9574 64.7241C9.20262 64.0059 9.43392 61.3537 7.86175 58.498C5.80523 58.9485 3.98958 60.0363 2.61914 61.5389C4.30523 64.3189 6.71653 65.4433 7.9574 64.7241Z" fill="#A3A9BD"/>
<path d="M19.525 71.2985C19.8319 70.3403 19.9997 69.3203 19.9997 68.2611C19.9997 67.202 19.8319 66.1829 19.525 65.2246C16.6276 65.2985 14.085 66.6803 14.085 68.2611C14.085 69.8437 16.6041 71.2333 19.525 71.2985Z" fill="#A3A9BD"/>
<path d="M73.9127 16.5215H68.6953V37.3919H73.9127V16.5215Z" fill="#A3A9BD"/>
<path d="M68.6957 39.1309H68.1931C67.994 39.1309 67.8262 39.2987 67.8262 39.4978V47.4596C67.8262 47.6587 67.994 47.8265 68.1931 47.8265H68.6957H73.9131H74.4166C74.6157 47.8265 74.7827 47.6587 74.7827 47.4596V39.4978C74.7827 39.2987 74.6157 39.1309 74.4166 39.1309H73.9131H68.6957Z" fill="#A3A9BD"/>
<path d="M73.9127 49.5645H68.6953V62.6071H73.9127V49.5645Z" fill="#A3A9BD"/>
</svg>
