<svg width="784" height="784" viewBox="0 0 784 784" fill="none" xmlns="http://www.w3.org/2000/svg">
<g clip-path="url(#clip0_1_132)">
<path d="M784 599.604H0V599.996H784V599.604Z" fill="#EBEBEB"/>
<path d="M705.443 624.833H671.449V625.225H705.443V624.833Z" fill="#EBEBEB"/>
<path d="M540.443 616.71H486.958V617.102H540.443V616.71Z" fill="#EBEBEB"/>
<path d="M691.677 610.281H621.854V610.673H691.677V610.281Z" fill="#EBEBEB"/>
<path d="M271.296 618.184H253.828V618.576H271.296V618.184Z" fill="#EBEBEB"/>
<path d="M239.857 618.184H179.661V618.576H239.857V618.184Z" fill="#EBEBEB"/>
<path d="M147.407 611.567H103.974V611.959H147.407V611.567Z" fill="#EBEBEB"/>
<path d="M371.616 529.671H68.8507C66.4788 529.666 64.2056 528.721 62.5299 527.043C60.8542 525.364 59.9131 523.089 59.9131 520.717V95.1151C59.9337 92.7569 60.884 90.502 62.5574 88.8403C64.2309 87.1786 66.4924 86.2443 68.8507 86.2402H371.616C373.99 86.2402 376.268 87.1835 377.947 88.8626C379.626 90.5417 380.569 92.819 380.569 95.1935V520.717C380.569 523.092 379.626 525.369 377.947 527.048C376.268 528.727 373.99 529.671 371.616 529.671ZM68.8507 86.5538C66.5828 86.558 64.4092 87.4618 62.8071 89.0669C61.2049 90.672 60.3051 92.8472 60.3051 95.1151V520.717C60.3051 522.985 61.2049 525.16 62.8071 526.766C64.4092 528.371 66.5828 529.274 68.8507 529.279H371.616C373.885 529.274 376.06 528.371 377.665 526.767C379.27 525.162 380.173 522.987 380.177 520.717V95.1151C380.173 92.8458 379.27 90.6706 377.665 89.066C376.06 87.4613 373.885 86.558 371.616 86.5538H68.8507Z" fill="#EBEBEB"/>
<path d="M710.79 529.671H408.009C405.636 529.666 403.361 528.722 401.683 527.044C400.004 525.366 399.06 523.091 399.056 520.717V95.1151C399.08 92.7555 400.034 90.5006 401.71 88.8393C403.386 87.1781 405.649 86.2442 408.009 86.2402H710.79C713.145 86.2484 715.403 87.1846 717.073 88.8458C718.743 90.5071 719.691 92.7596 719.712 95.1151V520.717C719.712 523.087 718.773 525.359 717.1 527.037C715.428 528.715 713.159 529.662 710.79 529.671ZM408.009 86.5538C405.74 86.558 403.564 87.4613 401.96 89.066C400.355 90.6706 399.452 92.8458 399.448 95.1151V520.717C399.452 522.987 400.355 525.162 401.96 526.767C403.564 528.371 405.74 529.274 408.009 529.279H710.79C713.059 529.274 715.234 528.371 716.839 526.767C718.444 525.162 719.347 522.987 719.351 520.717V95.1151C719.347 92.8458 718.444 90.6706 716.839 89.066C715.234 87.4613 713.059 86.558 710.79 86.5538H408.009Z" fill="#EBEBEB"/>
<path d="M338.798 314.98L339.503 294.377L326.865 290.237C326.322 283.255 325.189 276.331 323.478 269.539L334.204 261.699L326.928 242.35L313.663 243.417C310.518 237.182 306.846 231.229 302.687 225.62L309.555 214.158L295.443 199.089L283.588 205.157C278.258 200.601 272.563 196.489 266.56 192.864L268.473 179.693L249.657 171.163L241.033 181.261C234.38 179.133 227.562 177.559 220.649 176.557L217.513 163.652L196.847 162.947L192.77 175.601C185.794 176.149 178.877 177.277 172.088 178.972L164.123 168.309L144.773 175.538L145.84 188.803C139.609 191.996 133.656 195.704 128.043 199.889L116.502 192.864L101.371 206.976L107.439 218.893C102.882 224.197 98.7898 229.884 95.209 235.89L82.0534 233.914L73.4608 252.73L83.6214 261.339C81.4781 267.988 79.9044 274.807 78.9174 281.723L65.856 285L65.1504 305.603L77.8512 309.743C78.3765 316.721 79.5045 323.641 81.2224 330.425L70.4973 338.265L77.7885 357.63L91.0538 356.563C94.1909 362.802 97.8633 368.757 102.03 374.36L95.1462 385.822L109.258 400.891L121.112 394.823C126.429 399.378 132.114 403.485 138.109 407.1L136.134 420.256L154.95 428.801L163.621 418.703C170.274 420.851 177.091 422.45 184.005 423.486L187.141 436.39L207.807 437.096L211.884 424.442C218.864 423.887 225.786 422.76 232.581 421.071L240.421 431.733L259.771 424.505L258.767 411.24C264.986 408.026 270.938 404.319 276.564 400.154L287.963 407.022L303.094 392.91L297.026 380.993C301.585 375.69 305.677 370.003 309.257 363.996L322.412 365.971L331.005 347.155L320.844 338.531C323.024 331.887 324.624 325.067 325.627 318.147L338.798 314.98ZM199.575 381.73C183.406 381.184 167.762 375.854 154.622 366.415C141.482 356.977 131.436 343.853 125.756 328.705C120.076 313.556 119.016 297.063 122.711 281.312C126.405 265.561 134.689 251.26 146.512 240.217C158.336 229.174 173.169 221.886 189.136 219.275C205.102 216.664 221.485 218.847 236.21 225.547C250.936 232.248 263.343 243.165 271.863 256.919C280.383 270.672 284.633 286.643 284.075 302.812C283.33 324.481 274.011 344.968 258.165 359.767C242.319 374.566 221.244 382.466 199.575 381.73Z" fill="#EBEBEB"/>
<path d="M691.488 246.835L696.679 241.99L694.624 237.897C696.191 236.063 697.602 234.102 698.842 232.033L703.39 232.707L706.322 226.216L702.841 223.252C703.591 220.957 704.141 218.601 704.487 216.212L708.956 215.098L709.176 207.98L704.816 206.569C704.625 204.158 704.237 201.766 703.656 199.418L707.341 196.674L704.832 190.01L700.269 190.371C699.169 188.222 697.895 186.166 696.459 184.225L698.827 180.305L693.95 175.099L689.873 177.184C688.037 175.621 686.076 174.21 684.009 172.966L684.668 168.419L678.192 165.456L675.213 168.952C672.913 168.236 670.558 167.712 668.172 167.384L667.059 162.931L659.94 162.665L658.513 167.055C656.112 167.239 653.73 167.627 651.395 168.215L648.666 164.53L641.987 167.024L642.363 171.602C640.208 172.692 638.151 173.967 636.216 175.412L632.265 173.045L627.059 177.89L629.082 181.888C627.504 183.717 626.087 185.679 624.848 187.753L620.317 187.078L617.369 193.57L620.866 196.549C620.141 198.841 619.616 201.191 619.298 203.574L614.813 204.687L614.594 211.806L618.968 213.217C619.147 215.628 619.53 218.02 620.113 220.367L616.413 223.095L618.921 229.759L623.5 229.414C624.6 231.564 625.875 233.619 627.31 235.561L624.943 239.481L629.819 244.687L633.896 242.601C635.728 244.17 637.69 245.581 639.76 246.819L639.086 251.351L645.577 254.314L648.557 250.833C650.858 251.542 653.212 252.066 655.597 252.401L656.71 256.854L663.829 257.121L665.256 252.73C667.658 252.548 670.039 252.16 672.375 251.57L675.103 255.255L681.783 252.762L681.422 248.183C683.571 247.092 685.623 245.817 687.553 244.373L691.488 246.835ZM654.452 216.839C653.083 215.372 652.18 213.531 651.857 211.551C651.533 209.57 651.805 207.538 652.637 205.712C653.469 203.885 654.824 202.347 656.531 201.291C658.237 200.235 660.219 199.708 662.224 199.778C664.23 199.849 666.17 200.512 667.798 201.685C669.427 202.858 670.671 204.487 671.373 206.368C672.075 208.248 672.204 210.294 671.743 212.247C671.282 214.2 670.252 215.973 668.784 217.341C667.809 218.26 666.662 218.976 665.409 219.449C664.155 219.921 662.821 220.141 661.482 220.094C660.143 220.047 658.827 219.736 657.61 219.177C656.392 218.618 655.298 217.824 654.39 216.839H654.452Z" fill="#EBEBEB"/>
<path d="M501.76 458.389L485.547 447.178C483.958 441.34 481.772 435.681 479.024 430.291L483.179 413.984L459.659 388.802L443.101 391.828C437.906 388.716 432.405 386.146 426.684 384.16L416.618 367.21L382.122 366.034L370.926 382.247C365.095 383.836 359.442 386.016 354.054 388.754L337.747 384.599L312.565 408.119L315.591 424.646C312.482 429.851 309.918 435.363 307.94 441.094L290.989 451.161L289.813 485.657L306.042 496.852C307.605 502.722 309.786 508.409 312.549 513.818L308.347 529.984L331.867 555.166L348.316 552.156C353.549 555.271 359.087 557.846 364.842 559.839L374.893 576.758L409.389 577.949L420.569 561.736C426.452 560.147 432.158 557.962 437.597 555.213L453.811 559.353L479.008 535.833L475.982 519.306C479.101 514.101 481.665 508.582 483.634 502.842L500.584 492.776L501.76 458.389ZM394.43 510.745C386.772 510.483 379.364 507.957 373.142 503.485C366.92 499.013 362.163 492.796 359.474 485.621C356.784 478.446 356.283 470.635 358.032 463.175C359.782 455.714 363.705 448.941 369.304 443.71C374.903 438.479 381.928 435.026 389.49 433.787C397.051 432.548 404.81 433.579 411.786 436.75C418.762 439.92 424.641 445.088 428.68 451.6C432.719 458.111 434.736 465.674 434.477 473.332C434.117 483.603 429.696 493.312 422.185 500.326C414.674 507.341 404.686 511.088 394.415 510.745H394.43Z" fill="#EBEBEB"/>
<path d="M538.686 360.64H538.577L511.419 359.715C510.869 359.705 510.33 359.556 509.853 359.282C509.376 359.008 508.976 358.617 508.69 358.147L501.368 345.838C497.421 344.394 493.603 342.622 489.953 340.538L478.24 342.561C477.694 342.661 477.132 342.621 476.606 342.446C476.079 342.27 475.606 341.965 475.229 341.558L456.68 321.707C456.291 321.295 456.014 320.791 455.877 320.241C455.739 319.692 455.746 319.117 455.896 318.571L458.859 306.952C457.023 303.187 455.523 299.267 454.375 295.239L442.568 287.085C442.11 286.771 441.739 286.346 441.49 285.85C441.24 285.353 441.12 284.802 441.141 284.247L442.066 257.089C442.085 256.541 442.237 256.006 442.51 255.53C442.784 255.054 443.17 254.653 443.634 254.361L455.974 247.038C457.397 243.101 459.166 239.297 461.258 235.67L459.095 223.863C458.993 223.315 459.032 222.75 459.208 222.221C459.383 221.692 459.689 221.216 460.098 220.837L479.949 202.303C480.359 201.913 480.863 201.634 481.413 201.494C481.962 201.354 482.538 201.357 483.085 201.504L494.751 204.483C498.506 202.646 502.415 201.14 506.433 199.983L514.586 188.176C514.889 187.707 515.312 187.327 515.811 187.076C516.31 186.826 516.867 186.712 517.424 186.749L544.566 187.69C545.118 187.701 545.658 187.851 546.138 188.125C546.617 188.399 547.02 188.788 547.31 189.258L554.633 201.582C558.552 203.021 562.339 204.794 565.954 206.882L577.808 204.702C578.354 204.601 578.916 204.64 579.443 204.816C579.969 204.991 580.443 205.297 580.818 205.706L599.368 225.557C599.755 225.97 600.03 226.474 600.167 227.023C600.304 227.572 600.299 228.147 600.152 228.693L597.173 240.343C599.01 244.101 600.52 248.009 601.689 252.025L613.48 260.178C613.938 260.493 614.309 260.918 614.558 261.414C614.808 261.91 614.928 262.461 614.907 263.016L613.982 290.158C613.963 290.709 613.811 291.246 613.537 291.725C613.264 292.203 612.878 292.607 612.414 292.902L600.073 300.225C598.641 304.154 596.873 307.952 594.789 311.577L596.953 323.4C597.055 323.946 597.016 324.508 596.84 325.035C596.665 325.561 596.358 326.035 595.95 326.411L575.973 344.96C575.562 345.349 575.057 345.626 574.508 345.763C573.959 345.901 573.383 345.894 572.837 345.744L561.234 342.781C557.453 344.609 553.524 346.115 549.49 347.281L541.415 359.072C541.124 359.537 540.723 359.924 540.247 360.198C539.771 360.471 539.235 360.623 538.686 360.64ZM513.457 353.161L536.977 353.96L544.817 342.686C545.251 342.028 545.918 341.558 546.683 341.369C551.095 340.163 555.376 338.519 559.462 336.462C560.174 336.118 560.984 336.035 561.752 336.226L572.728 339.033L589.976 322.961L588 311.624C587.847 310.832 587.993 310.011 588.408 309.319C590.736 305.437 592.654 301.322 594.131 297.042C594.38 296.266 594.904 295.608 595.605 295.192L607.412 288.198L608.211 264.678L596.922 256.838C596.327 256.432 595.881 255.843 595.652 255.161C595.652 255.082 595.652 254.988 595.652 254.894C594.444 250.56 592.805 246.358 590.76 242.35C590.397 241.633 590.308 240.808 590.509 240.03L593.331 228.928L577.259 211.68L565.985 213.75C565.198 213.893 564.385 213.748 563.696 213.342C559.806 211.009 555.686 209.08 551.403 207.588C551.157 207.509 550.92 207.404 550.697 207.274C550.245 206.992 549.869 206.605 549.6 206.145L542.528 194.307L519.008 193.491L511.168 204.797C510.7 205.459 510.01 205.932 509.224 206.129C504.857 207.323 500.622 208.957 496.585 211.006C495.874 211.369 495.054 211.458 494.281 211.257L483.179 208.434L465.931 224.506L468.001 235.749C468.124 236.458 468.019 237.188 467.703 237.834L467.546 238.101C465.214 241.998 463.296 246.129 461.823 250.425C461.563 251.162 461.053 251.784 460.38 252.182L448.573 259.19L447.774 282.71L459.079 290.55C459.723 290.991 460.19 291.647 460.396 292.401C461.571 296.804 463.206 301.071 465.273 305.133C465.384 305.364 465.474 305.606 465.539 305.854C465.657 306.37 465.657 306.906 465.539 307.422L462.717 318.398L478.789 335.646L489.984 333.592C490.766 333.449 491.574 333.594 492.258 334C496.178 336.329 500.323 338.257 504.629 339.754C505.406 339.985 506.064 340.508 506.464 341.213L513.457 353.161ZM527.993 323.416C527.412 323.416 526.832 323.416 526.252 323.416C513.217 323.186 500.801 317.818 491.705 308.478C482.609 299.139 477.57 286.585 477.685 273.549C477.8 260.513 483.059 248.05 492.318 238.872C501.577 229.695 514.086 224.545 527.122 224.545C540.159 224.545 552.668 229.695 561.927 238.872C571.186 248.05 576.445 260.513 576.559 273.549C576.674 286.585 571.635 299.139 562.539 308.478C553.444 317.818 541.027 323.186 527.993 323.416ZM527.993 230.763C516.602 230.959 505.75 235.647 497.799 243.806C489.848 251.965 485.442 262.935 485.541 274.327C485.639 285.719 490.233 296.611 498.323 304.632C506.414 312.653 517.345 317.153 528.737 317.153C540.13 317.153 551.061 312.653 559.151 304.632C567.242 296.611 571.836 285.719 571.934 274.327C572.032 262.935 567.626 251.965 559.676 243.806C551.725 235.647 540.873 230.959 529.482 230.763H527.993Z" fill="#EBEBEB"/>
<path d="M601.234 165.142L589.975 162.132L586.965 150.873L591.371 146.483L596.012 156.095L605.64 160.752L601.234 165.142Z" fill="#E0E0E0"/>
<path d="M601.923 157.616C602.41 157.129 602.797 156.55 603.06 155.914C603.324 155.278 603.46 154.596 603.46 153.907C603.46 153.219 603.324 152.537 603.06 151.9C602.797 151.264 602.41 150.686 601.923 150.199C601.437 149.712 600.858 149.326 600.222 149.062C599.586 148.799 598.904 148.663 598.215 148.663C597.526 148.663 596.845 148.799 596.208 149.062C595.572 149.326 594.994 149.712 594.507 150.199L600.105 141.794L607.6 145.589L609.246 153.429L601.923 157.616Z" fill="#E0E0E0"/>
<path d="M590.478 147.392L598.725 139.145L609.952 142.139L612.978 153.382L604.731 161.63L593.488 158.603L590.478 147.392ZM605.452 154.135C606.186 153.4 606.686 152.464 606.888 151.445C607.09 150.426 606.986 149.37 606.588 148.411C606.191 147.451 605.517 146.631 604.654 146.054C603.79 145.477 602.774 145.169 601.736 145.169C600.697 145.169 599.682 145.477 598.818 146.054C597.954 146.631 597.281 147.451 596.883 148.411C596.486 149.37 596.381 150.426 596.584 151.445C596.786 152.464 597.286 153.4 598.02 154.135C599.013 155.109 600.351 155.652 601.742 155.646C603.134 155.641 604.467 155.086 605.452 154.103V154.135Z" fill="#F0F0F0"/>
<path d="M141.465 465.242L147.502 463.611L149.117 457.574L146.765 455.222L144.272 460.381L139.098 462.874L141.465 465.242Z" fill="#E0E0E0"/>
<path d="M141.12 461.196C140.648 460.657 140.398 459.959 140.422 459.244C140.446 458.528 140.741 457.848 141.247 457.341C141.754 456.835 142.434 456.54 143.15 456.516C143.865 456.492 144.563 456.742 145.102 457.214L142.107 452.713L137.984 454.72L137.105 458.954L141.12 461.196Z" fill="#E0E0E0"/>
<path d="M147.236 455.692L142.814 451.271L136.777 452.839L135.209 458.875L139.552 463.344L145.589 461.776L147.236 455.692ZM139.207 459.314C138.917 459.06 138.681 458.748 138.516 458.399C138.351 458.05 138.259 457.671 138.246 457.284C138.233 456.898 138.3 456.514 138.442 456.154C138.583 455.795 138.798 455.468 139.071 455.195C139.344 454.922 139.67 454.708 140.03 454.566C140.389 454.424 140.774 454.357 141.16 454.37C141.546 454.383 141.926 454.475 142.275 454.64C142.624 454.806 142.936 455.041 143.19 455.332C143.662 455.871 143.911 456.569 143.887 457.284C143.864 458 143.569 458.68 143.062 459.187C142.556 459.693 141.876 459.988 141.16 460.012C140.444 460.035 139.746 459.786 139.207 459.314Z" fill="#F0F0F0"/>
<path d="M119.733 134.315L124.751 139.333C125.378 139.95 126.223 140.295 127.103 140.295C127.982 140.295 128.827 139.95 129.455 139.333C130.068 138.703 130.411 137.859 130.411 136.981C130.411 136.102 130.068 135.258 129.455 134.629L124.453 129.627C123.823 129.014 122.979 128.671 122.101 128.671C121.222 128.671 120.378 129.014 119.749 129.627C119.135 130.252 118.789 131.092 118.786 131.968C118.783 132.844 119.123 133.686 119.733 134.315Z" fill="#F0F0F0"/>
<path d="M116.204 121.849C117.513 121.485 118.9 121.511 120.195 121.925C121.49 122.338 122.636 123.12 123.492 124.176C124.348 125.231 124.877 126.513 125.015 127.865C125.153 129.217 124.893 130.58 124.266 131.786C123.64 132.992 122.676 133.99 121.491 134.655C120.306 135.321 118.953 135.626 117.597 135.533C116.241 135.44 114.942 134.954 113.859 134.133C112.776 133.312 111.956 132.193 111.5 130.912C111.211 130.008 111.103 129.056 111.183 128.111C111.263 127.165 111.529 126.244 111.966 125.402C112.404 124.56 113.003 123.812 113.73 123.202C114.458 122.593 115.298 122.133 116.204 121.849Z" fill="#E0E0E0"/>
<path d="M110.747 130.073L111.474 132.095L126.378 126.741L125.652 124.719L110.747 130.073Z" fill="#F0F0F0"/>
<path d="M392 670.414C559.905 670.414 696.02 662.467 696.02 652.664C696.02 642.861 559.905 634.915 392 634.915C224.095 634.915 87.9805 642.861 87.9805 652.664C87.9805 662.467 224.095 670.414 392 670.414Z" fill="#F5F5F5"/>
<path d="M233.118 56.5856C233.21 43.1839 236.978 32.8035 244.5 25.3712C252.023 17.9389 262.306 14.3181 275.707 14.41C289.109 14.5018 299.834 18.2287 307.178 25.6085C314.522 32.9882 318.231 43.4136 318.213 56.4979C318.459 64.6336 316.746 72.7092 313.221 80.0455C310.04 86.079 305.141 91.034 299.145 94.2844C292.087 97.8689 284.224 99.5726 276.316 99.2309C268.43 99.465 260.594 97.9124 253.393 94.6895C247.21 91.5623 242.104 86.6575 238.73 80.6054C234.729 73.251 232.79 64.9517 233.118 56.5856ZM258.442 56.8492C258.395 65.1173 259.894 71.0687 262.939 74.7033C264.549 76.4208 266.489 77.7952 268.643 78.7438C270.797 79.6923 273.12 80.1954 275.474 80.2229C277.828 80.2504 280.162 79.8017 282.338 78.9037C284.514 78.0058 286.485 76.6771 288.134 74.9976C291.15 71.4725 292.672 65.1016 292.742 55.9561C292.783 48.2345 291.255 42.5807 288.157 38.9948C286.593 37.2064 284.649 35.7914 282.466 34.854C280.283 33.9166 277.918 33.4807 275.545 33.5783C273.216 33.4742 270.895 33.8995 268.754 34.8222C266.614 35.7449 264.711 37.141 263.188 38.9055C260.06 42.648 258.508 48.3724 258.442 56.8492Z" fill="#374850"/>
<path d="M327.316 68.5814C327.211 64.4088 327.989 60.261 329.598 56.4098C331.207 52.5586 333.611 49.0907 336.654 46.2332C340.018 43.2282 343.943 40.9172 348.202 39.4328C352.462 37.9483 356.973 37.3197 361.476 37.5828C373.368 37.6664 382.328 41.1732 388.357 48.1032C393.354 54.2631 395.91 62.0461 395.538 69.9692C395.166 77.8922 391.892 85.4016 386.34 91.0664C380.231 96.8813 371.83 99.7451 361.136 99.6578C352.798 100.015 344.606 97.3857 338.033 92.2434C334.542 89.3942 331.757 85.7753 329.898 81.6701C328.038 77.565 327.155 73.0851 327.316 68.5814ZM350.156 68.6597C349.797 72.829 350.899 76.9934 353.275 80.4384C354.259 81.6232 355.489 82.5796 356.88 83.2412C358.271 83.9027 359.789 84.2535 361.329 84.2691C362.87 84.2848 364.395 83.965 365.799 83.3319C367.203 82.6989 368.452 81.7677 369.46 80.6031C371.878 77.0804 373.021 72.8378 372.7 68.5772C373.014 64.4971 371.912 60.4335 369.578 57.0718C368.648 55.8726 367.454 54.904 366.089 54.2414C364.723 53.5788 363.224 53.24 361.706 53.2514C360.136 53.2113 358.578 53.5293 357.149 54.1812C355.72 54.8331 354.458 55.8018 353.46 57.0139C351.031 60.3901 349.862 64.5109 350.156 68.6597Z" fill="#374850"/>
<path d="M406.287 121.21L406.827 39.1535L428.108 39.2627L428.062 48.0483C430.265 45.0557 433.039 42.5289 436.224 40.6135C439.636 38.863 443.428 37.9832 447.263 38.0525C450.851 37.9241 454.414 38.7021 457.623 40.3146C460.831 41.9271 463.581 44.3221 465.62 47.2784C470.076 53.9447 472.307 61.8508 471.993 69.8632C471.934 79.7418 469.503 87.2695 464.744 92.5177C462.478 95.0288 459.692 97.0169 456.58 98.3439C453.468 99.6708 450.104 100.305 446.723 100.202C443.44 100.212 440.186 99.5851 437.141 98.3561C434.235 97.1163 431.616 95.2912 429.447 92.9945L429.265 121.351L406.287 121.21ZM429.439 69.2206C429.126 72.9489 430.156 76.6663 432.344 79.7013C433.248 80.8028 434.39 81.6854 435.684 82.2833C436.978 82.8812 438.39 83.1788 439.815 83.154C441.123 83.1958 442.423 82.9299 443.61 82.3775C444.796 81.8251 445.837 81.0017 446.647 79.9736C448.719 76.649 449.635 72.7332 449.253 68.8344C449.573 65.0886 448.614 61.345 446.533 58.2143C445.736 57.1608 444.707 56.3046 443.526 55.7117C442.346 55.1188 441.045 54.8051 439.724 54.7948C438.331 54.7708 436.95 55.0618 435.686 55.6461C434.421 56.2304 433.305 57.0929 432.42 58.1691C430.175 61.3959 429.121 65.3025 429.439 69.2206Z" fill="#374850"/>
<path d="M478.793 82.5639L501.416 80.5824C502.058 82.8748 503.419 84.9004 505.299 86.361C507.412 87.5478 509.799 88.1615 512.222 88.1412C514.645 88.1209 517.021 87.4673 519.114 86.2453C519.712 85.8482 520.205 85.3112 520.548 84.6809C520.892 84.0506 521.077 83.346 521.087 82.6281C521.096 81.8063 520.859 81.0004 520.407 80.3142C519.955 79.628 519.307 79.0927 518.548 78.7773C515.371 77.6564 512.081 76.8866 508.737 76.4816C503.155 75.6665 497.652 74.379 492.287 72.6329C489.192 71.4183 486.509 69.3436 484.555 66.6537C482.471 63.7805 481.38 60.3066 481.447 56.7579C481.514 53.2091 482.735 49.7788 484.926 46.9862C487.393 44.0268 490.663 41.8429 494.342 40.6971C499.557 39.159 504.989 38.4866 510.422 38.7067C515.701 38.5209 520.978 39.0996 526.091 40.4249C529.271 41.3882 532.17 43.1109 534.535 45.4443C537.012 48.1169 538.906 51.2759 540.096 54.7202L518.336 56.66C517.932 54.9798 516.957 53.4923 515.576 52.4531C513.648 51.2076 511.388 50.5728 509.093 50.6318C507.119 50.451 505.14 50.9175 503.455 51.9608C502.913 52.3239 502.467 52.8143 502.157 53.3891C501.848 53.9639 501.684 54.6058 501.679 55.2587C501.676 55.9776 501.89 56.6807 502.295 57.2752C502.699 57.8697 503.274 58.3277 503.944 58.5889C507.082 59.7182 510.361 60.4135 513.687 60.6556C519.441 61.1511 525.105 62.3945 530.537 64.3544C533.934 65.6726 536.87 67.9576 538.983 70.9267C540.879 73.6719 541.88 76.936 541.849 80.2721C541.793 83.8441 540.694 87.3217 538.686 90.2768C536.261 93.7639 532.835 96.4329 528.86 97.9309C523.024 100.055 516.823 100.995 510.62 100.694C499.778 100.633 492.035 99.0347 487.392 95.8987C482.888 92.7528 479.8 87.9642 478.793 82.5639Z" fill="#374850"/>
<path d="M565.963 27.6865L589.655 33.23L585.402 51.4107L572.489 86.9545L557.829 83.5244L561.696 45.9249L565.963 27.6865ZM553.019 88.2125L575.124 93.3847L570.546 112.951L548.441 107.778L553.019 88.2125Z" fill="#374850"/>
<path d="M201.77 269.037H201.488C194.432 266.293 190.214 263.628 188.019 260.413C186.301 260.739 184.523 260.497 182.954 259.723C181.117 258.824 179.593 257.392 178.58 255.615C178.047 256.024 177.42 256.291 176.757 256.392C176.094 256.494 175.415 256.426 174.785 256.195C172.853 255.472 171.204 254.147 170.081 252.416C169.379 252.939 168.506 253.18 167.635 253.091C162.931 252.714 156.659 243.432 156.204 233.553C156.2 233.345 156.275 233.142 156.415 232.988C156.555 232.833 156.749 232.738 156.957 232.722C157.06 232.718 157.163 232.734 157.259 232.77C157.356 232.805 157.445 232.86 157.521 232.929C157.596 232.999 157.658 233.084 157.701 233.177C157.744 233.271 157.768 233.372 157.772 233.475C158.211 242.883 164.217 251.24 167.776 251.523C168.035 251.552 168.297 251.529 168.548 251.457C168.798 251.384 169.031 251.262 169.234 251.099C168.008 248.864 167.238 246.407 166.969 243.871C166.7 241.336 166.937 238.772 167.666 236.329C169.015 231.625 170.207 229.774 171.649 230.057C174.346 230.731 173.985 241.033 172.559 247.759C172.342 248.973 171.895 250.133 171.241 251.178C172.166 252.728 173.561 253.942 175.224 254.643C175.667 254.812 176.15 254.85 176.614 254.752C177.078 254.655 177.505 254.427 177.843 254.094C176.62 251.068 176.275 246.928 178.031 241.66C180.226 234.714 181.167 234.525 181.653 234.4C181.836 234.362 182.026 234.373 182.202 234.434C182.379 234.495 182.536 234.602 182.656 234.745C184.115 236.391 182.374 247.179 180.555 252.51C180.342 253.152 180.047 253.763 179.677 254.329C180.519 256.025 181.889 257.401 183.582 258.249C184.692 258.789 185.926 259.022 187.157 258.924C187.016 258.626 186.89 258.328 186.765 258.014C185.526 254.643 186.137 250.77 188.631 246.129C190.277 243.071 191.625 241.628 192.88 241.628C193.213 241.633 193.538 241.733 193.815 241.916C194.093 242.1 194.313 242.359 194.448 242.663C195.812 245.188 194.824 253.514 192.127 257.653C191.496 258.602 190.617 259.361 189.587 259.849C191.688 262.608 195.687 265.039 202.131 267.516C202.228 267.551 202.316 267.605 202.392 267.675C202.467 267.744 202.528 267.828 202.57 267.922C202.613 268.015 202.636 268.117 202.639 268.219C202.641 268.322 202.623 268.424 202.586 268.52C202.525 268.683 202.412 268.822 202.265 268.915C202.118 269.009 201.944 269.052 201.77 269.037ZM192.864 243.212C192.864 243.212 191.97 243.212 189.995 246.897C187.721 251.099 187.141 254.564 188.223 257.481C188.354 257.842 188.511 258.193 188.693 258.532C189.543 258.181 190.265 257.579 190.763 256.807C192.958 253.451 194.009 246.552 193.193 243.855C193.084 243.306 192.864 243.212 192.864 243.212ZM181.606 236.611C180.757 238.396 180.054 240.247 179.505 242.146C178.302 245.437 178.095 249.009 178.909 252.416L179.05 252.009C180.697 247.039 181.574 241.846 181.653 236.611H181.606ZM171.288 231.672C171.022 231.907 170.254 232.895 169.172 236.721C167.892 241.014 168.296 245.634 170.301 249.641C170.622 248.94 170.859 248.203 171.006 247.446C172.684 239.747 172.214 232.785 171.335 231.672H171.288Z" fill="#374850"/>
<path d="M261.386 351.232C258.879 351.256 256.411 350.612 254.236 349.366C254.057 349.258 253.927 349.084 253.875 348.882C253.822 348.68 253.85 348.465 253.954 348.284C254.006 348.195 254.074 348.118 254.156 348.057C254.238 347.995 254.332 347.951 254.431 347.926C254.53 347.901 254.634 347.897 254.735 347.912C254.836 347.928 254.933 347.964 255.02 348.017C260.618 351.294 267.846 349.005 269.336 346.606C269.444 346.456 269.52 346.285 269.56 346.105C269.601 345.924 269.604 345.737 269.571 345.555C266.709 345.72 263.874 344.913 261.527 343.266C257.529 340.773 257.215 340.02 257.247 339.425C257.254 339.253 257.308 339.087 257.402 338.944C257.495 338.801 257.626 338.685 257.78 338.609C259.348 337.825 266.42 341.071 269.367 343.015C269.721 343.25 270.047 343.523 270.34 343.831C271.498 343.568 272.542 342.942 273.319 342.043C273.756 341.529 274.072 340.924 274.244 340.271H273.93C271.421 340.522 268.913 339.44 266.231 336.963C264.381 335.269 263.676 334.093 263.911 333.168C263.982 332.908 264.126 332.674 264.326 332.494C264.526 332.313 264.774 332.193 265.04 332.149C267.204 331.6 272.566 333.89 274.746 336.289C275.232 336.81 275.577 337.447 275.749 338.139C277.803 337.182 279.967 335.003 282.523 331.443C282.582 331.359 282.658 331.286 282.745 331.231C282.833 331.176 282.93 331.138 283.032 331.121C283.135 331.103 283.239 331.106 283.34 331.129C283.441 331.152 283.536 331.195 283.62 331.255C283.788 331.378 283.902 331.561 283.937 331.766C283.972 331.971 283.926 332.181 283.809 332.353C280.845 336.492 278.368 338.844 275.89 339.801C275.762 340.96 275.286 342.053 274.526 342.937C273.623 343.987 272.436 344.754 271.108 345.148C271.182 345.522 271.182 345.907 271.107 346.282C271.031 346.656 270.882 347.011 270.669 347.327C269.352 349.57 265.557 351.232 261.386 351.232ZM259.991 340.35C260.524 340.742 261.276 341.259 262.358 341.918C264.044 343.055 265.982 343.765 268.003 343.987C265.479 342.474 262.791 341.254 259.991 340.35ZM265.463 333.686C265.914 334.534 266.539 335.277 267.298 335.865C269.618 338.013 271.735 339.001 273.773 338.75H274.275C274.164 338.263 273.926 337.814 273.585 337.449C271.39 334.971 266.561 333.435 265.463 333.686Z" fill="#374850"/>
<path d="M282.146 349.083L257.717 353.521L235.53 232.44L188.395 241.001L111.563 377.417L119.811 422.435L218.36 404.544L225.102 441.36L272.236 432.768L265.494 395.951L289.923 391.514L282.146 349.083ZM158.509 371.616L199.277 300.162L210.645 362.161L158.509 371.616Z" fill="#5264AE"/>
<path d="M478.915 224.224C478.173 216.612 476.487 209.122 473.897 201.927C471.233 195.034 467.531 188.589 462.921 182.813C457.464 176.093 450.686 170.565 443.008 166.568C434.645 161.979 423.554 158.786 409.735 156.988C381.04 153.246 358.681 158.336 342.656 172.26C326.631 186.184 316.073 212.84 310.982 252.228C308.949 266.949 308.424 281.838 309.414 296.665C310.459 310.255 312.958 321.194 316.909 329.484C321.937 340.662 329.869 350.289 339.88 357.363C349.78 364.314 363.369 368.908 380.648 371.145C411.36 375.149 434.133 369.248 448.966 353.443C463.799 337.637 473.625 310.929 478.444 273.318C480.587 257.032 480.745 240.547 478.915 224.224Z" fill="#5264AE"/>
<path d="M394.775 355.042C390.996 354.916 386.935 354.571 382.843 354.038C368.48 352.172 357.378 348.535 349.821 343.235C342.283 337.913 336.324 330.653 332.573 322.224L332.494 322.051C329.484 315.779 327.508 306.763 326.646 295.395C325.732 281.74 326.215 268.027 328.088 254.47C333.686 211.005 345.242 192.864 353.944 185.306C364.105 176.494 377.825 172.511 395.857 173.138C399.558 173.264 403.478 173.593 407.507 174.11C419.079 175.678 428.252 178.187 434.744 181.731C440.353 184.619 445.319 188.615 449.342 193.475C452.861 197.865 455.69 202.767 457.73 208.01C459.814 213.858 461.162 219.941 461.744 226.121C463.417 241.095 463.264 256.217 461.29 271.154C456.946 304.929 448.542 328.668 436.327 341.714C427.264 351.373 413.67 355.826 394.759 355.105L394.775 355.042Z" fill="#374850"/>
<path d="M425.461 224.679L425.665 218.736L422.011 217.544C421.856 215.534 421.531 213.541 421.039 211.586L424.175 209.297L422.074 203.715L418.248 204.028C417.348 202.234 416.299 200.519 415.112 198.901L417.088 195.592L413.011 191.249L409.593 193.005C408.063 191.69 406.427 190.505 404.701 189.461L405.249 185.667L399.824 183.205L397.347 186.122C395.428 185.5 393.461 185.038 391.467 184.742L390.542 181.026L384.583 180.822L383.407 184.46C381.398 184.62 379.405 184.945 377.449 185.432L375.144 182.296L369.562 184.381L369.875 188.207C368.082 189.108 366.367 190.157 364.748 191.343L361.455 189.352L357.096 193.413L358.852 196.847C357.534 198.375 356.353 200.018 355.324 201.755L351.53 201.174L349.052 206.6L351.984 209.077C351.348 210.997 350.886 212.97 350.605 214.973L346.873 215.914L346.669 221.841L350.322 223.032C350.475 225.048 350.801 227.046 351.295 229.006L348.159 231.28L350.26 236.862L354.086 236.549C354.976 238.348 356.026 240.063 357.222 241.676L355.23 244.984L359.307 249.328L362.725 247.587C364.255 248.897 365.891 250.077 367.617 251.115L367.053 254.91L372.478 257.372L374.971 254.471C376.895 255.089 378.867 255.545 380.867 255.835L381.792 259.567L387.735 259.771L388.911 256.117C390.926 255.964 392.925 255.639 394.885 255.145L397.159 258.281L402.741 256.196L402.443 252.385C404.23 251.473 405.944 250.425 407.57 249.249L410.863 251.225L415.222 247.164L413.481 243.73C414.795 242.207 415.97 240.569 416.994 238.838L420.788 239.402L423.266 233.977L420.349 231.5C420.973 229.583 421.43 227.615 421.713 225.62L425.461 224.679ZM385.32 243.918C380.676 243.748 376.186 242.207 372.417 239.488C368.649 236.768 365.77 232.994 364.144 228.64C362.519 224.286 362.22 219.548 363.285 215.025C364.349 210.501 366.73 206.394 370.127 203.223C373.524 200.051 377.784 197.957 382.37 197.204C386.956 196.452 391.662 197.075 395.895 198.994C400.127 200.914 403.696 204.044 406.15 207.991C408.605 211.937 409.836 216.522 409.687 221.166C409.588 224.262 408.878 227.308 407.598 230.129C406.319 232.95 404.495 235.491 402.231 237.605C399.966 239.719 397.307 241.365 394.405 242.448C391.503 243.532 388.416 244.031 385.32 243.918Z" fill="#5264AE"/>
<path opacity="0.3" d="M450.205 333.78L450.644 329.766L448.229 328.793C448.225 327.427 448.11 326.064 447.884 324.717L450.064 323.321L448.95 319.448H446.348C445.833 318.189 445.208 316.977 444.482 315.826L445.956 313.694L443.447 310.558L441.048 311.561C440.076 310.599 439.027 309.718 437.912 308.927L438.492 306.387L434.964 304.442L433.114 306.308C431.853 305.79 430.553 305.375 429.225 305.07L428.786 302.514L424.788 302.059L423.8 304.474C422.438 304.48 421.079 304.606 419.739 304.85L418.343 302.624L414.47 303.768V306.371C413.21 306.891 411.998 307.521 410.848 308.253L408.716 306.685L405.58 309.193L406.583 311.593C405.627 312.566 404.751 313.614 403.964 314.729L401.424 314.164L399.496 317.692L401.346 319.527C400.82 320.79 400.406 322.096 400.107 323.431L397.536 323.854L397.112 327.853L399.511 328.856C399.513 330.213 399.633 331.566 399.872 332.902L397.661 334.297L398.79 338.17H401.409C401.932 339.424 402.562 340.63 403.29 341.777L401.722 343.909L404.231 347.045L406.661 346.026C407.626 346.991 408.676 347.867 409.797 348.644L409.249 351.232L412.777 353.16L414.611 351.326C415.873 351.832 417.173 352.236 418.5 352.533L418.955 355.105L422.953 355.544L423.925 353.145C425.312 353.143 426.697 353.027 428.065 352.8L429.46 355.01L433.317 353.881V351.279C434.578 350.749 435.794 350.12 436.955 349.397L439.056 350.965L442.192 348.441L441.173 346.041C442.139 345.069 443.025 344.02 443.823 342.905L446.348 343.47L448.292 339.942L446.442 338.123C446.946 336.861 447.349 335.56 447.649 334.234L450.205 333.78ZM430.025 332.212C429.361 333.426 428.352 334.416 427.126 335.056C425.9 335.697 424.511 335.959 423.136 335.811C421.76 335.662 420.46 335.108 419.399 334.22C418.338 333.332 417.565 332.149 417.176 330.822C416.788 329.494 416.802 328.08 417.217 326.761C417.632 325.441 418.429 324.274 419.507 323.407C420.585 322.54 421.897 322.013 423.275 321.892C424.653 321.77 426.036 322.06 427.249 322.725C428.871 323.619 430.074 325.119 430.594 326.896C431.114 328.674 430.909 330.585 430.025 332.212Z" fill="#5264AE"/>
<path d="M472.423 266.011L467.719 262.781C467.256 261.102 466.626 259.473 465.837 257.92L467.029 253.216L460.255 245.956L455.551 246.834C454.059 245.946 452.484 245.205 450.847 244.623L447.946 239.731L438.021 239.402L434.791 244.106C433.11 244.562 431.48 245.192 429.93 245.987L425.226 244.78L417.966 251.57L418.844 256.274C417.943 257.759 417.202 259.336 416.634 260.978L411.757 263.878L411.412 273.804L416.116 277.034C416.572 278.725 417.203 280.365 417.998 281.926L416.806 286.63L423.58 293.89L428.284 293.027C429.777 293.915 431.352 294.655 432.988 295.238L435.873 300.115L445.814 300.46L449.028 295.756C450.724 295.296 452.368 294.665 453.936 293.874L458.64 295.066L465.9 288.292L465.038 283.588C465.929 282.097 466.669 280.522 467.249 278.884L472.125 275.983L472.423 266.011ZM441.486 281.095C439.279 281.019 437.145 280.291 435.352 279.002C433.559 277.713 432.189 275.921 431.414 273.853C430.64 271.785 430.496 269.534 431.001 267.384C431.506 265.235 432.637 263.283 434.251 261.776C435.866 260.269 437.89 259.275 440.07 258.919C442.249 258.563 444.485 258.862 446.495 259.776C448.504 260.691 450.198 262.182 451.36 264.059C452.523 265.936 453.103 268.116 453.027 270.323C452.921 273.28 451.646 276.075 449.483 278.094C447.32 280.113 444.444 281.192 441.486 281.095Z" fill="white"/>
<path d="M506.464 186.78L507.279 184.82C507.834 184.508 508.359 184.146 508.847 183.738H510.666L512.799 180.602L512.109 178.924C512.373 178.366 512.583 177.783 512.736 177.184L514.304 175.741L513.646 172.057L511.67 171.241C511.36 170.685 510.998 170.16 510.588 169.673V167.854L507.53 165.722L505.837 166.427C505.218 166.209 504.576 166.062 503.924 165.988L502.481 164.42L498.812 165.079L497.981 167.055C497.399 167.356 496.848 167.713 496.335 168.121H494.532L492.399 171.257L493.089 172.935C492.878 173.556 492.731 174.197 492.65 174.848L491.082 176.306L491.741 179.975L493.716 180.79C494.015 181.349 494.373 181.875 494.782 182.358V184.162L497.918 186.294L499.596 185.604C500.224 185.808 500.87 185.95 501.525 186.027L502.967 187.595L506.464 186.78ZM498.624 176.619C498.476 175.801 498.574 174.958 498.905 174.195C499.236 173.432 499.787 172.785 500.486 172.336C501.185 171.886 502.002 171.654 502.834 171.668C503.665 171.683 504.473 171.944 505.156 172.419C505.839 172.893 506.366 173.559 506.67 174.333C506.974 175.107 507.042 175.953 506.865 176.766C506.687 177.578 506.273 178.32 505.674 178.897C505.075 179.473 504.319 179.86 503.501 180.006C502.405 180.198 501.279 179.95 500.366 179.316C499.452 178.682 498.826 177.713 498.624 176.619Z" fill="#5264AE"/>
<path d="M463.517 176.384L462.31 175.365C464.897 172.156 468.094 169.491 471.718 167.525L472.455 168.905C469.009 170.781 465.971 173.323 463.517 176.384Z" fill="#5264AE"/>
<path d="M476.029 167.462L475.418 166.02C481.208 163.504 487.54 162.49 493.826 163.072L493.669 164.64C487.645 164.072 481.576 165.043 476.029 167.462Z" fill="#5264AE"/>
<path d="M473.066 178.313L471.78 177.435C475.558 172.333 481.056 168.774 487.256 167.415L487.554 168.983C481.76 170.248 476.616 173.561 473.066 178.313Z" fill="#5264AE"/>
<path d="M369.013 329.28C368.799 329.273 368.597 329.183 368.449 329.029L365.172 325.642C363.501 325.491 361.848 325.186 360.232 324.733L355.105 326.99C354.992 327.052 354.865 327.085 354.737 327.085C354.608 327.085 354.481 327.052 354.368 326.99L345.775 321.299C345.665 321.226 345.575 321.125 345.514 321.007C345.454 320.889 345.425 320.757 345.43 320.624V315.042C344.382 313.731 343.458 312.324 342.671 310.84L338.265 309.147C338.141 309.099 338.032 309.021 337.947 308.919C337.862 308.818 337.804 308.696 337.779 308.566L335.74 298.469C335.713 298.34 335.719 298.206 335.758 298.08C335.796 297.954 335.865 297.839 335.96 297.747L339.347 294.47C339.509 292.801 339.813 291.148 340.256 289.531L337.998 284.404C337.936 284.291 337.904 284.164 337.904 284.035C337.904 283.906 337.936 283.78 337.998 283.667L343.69 275.074C343.761 274.961 343.861 274.869 343.979 274.808C344.098 274.748 344.231 274.72 344.364 274.729L349.946 274.807C351.254 273.753 352.662 272.829 354.149 272.048L355.858 267.642C355.903 267.519 355.978 267.411 356.077 267.326C356.176 267.241 356.295 267.182 356.422 267.156L366.52 265.117C366.649 265.089 366.783 265.094 366.909 265.132C367.036 265.171 367.15 265.241 367.241 265.337L370.518 268.724C372.194 268.876 373.853 269.181 375.473 269.633L380.585 267.375C380.701 267.313 380.83 267.281 380.961 267.281C381.093 267.281 381.222 267.313 381.338 267.375L389.915 273.067C390.023 273.143 390.113 273.244 390.175 273.361C390.238 273.478 390.272 273.608 390.275 273.741L390.181 279.323C391.235 280.635 392.164 282.042 392.957 283.526L397.347 285.235C397.469 285.28 397.578 285.355 397.663 285.454C397.748 285.553 397.807 285.672 397.833 285.799L399.887 295.897C399.911 296.026 399.904 296.159 399.866 296.285C399.828 296.41 399.76 296.525 399.668 296.618L396.265 299.911C396.108 301.576 395.804 303.224 395.356 304.835L397.614 309.962C397.675 310.078 397.708 310.207 397.708 310.338C397.708 310.47 397.675 310.599 397.614 310.715L392 319.229C391.926 319.335 391.828 319.422 391.713 319.483C391.599 319.543 391.471 319.574 391.342 319.574L385.744 319.495C384.431 320.535 383.03 321.459 381.557 322.255L379.848 326.661C379.802 326.785 379.724 326.895 379.622 326.981C379.52 327.066 379.398 327.123 379.268 327.147L369.17 329.28H369.013ZM360.185 323.008C360.258 322.993 360.332 322.993 360.405 323.008C362.098 323.501 363.837 323.821 365.595 323.964C365.783 323.986 365.959 324.069 366.097 324.199L369.233 327.492L378.484 325.626L380.146 321.33C380.223 321.156 380.355 321.013 380.522 320.922C382.089 320.112 383.565 319.14 384.928 318.022C385.072 317.9 385.258 317.838 385.446 317.849L390.887 317.927L396.093 310.087L393.897 305.101C393.835 304.929 393.835 304.74 393.897 304.568C394.382 302.873 394.703 301.135 394.854 299.378C394.87 299.188 394.953 299.01 395.089 298.876L398.382 295.74L396.516 286.489L392.235 284.827C392.051 284.76 391.9 284.625 391.812 284.451C390.998 282.887 390.026 281.41 388.911 280.045C388.799 279.901 388.739 279.725 388.739 279.543V274.086L380.899 268.88L375.928 271.076C375.751 271.139 375.557 271.139 375.379 271.076C373.68 270.585 371.936 270.264 370.174 270.119C369.985 270.097 369.809 270.014 369.672 269.884L366.536 266.591L357.285 268.473L355.638 272.832C355.572 273.011 355.445 273.162 355.278 273.255C353.705 274.063 352.223 275.035 350.856 276.156C350.788 276.217 350.709 276.264 350.623 276.294C350.536 276.323 350.445 276.335 350.354 276.328L344.913 276.25L339.692 284.09L341.887 289.076C341.937 289.182 341.963 289.297 341.963 289.413C341.963 289.53 341.937 289.645 341.887 289.75C341.422 291.406 341.118 293.102 340.977 294.815C340.963 295.005 340.879 295.184 340.742 295.317L337.449 298.453L339.331 307.704L343.596 309.366C343.786 309.445 343.942 309.59 344.035 309.774C344.843 311.328 345.81 312.794 346.92 314.149C347.037 314.289 347.098 314.468 347.093 314.65V320.107L354.933 325.313L359.919 323.118C360 323.065 360.091 323.028 360.185 323.008ZM367.884 317.927C364.11 317.924 360.407 316.898 357.17 314.959C353.932 313.019 351.28 310.238 349.497 306.912C347.713 303.586 346.864 299.839 347.04 296.069C347.216 292.299 348.41 288.647 350.495 285.501C352.49 282.483 355.233 280.035 358.458 278.395C361.683 276.755 365.277 275.981 368.891 276.147C372.505 276.313 376.013 277.414 379.074 279.342C382.135 281.27 384.642 283.96 386.352 287.148C388.062 290.336 388.915 293.913 388.827 297.53C388.74 301.146 387.716 304.678 385.855 307.78C383.994 310.882 381.359 313.448 378.209 315.226C375.059 317.005 371.502 317.936 367.884 317.927ZM351.812 286.364C349.702 289.548 348.583 293.287 348.597 297.107C348.611 300.927 349.757 304.658 351.891 307.826C354.025 310.995 357.051 313.46 360.586 314.909C364.12 316.359 368.006 316.727 371.75 315.969C375.494 315.21 378.929 313.359 381.621 310.648C384.313 307.937 386.141 304.489 386.874 300.74C387.606 296.99 387.211 293.108 385.737 289.583C384.263 286.059 381.777 283.05 378.594 280.938C376.482 279.525 374.112 278.544 371.62 278.052C369.128 277.56 366.562 277.566 364.072 278.071C361.583 278.575 359.217 279.567 357.113 280.991C355.009 282.414 353.207 284.24 351.812 286.364Z" fill="white"/>
<path d="M667.702 363.227L643.084 359.903L659.36 237.897L611.881 231.5L496.712 337.528L490.659 382.89L589.898 396.281L584.943 433.395L632.422 439.793L637.377 402.694L661.995 406.018L667.702 363.227ZM543.171 346.418L603.947 291.021L595.605 353.49L543.171 346.418Z" fill="#5264AE"/>
<path d="M617.996 438.632H617.792C617.589 438.594 617.408 438.477 617.291 438.307C617.173 438.136 617.128 437.926 617.165 437.723L653.856 237.113C653.898 236.911 654.016 236.734 654.185 236.617C654.354 236.5 654.562 236.453 654.765 236.486C654.969 236.524 655.149 236.641 655.266 236.811C655.384 236.981 655.429 237.191 655.393 237.395L618.78 437.989C618.744 438.171 618.646 438.334 618.503 438.451C618.36 438.568 618.181 438.632 617.996 438.632Z" fill="#374850"/>
<path d="M650.453 240.484C650.441 240.825 650.293 241.147 650.043 241.379C649.793 241.612 649.461 241.735 649.12 241.723C648.779 241.71 648.457 241.563 648.225 241.313C647.993 241.063 647.869 240.731 647.882 240.39C647.894 240.049 648.042 239.727 648.292 239.495C648.542 239.262 648.874 239.139 649.215 239.151C649.556 239.164 649.878 239.311 650.11 239.561C650.342 239.811 650.466 240.143 650.453 240.484Z" fill="#374850"/>
<path d="M645.233 267.61C645.223 267.865 645.139 268.11 644.99 268.316C644.841 268.522 644.634 268.679 644.396 268.768C644.157 268.856 643.898 268.872 643.651 268.814C643.404 268.755 643.179 268.624 643.006 268.438C642.833 268.252 642.719 268.018 642.679 267.767C642.638 267.516 642.673 267.259 642.779 267.028C642.884 266.797 643.056 266.602 643.273 266.468C643.489 266.335 643.74 266.269 643.994 266.278C644.163 266.284 644.329 266.323 644.483 266.393C644.636 266.464 644.775 266.564 644.89 266.687C645.005 266.811 645.094 266.956 645.153 267.115C645.212 267.273 645.239 267.442 645.233 267.61Z" fill="#374850"/>
<path d="M640.011 294.784C640.005 294.953 639.966 295.119 639.895 295.272C639.825 295.426 639.725 295.564 639.601 295.68C639.478 295.795 639.332 295.884 639.174 295.943C639.015 296.002 638.847 296.029 638.678 296.023C638.51 296.019 638.344 295.981 638.191 295.913C638.037 295.844 637.899 295.746 637.783 295.623C637.668 295.5 637.578 295.356 637.519 295.199C637.46 295.041 637.433 294.874 637.439 294.705C637.443 294.535 637.481 294.368 637.551 294.212C637.62 294.057 637.72 293.916 637.844 293.8C637.968 293.683 638.113 293.592 638.273 293.532C638.432 293.472 638.602 293.445 638.772 293.451C639.112 293.467 639.432 293.616 639.663 293.865C639.895 294.114 640.019 294.444 640.011 294.784Z" fill="#374850"/>
<path d="M629.725 323.008C629.69 323.322 629.54 323.613 629.304 323.824C629.069 324.035 628.763 324.152 628.447 324.152C628.13 324.152 627.825 324.035 627.589 323.824C627.354 323.613 627.204 323.322 627.169 323.008C627.149 322.828 627.167 322.646 627.222 322.474C627.277 322.302 627.368 322.143 627.489 322.008C627.61 321.874 627.757 321.766 627.922 321.692C628.087 321.618 628.266 321.58 628.447 321.58C628.628 321.58 628.806 321.618 628.972 321.692C629.137 321.766 629.284 321.874 629.405 322.008C629.525 322.143 629.616 322.302 629.671 322.474C629.727 322.646 629.745 322.828 629.725 323.008Z" fill="#374850"/>
<path d="M629.552 348.99C629.548 349.159 629.51 349.326 629.441 349.481C629.371 349.636 629.271 349.775 629.147 349.89C629.023 350.006 628.877 350.095 628.717 350.153C628.558 350.211 628.389 350.237 628.219 350.228C627.965 350.219 627.72 350.134 627.514 349.985C627.308 349.836 627.151 349.63 627.062 349.391C626.973 349.153 626.957 348.894 627.016 348.646C627.075 348.399 627.206 348.175 627.392 348.002C627.578 347.829 627.811 347.715 628.062 347.674C628.313 347.634 628.571 347.668 628.802 347.774C629.033 347.88 629.228 348.052 629.361 348.268C629.495 348.484 629.561 348.736 629.552 348.99Z" fill="#374850"/>
<path d="M624.331 376.116C624.325 376.371 624.243 376.618 624.095 376.826C623.948 377.034 623.742 377.194 623.504 377.285C623.266 377.376 623.006 377.394 622.758 377.337C622.509 377.28 622.284 377.15 622.109 376.964C621.934 376.779 621.819 376.545 621.777 376.294C621.735 376.042 621.769 375.784 621.875 375.552C621.98 375.32 622.152 375.124 622.369 374.99C622.586 374.856 622.837 374.789 623.092 374.799C623.43 374.811 623.75 374.956 623.982 375.203C624.214 375.449 624.339 375.777 624.331 376.116Z" fill="#374850"/>
<path d="M619.109 403.243C619.097 403.585 618.95 403.909 618.701 404.144C618.451 404.378 618.119 404.505 617.777 404.497C617.608 404.491 617.442 404.452 617.288 404.381C617.134 404.311 616.996 404.211 616.881 404.087C616.766 403.964 616.676 403.818 616.618 403.66C616.559 403.501 616.532 403.333 616.538 403.164C616.543 402.995 616.581 402.829 616.651 402.675C616.72 402.521 616.819 402.382 616.942 402.266C617.065 402.151 617.21 402.06 617.368 402C617.526 401.941 617.694 401.912 617.863 401.918C618.032 401.923 618.198 401.961 618.352 402.03C618.506 402.1 618.645 402.199 618.761 402.322C618.876 402.445 618.967 402.59 619.027 402.748C619.086 402.905 619.115 403.074 619.109 403.243Z" fill="#374850"/>
<path d="M613.872 430.384C613.863 430.638 613.778 430.884 613.629 431.09C613.48 431.296 613.274 431.453 613.035 431.542C612.797 431.63 612.538 431.646 612.291 431.588C612.043 431.529 611.819 431.398 611.646 431.212C611.473 431.026 611.359 430.792 611.318 430.541C611.278 430.29 611.312 430.033 611.418 429.802C611.524 429.571 611.696 429.376 611.912 429.242C612.129 429.109 612.38 429.042 612.634 429.052C612.803 429.056 612.97 429.093 613.125 429.163C613.28 429.233 613.419 429.332 613.534 429.457C613.65 429.581 613.739 429.727 613.797 429.886C613.855 430.046 613.881 430.215 613.872 430.384Z" fill="#374850"/>
<path d="M628.439 323.713C628.263 323.714 628.091 323.653 627.954 323.541C627.817 323.43 627.723 323.275 627.687 323.102C627.664 323.001 627.661 322.897 627.678 322.794C627.696 322.692 627.733 322.595 627.789 322.507C627.844 322.42 627.916 322.344 628.001 322.285C628.086 322.225 628.182 322.183 628.283 322.161L632.171 321.33C632.273 321.307 632.379 321.305 632.482 321.323C632.585 321.342 632.683 321.381 632.77 321.438C632.858 321.495 632.934 321.569 632.992 321.655C633.051 321.742 633.092 321.839 633.112 321.942C633.133 322.043 633.133 322.147 633.114 322.248C633.094 322.349 633.055 322.445 632.998 322.531C632.941 322.617 632.868 322.691 632.783 322.748C632.697 322.806 632.601 322.846 632.501 322.867L628.612 323.698L628.439 323.713Z" fill="#374850"/>
<path d="M641.438 309.272C639.588 314.069 638.018 318.97 636.734 323.948C635.558 329.483 635.495 341.871 635.495 341.871" fill="#374850"/>
<path d="M635.495 342.655C635.287 342.647 635.09 342.56 634.944 342.411C634.798 342.262 634.715 342.064 634.711 341.855C634.711 341.354 634.805 329.311 635.981 323.792C637.257 318.77 638.828 313.827 640.685 308.99C640.716 308.887 640.769 308.791 640.839 308.709C640.909 308.627 640.995 308.56 641.092 308.513C641.189 308.466 641.294 308.439 641.402 308.435C641.51 308.43 641.618 308.448 641.718 308.487C641.819 308.526 641.91 308.585 641.987 308.661C642.063 308.737 642.124 308.828 642.163 308.928C642.203 309.028 642.222 309.136 642.219 309.243C642.215 309.351 642.19 309.457 642.143 309.555C640.295 314.315 638.725 319.179 637.439 324.121C636.295 329.515 636.216 341.746 636.201 341.871C636.201 342.066 636.13 342.254 635.999 342.399C635.869 342.544 635.689 342.636 635.495 342.655Z" fill="#374850"/>
<path d="M348.802 477.989C350.981 442.866 346.983 379.001 413.011 387.469C483.775 396.516 463.532 479.275 463.532 479.275L348.802 477.989Z" fill="#374850"/>
<path d="M394.368 456.884C410.284 456.884 423.188 443.981 423.188 428.064C423.188 412.147 410.284 399.244 394.368 399.244C378.451 399.244 365.548 412.147 365.548 428.064C365.548 443.981 378.451 456.884 394.368 456.884Z" fill="white"/>
<path d="M398.163 399.291C384.505 396.971 369.939 407.022 368.48 417.214L422.592 422.2C420.679 410.581 408.982 401.142 398.163 399.291Z" fill="#374850"/>
<path d="M416.43 427.343C416.038 434.885 411.93 440.796 407.257 440.545C402.584 440.295 399.103 434.007 399.417 426.433C399.731 418.86 403.917 412.98 408.59 413.231C413.263 413.482 416.806 419.816 416.43 427.343Z" fill="#374850"/>
<path d="M394.368 458.452C388.358 458.452 382.483 456.67 377.486 453.331C372.488 449.992 368.594 445.246 366.294 439.693C363.994 434.14 363.392 428.03 364.564 422.136C365.737 416.241 368.631 410.826 372.881 406.577C377.131 402.327 382.545 399.433 388.44 398.26C394.335 397.088 400.445 397.689 405.997 399.989C411.55 402.289 416.296 406.184 419.635 411.182C422.974 416.179 424.756 422.054 424.756 428.064C424.748 436.121 421.544 443.845 415.847 449.542C410.15 455.239 402.425 458.444 394.368 458.452ZM394.368 400.828C388.978 400.828 383.708 402.427 379.226 405.422C374.745 408.417 371.252 412.674 369.189 417.655C367.127 422.635 366.588 428.115 367.641 433.402C368.694 438.689 371.291 443.545 375.104 447.355C378.917 451.166 383.774 453.76 389.061 454.81C394.349 455.86 399.829 455.318 404.808 453.253C409.787 451.188 414.042 447.692 417.035 443.209C420.028 438.725 421.623 433.455 421.62 428.064C421.612 420.84 418.738 413.915 413.628 408.809C408.519 403.702 401.592 400.832 394.368 400.828Z" fill="#5264AE"/>
<path opacity="0.3" d="M455.488 477.111H455.3C455.199 477.089 455.104 477.047 455.02 476.987C454.936 476.928 454.865 476.852 454.81 476.764C454.756 476.676 454.72 476.578 454.705 476.476C454.689 476.374 454.694 476.27 454.72 476.171C454.72 475.967 459.769 454.705 454.579 433.207C454.529 432.999 454.564 432.78 454.675 432.598C454.787 432.416 454.967 432.285 455.175 432.235C455.383 432.185 455.602 432.22 455.784 432.332C455.967 432.443 456.097 432.623 456.147 432.831C461.431 454.783 456.335 476.327 456.288 476.531C456.242 476.705 456.137 476.857 455.991 476.963C455.845 477.069 455.668 477.121 455.488 477.111Z" fill="white"/>
<path opacity="0.3" d="M451.114 421.416C450.964 421.414 450.817 421.371 450.69 421.29C450.562 421.21 450.46 421.096 450.393 420.961C448.444 416.654 445.946 412.616 442.961 408.95C442.831 408.79 442.769 408.585 442.79 408.379C442.811 408.174 442.911 407.984 443.071 407.853C443.15 407.786 443.243 407.736 443.342 407.705C443.442 407.674 443.547 407.664 443.65 407.674C443.754 407.684 443.854 407.715 443.946 407.765C444.038 407.814 444.119 407.881 444.184 407.963C447.243 411.735 449.809 415.882 451.82 420.303C451.865 420.395 451.89 420.496 451.896 420.598C451.901 420.701 451.885 420.803 451.85 420.9C451.815 420.996 451.761 421.085 451.691 421.16C451.621 421.235 451.537 421.295 451.444 421.338C451.34 421.386 451.228 421.412 451.114 421.416Z" fill="white"/>
<path d="M201.849 642.755H201.269C199.19 642.697 197.219 641.815 195.79 640.303C194.361 638.792 193.59 636.774 193.649 634.695C193.707 632.616 194.589 630.645 196.1 629.216C197.612 627.787 199.629 627.017 201.708 627.075H201.849C206.381 627.075 217.278 621.571 240.077 585.632C240.682 584.678 241.487 583.866 242.435 583.251C243.384 582.637 244.454 582.234 245.572 582.072C246.691 581.91 247.831 581.991 248.915 582.311C249.999 582.63 251.001 583.18 251.853 583.923C269.757 599.315 289.284 612.711 310.088 623.876C311.051 624.314 311.915 624.942 312.629 625.723C313.343 626.503 313.891 627.42 314.241 628.418C314.591 629.417 314.735 630.475 314.665 631.53C314.595 632.586 314.313 633.616 313.834 634.559C313.356 635.503 312.691 636.339 311.881 637.019C311.071 637.699 310.131 638.208 309.119 638.515C308.107 638.822 307.043 638.921 305.992 638.806C304.94 638.691 303.923 638.365 303.001 637.847C283.665 627.572 265.388 615.419 248.435 601.563C229.321 630.336 215.146 642.755 201.849 642.755Z" fill="#374850"/>
<path d="M250.363 582.512H249.689C248.457 582.333 247.346 581.674 246.599 580.677C245.853 579.681 245.531 578.429 245.706 577.196C246.82 569.356 245.44 540.145 235.546 517.409C235.107 516.404 235.033 515.277 235.336 514.224C235.64 513.17 236.302 512.256 237.208 511.638C258.689 497.009 304.444 495.253 306.388 495.19C307.006 495.17 307.621 495.271 308.2 495.488C308.779 495.706 309.309 496.035 309.76 496.457C310.211 496.879 310.575 497.386 310.831 497.949C311.086 498.512 311.228 499.12 311.249 499.737C311.269 500.355 311.168 500.971 310.951 501.549C310.733 502.128 310.404 502.658 309.982 503.109C309.559 503.561 309.052 503.925 308.49 504.18C307.927 504.435 307.319 504.578 306.701 504.598C306.278 504.598 266.278 506.166 245.738 517.456C254.487 540.098 256.478 568.306 255.02 578.514C254.851 579.627 254.288 580.643 253.434 581.377C252.579 582.111 251.49 582.514 250.363 582.512Z" fill="#374850"/>
<path d="M258.266 576.428C255.13 569.043 241.018 569.874 232.754 576.209C228.333 579.58 222.343 589.756 221.778 593.457C221.59 594.336 221.618 595.248 221.86 596.114C222.102 596.98 222.551 597.774 223.168 598.428C223.785 599.082 224.552 599.576 225.403 599.868C226.253 600.161 227.162 600.242 228.05 600.105C233.46 599.635 240.877 591.779 240.877 591.779C235.937 596.624 242.319 600.042 251.853 593.033C257.058 589.129 261.762 584.692 258.266 576.428Z" fill="#5264AE"/>
<path d="M527.962 480.059C527.89 480.075 527.815 480.075 527.742 480.059C527.642 480.032 527.549 479.985 527.467 479.921C527.386 479.857 527.318 479.777 527.268 479.686C527.219 479.596 527.188 479.496 527.178 479.393C527.167 479.289 527.178 479.185 527.209 479.087C529.295 471.811 531.568 467.374 534.563 464.975C534.094 463.288 534.182 461.495 534.814 459.863C535.545 457.957 536.835 456.318 538.514 455.159C538.058 454.666 537.733 454.065 537.572 453.412C537.41 452.76 537.416 452.077 537.589 451.427C538.157 449.463 539.332 447.728 540.945 446.472C540.363 445.821 540.044 444.977 540.051 444.105C540.051 439.401 548.691 432.313 558.491 430.965C558.699 430.936 558.91 430.99 559.077 431.117C559.245 431.243 559.355 431.431 559.385 431.639C559.414 431.847 559.359 432.058 559.233 432.225C559.106 432.393 558.918 432.504 558.71 432.533C549.396 433.803 541.588 440.545 541.619 444.105C541.616 444.635 541.818 445.147 542.184 445.531C544.293 444.101 546.666 443.105 549.164 442.602C551.662 442.098 554.236 442.097 556.735 442.599C561.548 443.524 563.508 444.544 563.289 446.002C562.85 448.746 552.611 449.326 545.743 448.511C544.513 448.399 543.315 448.053 542.215 447.491C540.736 448.544 539.637 450.045 539.079 451.772C538.944 452.229 538.945 452.715 539.082 453.172C539.218 453.628 539.484 454.035 539.847 454.344C542.764 452.776 546.856 452.211 552.266 453.403C559.369 454.971 559.635 455.833 559.808 456.351C559.863 456.533 559.868 456.728 559.821 456.913C559.774 457.098 559.677 457.267 559.541 457.401C558.052 458.969 547.154 458.232 541.682 456.884C541.021 456.733 540.383 456.496 539.785 456.178C538.165 457.162 536.918 458.657 536.241 460.427C535.788 461.573 535.663 462.821 535.88 464.034C536.159 463.867 536.447 463.715 536.743 463.579C539.988 462.011 543.908 462.293 548.753 464.363C551.889 465.727 553.457 466.95 553.614 468.189C553.621 468.507 553.542 468.82 553.384 469.097C553.227 469.373 552.997 469.601 552.721 469.757C550.321 471.325 541.948 471.105 537.589 468.785C536.587 468.24 535.752 467.432 535.175 466.449C532.619 468.801 530.549 472.987 528.667 479.557C528.61 479.7 528.514 479.823 528.388 479.912C528.263 480.001 528.115 480.052 527.962 480.059ZM536.46 465.429C536.897 466.241 537.562 466.906 538.373 467.342C541.917 469.224 548.879 469.647 551.482 468.597C552.015 468.377 552.093 468.205 552.093 468.205C552.093 468.205 552.015 467.327 548.173 465.68C543.783 463.799 540.333 463.532 537.464 464.865C537.118 465.032 536.783 465.22 536.46 465.429ZM541.697 455.128L542.089 455.237C547.196 456.414 552.451 456.811 557.675 456.413C555.822 455.726 553.912 455.201 551.968 454.845C548.591 453.93 545.019 454.029 541.697 455.128ZM543.673 446.315C544.397 446.575 545.15 446.743 545.915 446.817C553.755 447.742 560.639 446.66 561.595 445.673C561.329 445.437 560.278 444.763 556.39 444.026C552.014 443.153 547.47 443.971 543.673 446.315Z" fill="#374850"/>
<path d="M323.839 640.136C324.874 639.807 324.529 638.803 323.369 638.803H302.138C261.715 634.522 233.475 640.261 251.272 641.61C269.069 642.958 250.018 642.676 237.019 647.6C224.02 652.523 333.686 653.762 343.643 647.6C352.8 641.923 309.508 644.73 323.839 640.136Z" fill="#374850"/>
<path d="M475.842 646.392L291.131 640.262L283.464 461.165L501.588 466.041L475.842 646.392Z" fill="#5264AE"/>
<path d="M348.802 642.959C348.605 642.959 348.414 642.885 348.269 642.752C348.124 642.618 348.034 642.434 348.018 642.237L333.216 462.356C333.203 462.149 333.271 461.945 333.406 461.787C333.54 461.629 333.731 461.53 333.938 461.51C334.144 461.5 334.346 461.57 334.503 461.703C334.66 461.837 334.761 462.026 334.784 462.231L349.665 642.112C349.673 642.215 349.661 642.319 349.63 642.417C349.598 642.515 349.547 642.607 349.48 642.685C349.413 642.764 349.331 642.829 349.239 642.876C349.147 642.922 349.047 642.951 348.943 642.959H348.802Z" fill="#374850"/>
<path d="M475.842 646.392L525.485 638.835L541.118 472.297L501.588 466.041L475.842 646.392Z" fill="#5264AE"/>
<path opacity="0.2" d="M475.842 646.392L525.485 638.835L541.118 472.297L501.588 466.041L475.842 646.392Z" fill="#EAEDEE"/>
<path d="M306.905 605.75L302.358 499.33C302.246 496.701 302.674 494.077 303.617 491.62C304.559 489.163 305.995 486.926 307.837 485.046C309.678 483.166 311.886 481.684 314.323 480.692C316.76 479.699 319.375 479.217 322.005 479.275L460.083 482.411C462.802 482.473 465.477 483.11 467.932 484.281C470.387 485.451 472.565 487.129 474.324 489.204C476.083 491.278 477.382 493.702 478.135 496.315C478.889 498.928 479.08 501.671 478.696 504.363L463.392 611.52C462.73 616.214 460.359 620.497 456.733 623.55C453.107 626.603 448.482 628.21 443.745 628.063L325.533 624.143C320.681 623.993 316.064 622.014 312.609 618.603C309.154 615.192 307.117 610.601 306.905 605.75Z" fill="#374850"/>
<path d="M321.832 511.937L343.188 512.611L343.016 518.114L329.641 517.691L329.515 521.799L341.918 522.191L341.746 527.46L329.343 527.052L329.186 532.148L342.937 532.587L342.749 538.42L321.001 537.73L321.832 511.937Z" fill="white"/>
<path d="M347.155 538.561L347.971 512.768L361.267 513.191C363.174 513.181 365.071 513.456 366.896 514.006C368.19 514.44 369.297 515.303 370.032 516.452C370.577 517.29 370.944 518.23 371.11 519.215C371.275 520.2 371.236 521.209 370.995 522.178C370.754 523.148 370.316 524.057 369.708 524.85C369.099 525.642 368.335 526.301 367.461 526.786C366.569 527.245 365.612 527.562 364.623 527.726C365.352 527.961 366.044 528.299 366.677 528.73C367.134 529.155 367.544 529.628 367.9 530.141C368.304 530.629 368.661 531.154 368.966 531.709L372.588 539.314L363.588 539.016L359.574 531.003C359.255 530.238 358.786 529.545 358.194 528.965C357.631 528.558 356.96 528.329 356.265 528.306H355.56L355.23 538.765L347.155 538.561ZM355.654 523.477L359.009 523.587C359.722 523.543 360.43 523.444 361.126 523.289C361.651 523.209 362.127 522.935 362.459 522.521C362.798 522.102 362.991 521.585 363.008 521.047C363.038 520.688 362.987 520.328 362.859 519.991C362.732 519.655 362.531 519.351 362.271 519.102C361.396 518.537 360.363 518.268 359.323 518.334L355.811 518.224L355.654 523.477Z" fill="white"/>
<path d="M375.191 539.392L376.007 513.599L389.288 514.022C391.194 514.011 393.092 514.286 394.917 514.837C396.213 515.266 397.321 516.13 398.053 517.283C398.849 518.54 399.222 520.018 399.119 521.501C399.124 522.753 398.789 523.982 398.152 525.059C397.514 526.135 396.597 527.019 395.497 527.617C394.604 528.073 393.647 528.39 392.659 528.557C393.384 528.791 394.07 529.129 394.697 529.561C395.166 529.973 395.582 530.442 395.936 530.956C396.337 531.447 396.694 531.971 397.002 532.524L400.624 540.114L391.624 539.831L387.61 531.819C387.289 531.055 386.82 530.362 386.23 529.78C385.67 529.357 384.988 529.126 384.286 529.122H383.596L383.251 539.596L375.191 539.392ZM383.674 524.308L387.045 524.402C387.758 524.375 388.467 524.281 389.162 524.12C389.684 524.042 390.155 523.767 390.479 523.352C390.831 522.941 391.025 522.418 391.028 521.878C391.062 521.52 391.015 521.16 390.89 520.823C390.765 520.486 390.566 520.182 390.307 519.933C389.432 519.354 388.389 519.084 387.343 519.165L383.847 519.055L383.674 524.308Z" fill="white"/>
<path d="M401.911 527.412C401.789 525.613 402.069 523.808 402.728 522.129C403.387 520.45 404.41 518.937 405.723 517.701C407.037 516.464 408.607 515.533 410.323 514.976C412.039 514.418 413.857 514.248 415.646 514.476C417.452 514.417 419.251 514.72 420.938 515.369C422.624 516.019 424.162 517 425.462 518.255C426.622 519.591 427.498 521.148 428.037 522.833C428.576 524.518 428.767 526.295 428.598 528.055C428.611 530.617 428.008 533.144 426.842 535.425C425.784 537.291 424.204 538.806 422.295 539.784C420.044 540.86 417.554 541.335 415.066 541.164C412.585 541.185 410.131 540.649 407.885 539.596C405.972 538.558 404.411 536.975 403.4 535.049C402.214 532.687 401.699 530.046 401.911 527.412ZM409.876 527.695C409.641 529.671 410.089 531.669 411.146 533.355C411.64 533.907 412.241 534.354 412.912 534.669C413.582 534.983 414.309 535.16 415.05 535.188C415.79 535.216 416.529 535.094 417.221 534.83C417.914 534.567 418.546 534.166 419.08 533.653C420.242 531.893 420.793 529.799 420.648 527.695C420.859 525.805 420.398 523.901 419.347 522.316C418.871 521.769 418.284 521.33 417.623 521.029C416.963 520.729 416.246 520.574 415.521 520.576C414.789 520.523 414.055 520.637 413.373 520.909C412.692 521.18 412.08 521.603 411.585 522.144C410.398 523.745 409.795 525.704 409.876 527.695Z" fill="white"/>
<path d="M432.627 541.289L433.442 515.48L446.723 515.903C448.629 515.9 450.526 516.175 452.352 516.719C453.643 517.159 454.748 518.02 455.488 519.165C456.28 520.423 456.653 521.899 456.555 523.383C456.562 524.637 456.229 525.869 455.591 526.949C454.953 528.029 454.034 528.915 452.933 529.514C452.036 529.957 451.08 530.269 450.094 530.439C450.82 530.677 451.507 531.021 452.133 531.458C452.602 531.87 453.018 532.339 453.372 532.853C453.775 533.341 454.132 533.866 454.438 534.421L458.06 542.026L449.06 541.744L445.045 533.716C444.726 532.956 444.257 532.268 443.666 531.693C443.103 531.272 442.424 531.037 441.721 531.019H441.031L440.686 541.493L432.627 541.289ZM441.11 526.189L444.481 526.299C445.194 526.272 445.903 526.178 446.598 526.017C447.117 525.933 447.587 525.659 447.915 525.249C448.285 524.812 448.481 524.253 448.464 523.681C448.498 523.326 448.45 522.967 448.325 522.633C448.2 522.299 448.001 521.998 447.742 521.752C446.868 521.173 445.825 520.902 444.779 520.984L441.282 520.874L441.11 526.189Z" fill="white"/>
<path d="M445.312 585.115C445.018 585.12 444.726 585.063 444.455 584.947C444.185 584.831 443.942 584.658 443.744 584.441L430.322 569.748L415.834 582.982C415.432 583.35 414.901 583.544 414.357 583.52C413.813 583.496 413.301 583.258 412.933 582.857L399.511 568.165L385.022 581.399C384.621 581.766 384.09 581.96 383.546 581.936C383.002 581.913 382.49 581.674 382.122 581.273L368.684 566.581L354.211 579.815C354 580.006 353.752 580.152 353.482 580.244C353.213 580.336 352.927 580.371 352.643 580.348C352.099 580.316 351.587 580.074 351.216 579.674L337.794 564.997L323.322 578.216C322.918 578.584 322.384 578.778 321.838 578.755C321.291 578.731 320.776 578.492 320.405 578.09C320.222 577.891 320.08 577.658 319.988 577.404C319.896 577.15 319.855 576.88 319.869 576.61C319.882 576.34 319.948 576.076 320.065 575.832C320.181 575.588 320.345 575.369 320.546 575.189L336.54 560.56C336.944 560.191 337.478 559.997 338.024 560.021C338.571 560.044 339.086 560.283 339.456 560.685L352.878 575.378L367.351 562.144C367.762 561.783 368.294 561.592 368.841 561.611C369.386 561.64 369.899 561.882 370.268 562.285L383.69 576.977L398.178 563.743C398.376 563.559 398.608 563.416 398.862 563.323C399.115 563.229 399.385 563.187 399.655 563.199C399.925 563.21 400.189 563.276 400.434 563.391C400.678 563.506 400.898 563.668 401.079 563.868L414.501 578.561L428.989 565.327C429.391 564.959 429.922 564.766 430.466 564.789C431.009 564.813 431.522 565.051 431.89 565.452L446.88 581.728C447.148 582.027 447.323 582.398 447.384 582.795C447.444 583.193 447.388 583.599 447.222 583.964C447.056 584.33 446.786 584.64 446.447 584.855C446.108 585.07 445.714 585.183 445.312 585.178V585.115Z" fill="white"/>
<path d="M197.176 650.203L187.361 645.514L178.611 602.912L183.362 597.69L197.176 650.203Z" fill="#5264AE"/>
<path d="M197.176 650.203L210.206 642.582L199.042 607.49L183.362 597.69L197.176 650.203Z" fill="#5264AE"/>
<path opacity="0.2" d="M197.176 650.203L210.206 642.582L199.042 607.49L183.362 597.69L197.176 650.203Z" fill="#EAEDEE"/>
<path d="M410.817 657.948H409.735C407.655 657.892 405.684 657.012 404.253 655.502C402.822 653.992 402.05 651.976 402.106 649.897C402.163 647.817 403.042 645.846 404.552 644.415C406.062 642.984 408.079 642.212 410.158 642.268C422.232 642.66 447.79 635.244 462.404 621.069C463.286 620.203 464.361 619.559 465.54 619.187C490.299 611.755 499.503 626.761 499.879 627.404L486.394 635.385C486.442 635.485 486.499 635.579 486.567 635.667C486.426 635.463 482.913 630.963 471.749 633.723C453.419 650.438 425.289 657.948 410.817 657.948Z" fill="#374850"/>
<path d="M409.86 668.36L381.307 666.572L379.064 613.919L417.433 615.346L409.86 668.36Z" fill="#5264AE"/>
<path d="M409.86 668.36L416.54 661.712L420.68 628.894L417.434 615.346L409.86 668.36Z" fill="#5264AE"/>
<path opacity="0.2" d="M409.86 668.36L416.54 661.712L420.68 628.894L417.434 615.346L409.86 668.36Z" fill="#EAEDEE"/>
<path d="M575.316 648.431C574.291 648.43 573.294 648.094 572.478 647.474C556.17 635.087 534.14 613.088 525.689 591.873C525.562 591.566 525.472 591.245 525.422 590.916C521.298 566.393 517.362 514.79 517.19 512.611C517.144 511.993 517.219 511.372 517.413 510.784C517.607 510.195 517.914 509.651 518.318 509.181C519.134 508.233 520.294 507.647 521.541 507.554C522.789 507.46 524.022 507.866 524.971 508.682C525.919 509.498 526.504 510.657 526.598 511.905C526.598 512.422 530.628 564.527 534.642 588.847C543.078 609.482 566.002 630.665 578.201 639.979C578.986 640.575 579.565 641.403 579.854 642.345C580.144 643.288 580.13 644.297 579.814 645.232C579.499 646.166 578.898 646.977 578.096 647.551C577.295 648.125 576.333 648.433 575.347 648.431H575.316Z" fill="#374850"/>
<path d="M597.063 650.799C593.425 650.799 589.302 649.152 584.801 645.906C583.791 645.175 583.113 644.071 582.915 642.839C582.718 641.607 583.019 640.347 583.751 639.337C584.483 638.326 585.586 637.648 586.818 637.451C588.05 637.254 589.31 637.554 590.321 638.286C594.209 641.093 596.326 641.422 597.063 641.422C598.311 641.422 599.507 641.918 600.389 642.8C601.272 643.682 601.767 644.878 601.767 646.126C601.767 647.374 601.272 648.57 600.389 649.452C599.507 650.334 598.311 650.83 597.063 650.83V650.799Z" fill="#374850"/>
<path d="M586.119 645.765C591.152 630.822 611.787 633.77 618.906 635.996C624.986 637.761 630.819 640.29 636.263 643.523C640.105 646.032 640.168 650.25 635.04 652.649C628.768 655.596 612.837 652.978 612.837 652.978C621.054 656.569 612.837 662.386 598.396 656.678C593.708 654.828 584.347 651.253 586.119 645.765Z" fill="#5264AE"/>
<path d="M536.037 519.008C534.171 531.709 523.65 541.07 515.088 539.815C506.527 538.561 506.182 527.271 508.048 514.508C509.914 501.744 513.301 492.556 521.862 493.81C530.424 495.065 537.903 506.354 536.037 519.008Z" fill="#374850"/>
<path d="M329.092 468.362C329.803 468.362 330.378 467.786 330.378 467.076C330.378 466.366 329.803 465.79 329.092 465.79C328.382 465.79 327.807 466.366 327.807 467.076C327.807 467.786 328.382 468.362 329.092 468.362Z" fill="#374850"/>
<path d="M342.154 476.327C342.154 476.582 342.078 476.83 341.937 477.042C341.796 477.253 341.595 477.418 341.36 477.515C341.125 477.612 340.866 477.638 340.617 477.588C340.368 477.539 340.138 477.416 339.959 477.236C339.779 477.057 339.656 476.828 339.607 476.578C339.557 476.329 339.583 476.07 339.68 475.835C339.777 475.6 339.942 475.4 340.153 475.258C340.365 475.117 340.613 475.042 340.868 475.042C341.209 475.042 341.536 475.177 341.777 475.418C342.018 475.659 342.154 475.986 342.154 476.327Z" fill="#374850"/>
<path d="M343.596 628.266C343.596 628.521 343.521 628.769 343.379 628.981C343.238 629.192 343.037 629.357 342.802 629.454C342.567 629.551 342.309 629.577 342.059 629.527C341.81 629.478 341.581 629.355 341.401 629.175C341.221 628.996 341.099 628.766 341.049 628.517C341 628.268 341.025 628.009 341.122 627.774C341.22 627.539 341.384 627.338 341.596 627.197C341.807 627.056 342.056 626.98 342.31 626.98C342.651 626.98 342.978 627.116 343.219 627.357C343.46 627.598 343.596 627.925 343.596 628.266Z" fill="#374850"/>
<path d="M355.372 637.533C355.372 637.788 355.297 638.036 355.156 638.248C355.014 638.459 354.814 638.624 354.579 638.721C354.344 638.819 354.085 638.844 353.836 638.794C353.586 638.745 353.357 638.622 353.177 638.443C352.998 638.263 352.875 638.034 352.825 637.784C352.776 637.535 352.801 637.276 352.899 637.041C352.996 636.806 353.161 636.606 353.372 636.464C353.584 636.323 353.832 636.248 354.087 636.248C354.428 636.248 354.755 636.383 354.996 636.624C355.237 636.865 355.372 637.192 355.372 637.533Z" fill="#374850"/>
<path d="M129.376 652.946C127.118 652.841 124.913 652.23 122.924 651.158C120.935 650.085 119.212 648.58 117.882 646.753C117.817 646.669 117.77 646.572 117.743 646.469C117.716 646.366 117.711 646.259 117.727 646.154C117.743 646.049 117.78 645.948 117.837 645.858C117.893 645.767 117.967 645.689 118.054 645.629C118.142 645.568 118.24 645.526 118.345 645.504C118.449 645.483 118.556 645.483 118.661 645.505C118.765 645.526 118.863 645.569 118.951 645.63C119.038 645.691 119.112 645.769 119.168 645.859C122.1 650.093 128.576 652.335 131.398 651.002C131.681 650.882 131.933 650.7 132.135 650.469C130.709 649.841 129.46 648.872 128.497 647.647C127.534 646.422 126.888 644.978 126.616 643.444C126.255 641.453 125.973 638.74 127.604 638.395C129.862 637.894 132.81 643.335 133.876 647.458C134.069 648.141 134.138 648.853 134.08 649.56C134.984 649.829 135.935 649.904 136.871 649.779C137.292 649.747 137.702 649.627 138.075 649.427C138.447 649.227 138.774 648.952 139.034 648.619C138.003 647.84 137.147 646.852 136.522 645.72C135.898 644.588 135.52 643.337 135.412 642.049C134.817 637.752 135.271 637.015 135.742 636.639C135.894 636.522 136.076 636.45 136.267 636.431C136.458 636.411 136.651 636.446 136.824 636.529C138.501 637.235 140.524 643.319 140.916 646.768C140.963 647.128 140.963 647.491 140.916 647.85C141.592 648.11 142.309 648.248 143.033 648.258C144.362 648.31 145.678 647.966 146.812 647.27C146.592 647.129 146.388 646.972 146.185 646.816C144.617 645.42 143.895 643.193 144.178 640.026C144.397 637.564 144.946 636.216 145.934 635.792C146.252 635.665 146.601 635.632 146.938 635.699C147.275 635.766 147.585 635.929 147.831 636.169C148.889 637.338 149.68 638.723 150.149 640.229C150.617 641.734 150.752 643.324 150.544 644.887C150.407 645.538 150.135 646.152 149.744 646.69C152.629 647.192 156.674 646.376 160.171 645.514C160.274 645.489 160.381 645.485 160.485 645.502C160.59 645.518 160.69 645.555 160.781 645.611C160.871 645.666 160.949 645.739 161.012 645.824C161.074 645.91 161.119 646.007 161.143 646.11C161.168 646.213 161.172 646.32 161.156 646.424C161.139 646.529 161.102 646.629 161.047 646.719C160.991 646.81 160.919 646.888 160.833 646.95C160.747 647.013 160.65 647.057 160.547 647.082C156.298 648.133 151.72 648.995 148.49 648.054C146.913 649.253 144.982 649.893 143.002 649.873C142.123 649.862 141.252 649.697 140.43 649.387C140.065 649.951 139.576 650.424 138.999 650.769C138.423 651.115 137.775 651.323 137.106 651.378C135.927 651.53 134.73 651.428 133.594 651.08C133.228 651.697 132.68 652.184 132.026 652.476C131.184 652.815 130.282 652.976 129.376 652.946ZM128.027 639.963C127.81 641.029 127.853 642.132 128.153 643.178C128.374 644.432 128.894 645.614 129.669 646.623C130.444 647.633 131.452 648.442 132.606 648.979C132.584 648.608 132.521 648.24 132.418 647.882C131.194 643.397 128.842 640.308 128.027 639.963ZM136.761 638.599C136.771 639.681 136.86 640.76 137.027 641.829C137.2 643.741 138.045 645.53 139.411 646.878C139.025 643.983 138.128 641.18 136.761 638.599ZM146.624 637.235C146.624 637.235 146.028 637.533 145.808 640.152C145.589 642.77 146.043 644.573 147.266 645.624C147.556 645.858 147.872 646.058 148.207 646.22C148.62 645.778 148.911 645.238 149.054 644.652C149.333 642.184 148.667 639.701 147.188 637.705C146.859 637.298 146.671 637.235 146.624 637.235Z" fill="#374850"/>
<path d="M358.868 664.8L363.118 657.431L358.868 650.061H354.321L356.893 657.431L354.321 664.8H358.868Z" fill="#374850"/>
<path d="M354.619 661.273C354.095 661.306 353.57 661.232 353.075 661.054C352.581 660.877 352.128 660.6 351.745 660.241C351.362 659.881 351.057 659.447 350.848 658.966C350.64 658.484 350.532 657.964 350.532 657.439C350.532 656.914 350.64 656.394 350.848 655.912C351.057 655.43 351.362 654.996 351.745 654.637C352.128 654.278 352.581 654.001 353.075 653.823C353.57 653.646 354.095 653.572 354.619 653.605L347.406 652.163L345.478 657.996L348.708 662.919L354.619 661.273Z" fill="#374850"/>
<path d="M355.246 650.061H346.732L342.482 657.431L346.732 664.8H355.246L359.495 657.431L355.246 650.061ZM350.997 661.272C350.236 661.275 349.492 661.053 348.858 660.632C348.224 660.212 347.729 659.613 347.436 658.912C347.143 658.21 347.065 657.437 347.211 656.691C347.358 655.945 347.722 655.259 348.259 654.72C348.796 654.181 349.48 653.814 350.226 653.664C350.971 653.515 351.745 653.59 352.447 653.88C353.15 654.17 353.751 654.663 354.174 655.295C354.597 655.927 354.823 656.67 354.823 657.431C354.823 658.447 354.42 659.422 353.703 660.142C352.986 660.862 352.013 661.268 350.997 661.272Z" fill="#5264AE"/>
<path d="M655.251 649.559L652.1 644.087L655.251 638.615H658.622L656.725 644.087L658.622 649.559H655.251Z" fill="#5264AE"/>
<path d="M658.403 646.941C658.795 646.97 659.188 646.918 659.559 646.788C659.929 646.658 660.269 646.453 660.556 646.186C660.844 645.919 661.074 645.595 661.231 645.236C661.387 644.876 661.468 644.487 661.468 644.095C661.468 643.702 661.387 643.314 661.231 642.954C661.074 642.594 660.844 642.271 660.556 642.003C660.269 641.736 659.929 641.531 659.559 641.402C659.188 641.272 658.795 641.22 658.403 641.249L663.766 640.183L665.193 644.51L662.809 648.164L658.403 646.941Z" fill="#5264AE"/>
<path d="M657.948 638.615H664.22L667.356 644.087L664.22 649.559H657.948L654.812 644.087L657.948 638.615ZM661.084 646.941C661.65 646.944 662.203 646.779 662.674 646.468C663.146 646.156 663.514 645.711 663.732 645.19C663.951 644.669 664.009 644.095 663.901 643.54C663.793 642.985 663.522 642.475 663.124 642.075C662.725 641.674 662.217 641.401 661.663 641.289C661.109 641.178 660.534 641.234 660.012 641.449C659.489 641.665 659.043 642.03 658.728 642.5C658.414 642.97 658.246 643.522 658.246 644.087C658.244 644.462 658.317 644.834 658.459 645.182C658.602 645.529 658.812 645.844 659.078 646.11C659.343 646.375 659.658 646.585 660.006 646.728C660.353 646.871 660.725 646.943 661.1 646.941H661.084Z" fill="#374850"/>
<path d="M537.824 656.835H544.912C545.799 656.831 546.648 656.476 547.274 655.847C547.9 655.218 548.251 654.367 548.251 653.48C548.251 652.592 547.9 651.741 547.274 651.112C546.648 650.484 545.799 650.128 544.912 650.124H537.824C536.934 650.124 536.081 650.478 535.452 651.107C534.822 651.736 534.469 652.59 534.469 653.48C534.469 654.37 534.822 655.223 535.452 655.852C536.081 656.482 536.934 656.835 537.824 656.835Z" fill="#374850"/>
<path d="M526.424 650.5C527.082 649.304 528.075 648.327 529.282 647.688C530.489 647.05 531.856 646.779 533.215 646.908C534.574 647.037 535.865 647.561 536.93 648.416C537.994 649.27 538.785 650.418 539.206 651.717C539.626 653.015 539.657 654.409 539.295 655.725C538.933 657.041 538.193 658.223 537.168 659.124C536.142 660.024 534.876 660.606 533.524 660.795C532.172 660.985 530.794 660.775 529.56 660.191C527.864 659.316 526.583 657.807 525.996 655.992C525.408 654.176 525.562 652.202 526.424 650.5Z" fill="#5264AE"/>
<path d="M528.337 660.188L530.28 661.104L537.033 646.78L535.09 645.864L528.337 660.188Z" fill="#374850"/>
</g>
<defs>
<clipPath id="clip0_1_132">
<rect width="784" height="784" fill="white"/>
</clipPath>
</defs>
</svg>
