<svg width="16" height="16" viewBox="0 0 16 16" fill="none" xmlns="http://www.w3.org/2000/svg">
<path d="M8.00069 0C5.50153 0 3.46974 2.03092 3.46974 4.52963C3.46974 6.22295 4.57317 8.10848 5.65241 9.60197C6.73165 11.0954 7.81008 12.1905 7.81008 12.1905C7.91451 12.2963 8.08532 12.2963 8.18974 12.1905C8.18974 12.1905 9.26974 11.0954 10.349 9.60197C11.4282 8.10848 12.5322 6.22295 12.5322 4.52963C12.5322 2.03092 10.4999 0 8.00069 0ZM8.00069 1.60258C9.61746 1.60258 10.9338 2.9185 10.9338 4.53536C10.9338 6.15222 9.61746 7.46865 8.00069 7.46865C6.38392 7.46865 5.06808 6.15221 5.06808 4.53536C5.06808 2.9185 6.38392 1.60258 8.00069 1.60258ZM8.00069 2.13591C6.67214 2.13591 5.60137 3.20673 5.60137 4.53536C5.60137 5.86398 6.67214 6.93533 8.00069 6.93533C9.32925 6.93533 10.4 5.86398 10.4 4.53536C10.4 3.20673 9.32925 2.13591 8.00069 2.13591ZM7.99707 2.93537C8.05094 2.93463 8.10378 2.95023 8.14862 2.98012L9.74852 4.0473C10.0828 4.23519 9.75597 4.72595 9.45374 4.48999L9.33344 4.40977V5.60246C9.33285 5.74892 9.21428 5.8675 9.06783 5.86809H6.93412C6.78767 5.8675 6.66909 5.74892 6.66851 5.60246V4.40977L6.54821 4.48999C6.24668 4.72214 5.92277 4.23654 6.25291 4.0473L7.85333 2.98012C7.89595 2.95171 7.94585 2.93617 7.99707 2.93537ZM8.00069 3.52183L7.20179 4.05411V5.33482H8.80012V4.05463L8.00069 3.52183ZM5.22014 9.91446C4.97215 9.5713 4.72162 9.20502 4.48008 8.82541L3.85877 9.08634C3.80498 9.10868 3.75998 9.14801 3.73065 9.19833L0.0361163 15.5998C-0.0889124 15.8191 0.132462 16.0733 0.366824 15.9795L4.26396 14.4207L7.89549 15.9779C7.96221 16.0063 8.03761 16.0063 8.10433 15.9779L11.7353 14.4207L15.632 15.9795C15.8637 16.0736 16.0858 15.8256 15.9668 15.6055L12.5009 9.20614C12.4703 9.14897 12.42 9.10491 12.3593 9.08218L11.5515 8.77958C11.3009 9.17606 11.0394 9.55726 10.7812 9.91446C9.67556 11.4445 8.56941 12.5649 8.56941 12.5649C8.26077 12.8778 7.73905 12.8778 7.43015 12.5649C7.43015 12.5649 6.32568 11.4443 5.22014 9.91446Z" fill="#5264AE"/>
</svg>
