<svg width="131" height="58" viewBox="0 0 131 58" fill="none" xmlns="http://www.w3.org/2000/svg">
<path d="M105.308 48.635C105.308 48.635 91.8035 42.1477 74.3545 45.7096C74.3545 45.7096 94.3119 44.3457 106.148 57.013C106.148 57.013 114.423 44.3206 128.106 41.4108C128.103 41.414 117.91 40.1974 105.308 48.635Z" fill="#9FC1F4"/>
<path d="M67.2492 42.5197C67.2492 42.5197 56.8331 37.4402 43.3223 40.1179C43.3223 40.1179 58.7646 39.1553 67.8606 49.0039C67.8606 49.0039 74.3197 39.2243 84.9114 37.0357C84.9114 37.0389 77.0319 36.0512 67.2492 42.5197Z" fill="#9FC1F4"/>
<path d="M33.6542 37.8898C33.6542 37.8898 23.9843 33.6694 11.7998 36.6262C11.7998 36.6262 25.8092 35.1556 34.46 43.7625C34.46 43.7625 39.9565 34.6194 49.5104 32.2208C49.5072 32.2239 42.305 31.6313 33.6542 37.8898Z" fill="#9FC1F4"/>
<path d="M14.8184 28.1749C14.8184 28.1749 8.03313 25.9393 0 28.7017C0 28.7017 9.35317 26.8267 15.7308 32.0849C15.7308 32.0849 18.86 25.5725 25.1498 23.3525C25.1529 23.3525 20.2553 23.4058 14.8184 28.1749Z" fill="#9FC1F4"/>
<path d="M82.2435 4.28C82.2435 4.28 75.5838 1.69323 67.4189 4.03231C67.4189 4.03231 76.8567 2.64641 82.9521 8.23072C82.9521 8.23072 86.4169 1.89076 92.8164 5.94705e-05C92.8133 0.00633045 87.9219 -0.194343 82.2435 4.28Z" fill="#9FC1F4"/>
<path d="M115.072 27.2943C115.072 27.2943 105.778 22.6067 93.6094 24.8517C93.6094 24.8517 107.49 24.1713 115.542 33.1263C115.542 33.1263 121.459 24.419 131 22.5816C131.003 22.5816 123.936 21.6033 115.072 27.2943Z" fill="#9FC1F4"/>
<path d="M102.117 12.7516C102.117 12.7516 93.3655 8.74449 82.2031 11.2435C82.2031 11.2435 95.0054 10.1304 102.756 18.1227C102.756 18.1227 107.92 9.87327 116.672 7.84147C116.668 7.84147 110.106 7.18302 102.117 12.7516Z" fill="#9FC1F4"/>
</svg>
