<svg width="66" height="60" viewBox="0 0 66 60" fill="none" xmlns="http://www.w3.org/2000/svg">
<path d="M7.33806 21.293C7.05029 20.7175 6.61864 20.4297 5.89923 20.4297H2.15825C1.00718 20.4297 0 21.4369 0 22.5879V23.3074C0 24.6023 1.15107 25.7534 2.44602 25.7534H6.04311C6.47476 24.3145 6.90641 22.8757 7.33806 21.293Z" fill="#5264AE"/>
<path d="M63.74 20.4297H59.9991C59.4235 20.4297 58.848 20.7175 58.7041 21.293C59.1358 22.8757 59.4235 24.4584 59.8552 25.8973H63.4523C64.7472 25.8973 65.8983 24.7462 65.8983 23.4512V22.7318C65.8983 21.293 64.8911 20.4297 63.74 20.4297Z" fill="#5264AE"/>
<path d="M39.8558 2.5899L39.568 1.29495C39.4241 0.575534 38.7047 0 37.9853 0H27.7696C27.0502 0 26.3307 0.575534 26.1869 1.29495L26.043 2.5899C31.5105 2.30214 31.2228 2.15825 39.8558 2.5899Z" fill="#5264AE"/>
<path d="M6.7627 49.4961V59.1363C6.7627 60.2874 13.3813 60.2874 13.3813 59.1363V55.5392C14.9641 55.5392 16.6907 55.3953 16.6907 54.8198V53.9565C15.3957 53.9565 14.3885 53.6687 13.3813 53.5248C9.92813 52.8054 8.63318 52.3738 6.7627 49.4961Z" fill="#5264AE"/>
<path d="M14.1 29.9297C13.0928 29.9297 12.2295 30.793 12.2295 31.8002C12.2295 32.8074 13.0928 33.6707 14.1 33.6707C15.1072 33.6707 15.9705 32.8074 15.9705 31.8002C15.9705 30.793 15.1072 29.9297 14.1 29.9297Z" fill="#5264AE"/>
<path d="M9.92745 29.6406C9.06414 29.6406 8.34473 30.36 8.34473 31.2233C8.48861 32.0866 9.06414 32.8061 9.92745 32.8061C10.7907 32.8061 11.5102 32.0866 11.5102 31.2233C11.5102 30.36 10.7907 29.6406 9.92745 29.6406Z" fill="#5264AE"/>
<path d="M51.7982 29.9297C50.791 29.9297 49.9277 30.793 49.9277 31.8002C49.9277 32.8074 50.791 33.6707 51.7982 33.6707C52.8054 33.6707 53.6687 32.8074 53.6687 31.8002C53.6687 30.793 52.8054 29.9297 51.7982 29.9297Z" fill="#5264AE"/>
<path d="M54.3877 31.2233C54.3877 32.0866 55.1071 32.8061 55.9704 32.8061C56.8337 32.8061 57.5531 32.0866 57.5531 31.2233C57.5531 30.36 56.8337 29.6406 55.9704 29.6406C55.1071 29.6406 54.3877 30.36 54.3877 31.2233Z" fill="#5264AE"/>
<path d="M49.3516 53.9565V54.8198C49.3516 55.3953 51.0782 55.6831 52.6609 55.5392V59.1363C52.6609 60.2874 59.2795 60.2874 59.2795 59.1363V49.4961C57.6968 51.6543 56.1141 53.5248 49.3516 53.9565Z" fill="#5264AE"/>
<path d="M20.5752 35.8262H45.4671V35.3945H20.5752V35.8262Z" fill="#5264AE"/>
<path d="M20.4316 34.5326H45.4674L45.6113 33.957H20.4316V34.5326Z" fill="#5264AE"/>
<path d="M20.2874 33.0918H45.7548V32.6602H20.1436L20.2874 33.0918Z" fill="#5264AE"/>
<path d="M45.3232 36.6914V37.2669H20.7191L20.5752 36.6914H45.3232Z" fill="#5264AE"/>
<path d="M14.9642 43.7422C14.3887 43.7422 13.957 44.1738 13.957 44.7494C13.957 45.3249 14.3887 45.7566 14.9642 45.7566C15.5398 45.7566 15.9714 45.3249 15.9714 44.7494C15.9714 44.1738 15.5398 43.7422 14.9642 43.7422Z" fill="#5264AE"/>
<path d="M50.7904 43.7422C50.2149 43.7422 49.7832 44.1738 49.7832 44.7494C49.7832 45.3249 50.2149 45.7566 50.7904 45.7566C51.3659 45.7566 51.7976 45.3249 51.7976 44.7494C51.7976 44.1738 51.3659 43.7422 50.7904 43.7422Z" fill="#5264AE"/>
<path d="M59.8549 34.1012C59.8549 30.648 53.524 7.33882 53.524 7.19494C53.2363 5.7561 51.3658 4.74892 50.0708 4.60504C45.1788 3.59785 18.992 3.88562 15.8265 4.60504C14.5316 4.8928 12.6611 5.7561 12.3733 7.19494C12.0856 8.48989 6.04246 30.5041 6.04246 34.1012C6.04246 36.4033 5.89858 40.0004 6.04246 43.4536C6.18635 52.3744 17.1215 54.2449 24.4596 51.0794C25.3229 50.7917 26.1862 50.6478 27.0495 50.6478C27.1933 50.6478 39.7112 50.6478 38.8479 50.6478C39.7112 50.6478 40.5745 50.7917 41.4378 51.0794C48.7759 54.101 59.711 52.2305 59.8549 43.4536C59.8549 41.8709 59.8549 40.432 59.8549 39.1371V38.7054C59.9988 36.835 59.8549 35.2522 59.8549 34.1012ZM17.1215 45.3241C17.1215 46.3313 16.2582 47.1946 15.251 47.1946L9.63955 47.4823L11.0784 44.3169C11.0784 43.3097 11.9417 42.4464 12.9489 42.4464H15.3949C16.4021 42.4464 17.2654 43.3097 17.2654 44.3169V45.3241H17.1215ZM7.91295 34.245C7.76907 30.0724 8.3446 27.0509 10.6467 27.1948C10.6467 27.1948 14.0999 27.0509 17.8409 31.5113L18.1287 34.5328C16.8337 34.8206 7.91295 34.245 7.91295 34.245ZM46.6176 43.3097C46.6176 45.6118 44.7471 47.6262 42.3011 47.6262H23.5963C21.2941 47.6262 19.2797 45.7557 19.2797 43.3097V43.1658L46.6176 43.3097ZM28.6322 27.9142V25.7559H30.7904V27.9142H32.9487V25.7559H35.1069V27.9142H37.2652V25.7559H39.4234V27.9142H41.5817V25.7559H43.74V27.9142H41.5817V30.0724H39.4234V27.9142H37.2652V30.0724H35.1069V27.9142H32.9487V30.0724H30.7904V27.9142H28.6322V30.0724H26.4739V27.9142H24.3157V30.0724H22.1574V27.9142H24.3157V25.7559H26.4739V27.9142H28.6322ZM45.8982 31.9429L45.7543 32.8062V33.2379V33.8134V34.245V34.8206V35.2522V35.8278V36.2594V36.6911V37.1227V37.6983H21.2941V37.1227V36.6911V36.2594V35.8278V35.2522V34.8206V34.245V33.8134V33.2379V32.8062L21.1502 31.9429H45.8982ZM32.9487 22.8782L18.7042 23.0221C20.8625 22.7344 30.3588 21.7272 32.3732 21.0078C30.2149 20.8639 20.2869 22.1588 18.1287 22.5905H17.9848C17.8409 22.7344 17.697 22.8782 17.697 23.0221L12.3733 23.166C13.2366 17.5546 14.2438 13.238 15.251 9.64096C18.8481 9.64096 2.01372 9.64096 50.9341 9.64096C51.9413 13.238 52.9485 17.5546 53.8118 23.166L48.4881 23.0221C48.4881 23.0221 48.4881 23.0221 48.0565 22.5905H47.9126C45.7543 22.3027 35.8264 20.8639 33.6681 21.0078C34.9631 21.4394 36.4019 21.7272 47.337 23.0221L32.9487 22.8782ZM50.6464 47.1946C49.6392 47.1946 48.7759 46.3313 48.7759 45.3241V44.3169C48.7759 43.3097 49.6392 42.4464 50.6464 42.4464H53.0924C54.0996 42.4464 54.9629 43.3097 54.9629 44.3169L56.4017 47.4823L50.6464 47.1946ZM57.9844 34.245C57.9844 34.245 49.0636 34.8206 47.9126 34.5328L48.2003 31.5113C51.9413 27.0509 55.3945 27.1948 55.3945 27.1948C57.5528 27.0509 57.9844 30.2163 57.9844 34.245Z" fill="#5264AE"/>
</svg>
