<svg width="278" height="192" viewBox="0 0 278 192" fill="none" xmlns="http://www.w3.org/2000/svg">
<path d="M142.935 168.825C142.345 166.905 141.435 165.137 140.273 163.575C137.019 159.177 131.817 156.385 126.066 156.385C125.502 156.385 124.936 156.412 124.366 156.467C122.9 156.604 121.504 156.941 120.168 157.41C118.269 158.077 116.521 159.048 114.994 160.272C113.707 161.304 112.586 162.5 111.628 163.836C109.247 167.179 108.002 171.357 108.422 175.76C109.297 184.918 116.995 191.776 126.015 191.776C126.573 191.776 127.144 191.749 127.714 191.694C137.017 190.807 143.926 182.874 143.705 173.675C143.698 173.249 143.69 172.83 143.649 172.402C143.549 171.157 143.294 169.967 142.935 168.825Z" fill="#5264AE"/>
<path d="M236.913 150.881C235.607 149.814 234.154 148.933 232.586 148.273C230.646 147.454 228.539 146.979 226.351 146.911C226.152 146.904 225.959 146.884 225.76 146.884C225.202 146.884 224.631 146.911 224.06 146.966C218.137 147.53 213.189 150.965 210.423 155.753C209.357 157.597 208.629 159.647 208.285 161.807C208.058 163.252 207.982 164.738 208.126 166.259C208.147 166.452 208.182 166.631 208.209 166.823C209.338 175.699 216.892 182.277 225.72 182.277C226.277 182.277 226.848 182.249 227.419 182.194C237.149 181.265 244.284 172.632 243.354 162.901C242.879 157.995 240.443 153.763 236.913 150.881Z" fill="#5264AE"/>
<path d="M77.8048 60.2316L74.7293 27.9212C73.2362 12.2545 60.0121 0.481445 44.58 0.481445C43.623 0.481445 42.6528 0.5296 41.6827 0.619734L12.7437 3.37878C5.06518 4.10811 -0.570559 10.9266 0.166332 18.6051C0.854373 25.8364 6.93665 31.2513 14.0517 31.2513C14.4982 31.2513 14.9468 31.2306 15.3927 31.1894L44.333 28.4303C44.408 28.4235 44.4844 28.4159 44.5601 28.4159C45.771 28.4159 46.81 29.3378 46.9256 30.5694L50.0018 62.8798C50.5722 68.8658 51.6042 74.7011 53.0505 80.3499C54.7362 78.6298 56.8485 77.3012 59.2635 76.5512L79.3804 70.3382C78.6649 67.05 78.1364 63.6718 77.8048 60.2316Z" fill="#374850"/>
<path d="M276.718 41.2827L275.122 24.5427C274.434 17.3182 268.352 11.8965 261.237 11.8965C260.796 11.8965 260.35 11.9171 259.896 11.9584C252.217 12.6877 246.582 19.5062 247.318 27.1847L248.915 43.9248C249.142 46.3191 249.244 48.6991 249.272 51.0666C249.644 80.6248 234.777 107.458 211.478 123.263C199.939 131.094 186.345 136.219 171.51 137.63C168.751 137.892 166.013 138.021 163.295 138.021C152.466 138.021 142.028 135.972 132.376 132.221C123.184 128.651 114.714 123.517 107.309 117.139L104.944 123.93C102.852 129.943 97.382 133.831 91.0108 133.831C84.8872 133.831 79.493 130.144 77.2706 124.432L72.2617 111.559L63.7637 107.259C74.4758 126.524 90.5773 142.22 109.82 152.518C113.762 149.546 118.442 147.681 123.485 147.2C124.337 147.118 125.212 147.076 126.072 147.076C137.899 147.076 147.952 154.603 151.584 165.343C155.437 165.742 159.332 165.963 163.274 165.963C166.872 165.963 170.506 165.79 174.158 165.446C182.828 164.621 191.167 162.804 199.107 160.176C199.87 155.518 201.824 151.115 204.913 147.385C209.509 141.826 215.991 138.386 223.174 137.698C224.027 137.615 224.901 137.574 225.761 137.574C229.428 137.574 232.916 138.309 236.109 139.63C264.037 116.341 280.42 80.1294 276.718 41.2827Z" fill="#374850"/>
<path d="M104.422 72.3096C103.802 72.3096 103.163 72.399 102.523 72.5992L60.738 85.4993C55.3038 87.1781 54.6695 94.6158 59.7486 97.1891L75.7648 105.301C77.1553 106.004 78.2348 107.193 78.8059 108.652L84.1038 122.275C85.1503 124.972 87.5716 126.307 89.9948 126.307C92.4924 126.307 94.99 124.883 95.9725 122.062L110.359 80.7312C111.846 76.4653 108.563 72.3096 104.422 72.3096Z" fill="#5264AE"/>
</svg>
