<svg width="17" height="16" viewBox="0 0 17 16" fill="none" xmlns="http://www.w3.org/2000/svg">
<path fill-rule="evenodd" clip-rule="evenodd" d="M4.80025 12.8008C3.92025 12.8008 3.20825 13.5208 3.20825 14.4008C3.20825 15.2808 3.92025 16.0008 4.80025 16.0008C5.68025 16.0008 6.40025 15.2808 6.40025 14.4008C6.40025 13.5208 5.68025 12.8008 4.80025 12.8008ZM0 0.8C0 1.24 0.36 1.6 0.8 1.6H1.6L4.48 7.672L3.4 9.624C2.816 10.696 3.584 12 4.8 12H13.6C14.04 12 14.4 11.64 14.4 11.2C14.4 10.76 14.04 10.4 13.6 10.4H4.8L5.68 8.8H11.64C12.24 8.8 12.768 8.472 13.04 7.976L15.904 2.784C16.2 2.256 15.816 1.6 15.208 1.6H3.368L2.832 0.456C2.704 0.176 2.416 0 2.112 0H0.8C0.36 0 0 0.36 0 0.8ZM12.8003 12.8008C11.9203 12.8008 11.2083 13.5208 11.2083 14.4008C11.2083 15.2808 11.9203 16.0008 12.8003 16.0008C13.6803 16.0008 14.4003 15.2808 14.4003 14.4008C14.4003 13.5208 13.6803 12.8008 12.8003 12.8008Z" fill="white"/>
</svg>
