<svg width="20" height="20" viewBox="0 0 20 20" fill="none" xmlns="http://www.w3.org/2000/svg">
<path d="M10 0C4.5 0 0 4.5 0 10C0 15.5 4.5 20 10 20C15.5 20 20 15.5 20 10C20 4.5 15.5 0 10 0ZM14.7 13.3C15.1 13.7 15.1 14.3 14.7 14.7C14.3 15.1 13.7 15.1 13.3 14.7L10 11.4L6.7 14.7C6.3 15.1 5.7 15.1 5.3 14.7C4.9 14.3 4.9 13.7 5.3 13.3L8.6 10L5.3 6.7C4.9 6.3 4.9 5.7 5.3 5.3C5.7 4.9 6.3 4.9 6.7 5.3L10 8.6L13.3 5.3C13.7 4.9 14.3 4.9 14.7 5.3C15.1 5.7 15.1 6.3 14.7 6.7L11.4 10L14.7 13.3Z" fill="#EB462D"/>
</svg>
