<svg width="14" height="16" viewBox="0 0 14 16" fill="none" xmlns="http://www.w3.org/2000/svg">
<path d="M11.732 4.11111V12.5111C11.732 13.3823 11.732 13.8179 11.552 14.1507C11.3937 14.4433 11.1411 14.6813 10.8305 14.8305C10.4773 15 10.0149 15 9.09025 15H4.46725C3.54256 15 3.08022 15 2.72704 14.8305C2.41637 14.6813 2.16379 14.4433 2.00549 14.1507C1.82554 13.8179 1.82554 13.3823 1.82554 12.5111V4.11111L3.88938 4.11111V3.48889C3.88938 2.11431 5.18299 1 6.77875 1C8.37451 1 9.66813 2.11431 9.66813 3.48889V4.11111L11.732 4.11111Z" fill="white"/>
<path d="M6.02768 6.44444C6.02768 5.94739 5.62474 5.54444 5.12768 5.54444C4.63062 5.54444 4.22768 5.94739 4.22768 6.44444H6.02768ZM4.22768 12.6667C4.22768 13.1637 4.63062 13.5667 5.12768 13.5667C5.62474 13.5667 6.02768 13.1637 6.02768 12.6667H4.22768ZM9.32982 6.44444C9.32982 5.94739 8.92688 5.54444 8.42982 5.54444C7.93277 5.54444 7.52982 5.94739 7.52982 6.44444H9.32982ZM7.52982 12.6667C7.52982 13.1637 7.93277 13.5667 8.42982 13.5667C8.92688 13.5667 9.32982 13.1637 9.32982 12.6667H7.52982ZM11.732 4.11111V3.21111V3.21111V4.11111ZM1.82554 4.11111L1.82554 3.21111H1.82554V4.11111ZM2.72704 14.8305L2.33755 15.6418L2.33755 15.6418L2.72704 14.8305ZM2.00549 14.1507L2.79714 13.7225L2.79714 13.7225L2.00549 14.1507ZM11.552 14.1507L10.7604 13.7225L10.7604 13.7225L11.552 14.1507ZM10.8305 14.8305L11.22 15.6418L11.22 15.6418L10.8305 14.8305ZM1 3.21111C0.502944 3.21111 0.1 3.61405 0.1 4.11111C0.1 4.60817 0.502944 5.01111 1 5.01111V3.21111ZM3.88938 4.11111L3.88938 5.01111H3.88938V4.11111ZM9.66813 4.11111V5.01111V4.11111ZM12.5575 5.01111C13.0546 5.01111 13.4575 4.60817 13.4575 4.11111C13.4575 3.61405 13.0546 3.21111 12.5575 3.21111V5.01111ZM4.22768 6.44444V12.6667H6.02768V6.44444H4.22768ZM7.52982 6.44444V12.6667H9.32982V6.44444H7.52982ZM10.832 4.11111V12.5111H12.632V4.11111H10.832ZM9.09025 14.1H4.46725V15.9H9.09025V14.1ZM0.925536 4.11111V12.5111H2.72554V4.11111H0.925536ZM4.46725 14.1C3.99091 14.1 3.68466 14.0994 3.45191 14.0815C3.22818 14.0642 3.14995 14.0351 3.11653 14.0191L2.33755 15.6418C2.65731 15.7953 2.98684 15.851 3.31376 15.8762C3.63164 15.9006 4.01891 15.9 4.46725 15.9V14.1ZM0.925536 12.5111C0.925536 12.931 0.924748 13.3033 0.951396 13.6106C0.979101 13.93 1.04133 14.2598 1.21385 14.5788L2.79714 13.7225C2.7897 13.7088 2.76195 13.6543 2.74467 13.455C2.72632 13.2435 2.72554 12.9625 2.72554 12.5111H0.925536ZM3.11653 14.0191C2.97045 13.949 2.86176 13.842 2.79714 13.7225L1.21385 14.5788C1.46581 15.0447 1.86229 15.4137 2.33755 15.6418L3.11653 14.0191ZM10.832 12.5111C10.832 12.9625 10.8312 13.2435 10.8128 13.455C10.7956 13.6543 10.7678 13.7088 10.7604 13.7225L12.3437 14.5788C12.5162 14.2598 12.5784 13.93 12.6061 13.6106C12.6328 13.3033 12.632 12.931 12.632 12.5111H10.832ZM9.09025 15.9C9.5386 15.9 9.92587 15.9006 10.2437 15.8762C10.5707 15.851 10.9002 15.7953 11.22 15.6418L10.441 14.0191C10.4076 14.0351 10.3293 14.0642 10.1056 14.0815C9.87284 14.0994 9.5666 14.1 9.09025 14.1V15.9ZM10.7604 13.7225C10.6957 13.842 10.5871 13.949 10.441 14.0191L11.22 15.6418C11.6952 15.4137 12.0917 15.0447 12.3437 14.5788L10.7604 13.7225ZM1 5.01111H1.82554V3.21111H1V5.01111ZM1.82554 5.01111L3.88938 5.01111L3.88938 3.21111L1.82554 3.21111L1.82554 5.01111ZM3.88938 5.01111H9.66813V3.21111H3.88938V5.01111ZM9.66813 5.01111L11.732 5.01111V3.21111L9.66813 3.21111V5.01111ZM11.732 5.01111H12.5575V3.21111H11.732V5.01111ZM4.78938 3.48889C4.78938 2.7327 5.54934 1.9 6.77875 1.9V0.1C4.81664 0.1 2.98938 1.49592 2.98938 3.48889H4.78938ZM6.77875 1.9C8.00816 1.9 8.76813 2.7327 8.76813 3.48889H10.5681C10.5681 1.49592 8.74086 0.1 6.77875 0.1V1.9ZM2.98938 3.48889V4.11111H4.78938V3.48889H2.98938ZM8.76813 3.48889V4.11111H10.5681V3.48889H8.76813Z" fill="#EB462D"/>
</svg>
