<svg width="158" height="158" viewBox="0 0 158 158" fill="none" xmlns="http://www.w3.org/2000/svg">
<circle cx="79" cy="79" r="79" fill="#F6F6F6"/>
<path d="M122.423 47.3077H100.962V43.7308C100.962 40.8848 99.831 38.1554 97.8186 36.143C95.8062 34.1306 93.0767 33 90.2308 33H68.7692C65.9233 33 63.1938 34.1306 61.1814 36.143C59.169 38.1554 58.0385 40.8848 58.0385 43.7308V47.3077H36.5769C35.6283 47.3077 34.7185 47.6845 34.0477 48.3553C33.3769 49.0262 33 49.936 33 50.8846C33 51.8333 33.3769 52.7431 34.0477 53.4139C34.7185 54.0847 35.6283 54.4615 36.5769 54.4615H43.7308V108.115C43.7364 112.857 45.6225 117.403 48.9753 120.755C52.3281 124.108 56.8738 125.994 61.6154 126H97.3846C102.126 125.994 106.672 124.108 110.025 120.755C113.377 117.403 115.264 112.857 115.269 108.115V54.4615H122.423C123.372 54.4615 124.282 54.0847 124.952 53.4139C125.623 52.7431 126 51.8333 126 50.8846C126 49.936 125.623 49.0262 124.952 48.3553C124.282 47.6845 123.372 47.3077 122.423 47.3077ZM65.1923 43.7308C65.1923 42.7821 65.5692 41.8723 66.24 41.2015C66.9108 40.5307 67.8206 40.1538 68.7692 40.1538H90.2308C91.1794 40.1538 92.0892 40.5307 92.76 41.2015C93.4308 41.8723 93.8077 42.7821 93.8077 43.7308V47.3077H65.1923V43.7308ZM108.115 108.115C108.115 110.961 106.985 113.691 104.972 115.703C102.96 117.716 100.231 118.846 97.3846 118.846H61.6154C58.7694 118.846 56.04 117.716 54.0276 115.703C52.0152 113.691 50.8846 110.961 50.8846 108.115V54.4615H108.115V108.115Z" fill="#EB462D"/>
<path d="M65.1922 65.1914C64.2435 65.1914 63.3337 65.5683 62.6629 66.2391C61.9921 66.9099 61.6152 67.8197 61.6152 68.7683V100.961C61.6152 101.909 61.9921 102.819 62.6629 103.49C63.3337 104.161 64.2435 104.538 65.1922 104.538C66.1408 104.538 67.0506 104.161 67.7214 103.49C68.3922 102.819 68.7691 101.909 68.7691 100.961V68.7683C68.7691 67.8197 68.3922 66.9099 67.7214 66.2391C67.0506 65.5683 66.1408 65.1914 65.1922 65.1914Z" fill="#EB462D"/>
<path d="M93.8079 65.1914C92.8592 65.1914 91.9494 65.5683 91.2786 66.2391C90.6078 66.9099 90.231 67.8197 90.231 68.7683V100.961C90.231 101.909 90.6078 102.819 91.2786 103.49C91.9494 104.161 92.8592 104.538 93.8079 104.538C94.7565 104.538 95.6663 104.161 96.3371 103.49C97.008 102.819 97.3848 101.909 97.3848 100.961V68.7683C97.3848 67.8197 97.008 66.9099 96.3371 66.2391C95.6663 65.5683 94.7565 65.1914 93.8079 65.1914Z" fill="#EB462D"/>
</svg>
