<svg width="16" height="16" viewBox="0 0 16 16" fill="none" xmlns="http://www.w3.org/2000/svg">
<path d="M15 4H9.25C8.98488 4.0003 8.7307 4.10576 8.54323 4.29323C8.35576 4.4807 8.2503 4.73488 8.25 5V15C8.2503 15.2651 8.35576 15.5193 8.54323 15.7068C8.7307 15.8942 8.98488 15.9997 9.25 16H15C15.2651 15.9997 15.5193 15.8942 15.7068 15.7068C15.8942 15.5193 15.9997 15.2651 16 15V5C15.9997 4.73488 15.8942 4.4807 15.7068 4.29323C15.5193 4.10576 15.2651 4.0003 15 4ZM13.125 15H11.125C11.0587 15 10.9951 14.9737 10.9482 14.9268C10.9013 14.8799 10.875 14.8163 10.875 14.75C10.875 14.6837 10.9013 14.6201 10.9482 14.5732C10.9951 14.5263 11.0587 14.5 11.125 14.5H13.125C13.1913 14.5 13.2549 14.5263 13.3018 14.5732C13.3487 14.6201 13.375 14.6837 13.375 14.75C13.375 14.8163 13.3487 14.8799 13.3018 14.9268C13.2549 14.9737 13.1913 15 13.125 15ZM13.3423 4.66357C13.3082 4.7618 13.2444 4.84698 13.1598 4.90727C13.0751 4.96757 12.9737 4.99998 12.8698 5H11.3802C11.2763 4.99998 11.1749 4.96756 11.0902 4.90727C11.0056 4.84698 10.9418 4.7618 10.9077 4.66357L10.8511 4.5H13.3989L13.3423 4.66357Z" fill="#8B96A5"/>
<path d="M6.125 1C6.17445 1 6.22278 1.01466 6.26389 1.04213C6.305 1.0696 6.33705 1.10865 6.35597 1.15433C6.37489 1.20001 6.37984 1.25028 6.3702 1.29877C6.36055 1.34727 6.33674 1.39181 6.30178 1.42678C6.26681 1.46174 6.22227 1.48555 6.17377 1.4952C6.12528 1.50484 6.07501 1.49989 6.02933 1.48097C5.98365 1.46205 5.9446 1.43 5.91713 1.38889C5.88966 1.34778 5.875 1.29945 5.875 1.25C5.87507 1.18372 5.90143 1.12017 5.9483 1.0733C5.99517 1.02643 6.05872 1.00007 6.125 1ZM4.375 1H5.125C5.1913 1 5.25489 1.02634 5.30178 1.07322C5.34866 1.12011 5.375 1.1837 5.375 1.25C5.375 1.3163 5.34866 1.37989 5.30178 1.42678C5.25489 1.47366 5.1913 1.5 5.125 1.5H4.375C4.3087 1.5 4.24511 1.47366 4.19822 1.42678C4.15134 1.37989 4.125 1.3163 4.125 1.25C4.125 1.1837 4.15134 1.12011 4.19822 1.07322C4.24511 1.02634 4.3087 1 4.375 1ZM9.75 0H1C0.734891 0.000351233 0.480741 0.105821 0.293281 0.293281C0.105821 0.480741 0.000351233 0.734891 0 1L0 15C0.000352553 15.2651 0.105823 15.5193 0.293283 15.7067C0.480743 15.8942 0.734892 15.9996 1 16H8.135C7.88719 15.7259 7.74999 15.3695 7.75 15V13.5H0.5V2.5H10.25V3.5H10.75V1C10.7496 0.734891 10.6442 0.480741 10.4567 0.293281C10.2693 0.105821 10.0151 0.000351233 9.75 0ZM4.25 14.5H6.5C6.5663 14.5 6.62989 14.5263 6.67678 14.5732C6.72366 14.6201 6.75 14.6837 6.75 14.75C6.75 14.8163 6.72366 14.8799 6.67678 14.9268C6.62989 14.9737 6.5663 15 6.5 15H4.25C4.1837 15 4.12011 14.9737 4.07322 14.9268C4.02634 14.8799 4 14.8163 4 14.75C4 14.6837 4.02634 14.6201 4.07322 14.5732C4.12011 14.5263 4.1837 14.5 4.25 14.5Z" fill="#8B96A5"/>
</svg>
