<svg width="20" height="19" viewBox="0 0 20 19" fill="none" xmlns="http://www.w3.org/2000/svg">
<path fill-rule="evenodd" clip-rule="evenodd" d="M19.2828 9.31362C19.2828 4.18652 14.9657 0.0292969 9.64141 0.0292969C4.31712 0.0292969 0 4.18652 0 9.31362C0 13.9475 3.52514 17.7885 8.13494 18.4856V11.9982H5.68628V9.31362H8.13494V7.26817C8.13494 4.9417 9.5747 3.65557 11.7767 3.65557C12.8317 3.65557 13.9353 3.83711 13.9353 3.83711V6.12213H12.7189C11.5219 6.12213 11.1475 6.83752 11.1475 7.57281V9.31362H13.8212L13.3942 11.9982H11.1479V18.4864C15.7577 17.7897 19.2828 13.9487 19.2828 9.31362V9.31362Z" fill="#5264AE"/>
</svg>
