<svg width="21" height="20" viewBox="0 0 21 20" fill="none" xmlns="http://www.w3.org/2000/svg">
<path d="M20.6861 8.31169C20.7878 8.21144 20.8594 8.08478 20.8928 7.94599C20.9262 7.80721 20.9202 7.66184 20.8754 7.5263C20.8306 7.39076 20.7488 7.27046 20.6392 7.17897C20.5296 7.08748 20.3966 7.02845 20.2552 7.00855L14.3503 6.17186C14.227 6.15452 14.1098 6.10735 14.0088 6.03445C13.9078 5.96155 13.8262 5.86512 13.7709 5.75352L11.1082 0.428006C11.0451 0.299579 10.9472 0.191404 10.8258 0.115752C10.7043 0.0401004 10.5641 0 10.421 0C10.2779 0 10.1377 0.0401004 10.0163 0.115752C9.89481 0.191404 9.79699 0.299579 9.7339 0.428006L7.12344 5.79535C7.06856 5.90642 6.98755 6.00252 6.88736 6.07538C6.78717 6.14825 6.67079 6.19571 6.54821 6.2137L0.651661 7.10268C0.510476 7.12392 0.378045 7.18422 0.269327 7.27677C0.160609 7.36931 0.0799366 7.49042 0.0364226 7.6264C-0.00709139 7.76238 -0.0117129 7.90782 0.0230802 8.04629C0.0578732 8.18476 0.130694 8.31074 0.233318 8.41L4.52343 12.5516C4.61297 12.6379 4.68015 12.7447 4.71915 12.8628C4.75814 12.9809 4.76779 13.1067 4.74725 13.2293L3.76414 19.1091C3.74076 19.25 3.75727 19.3947 3.81179 19.5267C3.8663 19.6587 3.95666 19.7728 4.07264 19.8561C4.18863 19.9395 4.32561 19.9887 4.46811 19.9983C4.61061 20.0078 4.75294 19.9774 4.87902 19.9103L10.146 17.1157C10.2559 17.0578 10.3783 17.0276 10.5026 17.0276C10.6269 17.0276 10.7493 17.0578 10.8592 17.1157L16.1492 19.8559C16.2759 19.9216 16.4184 19.9505 16.5607 19.9395C16.703 19.9285 16.8393 19.878 16.9544 19.7936C17.0695 19.7092 17.1586 19.5943 17.2119 19.4619C17.2651 19.3295 17.2803 19.1849 17.2557 19.0443L16.2099 13.1728C16.1871 13.0511 16.1943 12.9256 16.2307 12.8072C16.2671 12.6888 16.3318 12.581 16.419 12.493L20.6861 8.31169Z" fill="#F6B201"/>
</svg>
