<svg width="145" height="125" viewBox="0 0 145 125" fill="none" xmlns="http://www.w3.org/2000/svg">
<path d="M73.5812 80.5509C73.3513 79.8033 72.9971 79.1146 72.5442 78.5063C71.277 76.7935 69.2509 75.7061 67.0113 75.7061C66.7915 75.7061 66.5713 75.7168 66.3491 75.7382C65.7781 75.7915 65.2344 75.9226 64.7143 76.1053C63.9747 76.3653 63.294 76.7431 62.6992 77.2198C62.1981 77.6218 61.7613 78.0877 61.3883 78.6081C60.4611 79.9099 59.9761 81.537 60.1398 83.252C60.4804 86.8186 63.4784 89.4897 66.9914 89.4897C67.2088 89.4897 67.4312 89.4792 67.6533 89.4578C71.2765 89.1124 73.9671 86.0227 73.8808 82.44C73.8782 82.2739 73.8752 82.1107 73.8594 81.9443C73.8203 81.4593 73.7211 80.9957 73.5812 80.5509Z" fill="#5264AE"/>
<path d="M110.182 73.5615C109.674 73.1462 109.108 72.8032 108.497 72.5459C107.742 72.227 106.921 72.0421 106.069 72.0153C105.991 72.0127 105.916 72.0049 105.839 72.0049C105.621 72.0049 105.399 72.0153 105.177 72.0368C102.87 72.2565 100.943 73.5942 99.8656 75.459C99.4502 76.1771 99.1667 76.9757 99.0327 77.8171C98.9443 78.3798 98.9148 78.9586 98.9711 79.5508C98.9791 79.6258 98.9925 79.6955 99.0033 79.7705C99.443 83.2273 102.385 85.789 105.823 85.789C106.04 85.789 106.262 85.7783 106.485 85.7569C110.274 85.3951 113.053 82.0327 112.691 78.2431C112.506 76.3323 111.557 74.684 110.182 73.5615Z" fill="#5264AE"/>
<path d="M48.2156 38.2577L47.0178 25.674C46.4363 19.5725 41.286 14.9873 35.2758 14.9873C34.9031 14.9873 34.5252 15.0061 34.1474 15.0412L22.8768 16.1157C19.8863 16.3998 17.6914 19.0553 17.9784 22.0458C18.2463 24.8621 20.6151 26.971 23.3862 26.971C23.5601 26.971 23.7348 26.963 23.9084 26.9469L35.1796 25.8723C35.2088 25.8697 35.2386 25.8667 35.268 25.8667C35.7397 25.8667 36.1443 26.2258 36.1893 26.7054L37.3874 39.2891C37.6095 41.6204 38.0115 43.893 38.5747 46.093C39.2312 45.4231 40.0539 44.9057 40.9945 44.6136L48.8292 42.1939C48.5506 40.9133 48.3448 39.5975 48.2156 38.2577Z" fill="#374850"/>
<path d="M110.086 45.0156L104.427 30.1783L98.8639 32.3006L86.5401 0L68.0722 7.04481L59.6953 40.2565L61.0992 39.8813C61.3752 39.7983 61.6515 39.7634 61.9194 39.7661C63.7011 39.7875 65.0921 41.5909 64.4356 43.4131L60.1267 55.3668L63.013 62.9315V62.9341L63.0264 62.9663L63.0505 62.9583L87.2157 53.7405L90.4583 62.2404L107.766 55.6377L104.524 47.1378L110.086 45.0156ZM74.5996 41.5561L78.0802 25.6229L82.9464 38.3727L74.5996 41.5561Z" fill="#5264AE"/>
<path d="M125.685 30.8774L125.063 24.3578C124.795 21.5442 122.426 19.4326 119.656 19.4326C119.484 19.4326 119.31 19.4407 119.133 19.4567C116.143 19.7408 113.948 22.3963 114.235 25.3868L114.856 31.9064C114.945 32.8389 114.985 33.7658 114.996 34.6879C115.14 46.1997 109.35 56.6504 100.276 62.8058C95.7823 65.8555 90.4878 67.8516 84.7102 68.4012C83.6357 68.503 82.5692 68.5534 81.5107 68.5534C77.2932 68.5534 73.2282 67.7551 69.4689 66.2945C65.8889 64.904 62.5902 62.9047 59.7064 60.4206L58.7851 63.0655C57.9705 65.4072 55.8401 66.9215 53.3588 66.9215C50.9739 66.9215 48.873 65.4857 48.0075 63.2611L46.0567 58.2474L42.7471 56.5727C46.919 64.0757 53.19 70.1885 60.6844 74.1994C62.2196 73.0418 64.042 72.3156 66.0062 72.1283C66.3382 72.0964 66.6788 72.0798 67.0138 72.0798C71.6198 72.0798 75.5351 75.0114 76.9499 79.1943C78.4506 79.3497 79.9672 79.4355 81.5027 79.4355C82.9039 79.4355 84.319 79.3685 85.7414 79.2345C89.1183 78.913 92.3657 78.2055 95.4583 77.1819C95.7552 75.3678 96.5163 73.6528 97.7194 72.2004C99.5094 70.0353 102.034 68.6954 104.831 68.4275C105.164 68.3953 105.504 68.3792 105.839 68.3792C107.267 68.3792 108.626 68.6657 109.869 69.1802C120.746 60.1098 127.127 46.0068 125.685 30.8774Z" fill="#374850"/>
<path d="M58.5824 42.9619C58.3412 42.9619 58.092 42.9967 57.8428 43.0747L41.5693 48.0988C39.4529 48.7526 39.2058 51.6494 41.1839 52.6516L47.4216 55.8109C47.9632 56.0845 48.3836 56.5478 48.6061 57.1159L50.6694 62.4216C51.077 63.472 52.0199 63.9919 52.9637 63.9919C53.9364 63.9919 54.9091 63.4372 55.2918 62.3385L60.895 46.2418C61.4738 44.5804 60.1953 42.9619 58.5824 42.9619Z" fill="#5264AE"/>
<path d="M38.2869 121.418H36.4927L36.0489 122.274H35.1035L37.5152 117.778H38.5635L39.3803 122.274H38.4284L38.2869 121.418ZM38.1712 120.718L37.8496 118.814L36.8592 120.718H38.1712Z" fill="#666771"/>
<path d="M43.4669 118.959C43.6791 119.158 43.7852 119.442 43.7852 119.811C43.7852 119.949 43.7745 120.073 43.7531 120.184L43.38 122.274H42.4861L42.8334 120.307C42.8463 120.229 42.8527 120.154 42.8527 120.081C42.8527 119.867 42.7959 119.704 42.6823 119.593C42.5686 119.481 42.4068 119.425 42.1967 119.425C41.9566 119.425 41.7519 119.497 41.5825 119.641C41.4132 119.785 41.3006 119.992 41.2449 120.262L40.8912 122.274H39.9844L40.6146 118.712H41.5214L41.4443 119.149C41.59 118.999 41.7637 118.88 41.9652 118.792C42.1667 118.704 42.3768 118.66 42.5954 118.66C42.9642 118.66 43.2546 118.76 43.4669 118.959Z" fill="#666771"/>
<path d="M45.4648 118.711L45.9407 121.2L47.3234 118.711H48.2816L45.1496 123.959H44.1914L45.2718 122.184L44.4551 118.711H45.4648Z" fill="#666771"/>
<path d="M49.3747 121.174C49.3704 121.2 49.3683 121.234 49.3683 121.277C49.3683 121.363 49.3929 121.424 49.4422 121.46C49.4915 121.497 49.5741 121.515 49.6898 121.515H50.1143L49.9792 122.274H49.4068C48.7637 122.274 48.4422 122.006 48.4422 121.47C48.4422 121.367 48.4507 121.266 48.4679 121.168L48.7702 119.451H48.3457L48.4743 118.711H48.9052L49.0596 117.83H49.9664L49.812 118.711H50.603L50.4744 119.451H49.677L49.3747 121.174Z" fill="#666771"/>
<path d="M54.111 118.961C54.3189 119.163 54.4229 119.446 54.4229 119.81C54.4229 119.948 54.4122 120.072 54.3907 120.184L54.0177 122.274H53.1238L53.4711 120.306C53.4839 120.229 53.4904 120.154 53.4904 120.081C53.4904 119.866 53.4336 119.703 53.3199 119.592C53.2063 119.48 53.0445 119.425 52.8344 119.425C52.5943 119.425 52.3906 119.497 52.2234 119.64C52.0562 119.784 51.9447 119.989 51.889 120.254L51.5289 122.274H50.6221L51.4646 117.515H52.3714L52.0819 119.148C52.2277 118.998 52.4046 118.879 52.6125 118.791C52.8205 118.703 53.0402 118.659 53.2717 118.659C53.6233 118.659 53.903 118.76 54.111 118.961Z" fill="#666771"/>
<path d="M56.4101 118.711L55.7798 122.274H54.873L55.5033 118.711H56.4101ZM55.6962 118.164C55.6105 118.083 55.5676 117.98 55.5676 117.856C55.5676 117.684 55.633 117.537 55.7638 117.415C55.8945 117.293 56.0478 117.231 56.2236 117.231C56.3608 117.231 56.4723 117.272 56.558 117.354C56.6438 117.435 56.6866 117.538 56.6866 117.662C56.6866 117.834 56.6223 117.981 56.4937 118.103C56.3651 118.225 56.2129 118.286 56.0371 118.286C55.8956 118.286 55.782 118.246 55.6962 118.164Z" fill="#666771"/>
<path d="M60.1426 118.959C60.3549 119.158 60.461 119.442 60.461 119.811C60.461 119.949 60.4503 120.073 60.4288 120.184L60.0558 122.274H59.1619L59.5092 120.307C59.522 120.229 59.5285 120.154 59.5285 120.081C59.5285 119.867 59.4716 119.704 59.358 119.593C59.2444 119.481 59.0826 119.425 58.8725 119.425C58.6324 119.425 58.4277 119.497 58.2583 119.641C58.0889 119.785 57.9764 119.992 57.9207 120.262L57.567 122.274H56.6602L57.2904 118.712H58.1972L58.12 119.149C58.2658 118.999 58.4394 118.88 58.641 118.792C58.8425 118.704 59.0526 118.66 59.2712 118.66C59.6399 118.66 59.9304 118.76 60.1426 118.959Z" fill="#666771"/>
<path d="M63.6281 118.81C63.8146 118.915 63.9464 119.051 64.0236 119.218L64.1136 118.71H65.0204L64.3902 122.299C64.3302 122.629 64.2101 122.924 64.03 123.184C63.85 123.443 63.6142 123.648 63.3226 123.801C63.0311 123.953 62.6966 124.029 62.3193 124.029C61.8177 124.029 61.4262 123.911 61.1457 123.676C60.8648 123.44 60.7373 123.118 60.763 122.711H61.6569C61.6741 122.874 61.7523 123.003 61.8917 123.1C62.031 123.196 62.2122 123.245 62.4351 123.245C62.7009 123.245 62.9271 123.166 63.1136 123.01C63.3001 122.853 63.4234 122.617 63.4834 122.299L63.5799 121.746C63.4341 121.914 63.2505 122.053 63.03 122.164C62.8092 122.276 62.568 122.332 62.3065 122.332C62.0447 122.332 61.8124 122.273 61.6087 122.155C61.405 122.037 61.2461 121.87 61.1328 121.653C61.0192 121.437 60.9624 121.185 60.9624 120.898C60.9624 120.765 60.9752 120.625 61.0009 120.48C61.0653 120.119 61.1928 119.8 61.3836 119.521C61.5744 119.243 61.807 119.028 62.0814 118.878C62.3558 118.728 62.6452 118.653 62.9496 118.653C63.2154 118.653 63.4419 118.705 63.6281 118.81ZM63.8242 120.248C63.8242 119.995 63.7503 119.797 63.6024 119.656C63.4544 119.515 63.2687 119.444 63.0461 119.444C62.8789 119.444 62.717 119.484 62.5605 119.566C62.404 119.647 62.2679 119.766 62.1521 119.923C62.0364 120.079 61.9592 120.265 61.9206 120.479C61.9077 120.561 61.9013 120.638 61.9013 120.71C61.9013 120.968 61.9742 121.17 62.12 121.318C62.2658 121.466 62.4501 121.54 62.6731 121.54C62.8403 121.54 63.0032 121.499 63.1618 121.415C63.3205 121.331 63.4566 121.21 63.5702 121.052C63.6838 120.893 63.7599 120.706 63.7985 120.492C63.8157 120.381 63.8242 120.299 63.8242 120.248Z" fill="#666771"/>
<path d="M70.5805 119.595C70.4111 119.768 70.2043 119.894 69.9599 119.971C70.1657 120.014 70.3318 120.117 70.4583 120.279C70.5848 120.442 70.648 120.636 70.648 120.858C70.648 120.919 70.6416 120.985 70.6287 121.058C70.5687 121.422 70.3854 121.716 70.0789 121.939C69.7723 122.162 69.3897 122.273 68.9309 122.273H66.9951L67.7926 117.784H69.6448C70.0521 117.784 70.3661 117.87 70.5869 118.041C70.8077 118.213 70.9181 118.442 70.9181 118.73C70.9181 118.798 70.9117 118.869 70.8988 118.942C70.856 119.204 70.7499 119.421 70.5805 119.595ZM69.7477 120.82C69.7477 120.666 69.693 120.544 69.5837 120.457C69.4743 120.369 69.3232 120.325 69.1303 120.325H68.2428L68.0305 121.56H68.9373C69.156 121.56 69.3361 121.506 69.4775 121.399C69.619 121.292 69.7048 121.142 69.7348 120.948C69.7434 120.889 69.7477 120.846 69.7477 120.82ZM69.9663 118.961C69.9663 118.811 69.917 118.696 69.8184 118.614C69.7198 118.532 69.5762 118.492 69.3875 118.492H68.5708L68.365 119.649H69.1882C69.3982 119.649 69.5719 119.599 69.7091 119.498C69.8463 119.398 69.9299 119.257 69.9599 119.077C69.9642 119.051 69.9663 119.013 69.9663 118.961Z" fill="#666771"/>
<path d="M75.1245 118.711L74.4942 122.274H73.5941L73.671 121.824C73.5338 121.978 73.3642 122.099 73.163 122.187C72.9612 122.275 72.7492 122.319 72.5263 122.319C72.1573 122.319 71.866 122.219 71.6516 122.02C71.4373 121.82 71.3301 121.536 71.3301 121.168C71.3301 121.03 71.3408 120.908 71.3622 120.801L71.7288 118.711H72.6292L72.2819 120.672C72.2688 120.749 72.2626 120.824 72.2626 120.898C72.2626 121.108 72.3207 121.269 72.4362 121.383C72.552 121.497 72.7147 121.554 72.925 121.554C73.1694 121.554 73.3773 121.478 73.5488 121.325C73.7201 121.173 73.8294 120.955 73.8766 120.672L74.2241 118.711L75.1245 118.711Z" fill="#666771"/>
<path d="M76.6296 121.174C76.625 121.2 76.6232 121.234 76.6232 121.277C76.6232 121.363 76.6478 121.424 76.6971 121.46C76.7464 121.497 76.829 121.515 76.9447 121.515H77.3692L77.2341 122.274H76.6615C76.0186 122.274 75.6968 122.006 75.6968 121.47C75.6968 121.367 75.7051 121.266 75.7225 121.168L76.0251 119.451H75.6006L75.7289 118.711H76.1598L76.3142 117.83H77.2207L77.0664 118.711H77.8577L77.7291 119.451H76.9313L76.6296 121.174Z" fill="#666771"/>
<path d="M80.7032 122.078C80.4138 121.917 80.1898 121.694 80.0312 121.409C79.8723 121.124 79.793 120.797 79.793 120.428C79.793 119.914 79.9077 119.451 80.137 119.039C80.3661 118.627 80.6837 118.305 81.0889 118.071C81.494 117.838 81.9495 117.721 82.4555 117.721C82.8371 117.721 83.1728 117.8 83.4619 117.959C83.7513 118.118 83.9754 118.339 84.1343 118.624C84.2929 118.909 84.3722 119.234 84.3722 119.599C84.3722 120.122 84.2586 120.589 84.0316 121.001C83.8041 121.412 83.4871 121.735 83.0796 121.968C82.6722 122.202 82.2135 122.319 81.7033 122.319C81.3257 122.319 80.9926 122.239 80.7032 122.078ZM82.6838 121.245C82.9303 121.082 83.1211 120.863 83.2561 120.586C83.3912 120.31 83.4587 120.008 83.4587 119.682C83.4587 119.331 83.3604 119.054 83.1629 118.853C82.9654 118.651 82.6891 118.55 82.3333 118.55C82.0157 118.55 81.7341 118.632 81.4876 118.795C81.241 118.958 81.05 119.177 80.9149 119.451C80.7799 119.725 80.7124 120.025 80.7124 120.351C80.7124 120.703 80.8099 120.98 81.005 121.184C81.2003 121.388 81.4755 121.489 81.8314 121.489C82.1535 121.49 82.437 121.408 82.6838 121.245Z" fill="#666771"/>
<path d="M86.6157 118.839C86.8217 118.719 87.0444 118.659 87.2845 118.659L87.1173 119.605H86.8791C86.6133 119.605 86.4002 119.662 86.2395 119.778C86.0784 119.894 85.9616 120.091 85.8887 120.37L85.5543 122.274H84.6475L85.2777 118.711H86.1845L86.0752 119.341C86.2298 119.127 86.4099 118.96 86.6157 118.839Z" fill="#666771"/>
<path d="M87.7196 119.521C87.9101 119.243 88.1441 119.028 88.4204 118.878C88.6969 118.728 88.9874 118.653 89.2918 118.653C89.5233 118.653 89.7355 118.704 89.9287 118.804C90.1217 118.905 90.2653 119.039 90.3594 119.206L90.6616 117.515H91.5684L90.7259 122.274H89.8191L89.9153 121.746C89.7741 121.922 89.593 122.064 89.3722 122.171C89.1514 122.278 88.9081 122.332 88.642 122.332C88.3802 122.332 88.1478 122.273 87.9442 122.155C87.7405 122.037 87.5816 121.87 87.4683 121.653C87.3547 121.437 87.2979 121.185 87.2979 120.898C87.2979 120.765 87.3107 120.625 87.3367 120.479C87.4013 120.12 87.5286 119.8 87.7196 119.521ZM90.1603 120.248C90.1603 119.995 90.0866 119.798 89.9384 119.656C89.7905 119.515 89.605 119.444 89.3821 119.444C89.2151 119.444 89.053 119.485 88.8965 119.566C88.74 119.648 88.6039 119.767 88.4882 119.923C88.3724 120.08 88.2952 120.265 88.2569 120.479C88.2438 120.561 88.2376 120.638 88.2376 120.711C88.2376 120.968 88.3102 121.171 88.4563 121.319C88.6018 121.467 88.7861 121.541 89.0091 121.541C89.1763 121.541 89.3389 121.499 89.4978 121.415C89.6565 121.332 89.7926 121.21 89.9062 121.052C90.0198 120.893 90.0957 120.707 90.1345 120.492C90.1514 120.381 90.1603 120.3 90.1603 120.248Z" fill="#666771"/>
<path d="M93.1438 118.711L92.5132 122.274H91.6064L92.2367 118.711H93.1438ZM92.4299 118.164C92.3442 118.083 92.3013 117.98 92.3013 117.856C92.3013 117.684 92.3667 117.537 92.4974 117.415C92.6279 117.293 92.7815 117.231 92.9573 117.231C93.0945 117.231 93.2059 117.272 93.2914 117.354C93.3772 117.435 93.42 117.538 93.42 117.662C93.42 117.834 93.3557 117.981 93.2271 118.103C93.0987 118.225 92.9463 118.286 92.7705 118.286C92.6295 118.286 92.5157 118.246 92.4299 118.164Z" fill="#666771"/>
<path d="M96.8773 118.959C97.0892 119.158 97.1956 119.442 97.1956 119.811C97.1956 119.949 97.1849 120.073 97.1637 120.184L96.7905 122.274H95.8965L96.2438 120.307C96.2567 120.229 96.2628 120.154 96.2628 120.081C96.2628 119.867 96.2063 119.704 96.0927 119.593C95.9788 119.481 95.8169 119.425 95.6069 119.425C95.3668 119.425 95.162 119.497 94.9927 119.641C94.8233 119.785 94.7108 119.992 94.6548 120.262L94.3013 122.274H93.3945L94.0248 118.712H94.9319L94.8544 119.149C95.0004 118.999 95.1738 118.88 95.3753 118.792C95.5768 118.704 95.7869 118.66 96.0059 118.66C96.3743 118.66 96.6648 118.76 96.8773 118.959Z" fill="#666771"/>
<path d="M98.1188 119.521C98.3098 119.243 98.5422 119.028 98.8166 118.878C99.091 118.728 99.3804 118.653 99.6848 118.653C99.9503 118.653 100.174 118.707 100.357 118.814C100.539 118.921 100.673 119.056 100.759 119.219L100.849 118.711H101.756L101.125 122.274H100.218L100.315 121.753C100.173 121.92 99.99 122.059 99.7649 122.168C99.5398 122.277 99.2943 122.332 99.0285 122.332C98.7667 122.332 98.5355 122.273 98.3339 122.155C98.1324 122.037 97.976 121.87 97.8645 121.653C97.753 121.437 97.6973 121.185 97.6973 120.898C97.6973 120.765 97.7101 120.626 97.7358 120.48C97.8004 120.12 97.9283 119.8 98.1188 119.521ZM100.559 120.248C100.559 119.995 100.485 119.798 100.338 119.657C100.19 119.515 100.004 119.444 99.7815 119.444C99.614 119.444 99.4522 119.485 99.2957 119.567C99.1392 119.648 99.0031 119.767 98.8876 119.923C98.7715 120.08 98.6944 120.265 98.6558 120.48C98.6432 120.561 98.6367 120.638 98.6367 120.711C98.6367 120.968 98.7096 121.171 98.8551 121.319C99.0012 121.467 99.1853 121.541 99.4082 121.541C99.5754 121.541 99.7384 121.499 99.897 121.415C100.056 121.332 100.192 121.211 100.305 121.052C100.418 120.894 100.495 120.707 100.534 120.492C100.551 120.381 100.559 120.3 100.559 120.248Z" fill="#666771"/>
<path d="M103.974 118.839C104.18 118.719 104.403 118.659 104.643 118.659L104.476 119.605H104.237C103.972 119.605 103.759 119.662 103.598 119.778C103.437 119.894 103.32 120.091 103.247 120.37L102.913 122.274H102.006L102.636 118.711H103.543L103.434 119.341C103.588 119.127 103.768 118.96 103.974 118.839Z" fill="#666771"/>
<path d="M105.833 118.711L106.309 121.2L107.691 118.711H108.65L105.518 123.959H104.56L105.64 122.184L104.823 118.711H105.833Z" fill="#666771"/>
<path d="M14.7223 99.3164L10.1291 112.977H4.59293L0 99.3164H4.55273L7.36906 108.712L10.1666 99.3164H14.7223Z" fill="#374850"/>
<path d="M17.9055 112.435C17.0314 111.985 16.346 111.339 15.85 110.495C15.3539 109.654 15.1074 108.665 15.1074 107.534C15.1074 106.404 15.3539 105.415 15.85 104.573C16.346 103.732 17.0287 103.086 17.9055 102.633C18.7791 102.183 19.7647 101.958 20.8585 101.958C21.9523 101.958 22.9352 102.183 23.8118 102.633C24.6853 103.084 25.3708 103.729 25.867 104.573C26.3628 105.415 26.6093 106.404 26.6093 107.534C26.6093 108.665 26.3628 109.654 25.867 110.495C25.3708 111.337 24.688 111.986 23.8118 112.435C22.9376 112.886 21.9521 113.111 20.8585 113.111C19.7649 113.111 18.7791 112.886 17.9055 112.435ZM21.8607 108.936C22.1313 108.619 22.2653 108.153 22.2653 107.537C22.2653 106.92 22.1313 106.454 21.8607 106.138C21.59 105.824 21.2551 105.666 20.8585 105.666C20.4592 105.666 20.1243 105.824 19.8563 106.138C19.5857 106.454 19.4517 106.92 19.4517 107.537C19.4517 108.153 19.583 108.619 19.8483 108.936C20.1106 109.252 20.448 109.407 20.8606 109.407C21.2551 109.407 21.59 109.249 21.8607 108.936Z" fill="#374850"/>
<path d="M28.0837 104.573C28.5526 103.732 29.2091 103.086 30.0505 102.633C30.8925 102.183 31.8539 101.958 32.9338 101.958C34.3487 101.958 35.5411 102.357 36.5139 103.153C37.4839 103.951 38.1002 105.056 38.3575 106.471H33.8235C33.6573 105.905 33.3277 105.621 32.84 105.621C32.4917 105.621 32.2184 105.782 32.0201 106.103C31.8218 106.425 31.7199 106.902 31.7199 107.532C31.7199 108.161 31.8191 108.638 32.0201 108.96C32.2178 109.281 32.4917 109.442 32.84 109.442C33.3277 109.442 33.6573 109.158 33.8235 108.593H38.3575C38.1002 110.008 37.4866 111.114 36.5139 111.91C35.5411 112.709 34.3487 113.105 32.9338 113.105C31.8545 113.105 30.8925 112.88 30.0505 112.43C29.2091 111.979 28.5526 111.334 28.0837 110.49C27.6147 109.649 27.3789 108.66 27.3789 107.529C27.3789 106.398 27.6147 105.417 28.0837 104.573Z" fill="#374850"/>
<path d="M52.5778 104.556C52.969 103.714 53.5076 103.071 54.1883 102.626C54.8689 102.182 55.6353 101.962 56.4847 101.962C57.1922 101.962 57.8031 102.107 58.3176 102.396C58.8321 102.685 59.2234 103.082 59.494 103.583V102.099H63.7573V112.981H59.494V111.496C59.2234 111.997 58.8321 112.394 58.3176 112.683C57.8031 112.973 57.1922 113.117 56.4847 113.117C55.6353 113.117 54.8713 112.895 54.1883 112.453C53.5076 112.008 52.969 111.367 52.5778 110.524C52.1866 109.682 51.9883 108.688 51.9883 107.544C51.9904 106.391 52.1866 105.4 52.5778 104.556ZM59.0519 106.187C58.7566 105.866 58.3763 105.705 57.913 105.705C57.4494 105.705 57.0711 105.866 56.7741 106.187C56.4788 106.509 56.3293 106.96 56.3293 107.538C56.3293 108.117 56.4767 108.568 56.7741 108.889C57.0689 109.21 57.4494 109.371 57.913 109.371C58.3763 109.371 58.7544 109.21 59.0519 108.889C59.3466 108.567 59.4967 108.117 59.4967 107.538C59.4967 106.959 59.3466 106.509 59.0519 106.187Z" fill="#374850"/>
<path d="M39.7155 104.556C40.1067 103.714 40.6453 103.071 41.326 102.626C42.0066 102.182 42.773 101.962 43.6224 101.962C44.3299 101.962 44.9408 102.107 45.4553 102.396C45.9698 102.685 46.3611 103.082 46.6317 103.583V102.099H50.895V112.981H46.6317V111.496C46.3611 111.997 45.9698 112.394 45.4553 112.683C44.9408 112.973 44.3299 113.117 43.6224 113.117C42.773 113.117 42.009 112.895 41.326 112.453C40.6453 112.008 40.1067 111.367 39.7155 110.524C39.3243 109.682 39.126 108.688 39.126 107.544C39.1281 106.391 39.3243 105.4 39.7155 104.556ZM46.1895 106.187C45.8942 105.866 45.514 105.705 45.0507 105.705C44.5871 105.705 44.2087 105.866 43.9118 106.187C43.6165 106.509 43.467 106.96 43.467 107.538C43.467 108.117 43.6144 108.568 43.9118 108.889C44.2066 109.21 44.5871 109.371 45.0507 109.371C45.514 109.371 45.8921 109.21 46.1895 108.889C46.4843 108.567 46.6344 108.117 46.6344 107.538C46.6344 106.959 46.4843 106.509 46.1895 106.187Z" fill="#374850"/>
<path d="M69.9715 98.7002V112.977H65.6895V98.7002H69.9715Z" fill="#374850"/>
<path d="M137.407 101.455C137.468 101.426 137.526 101.387 137.58 101.338L141.093 98.1178C141.55 97.6989 141.266 96.9368 140.645 96.92L138.689 96.8685C138.519 96.8639 138.358 96.7975 138.234 96.6807L137.077 95.586C136.848 95.3692 136.547 95.3507 136.308 95.4638C136.062 95.5804 135.883 95.8374 135.917 96.1608L136.429 100.902C136.482 101.392 136.999 101.648 137.407 101.455Z" fill="#5264AE"/>
<path d="M91.3739 98.7002V112.977H87.0918V98.7002H91.3739Z" fill="#374850"/>
<path d="M95.5222 112.436C94.6459 111.986 93.9631 111.34 93.4669 110.496C92.9711 109.655 92.7246 108.666 92.7246 107.535C92.7246 106.405 92.9711 105.416 93.4669 104.574C93.9631 103.733 94.6459 103.087 95.5222 102.634C96.3957 102.184 97.3816 101.959 98.4754 101.959C99.5687 101.959 100.552 102.184 101.428 102.634C102.302 103.085 102.988 103.73 103.484 104.574C103.98 105.416 104.226 106.405 104.226 107.535C104.226 108.666 103.98 109.655 103.484 110.496C102.988 111.338 102.305 111.987 101.428 112.436C100.555 112.887 99.569 113.112 98.4754 113.112C97.3816 113.112 96.3982 112.887 95.5222 112.436ZM99.4765 108.937C99.7477 108.62 99.8817 108.154 99.8817 107.537C99.8817 106.921 99.7477 106.455 99.4765 106.139C99.2059 105.825 98.8709 105.667 98.4749 105.667C98.0756 105.667 97.7407 105.825 97.4727 106.139C97.202 106.455 97.0681 106.921 97.0681 107.537C97.0681 108.154 97.1988 108.62 97.4644 108.937C97.727 109.253 98.0646 109.408 98.4776 109.408C98.8736 109.408 99.2086 109.25 99.4765 108.937Z" fill="#374850"/>
<path d="M105.699 104.574C106.168 103.733 106.824 103.087 107.666 102.634C108.507 102.184 109.469 101.959 110.549 101.959C111.964 101.959 113.157 102.358 114.129 103.154C115.099 103.952 115.713 105.057 115.973 106.472H111.439C111.273 105.906 110.943 105.622 110.456 105.622C110.107 105.622 109.834 105.783 109.635 106.104C109.437 106.426 109.335 106.903 109.335 107.533C109.335 108.162 109.434 108.639 109.635 108.961C109.833 109.282 110.107 109.443 110.456 109.443C110.943 109.443 111.273 109.159 111.439 108.594H115.973C115.715 110.009 115.102 111.115 114.129 111.911C113.157 112.71 111.964 113.106 110.549 113.106C109.469 113.106 108.507 112.881 107.666 112.431C106.824 111.98 106.168 111.335 105.699 110.491C105.23 109.65 104.994 108.661 104.994 107.53C104.994 106.399 105.23 105.418 105.699 104.574Z" fill="#374850"/>
<path d="M117.335 104.556C117.726 103.714 118.264 103.071 118.945 102.626C119.626 102.182 120.392 101.962 121.242 101.962C121.949 101.962 122.56 102.107 123.075 102.396C123.589 102.685 123.98 103.082 124.251 103.583V102.099H128.514V112.981H124.251V111.496C123.98 111.997 123.589 112.394 123.075 112.683C122.56 112.973 121.949 113.117 121.242 113.117C120.392 113.117 119.628 112.895 118.945 112.453C118.264 112.008 117.726 111.367 117.335 110.524C116.943 109.682 116.745 108.688 116.745 107.544C116.745 106.391 116.941 105.4 117.335 104.556ZM123.806 106.187C123.511 105.866 123.13 105.705 122.667 105.705C122.204 105.705 121.825 105.866 121.528 106.187C121.233 106.509 121.084 106.96 121.084 107.538C121.084 108.117 121.231 108.568 121.528 108.889C121.823 109.21 122.204 109.371 122.667 109.371C123.13 109.371 123.509 109.21 123.806 108.889C124.101 108.567 124.251 108.117 124.251 107.538C124.251 106.959 124.104 106.509 123.806 106.187Z" fill="#374850"/>
<path d="M134.725 98.7002V112.977H130.443V98.7002H134.725Z" fill="#374850"/>
<path d="M136.504 109.925C137.116 110.296 138.383 110.734 139.367 110.734C140.372 110.734 140.788 110.384 140.788 109.837C140.788 109.291 140.46 109.028 139.215 108.614C137.007 107.871 136.154 106.668 136.176 105.401C136.176 103.412 137.881 101.903 140.526 101.903C141.771 101.903 142.886 102.188 143.542 102.515L142.952 104.81C142.471 104.548 141.553 104.198 140.635 104.198C139.826 104.198 139.367 104.526 139.367 105.073C139.367 105.576 139.783 105.838 141.094 106.296C143.127 106.996 143.979 108.023 144.001 109.597C144.001 111.586 142.428 113.05 139.367 113.05C137.968 113.05 136.723 112.744 135.914 112.307L136.504 109.925Z" fill="#5264AE"/>
<path d="M73.5821 112.272L72.8047 108.686L76.7934 99.198L81.4246 98.1934L83.1817 106.294L84.577 105.991L85.3841 109.712L83.9888 110.015L84.4513 112.146L80.1105 113.088L79.648 110.956L73.5821 112.272ZM78.4957 103.962L77.0964 107.613L79.1895 107.16L78.4957 103.962Z" fill="#5264AE"/>
</svg>
