<svg width="160" height="202" viewBox="0 0 160 202" fill="none" xmlns="http://www.w3.org/2000/svg">
<g filter="url(#filter0_d_20_444)">
<rect x="13" y="10" width="147" height="192" rx="10" fill="url(#paint0_linear_20_444)"/>
<path d="M43.5678 132.27C44.6038 132.27 45.5092 132.471 46.2838 132.872C47.0678 133.264 47.6698 133.833 48.0898 134.58C48.5192 135.317 48.7338 136.181 48.7338 137.17C48.7338 138.159 48.5192 139.018 48.0898 139.746C47.6698 140.474 47.0678 141.034 46.2838 141.426C45.5092 141.809 44.6038 142 43.5678 142H40.3898V132.27H43.5678ZM43.5678 140.698C44.7065 140.698 45.5792 140.39 46.1858 139.774C46.7925 139.158 47.0958 138.29 47.0958 137.17C47.0958 136.041 46.7925 135.159 46.1858 134.524C45.5792 133.889 44.7065 133.572 43.5678 133.572H41.9858V140.698H43.5678ZM57.3856 137.954C57.3856 138.243 57.367 138.505 57.3296 138.738H51.4356C51.4823 139.354 51.711 139.849 52.1216 140.222C52.5323 140.595 53.0363 140.782 53.6336 140.782C54.4923 140.782 55.099 140.423 55.4536 139.704H57.1756C56.9423 140.413 56.5176 140.997 55.9016 141.454C55.295 141.902 54.539 142.126 53.6336 142.126C52.8963 142.126 52.2336 141.963 51.6456 141.636C51.067 141.3 50.6096 140.833 50.2736 140.236C49.947 139.629 49.7836 138.929 49.7836 138.136C49.7836 137.343 49.9423 136.647 50.2596 136.05C50.5863 135.443 51.039 134.977 51.6176 134.65C52.2056 134.323 52.8776 134.16 53.6336 134.16C54.3616 134.16 55.0103 134.319 55.5796 134.636C56.149 134.953 56.5923 135.401 56.9096 135.98C57.227 136.549 57.3856 137.207 57.3856 137.954ZM55.7196 137.45C55.7103 136.862 55.5003 136.391 55.0896 136.036C54.679 135.681 54.1703 135.504 53.5636 135.504C53.013 135.504 52.5416 135.681 52.1496 136.036C51.7576 136.381 51.5243 136.853 51.4496 137.45H55.7196ZM60.5523 131.64V142H58.9563V131.64H60.5523ZM63.4597 133.264C63.1703 133.264 62.9277 133.166 62.7317 132.97C62.5357 132.774 62.4377 132.531 62.4377 132.242C62.4377 131.953 62.5357 131.71 62.7317 131.514C62.9277 131.318 63.1703 131.22 63.4597 131.22C63.7397 131.22 63.9777 131.318 64.1737 131.514C64.3697 131.71 64.4677 131.953 64.4677 132.242C64.4677 132.531 64.3697 132.774 64.1737 132.97C63.9777 133.166 63.7397 133.264 63.4597 133.264ZM64.2437 134.286V142H62.6477V134.286H64.2437ZM69.3211 140.572L71.5051 134.286H73.1991L70.2591 142H68.3551L65.4291 134.286H67.1371L69.3211 140.572ZM81.4755 137.954C81.4755 138.243 81.4568 138.505 81.4195 138.738H75.5255C75.5721 139.354 75.8008 139.849 76.2115 140.222C76.6221 140.595 77.1261 140.782 77.7235 140.782C78.5821 140.782 79.1888 140.423 79.5435 139.704H81.2655C81.0321 140.413 80.6075 140.997 79.9915 141.454C79.3848 141.902 78.6288 142.126 77.7235 142.126C76.9861 142.126 76.3235 141.963 75.7355 141.636C75.1568 141.3 74.6995 140.833 74.3635 140.236C74.0368 139.629 73.8735 138.929 73.8735 138.136C73.8735 137.343 74.0321 136.647 74.3495 136.05C74.6761 135.443 75.1288 134.977 75.7075 134.65C76.2955 134.323 76.9675 134.16 77.7235 134.16C78.4515 134.16 79.1001 134.319 79.6695 134.636C80.2388 134.953 80.6821 135.401 80.9995 135.98C81.3168 136.549 81.4755 137.207 81.4755 137.954ZM79.8095 137.45C79.8001 136.862 79.5901 136.391 79.1795 136.036C78.7688 135.681 78.2601 135.504 77.6535 135.504C77.1028 135.504 76.6315 135.681 76.2395 136.036C75.8475 136.381 75.6141 136.853 75.5395 137.45H79.8095ZM84.6421 135.406C84.8754 135.014 85.1834 134.711 85.5661 134.496C85.9581 134.272 86.4201 134.16 86.9521 134.16V135.812H86.5461C85.9208 135.812 85.4448 135.971 85.1181 136.288C84.8008 136.605 84.6421 137.156 84.6421 137.94V142H83.0461V134.286H84.6421V135.406ZM95.3631 134.286L90.6311 145.626H88.9791L90.5471 141.874L87.5091 134.286H89.2871L91.4571 140.166L93.7111 134.286H95.3631ZM107.414 132.27L104.194 138.472V142H102.598V138.472L99.3643 132.27H101.142L103.396 137.044L105.65 132.27H107.414ZM112.027 142.126C111.299 142.126 110.641 141.963 110.053 141.636C109.465 141.3 109.003 140.833 108.667 140.236C108.331 139.629 108.163 138.929 108.163 138.136C108.163 137.352 108.336 136.657 108.681 136.05C109.026 135.443 109.498 134.977 110.095 134.65C110.692 134.323 111.36 134.16 112.097 134.16C112.834 134.16 113.502 134.323 114.099 134.65C114.696 134.977 115.168 135.443 115.513 136.05C115.858 136.657 116.031 137.352 116.031 138.136C116.031 138.92 115.854 139.615 115.499 140.222C115.144 140.829 114.659 141.3 114.043 141.636C113.436 141.963 112.764 142.126 112.027 142.126ZM112.027 140.74C112.438 140.74 112.82 140.642 113.175 140.446C113.539 140.25 113.833 139.956 114.057 139.564C114.281 139.172 114.393 138.696 114.393 138.136C114.393 137.576 114.286 137.105 114.071 136.722C113.856 136.33 113.572 136.036 113.217 135.84C112.862 135.644 112.48 135.546 112.069 135.546C111.658 135.546 111.276 135.644 110.921 135.84C110.576 136.036 110.3 136.33 110.095 136.722C109.89 137.105 109.787 137.576 109.787 138.136C109.787 138.967 109.997 139.611 110.417 140.068C110.846 140.516 111.383 140.74 112.027 140.74ZM124.595 134.286V142H122.999V141.09C122.747 141.407 122.415 141.659 122.005 141.846C121.603 142.023 121.174 142.112 120.717 142.112C120.11 142.112 119.564 141.986 119.079 141.734C118.603 141.482 118.225 141.109 117.945 140.614C117.674 140.119 117.539 139.522 117.539 138.822V134.286H119.121V138.584C119.121 139.275 119.293 139.807 119.639 140.18C119.984 140.544 120.455 140.726 121.053 140.726C121.65 140.726 122.121 140.544 122.467 140.18C122.821 139.807 122.999 139.275 122.999 138.584V134.286H124.595ZM128.296 135.406C128.53 135.014 128.838 134.711 129.22 134.496C129.612 134.272 130.074 134.16 130.606 134.16V135.812H130.2C129.575 135.812 129.099 135.971 128.772 136.288C128.455 136.605 128.296 137.156 128.296 137.94V142H126.7V134.286H128.296V135.406ZM59.6704 161.712H62.9604V163H58.0744V153.27H59.6704V161.712ZM67.6411 163.126C66.9131 163.126 66.2551 162.963 65.6671 162.636C65.0791 162.3 64.6171 161.833 64.2811 161.236C63.9451 160.629 63.7771 159.929 63.7771 159.136C63.7771 158.352 63.9498 157.657 64.2951 157.05C64.6405 156.443 65.1118 155.977 65.7091 155.65C66.3065 155.323 66.9738 155.16 67.7111 155.16C68.4485 155.16 69.1158 155.323 69.7131 155.65C70.3105 155.977 70.7818 156.443 71.1271 157.05C71.4725 157.657 71.6451 158.352 71.6451 159.136C71.6451 159.92 71.4678 160.615 71.1131 161.222C70.7585 161.829 70.2731 162.3 69.6571 162.636C69.0505 162.963 68.3785 163.126 67.6411 163.126ZM67.6411 161.74C68.0518 161.74 68.4345 161.642 68.7891 161.446C69.1531 161.25 69.4471 160.956 69.6711 160.564C69.8951 160.172 70.0071 159.696 70.0071 159.136C70.0071 158.576 69.8998 158.105 69.6851 157.722C69.4705 157.33 69.1858 157.036 68.8311 156.84C68.4765 156.644 68.0938 156.546 67.6831 156.546C67.2725 156.546 66.8898 156.644 66.5351 156.84C66.1898 157.036 65.9145 157.33 65.7091 157.722C65.5038 158.105 65.4011 158.576 65.4011 159.136C65.4011 159.967 65.6111 160.611 66.0311 161.068C66.4605 161.516 66.9971 161.74 67.6411 161.74ZM72.6909 159.136C72.6909 158.343 72.8495 157.647 73.1669 157.05C73.4935 156.443 73.9415 155.977 74.5109 155.65C75.0802 155.323 75.7335 155.16 76.4709 155.16C77.4042 155.16 78.1742 155.384 78.7809 155.832C79.3969 156.271 79.8122 156.901 80.0269 157.722H78.3049C78.1649 157.339 77.9409 157.041 77.6329 156.826C77.3249 156.611 76.9375 156.504 76.4709 156.504C75.8175 156.504 75.2949 156.737 74.9029 157.204C74.5202 157.661 74.3289 158.305 74.3289 159.136C74.3289 159.967 74.5202 160.615 74.9029 161.082C75.2949 161.549 75.8175 161.782 76.4709 161.782C77.3949 161.782 78.0062 161.376 78.3049 160.564H80.0269C79.8029 161.348 79.3829 161.973 78.7669 162.44C78.1509 162.897 77.3855 163.126 76.4709 163.126C75.7335 163.126 75.0802 162.963 74.5109 162.636C73.9415 162.3 73.4935 161.833 73.1669 161.236C72.8495 160.629 72.6909 159.929 72.6909 159.136ZM81.0854 159.108C81.0854 158.333 81.244 157.647 81.5614 157.05C81.888 156.453 82.3267 155.991 82.8774 155.664C83.4374 155.328 84.0534 155.16 84.7254 155.16C85.332 155.16 85.8594 155.281 86.3074 155.524C86.7647 155.757 87.1287 156.051 87.3994 156.406V155.286H89.0094V163H87.3994V161.852C87.1287 162.216 86.76 162.519 86.2934 162.762C85.8267 163.005 85.2947 163.126 84.6974 163.126C84.0347 163.126 83.428 162.958 82.8774 162.622C82.3267 162.277 81.888 161.801 81.5614 161.194C81.244 160.578 81.0854 159.883 81.0854 159.108ZM87.3994 159.136C87.3994 158.604 87.2874 158.142 87.0634 157.75C86.8487 157.358 86.564 157.059 86.2094 156.854C85.8547 156.649 85.472 156.546 85.0614 156.546C84.6507 156.546 84.268 156.649 83.9134 156.854C83.5587 157.05 83.2694 157.344 83.0454 157.736C82.8307 158.119 82.7234 158.576 82.7234 159.108C82.7234 159.64 82.8307 160.107 83.0454 160.508C83.2694 160.909 83.5587 161.217 83.9134 161.432C84.2774 161.637 84.66 161.74 85.0614 161.74C85.472 161.74 85.8547 161.637 86.2094 161.432C86.564 161.227 86.8487 160.928 87.0634 160.536C87.2874 160.135 87.3994 159.668 87.3994 159.136ZM92.9677 156.588V160.858C92.9677 161.147 93.033 161.357 93.1637 161.488C93.3037 161.609 93.537 161.67 93.8637 161.67H94.8437V163H93.5837C92.865 163 92.3143 162.832 91.9317 162.496C91.549 162.16 91.3577 161.614 91.3577 160.858V156.588H90.4477V155.286H91.3577V153.368H92.9677V155.286H94.8437V156.588H92.9677ZM97.1266 154.264C96.8373 154.264 96.5946 154.166 96.3986 153.97C96.2026 153.774 96.1046 153.531 96.1046 153.242C96.1046 152.953 96.2026 152.71 96.3986 152.514C96.5946 152.318 96.8373 152.22 97.1266 152.22C97.4066 152.22 97.6446 152.318 97.8406 152.514C98.0366 152.71 98.1346 152.953 98.1346 153.242C98.1346 153.531 98.0366 153.774 97.8406 153.97C97.6446 154.166 97.4066 154.264 97.1266 154.264ZM97.9106 155.286V163H96.3146V155.286H97.9106ZM103.352 163.126C102.624 163.126 101.966 162.963 101.378 162.636C100.79 162.3 100.328 161.833 99.9921 161.236C99.6561 160.629 99.4881 159.929 99.4881 159.136C99.4881 158.352 99.6607 157.657 100.006 157.05C100.351 156.443 100.823 155.977 101.42 155.65C102.017 155.323 102.685 155.16 103.422 155.16C104.159 155.16 104.827 155.323 105.424 155.65C106.021 155.977 106.493 156.443 106.838 157.05C107.183 157.657 107.356 158.352 107.356 159.136C107.356 159.92 107.179 160.615 106.824 161.222C106.469 161.829 105.984 162.3 105.368 162.636C104.761 162.963 104.089 163.126 103.352 163.126ZM103.352 161.74C103.763 161.74 104.145 161.642 104.5 161.446C104.864 161.25 105.158 160.956 105.382 160.564C105.606 160.172 105.718 159.696 105.718 159.136C105.718 158.576 105.611 158.105 105.396 157.722C105.181 157.33 104.897 157.036 104.542 156.84C104.187 156.644 103.805 156.546 103.394 156.546C102.983 156.546 102.601 156.644 102.246 156.84C101.901 157.036 101.625 157.33 101.42 157.722C101.215 158.105 101.112 158.576 101.112 159.136C101.112 159.967 101.322 160.611 101.742 161.068C102.171 161.516 102.708 161.74 103.352 161.74ZM112.826 155.16C113.432 155.16 113.974 155.286 114.45 155.538C114.935 155.79 115.313 156.163 115.584 156.658C115.854 157.153 115.99 157.75 115.99 158.45V163H114.408V158.688C114.408 157.997 114.235 157.47 113.89 157.106C113.544 156.733 113.073 156.546 112.476 156.546C111.878 156.546 111.402 156.733 111.048 157.106C110.702 157.47 110.53 157.997 110.53 158.688V163H108.934V155.286H110.53V156.168C110.791 155.851 111.122 155.603 111.524 155.426C111.934 155.249 112.368 155.16 112.826 155.16Z" fill="#374850"/>
<path d="M83.8457 107.937C83.6604 107.334 83.3748 106.779 83.0097 106.289C81.9881 104.908 80.3548 104.031 78.5492 104.031C78.3721 104.031 78.1945 104.04 78.0154 104.057C77.5551 104.1 77.1168 104.206 76.6975 104.353C76.1012 104.563 75.5525 104.867 75.073 105.252C74.669 105.576 74.3169 105.951 74.0162 106.371C73.2687 107.42 72.8777 108.732 73.0097 110.115C73.2843 112.99 75.7012 115.143 78.5332 115.143C78.7084 115.143 78.8877 115.135 79.0668 115.117C81.9877 114.839 84.1568 112.348 84.0872 109.46C84.0851 109.326 84.0827 109.194 84.07 109.06C84.0384 108.669 83.9585 108.296 83.8457 107.937Z" fill="#5264AE"/>
<path d="M113.353 102.303C112.943 101.968 112.487 101.691 111.995 101.484C111.386 101.227 110.724 101.078 110.037 101.056C109.975 101.054 109.914 101.048 109.851 101.048C109.676 101.048 109.497 101.056 109.318 101.074C107.458 101.251 105.905 102.329 105.036 103.832C104.701 104.411 104.473 105.055 104.365 105.733C104.294 106.187 104.27 106.654 104.315 107.131C104.322 107.192 104.332 107.248 104.341 107.308C104.696 110.095 107.067 112.16 109.839 112.16C110.014 112.16 110.193 112.152 110.372 112.134C113.428 111.843 115.667 109.132 115.376 106.077C115.226 104.536 114.462 103.208 113.353 102.303Z" fill="#5264AE"/>
<path d="M63.3966 73.8418L62.4309 63.6973C61.9622 58.7784 57.8102 55.082 52.9649 55.082C52.6645 55.082 52.3599 55.0972 52.0553 55.1254L42.9693 55.9917C40.5584 56.2207 38.789 58.3615 39.0203 60.7723C39.2364 63.0428 41.146 64.7429 43.3799 64.7429C43.5201 64.7429 43.661 64.7364 43.801 64.7234L52.8874 63.8572C52.9109 63.855 52.9349 63.8526 52.9587 63.8526C53.3389 63.8526 53.6651 64.1421 53.7014 64.5288L54.6672 74.6733C54.8463 76.5527 55.1703 78.3848 55.6244 80.1584C56.1537 79.6183 56.8169 79.2012 57.5751 78.9657L63.8913 77.015C63.6666 75.9826 63.5007 74.922 63.3966 73.8418Z" fill="#374850"/>
<path d="M113.275 79.29L108.712 67.3287L104.228 69.0396L94.2927 43L79.4045 48.6793L72.6514 75.4534L73.7831 75.151C74.0056 75.084 74.2283 75.0559 74.4444 75.0581C75.8807 75.0753 77.0021 76.5292 76.4728 77.9982L72.9992 87.6348L75.326 93.7332V93.7353L75.3368 93.7613L75.3562 93.7548L94.8373 86.3237L97.4514 93.1761L111.404 87.8532L108.791 81.0009L113.275 79.29ZM84.6667 76.5011L87.4726 63.6563L91.3956 73.9347L84.6667 76.5011Z" fill="#5264AE"/>
<path d="M125.851 67.8924L125.35 62.6365C125.134 60.3683 123.224 58.666 120.99 58.666C120.852 58.666 120.712 58.6725 120.569 58.6855C118.158 58.9144 116.389 61.0552 116.62 63.4661L117.121 68.722C117.193 69.4737 117.225 70.221 117.234 70.9643C117.35 80.2447 112.682 88.6697 105.367 93.632C101.744 96.0906 97.4762 97.6997 92.8185 98.1428C91.9522 98.2249 91.0925 98.2655 90.2392 98.2655C86.8392 98.2655 83.5621 97.622 80.5315 96.4444C77.6454 95.3235 74.9861 93.7117 72.6612 91.7091L71.9186 93.8413C71.2618 95.7291 69.5444 96.9499 67.5441 96.9499C65.6214 96.9499 63.9278 95.7924 63.23 93.999L61.6574 89.9572L58.9893 88.607C62.3525 94.6557 67.408 99.5837 73.4497 102.817C74.6873 101.884 76.1565 101.298 77.74 101.147C78.0076 101.122 78.2822 101.108 78.5522 101.108C82.2655 101.108 85.4218 103.472 86.5624 106.844C87.7722 106.969 88.9949 107.038 90.2327 107.038C91.3623 107.038 92.5031 106.984 93.6498 106.876C96.3721 106.617 98.9901 106.047 101.483 105.221C101.723 103.759 102.336 102.376 103.306 101.206C104.749 99.4601 106.784 98.38 109.039 98.164C109.307 98.138 109.582 98.1251 109.852 98.1251C111.003 98.1251 112.098 98.356 113.101 98.7708C121.869 91.4586 127.013 80.0892 125.851 67.8924Z" fill="#374850"/>
<path d="M71.7546 77.6338C71.5602 77.6338 71.3593 77.6619 71.1584 77.7247L58.0392 81.775C56.333 82.3021 56.1338 84.6373 57.7285 85.4452L62.7572 87.9922C63.1937 88.2127 63.5327 88.5862 63.712 89.0442L65.3754 93.3215C65.7039 94.1683 66.4641 94.5874 67.225 94.5874C68.0091 94.5874 68.7933 94.1402 69.1018 93.2545L73.6189 80.2779C74.0855 78.9386 73.0548 77.6338 71.7546 77.6338Z" fill="#5264AE"/>
<ellipse cx="82.4523" cy="120.55" rx="20.2511" ry="1.56985" fill="url(#paint1_radial_20_444)"/>
</g>
<defs>
<filter id="filter0_d_20_444" x="0" y="0" width="160" height="202" filterUnits="userSpaceOnUse" color-interpolation-filters="sRGB">
<feFlood flood-opacity="0" result="BackgroundImageFix"/>
<feColorMatrix in="SourceAlpha" type="matrix" values="0 0 0 0 0 0 0 0 0 0 0 0 0 0 0 0 0 0 127 0" result="hardAlpha"/>
<feOffset dx="-9" dy="-6"/>
<feGaussianBlur stdDeviation="2"/>
<feComposite in2="hardAlpha" operator="out"/>
<feColorMatrix type="matrix" values="0 0 0 0 0 0 0 0 0 0 0 0 0 0 0 0 0 0 0.15 0"/>
<feBlend mode="normal" in2="BackgroundImageFix" result="effect1_dropShadow_20_444"/>
<feBlend mode="normal" in="SourceGraphic" in2="effect1_dropShadow_20_444" result="shape"/>
</filter>
<linearGradient id="paint0_linear_20_444" x1="86.5" y1="10" x2="86.5" y2="202" gradientUnits="userSpaceOnUse">
<stop offset="0.596354" stop-color="white"/>
<stop offset="1" stop-color="#BCC9FE"/>
</linearGradient>
<radialGradient id="paint1_radial_20_444" cx="0" cy="0" r="1" gradientUnits="userSpaceOnUse" gradientTransform="translate(82.4523 120.55) rotate(90) scale(1.56985 20.2511)">
<stop stop-color="#D6C8C8"/>
<stop offset="1" stop-color="#D9D9D9" stop-opacity="0"/>
</radialGradient>
</defs>
</svg>
