<svg width="33" height="33" viewBox="0 0 33 33" fill="none" xmlns="http://www.w3.org/2000/svg">
<circle cx="16.5" cy="16.5" r="16.5" fill="white"/>
<path fill-rule="evenodd" clip-rule="evenodd" d="M24.5 12H22V10C22 8.9 21.1 8 20 8H8C6.9 8 6 8.9 6 10V19C6 20.1 6.9 21 8 21C8 22.66 9.34 24 11 24C12.66 24 14 22.66 14 21H20C20 22.66 21.34 24 23 24C24.66 24 26 22.66 26 21H27C27.55 21 28 20.55 28 20V16.67C28 16.24 27.86 15.82 27.6 15.47L25.3 12.4C25.11 12.15 24.81 12 24.5 12ZM11 22C10.45 22 10 21.55 10 21C10 20.45 10.45 20 11 20C11.55 20 12 20.45 12 21C12 21.55 11.55 22 11 22ZM24.5 13.5L26.46 16H22V13.5H24.5ZM23 22C22.45 22 22 21.55 22 21C22 20.45 22.45 20 23 20C23.55 20 24 20.45 24 21C24 21.55 23.55 22 23 22Z" fill="#8B96A5"/>
</svg>
