<svg width="18" height="16" viewBox="0 0 18 16" fill="none" xmlns="http://www.w3.org/2000/svg">
<path d="M3.40426 15.3191H2.38298V4.76596H3.74468C3.84681 4.76596 3.94894 4.73191 4.01702 4.62979C4.08511 4.5617 4.11915 4.45957 4.08511 4.35745L3.40426 0.27234C3.37021 0.102128 3.23404 0 3.06383 0H1.02128C0.851064 0 0.714894 0.102128 0.680851 0.27234L0 4.35745C0 4.45957 -6.59456e-08 4.5617 0.0680851 4.62979C0.13617 4.69787 0.238298 4.76596 0.340426 4.76596H1.70213V15.3191H0.680851C0.510638 15.3191 0.340426 15.4894 0.340426 15.6596C0.340426 15.8298 0.510638 16 0.680851 16H3.40426C3.57447 16 3.74468 15.8298 3.74468 15.6596C3.74468 15.4894 3.60851 15.3191 3.40426 15.3191Z" fill="#8B96A5"/>
<path d="M7.48933 9.87201V10.5529H12.9361V9.87201C12.9361 8.57839 13.9915 7.48903 15.3191 7.48903C15.4213 7.48903 15.5574 7.48903 15.6595 7.52307V6.46775C15.6595 5.51456 14.9106 4.76562 13.9574 4.76562H6.46806C5.51487 4.76562 4.76593 5.51456 4.76593 6.46775V7.52307C4.86806 7.52307 4.97019 7.48903 5.10636 7.48903C6.39997 7.48903 7.48933 8.54435 7.48933 9.87201ZM12.3574 6.87626C12.2212 6.74009 12.2212 6.53584 12.3574 6.39967C12.4936 6.2635 12.6978 6.2635 12.834 6.39967L12.9361 6.5018L13.0383 6.39967C13.1744 6.2635 13.3787 6.2635 13.5149 6.39967C13.651 6.53584 13.651 6.74009 13.5149 6.87626L13.4127 6.97839L13.5149 7.08052C13.651 7.21669 13.651 7.42094 13.5149 7.55711C13.4468 7.6252 13.3787 7.65924 13.2766 7.65924C13.1744 7.65924 13.1064 7.6252 13.0383 7.55711L12.9361 7.45499L12.834 7.55711C12.7659 7.6252 12.6978 7.65924 12.5957 7.65924C12.4936 7.65924 12.4255 7.6252 12.3574 7.55711C12.2212 7.42094 12.2212 7.21669 12.3574 7.08052L12.4595 6.97839L12.3574 6.87626ZM6.91061 6.87626C6.77444 6.74009 6.77444 6.53584 6.91061 6.39967C7.04678 6.2635 7.25104 6.2635 7.38721 6.39967L7.48933 6.5018L7.59146 6.39967C7.72763 6.2635 7.93189 6.2635 8.06806 6.39967C8.20423 6.53584 8.20423 6.74009 8.06806 6.87626L7.96593 6.97839L8.06806 7.08052C8.20423 7.21669 8.20423 7.42094 8.06806 7.55711C7.99997 7.6252 7.93189 7.65924 7.82976 7.65924C7.72763 7.65924 7.65955 7.6252 7.59146 7.55711L7.48933 7.45499L7.38721 7.55711C7.31912 7.6252 7.25104 7.65924 7.14891 7.65924C7.04678 7.65924 6.9787 7.6252 6.91061 7.55711C6.77444 7.42094 6.77444 7.21669 6.91061 7.08052L7.01274 6.97839L6.91061 6.87626Z" fill="#8B96A5"/>
<path d="M15.3191 8.16992C14.4 8.16992 13.617 8.91886 13.617 9.87205V11.2338H6.80846V9.87205C6.80846 8.9529 6.05952 8.16992 5.10633 8.16992C4.18718 8.16992 3.40421 8.91886 3.40421 9.87205V13.2763C3.40421 13.821 3.84676 14.2976 4.42548 14.2976H4.76591V15.3189C4.76591 15.4891 4.93612 15.6593 5.10633 15.6593H6.46804C6.63825 15.6593 6.80846 15.4891 6.80846 15.3189V14.2976H13.617V15.3189C13.617 15.4891 13.7872 15.6593 13.9574 15.6593H15.3191C15.4893 15.6593 15.6595 15.4891 15.6595 15.3189V14.2976H16C16.5787 14.2976 17.0212 13.821 17.0212 13.2763V9.87205C17.0212 8.91886 16.2723 8.16992 15.3191 8.16992ZM5.10633 10.2125C4.93612 10.2125 4.76591 10.0423 4.76591 9.87205C4.76591 9.70184 4.93612 9.53162 5.10633 9.53162C5.27655 9.53162 5.44676 9.70184 5.44676 9.87205C5.44676 10.0423 5.31059 10.2125 5.10633 10.2125ZM15.3191 10.2125C15.1489 10.2125 14.9787 10.0423 14.9787 9.87205C14.9787 9.70184 15.1489 9.53162 15.3191 9.53162C15.4893 9.53162 15.6595 9.70184 15.6595 9.87205C15.6595 10.0423 15.5234 10.2125 15.3191 10.2125Z" fill="#8B96A5"/>
</svg>
