<svg width="143" height="132" viewBox="0 0 143 132" fill="none" xmlns="http://www.w3.org/2000/svg">
<path d="M12.1037 48.7211C14.8415 40.3432 29.0412 43.7363 29.0412 43.7363C29.0412 43.7363 38.0112 59.1054 40.825 59.6048C43.6389 60.1043 35.7217 44.9682 35.7217 44.9682C41.2359 44.7197 54.8734 52.1651 54.8734 52.1651C54.8734 52.1651 53.0958 69.4656 55.946 69.2571C58.7961 69.0487 56.7385 53.858 56.7385 53.858C61.9659 55.7244 66.6037 62.1747 66.6037 62.1747C72.2801 72.5825 58.1356 85.3417 61.4976 92.4362C61.4976 92.4362 62.271 93.7548 63.0118 95.9648L61.5642 95.8909C61.4657 95.4965 61.3548 95.1147 61.229 94.7469C61.2295 94.7439 61.2292 94.742 61.227 94.7405C61.2242 94.7352 61.2233 94.7296 61.2215 94.7251C61.1333 94.4959 61.008 94.1713 60.8505 93.7742C60.8505 93.7742 60.8494 93.7734 60.8502 93.7723C60.8509 93.7713 60.8491 93.7716 60.8499 93.7705C60.4527 92.8816 60.1859 92.2273 60.0206 91.7557C60.0203 91.7538 60.0192 91.753 60.0189 91.7511C58.8334 88.9654 55.9911 84.2917 55.8713 84.5171C53.12 89.7004 40.6844 89.9467 33.8543 88.1753C27.0241 86.4039 30.1339 84.6122 34.0127 81.6436C37.8916 78.6749 45.637 79.9084 48.0025 78.7882C50.367 77.6673 47.0676 76.2553 42.4482 76.3726C37.8277 76.489 35.2908 80.973 27.8194 81.2989C20.3488 81.6238 15.4041 67.3504 15.4041 67.3504C20.4552 69.2079 29.8047 66.8496 30.2491 65.0972C30.6947 63.3455 17.0569 62.8212 14.9588 62.1811C12.8641 61.5384 9.36596 57.0991 12.1037 48.7211Z" fill="#8693F2"/>
<path opacity="0.5" d="M65.6598 60.4772C65.6598 60.4772 71.7607 43.5803 68.368 29.9654C67.9169 28.1563 65.4347 27.9182 64.6331 29.6017C64.6196 29.6299 64.6061 29.6581 64.5936 29.687C63.2718 32.5836 66.3953 49.1716 65.6598 60.4772Z" fill="#B6C2FF"/>
<path opacity="0.5" d="M64.3606 65.5398C64.3606 65.5398 66.2243 41.5276 56.7457 25.7347C56.1681 24.7713 54.9216 24.3902 53.9378 24.9319C53.2978 25.2846 52.7085 26.0436 52.4646 27.5657C51.8125 31.6263 61.3964 51.2091 64.3606 65.5398Z" fill="#B6C2FF"/>
<path d="M123.49 122.433L91.8523 113.988C91.1827 113.809 90.7373 113.275 90.8635 112.8L108.602 46.1115C108.728 45.6367 109.38 45.3948 110.05 45.5735L141.687 54.0187C142.357 54.1974 142.802 54.7318 142.676 55.2066L124.937 121.895C124.811 122.37 124.159 122.612 123.49 122.433Z" fill="#FFE3CA"/>
<path d="M123.49 122.433L120.889 121.739L139.086 53.3242L141.687 54.0186C142.357 54.1974 142.802 54.7317 142.676 55.2065L124.937 121.895C124.811 122.37 124.159 122.612 123.49 122.433Z" fill="#374850"/>
<path opacity="0.5" d="M114.229 75.7358L119.554 55.7158L123.614 56.7997L118.289 76.8188L114.229 75.7358Z" fill="#EABC92"/>
<path opacity="0.5" d="M102.97 81.8079L110.55 53.3125L114.609 54.3964L107.03 82.8908L102.97 81.8079Z" fill="#EABC92"/>
<path d="M111.85 68.9187L115.641 54.6719L116.545 54.9128L112.755 69.1605L111.85 68.9187Z" fill="#374850"/>
<path d="M120.797 71.3063L124.586 57.0586L125.491 57.3004L121.702 71.5481L120.797 71.3063Z" fill="#374850"/>
<path d="M131.765 58.6137L131.679 58.8476C131.677 58.8556 131.672 58.8636 131.668 58.8707L130.544 60.496C130.531 60.5156 130.524 60.5405 130.527 60.5645L130.61 63.4338C130.618 63.5093 130.947 63.1857 131.009 63.1421C131.691 62.6727 133.517 61.0633 134.28 60.4854C134.402 60.3929 134.575 60.4916 134.558 60.6436C134.55 60.7174 134.521 60.7868 134.474 60.8437L131.841 64.0535L131.981 64.659C132.001 64.747 131.945 64.8351 131.858 64.8555L131.39 64.9631C131.303 64.9827 131.216 64.9293 131.194 64.8448L130.855 65.2583C130.839 65.2779 130.831 65.3028 130.833 65.3285L131.001 67.9337C131.016 68.164 130.95 68.3934 130.816 68.581C130.762 68.6575 130.702 68.7393 130.648 68.8149C130.534 68.9723 130.313 69.0025 130.16 68.8825L130.083 68.822C129.833 68.6246 129.685 68.3267 129.678 68.0084L129.633 65.9287C129.633 65.8878 129.607 65.8514 129.569 65.8362L128.781 65.5402L128.81 65.6682C128.831 65.7562 128.775 65.8442 128.687 65.8647L128.218 65.9723C128.13 65.9927 128.042 65.9367 128.021 65.8487L127.872 65.1987L126.642 64.7373C126.543 64.6999 126.457 64.6341 126.395 64.5479C126.316 64.4385 126.227 64.3211 126.249 64.298C126.32 64.2242 128.519 64.0642 129.369 64.0455C129.417 64.0446 129.41 63.6365 129.409 63.5885L129.526 60.8152C129.525 60.7788 129.505 60.7459 129.473 60.7281L128.781 60.36C128.703 60.3191 128.642 60.2524 128.607 60.1715L128.606 60.1679C128.581 60.111 128.614 60.0452 128.674 60.031L129.771 59.7634C129.803 59.7554 129.829 59.7331 129.841 59.702L129.944 59.4362C129.976 59.3535 130.092 59.3499 130.129 59.4308L130.169 59.5189L131.611 58.4999C131.693 58.4403 131.799 58.5212 131.765 58.6137Z" fill="#374850"/>
<path d="M100.751 130.252H142.351V72.6855H100.675C99.0998 72.6855 97.823 73.9624 97.823 75.5379V127.324C97.823 128.941 99.1345 130.252 100.751 130.252Z" fill="#739AF0"/>
<path d="M135.828 79.9687V81.7719H136.671V76.9189H134.814C134.533 76.9189 134.282 76.9572 134.063 77.0336C133.844 77.1101 133.659 77.2177 133.508 77.3555C133.357 77.4933 133.242 77.6569 133.163 77.8454C133.084 78.0348 133.045 78.2402 133.045 78.4625C133.045 78.6981 133.084 78.9089 133.163 79.0956C133.242 79.2823 133.357 79.4397 133.508 79.5686C133.659 79.6975 133.844 79.7962 134.063 79.8656C134.282 79.9349 134.533 79.9687 134.814 79.9687H135.828ZM135.828 79.2921H134.814C134.653 79.2921 134.513 79.2725 134.396 79.2325C134.278 79.1925 134.183 79.1356 134.107 79.0627C134.032 78.9898 133.977 78.9017 133.942 78.8013C133.907 78.7008 133.891 78.5896 133.891 78.4696C133.891 78.3567 133.907 78.2473 133.942 78.1433C133.977 78.0393 134.032 77.9459 134.107 77.865C134.183 77.7841 134.279 77.7192 134.396 77.672C134.512 77.6249 134.652 77.6 134.814 77.6H135.828V79.2921Z" fill="#AEC3FF"/>
<path d="M130.184 80.6418H132.063L132.456 81.7719H133.333L131.5 76.9189H130.743L128.907 81.7719H129.787L130.184 80.6418ZM131.827 79.9616H130.42L131.123 77.9486L131.827 79.9616Z" fill="#AEC3FF"/>
<path d="M125.822 80.5211C125.822 80.4233 125.836 80.3361 125.865 80.2597C125.895 80.1832 125.947 80.1121 126.024 80.048C126.1 79.984 126.206 79.9218 126.34 79.8631C126.474 79.8044 126.648 79.7422 126.858 79.6782C127.09 79.6097 127.303 79.5306 127.499 79.4416C127.694 79.3527 127.862 79.2496 128.004 79.1313C128.145 79.014 128.255 78.8779 128.335 78.725C128.415 78.5721 128.455 78.396 128.455 78.1986C128.455 78.003 128.414 77.8234 128.33 77.6589C128.246 77.4944 128.13 77.3521 127.979 77.2321C127.828 77.1121 127.646 77.0187 127.436 76.952C127.225 76.8854 126.991 76.8516 126.736 76.8516C126.463 76.8516 126.217 76.8907 126 76.9698C125.782 77.0489 125.598 77.1556 125.448 77.2917C125.298 77.4268 125.183 77.5842 125.103 77.7629C125.023 77.9417 124.983 78.1328 124.983 78.3347H125.824C125.824 78.2164 125.842 78.1088 125.879 78.0092C125.915 77.9105 125.971 77.8252 126.047 77.7523C126.122 77.6802 126.217 77.6242 126.333 77.5842C126.449 77.5442 126.586 77.5246 126.743 77.5246C126.891 77.5246 127.02 77.5415 127.13 77.5744C127.238 77.6073 127.329 77.6545 127.402 77.714C127.474 77.7736 127.527 77.8447 127.562 77.9274C127.596 78.0092 127.613 78.0981 127.613 78.1942C127.613 78.3738 127.528 78.524 127.358 78.6441C127.188 78.7641 126.929 78.8753 126.58 78.9775C126.307 79.0575 126.07 79.1464 125.871 79.2442C125.671 79.3421 125.504 79.4523 125.373 79.5759C125.24 79.6995 125.142 79.8382 125.078 79.9929C125.013 80.1476 124.981 80.321 124.981 80.5148C124.981 80.7193 125.021 80.9034 125.102 81.0661C125.183 81.2297 125.299 81.3684 125.449 81.4831C125.599 81.5978 125.781 81.685 125.994 81.7463C126.208 81.8077 126.445 81.8379 126.707 81.8379C126.94 81.8379 127.171 81.8059 127.397 81.7428C127.624 81.6796 127.828 81.5836 128.007 81.4564C128.187 81.3293 128.332 81.1692 128.442 80.9781C128.552 80.7869 128.607 80.5629 128.607 80.305H127.765C127.765 80.4579 127.737 80.5904 127.683 80.6998C127.628 80.8091 127.554 80.8998 127.46 80.9701C127.365 81.0403 127.253 81.091 127.124 81.123C126.995 81.155 126.857 81.171 126.707 81.171C126.414 81.171 126.193 81.1115 126.046 80.9923C125.898 80.8732 125.822 80.7167 125.822 80.5211Z" fill="#AEC3FF"/>
<path d="M121.702 80.5211C121.702 80.4233 121.717 80.3361 121.746 80.2597C121.775 80.1832 121.828 80.1121 121.904 80.048C121.981 79.984 122.087 79.9218 122.221 79.8631C122.355 79.8044 122.529 79.7422 122.739 79.6782C122.97 79.6097 123.184 79.5306 123.379 79.4416C123.575 79.3527 123.743 79.2496 123.884 79.1313C124.026 79.014 124.136 78.8779 124.216 78.725C124.296 78.5721 124.336 78.396 124.336 78.1986C124.336 78.003 124.294 77.8234 124.211 77.6589C124.127 77.4944 124.011 77.3521 123.859 77.2321C123.708 77.1121 123.526 77.0187 123.315 76.952C123.105 76.8854 122.871 76.8516 122.616 76.8516C122.343 76.8516 122.097 76.8907 121.879 76.9698C121.662 77.0489 121.478 77.1556 121.328 77.2917C121.178 77.4268 121.063 77.5842 120.983 77.7629C120.903 77.9417 120.863 78.1328 120.863 78.3347H121.703C121.703 78.2164 121.722 78.1088 121.759 78.0092C121.795 77.9105 121.851 77.8252 121.927 77.7523C122.002 77.6802 122.097 77.6242 122.213 77.5842C122.328 77.5442 122.465 77.5246 122.623 77.5246C122.771 77.5246 122.9 77.5415 123.01 77.5744C123.119 77.6073 123.209 77.6545 123.282 77.714C123.354 77.7736 123.407 77.8447 123.442 77.9274C123.476 78.0092 123.493 78.0981 123.493 78.1942C123.493 78.3738 123.408 78.524 123.238 78.6441C123.068 78.7641 122.809 78.8753 122.46 78.9775C122.187 79.0575 121.95 79.1464 121.751 79.2442C121.55 79.3421 121.384 79.4523 121.253 79.5759C121.12 79.6995 121.022 79.8382 120.957 79.9929C120.893 80.1476 120.86 80.321 120.86 80.5148C120.86 80.7193 120.901 80.9034 120.982 81.0661C121.063 81.2297 121.179 81.3684 121.329 81.4831C121.479 81.5978 121.661 81.685 121.874 81.7463C122.087 81.8077 122.325 81.8379 122.587 81.8379C122.82 81.8379 123.05 81.8059 123.277 81.7428C123.504 81.6796 123.708 81.5836 123.887 81.4564C124.067 81.3284 124.212 81.1692 124.322 80.9781C124.432 80.7869 124.487 80.5629 124.487 80.305H123.644C123.644 80.4579 123.617 80.5904 123.563 80.6998C123.508 80.81 123.434 80.8998 123.339 80.9701C123.245 81.0403 123.133 81.091 123.004 81.123C122.875 81.155 122.737 81.171 122.587 81.171C122.294 81.171 122.073 81.1115 121.926 80.9923C121.776 80.8741 121.702 80.7167 121.702 80.5211Z" fill="#AEC3FF"/>
<path d="M119.275 79.9687V81.7719H120.118V76.9189H118.262C117.98 76.9189 117.729 76.9572 117.51 77.0336C117.292 77.1101 117.107 77.2177 116.955 77.3555C116.804 77.4933 116.69 77.6569 116.61 77.8454C116.531 78.0348 116.492 78.2402 116.492 78.4625C116.492 78.6981 116.531 78.9089 116.61 79.0956C116.69 79.2823 116.804 79.4397 116.955 79.5686C117.107 79.6975 117.292 79.7962 117.51 79.8656C117.729 79.9349 117.98 79.9687 118.262 79.9687H119.275ZM119.275 79.2921H118.262C118.1 79.2921 117.96 79.2725 117.844 79.2325C117.727 79.1925 117.631 79.1356 117.556 79.0627C117.48 78.9889 117.425 78.9017 117.39 78.8013C117.356 78.6999 117.339 78.5896 117.339 78.4696C117.339 78.3567 117.356 78.2473 117.39 78.1433C117.425 78.0393 117.48 77.9459 117.556 77.865C117.631 77.7841 117.727 77.7192 117.844 77.672C117.96 77.624 118.1 77.6 118.262 77.6H119.275V79.2921Z" fill="#AEC3FF"/>
<path d="M111.883 79.4719C111.883 79.8409 111.931 80.1716 112.028 80.4633C112.125 80.7558 112.261 81.003 112.436 81.2066C112.611 81.4102 112.823 81.5658 113.069 81.6752C113.316 81.7845 113.589 81.8388 113.889 81.8388C114.187 81.8388 114.459 81.7845 114.705 81.6752C114.952 81.5658 115.165 81.4102 115.344 81.2066C115.522 81.003 115.661 80.7558 115.761 80.4633C115.86 80.1707 115.909 79.8409 115.909 79.4719V79.2256C115.909 78.8566 115.859 78.5258 115.761 78.2324C115.662 77.939 115.524 77.69 115.347 77.4855C115.17 77.281 114.959 77.1245 114.712 77.0152C114.466 76.9058 114.194 76.8516 113.896 76.8516C113.597 76.8516 113.323 76.9058 113.075 77.0152C112.827 77.1236 112.615 77.281 112.438 77.4855C112.261 77.69 112.125 77.939 112.028 78.2324C111.931 78.5258 111.883 78.8566 111.883 79.2256V79.4719ZM112.727 79.2185C112.727 78.9473 112.753 78.7081 112.805 78.5C112.858 78.292 112.933 78.1186 113.034 77.9781C113.133 77.8376 113.257 77.7318 113.402 77.6598C113.548 77.5878 113.712 77.5513 113.897 77.5513C114.077 77.5513 114.239 77.5878 114.383 77.6598C114.527 77.7318 114.651 77.8376 114.752 77.9781C114.853 78.1177 114.93 78.292 114.984 78.5C115.039 78.7081 115.066 78.9473 115.066 79.2185V79.4719C115.066 79.7431 115.039 79.9831 114.984 80.1921C114.93 80.401 114.852 80.5762 114.75 80.7167C114.647 80.8581 114.524 80.9647 114.378 81.0368C114.232 81.1088 114.07 81.1452 113.89 81.1452C113.516 81.1452 113.229 81.003 113.028 80.7185C112.827 80.4339 112.727 80.0187 112.727 79.4719V79.2185Z" fill="#AEC3FF"/>
<path d="M109.259 79.902H110.199V81.7719H111.042V76.9189H109.336C109.058 76.9189 108.81 76.9509 108.592 77.0141C108.375 77.0772 108.191 77.1706 108.041 77.2942C107.891 77.4178 107.777 77.5707 107.7 77.753C107.622 77.9352 107.583 78.146 107.583 78.386C107.583 78.7106 107.661 78.9826 107.818 79.2014C107.974 79.4201 108.193 79.5882 108.473 79.7064L107.383 81.7292V81.7728H108.287L109.259 79.902ZM110.199 79.2254H109.332C109.181 79.2254 109.049 79.2058 108.936 79.1658C108.823 79.1258 108.728 79.0707 108.652 78.9995C108.576 78.9284 108.519 78.8439 108.482 78.7461C108.445 78.6483 108.425 78.5407 108.425 78.4225C108.425 78.298 108.443 78.1851 108.479 78.0846C108.514 77.9833 108.568 77.897 108.642 77.825C108.716 77.753 108.809 77.6969 108.924 77.6578C109.039 77.6187 109.176 77.5991 109.336 77.5991H110.199V79.2254Z" fill="#AEC3FF"/>
<path d="M103.444 77.5982H104.957V81.7709H105.794V77.5982H107.294V76.918H103.444V77.5982Z" fill="#AEC3FF"/>
<path d="M116.71 124.074H123.402C123.617 124.074 123.792 123.898 123.792 123.683C123.792 123.468 123.618 123.293 123.402 123.293H116.71C116.495 123.293 116.32 123.467 116.32 123.683C116.32 123.899 116.495 124.074 116.71 124.074Z" fill="#AEC3FF"/>
<path d="M111.942 125.935H128.17C128.385 125.935 128.561 125.761 128.561 125.545C128.561 125.329 128.386 125.154 128.17 125.154H111.942C111.727 125.154 111.552 125.329 111.552 125.545C111.552 125.76 111.726 125.935 111.942 125.935Z" fill="#AEC3FF"/>
<path d="M120.057 118.388C124.296 118.388 128.282 116.737 131.28 113.738C134.278 110.741 135.929 106.755 135.929 102.515C135.929 98.2744 134.278 94.2892 131.28 91.291C128.282 88.2928 124.297 86.6426 120.057 86.6426C115.817 86.6426 111.831 88.2937 108.833 91.291C105.835 94.2892 104.184 98.2744 104.184 102.515C104.184 106.755 105.836 110.74 108.833 113.738C111.831 116.737 115.817 118.388 120.057 118.388ZM120.057 86.8177C124.25 86.8177 128.191 88.4502 131.157 91.4155C134.122 94.3808 135.754 98.3224 135.754 102.516C135.754 106.709 134.122 110.65 131.157 113.616C128.191 116.581 124.25 118.213 120.057 118.213C115.863 118.213 111.922 116.581 108.956 113.616C105.992 110.65 104.359 106.709 104.359 102.516C104.359 98.3224 105.991 94.3808 108.956 91.4155C111.922 88.4502 115.863 86.8177 120.057 86.8177Z" fill="#AEC3FF"/>
<path d="M107.331 102.515C107.331 103.298 107.401 104.063 107.536 104.808C107.861 106.593 108.558 108.248 109.545 109.69C111.836 113.042 115.689 115.242 120.057 115.242C125.251 115.242 129.719 112.13 131.698 107.667C131.958 107.079 132.176 106.468 132.346 105.837C132.632 104.778 132.784 103.664 132.784 102.515C132.784 101.586 132.685 100.679 132.495 99.807C132.493 99.7972 132.491 99.7874 132.489 99.7768C131.96 97.3645 130.747 95.2092 129.063 93.5234C128.586 93.045 128.07 92.604 127.521 92.2066C127.26 92.0172 126.99 91.8367 126.714 91.6669C124.777 90.4754 122.498 89.7881 120.057 89.7881C119.733 89.7881 119.412 89.7996 119.095 89.8245C118.647 89.8574 118.206 89.9143 117.772 89.9926C115.946 90.3233 114.257 91.0436 112.792 92.0643H112.791C111.878 92.7 111.053 93.4514 110.336 94.2987C109.96 94.7442 109.613 95.2145 109.3 95.7098C109.105 96.0174 108.923 96.334 108.754 96.6585C108.349 97.4392 108.022 98.2679 107.784 99.133C107.489 100.211 107.331 101.345 107.331 102.515Z" fill="#AEC3FF"/>
<path d="M124.38 96.8177C124.888 97.6224 124.168 99.0184 125.691 98.6378C127.215 98.2572 128.146 98.0874 128.231 98.9339C128.316 99.7804 127.088 99.7804 127.088 100.67C127.088 101.559 127.639 101.852 128.485 101.43C129.332 101.007 129.575 100.394 130.559 100.774C131.544 101.155 132.115 100.902 132.337 100.14C132.376 100.005 132.431 99.8968 132.495 99.8061C132.493 99.7964 132.491 99.7866 132.489 99.7759C131.96 97.3637 130.747 95.2084 129.063 93.5226C128.586 93.0442 128.07 92.6032 127.521 92.2057C127.26 92.0163 126.99 91.8358 126.714 91.666C126.317 91.6802 125.843 91.8314 125.439 92.3311C124.55 93.4319 123.958 92.8815 124.169 94.1512C124.381 95.4209 124.042 95.5907 123.323 95.548C122.603 95.5053 121.757 95.5053 121.672 96.0557C121.586 96.6061 123.872 96.013 124.38 96.8177Z" fill="#94B0ED"/>
<path d="M119.111 104.437C119.111 104.437 120.232 104.797 120.529 104.014C120.825 103.23 120.487 103.061 121.482 102.828C122.477 102.596 122.561 101.919 123.196 102.003C123.831 102.088 123.513 102.342 124.254 102.892C124.995 103.443 125.672 103.189 125.651 104.204C125.63 105.219 124.53 105.379 124.307 106.045C124.085 106.712 124.467 106.998 123.99 107.505C123.513 108.013 122.625 107.791 123.038 108.49C123.45 109.188 124.085 109.727 123.768 110.807C123.45 111.886 123.673 111.949 123.133 112.711C122.593 113.473 121.546 113.727 121.387 113.219C121.229 112.711 122.117 112.044 121.832 111.537C121.547 111.029 121.07 111.378 120.88 110.617C120.689 109.855 119.917 109.855 119.854 109.325C119.791 108.796 120.785 107.993 120.404 107.654C120.023 107.315 119.261 108.267 118.668 107.421C118.076 106.574 118.478 105.898 117.865 105.093C117.251 104.288 118.688 103.971 119.111 104.437Z" fill="#94B0ED"/>
<path d="M107.33 102.514C107.33 103.297 107.4 104.062 107.535 104.807C107.86 106.592 108.558 108.247 109.544 109.689C109.88 109.799 110.224 109.796 110.561 109.661C112.148 109.026 110.973 107.312 110.338 106.455C109.704 105.598 111.323 105.979 112.496 105.185C113.67 104.391 112.369 102.265 113.576 102.614C114.782 102.963 116.242 103.407 116.94 102.233C117.638 101.059 116.306 100.868 116.908 99.8842C117.511 98.8999 116.559 98.3291 115.353 98.234C114.147 98.1388 114.306 97.2817 112.814 97.1545C111.322 97.0274 111.354 98.9319 109.704 98.8048C108.053 98.6776 108.127 99.0591 108.127 99.0591C108.009 99.0555 107.893 99.0804 107.782 99.1311C107.488 100.21 107.33 101.344 107.33 102.514Z" fill="#94B0ED"/>
<path d="M108.753 96.6581C110.125 97.3258 110.676 95.5093 111.849 96.0553C113.032 96.6056 112.825 95.5475 113.756 94.87C114.687 94.1934 116.549 95.4204 116.465 94.3623C116.381 93.3051 114.984 93.6003 114.688 92.7547C114.392 91.9083 113.037 92.1199 113.037 92.1199C112.961 92.0905 112.878 92.0719 112.791 92.0639C112.791 92.0639 112.791 92.063 112.79 92.0639C111.877 92.6996 111.052 93.4509 110.335 94.2983C109.959 94.7438 109.612 95.2141 109.299 95.7094C109.104 96.017 108.921 96.3327 108.753 96.6581Z" fill="#94B0ED"/>
<path d="M120.317 93.0089C120.317 93.0089 119.597 91.9713 120.74 91.6645C121.882 91.3578 121.861 91.7588 122.75 91.6645C123.639 91.5703 123.988 92.2576 123.322 93.0089C122.655 93.7603 122.115 95.2016 121.513 94.4333C120.91 93.6651 121.026 93.0827 120.317 93.0089Z" fill="#94B0ED"/>
<path d="M49.1304 126.962H79.896C82.8452 126.962 85.2373 124.57 85.2373 121.621V120.922H44.1906V122.022C44.1922 124.75 46.4022 126.962 49.1304 126.962Z" fill="#163560"/>
<path d="M42.7833 70.2183V119.204C42.7833 119.794 42.8486 120.369 42.9747 120.924H48.7207C49.6124 120.924 50.4451 121.183 51.1454 121.632C51.5797 121.907 51.961 122.256 52.2753 122.66C52.8745 123.426 53.2293 124.389 53.2293 125.435V126.962H75.7386V125.435C75.7386 123.86 76.5432 122.474 77.7665 121.666C78.112 121.437 78.4917 121.255 78.8964 121.129C79.3228 120.995 79.7773 120.924 80.2473 120.924H86.457C86.5815 120.369 86.6484 119.794 86.6484 119.204V70.2183C86.6484 65.9321 83.1778 62.46 78.8964 62.46H50.5384C46.2523 62.4584 42.7833 65.9321 42.7833 70.2183Z" fill="#F78248"/>
<path d="M56.4548 62.4314C66.613 58.427 73.699 62.3676 73.769 62.4081L74.1348 61.77C74.0585 61.7264 72.2485 60.6992 69.1187 60.1794C66.2442 59.7016 61.667 59.5849 56.184 61.7466L56.4548 62.4314Z" fill="#163560"/>
<path d="M79.4938 124.694H82.4648V128.741H79.4938V124.694Z" fill="#163560"/>
<path d="M80.9793 131.469C79.812 131.469 78.8658 130.522 78.8658 129.354C78.8658 128.186 79.812 127.239 80.9793 127.239C82.1465 127.239 83.0928 128.186 83.0928 129.354C83.0928 130.522 82.1465 131.469 80.9793 131.469Z" fill="#1F4777"/>
<path d="M80.9793 130.638C80.271 130.638 79.6969 130.063 79.6969 129.354C79.6969 128.645 80.271 128.07 80.9793 128.07C81.6876 128.07 82.2617 128.645 82.2617 129.354C82.2617 130.063 81.6876 130.638 80.9793 130.638Z" fill="#163560"/>
<path d="M48.9391 124.694H51.9102V128.741H48.9391V124.694Z" fill="#163560"/>
<path d="M50.4246 131.469C49.2573 131.469 48.3111 130.522 48.3111 129.354C48.3111 128.186 49.2573 127.239 50.4246 127.239C51.5918 127.239 52.5381 128.186 52.5381 129.354C52.5381 130.522 51.5918 131.469 50.4246 131.469Z" fill="#1F4777"/>
<path d="M50.4246 130.638C49.7164 130.638 49.1422 130.063 49.1422 129.354C49.1422 128.645 49.7164 128.07 50.4246 128.07C51.1329 128.07 51.707 128.645 51.707 129.354C51.707 130.063 51.1329 130.638 50.4246 130.638Z" fill="#163560"/>
<path d="M77.7637 62.458V121.665C78.1092 121.437 78.4889 121.255 78.8936 121.129V62.458H77.7637Z" fill="#5D6466"/>
<path d="M68.7187 62.458H69.8486V126.962H68.7187V62.458Z" fill="#5D6466"/>
<path d="M60.2764 62.458H61.4062V126.962H60.2764V62.458Z" fill="#5D6466"/>
<path d="M51.1445 62.458V121.631C51.5787 121.907 51.96 122.255 52.2744 122.66V62.458H51.1445Z" fill="#5D6466"/>
<path d="M111.145 37.0966C111.145 37.0125 109.908 34.4539 110.301 34.2578C110.695 34.0617 111.4 34.0913 111.481 34.5395C111.565 34.9877 111.145 37.0966 111.145 37.0966Z" fill="#FFB27D"/>
<path d="M110.678 38.623C110.677 38.3724 110.968 34.5423 111.614 33.7797C112.26 33.0171 113.578 31.9339 113.993 31.9665C114.409 31.9992 116.031 34.1548 115.543 35.8076C115.056 37.4588 112.997 39.6953 112.997 39.6953L110.678 38.623Z" fill="#FFB27D"/>
<path d="M108.216 33.9835L111.976 35.1103C112.101 35.1477 112.233 35.0776 112.27 34.9516L114.42 27.7815C114.457 27.657 114.387 27.5248 114.261 27.4874L110.501 26.3606C110.376 26.3233 110.244 26.3933 110.207 26.5194L108.057 33.6894C108.022 33.8139 108.092 33.9462 108.216 33.9835Z" fill="#F1A34F"/>
<path d="M109.193 34.2756L112.604 35.2981C112.825 35.3651 113.059 35.239 113.126 35.018L115.171 28.1966C115.237 27.9756 115.111 27.7422 114.89 27.6752L111.479 26.6527C111.258 26.5858 111.024 26.7119 110.958 26.9329L108.913 33.7543C108.846 33.9768 108.972 34.2087 109.193 34.2756Z" fill="#374850"/>
<path d="M114.383 32.2456C114.383 32.2456 112.817 29.8364 112.434 29.9702C111.888 30.1616 113.854 33.2183 113.854 33.2183C113.854 33.2183 112.397 30.9336 112.17 31.1048C111.651 31.497 112.476 32.9319 113.295 34.0322C113.295 34.0322 111.83 32.6907 111.782 32.9319C111.616 33.7785 113.39 35.8282 113.39 35.8282L114.383 33.5622V32.2456Z" fill="#FFB27D"/>
<path d="M115.558 34.4829C115.481 34.1888 115.1 28.435 114.937 28.9797C114.773 29.526 114.384 32.5421 114.384 32.5421L115.558 34.4829Z" fill="#FFB27D"/>
<path d="M90.5661 32.8983C90.5661 32.8983 90.7295 39.1547 92.5349 44.2035C93.9605 48.1908 96.4086 51.4249 100.609 50.2312C101.039 50.1082 101.454 49.9775 101.857 49.8358C101.86 49.8343 101.862 49.8343 101.862 49.8343C110.395 46.8617 113.156 40.0574 113.156 40.0574C112.521 39.01 110.68 38.624 110.68 38.624C108.962 38.7159 101.411 41.9235 100.928 42.0215C99.182 42.3732 97.7704 32.7738 96.6358 29.4495C95.5012 26.1236 90.8556 24.6357 90.8556 24.6357L90.5661 32.8983Z" fill="#739AF0"/>
<path d="M92.3687 39.6956L92.5321 44.2027C93.9577 48.19 96.4058 51.4241 100.606 50.2304C101.036 50.1074 101.451 49.9767 101.854 49.8351C101.721 49.8522 99.1496 50.1992 98.0742 49.1238C96.9692 48.0173 97.0843 44.349 95.0471 41.904C93.0099 39.4606 92.3687 39.6956 92.3687 39.6956Z" fill="#5283DB"/>
<path d="M92.1341 122.134C92.1341 122.134 90.0346 124.05 90.4439 125.412C90.8533 126.774 92.7489 127.681 93.0057 129.346C93.2625 131.01 94.2865 131.919 95.2079 131.919C96.1292 131.919 99.603 131.919 99.603 131.919C99.603 131.919 100.282 130.747 98.6427 130.395C97.0039 130.042 96.386 128.086 96.4887 126.271C96.5915 124.455 96.3347 122.035 96.3347 122.035L92.8516 121.229L92.1341 122.134Z" fill="#133054"/>
<path d="M115.272 131.57H102.33C101.823 131.57 101.406 131.168 101.392 130.661C101.371 129.903 101.434 128.799 101.854 127.869C102.545 126.337 102.981 126.068 100.064 121.612C100.942 122.515 103.307 122.103 105.304 121.833C105.549 122.23 109.253 127.951 110.07 128.538C110.971 129.187 114.995 128.957 115.272 131.57Z" fill="#163560"/>
<path d="M95.1047 59.7981C95.1047 59.7981 104.489 77.5045 107.039 87.2549C109.018 94.8234 96.938 124.104 96.938 124.104C96.938 124.104 95.9513 124.039 94.3405 123.405C92.7593 122.784 92.157 121.116 92.157 121.116C92.157 121.116 92.8729 100.179 95.3179 90.0501C95.8673 87.7763 92.6597 80.4429 87.2452 76.426C81.8307 72.4091 79.5771 59.4853 82.8003 58.6122C86.0235 57.7391 95.1047 59.7981 95.1047 59.7981Z" fill="#163560"/>
<path d="M87.073 54.7715C87.073 54.7715 96.9371 90.9344 99.9299 99.0553C102.923 107.176 107.668 124.411 107.668 124.411C107.668 124.411 104.667 125.82 100.825 125.153C100.825 125.153 86.4007 104.022 85.772 94.6805C85.4809 90.3632 70.9728 73.2482 72.5898 62.0894L87.073 54.7715Z" fill="#1C468A"/>
<path d="M72.6137 66.0552C72.6137 66.0552 74.7132 67.1135 78.4235 67.4247H78.4266C82.6754 67.7811 89.0392 67.1555 96.7898 62.8398C96.7898 62.8398 98.9515 61.0578 96.2949 53.4831C94.2841 47.748 93.3051 35.6553 90.8508 24.635C90.8508 24.635 82.8902 22.1371 76.5046 24.2957C71.6255 25.9454 72.111 33.4345 71.2099 41.2332C71.1259 41.9616 71.0294 42.6915 70.9158 43.4199C69.5867 51.9563 72.6137 66.0552 72.6137 66.0552Z" fill="#739AF0"/>
<path d="M93.6592 8.31921C93.6592 8.31921 88.226 -0.52541 84.0193 4.02686C84.0193 4.02686 81.2692 4.72877 79.6927 9.01179C78.085 13.3804 80.5891 17.2401 82.2606 16.616C83.3329 16.216 83.8341 18.065 83.8341 18.065L93.6592 8.31921Z" fill="#233862"/>
<path d="M84.8525 3.33007C84.8525 3.33007 84.479 -0.331976 79.1283 0.0244235C79.1283 0.0244235 81.6589 0.0695581 82.2021 1.12475C82.2021 1.12475 80.3625 -0.0611789 79.0209 0.51622C77.6794 1.09362 77.1098 3.60399 77.1829 4.40394C77.2561 5.20389 78.2864 7.70025 79.1875 7.83098C80.0886 7.96172 81.2714 7.32362 81.2714 7.32362L84.8525 3.33007Z" fill="#233862"/>
<path d="M82.1574 24.0716C82.6601 22.7316 83.4087 21.3262 84.0094 17.0479L84.33 17.1599L89.7305 19.0617C89.7305 19.0617 89.3523 20.7939 89.1111 22.4405C89.0114 23.1144 88.9414 24.3159 88.8963 25.3664C88.8496 26.4403 87.7929 26.5415 86.7205 26.4917C83.8647 26.3625 82.2912 25.2964 82.1574 24.0716Z" fill="#FFB27D"/>
<path d="M89.7324 19.0649C89.7324 19.0649 89.3542 20.7971 89.113 22.4437C86.0144 21.9083 84.7786 18.833 84.332 17.1631L89.7324 19.0649Z" fill="#E8945B"/>
<path d="M83.8441 16.4735C83.8441 16.4735 82.585 13.6628 82.5119 11.403C82.459 9.79066 84.1009 4.07737 89.8375 5.76132C89.8375 5.76132 91.5152 6.17374 92.958 7.48417C94.1065 8.52691 95.6738 10.6451 92.8879 15.4355L92.1067 17.0774L83.8441 16.4735Z" fill="#233862"/>
<path d="M90.5455 20.7752C90.5455 20.7752 83.1685 19.8352 83.8237 15.2502C84.479 10.6653 83.9685 7.45459 88.7075 7.86079C93.4465 8.267 94.1095 10.147 94.262 11.7314C94.4146 13.3157 92.4816 20.9013 90.5455 20.7752Z" fill="#FFB27D"/>
<path d="M92.0752 8.23124C92.0752 8.23124 89.2847 13.3205 86.0771 13.6691C82.8695 14.0192 81.6478 12.9967 81.6478 12.9967C81.6478 12.9967 84.292 11.4544 85.2585 8.23591C85.2569 8.23591 90.9235 5.45163 92.0752 8.23124Z" fill="#233862"/>
<path d="M91.512 8.59547C91.512 8.59547 92.8442 10.0133 93.0419 11.2335C93.2395 12.4536 93.059 14.8815 93.7718 14.9002C93.7718 14.9002 95.8168 11.4622 94.4083 9.14798C92.9158 6.6952 91.512 8.59547 91.512 8.59547Z" fill="#233862"/>
<path d="M91.7666 8.81759C91.7666 8.81759 89.5193 14.243 85.3561 15.4849C85.3561 15.4849 89.7574 12.587 90.6242 8.91564C91.4927 5.24581 91.7666 8.81759 91.7666 8.81759Z" fill="#233862"/>
<path d="M72.6136 66.0548C72.6136 66.0548 74.7131 67.1131 78.4234 67.4244H78.4265C78.4265 67.4244 81.4753 63.602 78.0732 59.3175C74.6711 55.0329 78.3393 47.1283 75.7184 42.8297C73.8944 39.8384 72.1202 40.5341 71.2098 41.2329C71.1257 41.9613 71.0292 42.6912 70.9156 43.4195C69.5865 51.956 72.6136 66.0548 72.6136 66.0548Z" fill="#5283DB"/>
<path d="M59.2286 59.7012C59.2286 59.7012 58.7757 60.7548 58.1438 60.8249C57.112 60.94 55.1479 61.8038 54.8397 61.9874C54.004 62.4839 54.06 64.7048 54.8957 64.9133C55.7315 65.1219 56.1501 63.2589 58.7617 62.7594C59.6472 62.5897 60.939 63.2029 61.4619 61.0801L59.2286 59.7012Z" fill="#FFB27D"/>
<path d="M76.5072 24.2951C68.9107 27.0887 68.6291 40.5479 65.2425 46.4744C61.7501 52.5861 58.3479 60.6323 58.3479 60.6323C58.3479 60.6323 58.4086 60.8736 59.7113 61.2471C60.6279 61.5101 61.5866 61.398 61.5866 61.398C61.5866 61.398 68.7644 54.905 70.7145 52.3433C72.6646 49.7816 77.262 37.899 77.262 37.899C77.262 37.899 79.5218 23.1854 76.5072 24.2951Z" fill="#739AF0"/>
<path d="M61.2754 61.6055C61.2754 61.6055 61.0902 62.5097 59.9712 63.2412C58.8522 63.9726 57.9527 64.7041 57.8437 64.2512C57.7348 63.7983 58.4662 63.3112 58.6405 62.4739C58.8164 61.6397 61.2754 61.6055 61.2754 61.6055Z" fill="#FFB27D"/>
</svg>
