<svg width="36" height="41" viewBox="0 0 36 41" fill="none" xmlns="http://www.w3.org/2000/svg">
<path d="M33.6862 5.4433H22.346V4.37113H24.4491V0H11.1707V4.37113H13.2738V5.4433H1.93359V8.70103H33.6862V5.4433ZM11.9955 0.824742H23.6656V3.54639H11.9955V0.824742ZM14.5109 4.37113H21.1089V5.4433H14.5109V4.37113Z" fill="#5264AE"/>
<path d="M16.5712 9.12109L16.4062 15.1417H19.2104L19.0454 9.12109H16.5712Z" fill="#5264AE"/>
<path d="M16.1722 9.12109H13.698L13.2031 15.1417H15.966L16.1722 9.12109Z" fill="#5264AE"/>
<path d="M9.94141 15.1417H12.7043L13.2816 9.12109H10.8074L9.94141 15.1417Z" fill="#5264AE"/>
<path d="M3.45703 15.1417H6.21992L7.49827 9.12109H5.02404L3.45703 15.1417Z" fill="#5264AE"/>
<path d="M6.67969 15.1417H9.48381L10.391 9.12109H7.9168L6.67969 15.1417Z" fill="#5264AE"/>
<path d="M22.3438 9.12109L22.9211 15.1417H25.684L24.818 9.12109H22.3438Z" fill="#5264AE"/>
<path d="M19.4727 9.12109L19.6788 15.1417H22.4417L21.9469 9.12109H19.4727Z" fill="#5264AE"/>
<path d="M33.696 9.12109H31.0156L32.6651 15.1417H35.6342L33.696 9.12109Z" fill="#5264AE"/>
<path d="M4.61856 9.12109H1.93814L0 15.1417H2.96907L4.61856 9.12109Z" fill="#5264AE"/>
<path d="M32.1662 15.1417L30.5992 9.12109H28.125L29.4033 15.1417H32.1662Z" fill="#5264AE"/>
<path d="M25.2344 9.12109L26.1416 15.1417H28.9457L27.7086 9.12109H25.2344Z" fill="#5264AE"/>
<path d="M35.6701 37.9883H0V40.0089H35.6701V37.9883Z" fill="#5264AE"/>
<path d="M1.93359 37.5241H33.6862V15.5859H1.93359V37.5241ZM31.3769 36.8231H23.1707V20.122H31.3769V36.8231ZM22.346 19.2973H32.1604V36.8231H31.748V19.7096H22.7583V36.7818H22.346V19.2973ZM3.41813 19.2973H20.614V29.4416H3.41813V19.2973Z" fill="#5264AE"/>
<path d="M3.86719 28.9854H20.1558V19.707H3.86719V28.9854ZM4.27956 20.1194H19.7435V28.5318H4.27956V20.1194Z" fill="#5264AE"/>
<path d="M17.4009 21.2123L17.1094 21.5039L18.1009 22.4952L18.3925 22.2035L17.4009 21.2123Z" fill="#5264AE"/>
<path d="M15.7603 21.2123L15.4688 21.5039L18.1226 24.1574L18.4142 23.8657L15.7603 21.2123Z" fill="#5264AE"/>
<path d="M14.1783 21.2123L13.8867 21.5039L18.0856 25.7028L18.3772 25.4112L14.1783 21.2123Z" fill="#5264AE"/>
<path d="M24.4207 29.857C24.8989 29.857 25.2866 29.4692 25.2866 28.991C25.2866 28.5127 24.8989 28.125 24.4207 28.125C23.9424 28.125 23.5547 28.5127 23.5547 28.991C23.5547 29.4692 23.9424 29.857 24.4207 29.857Z" fill="#5264AE"/>
</svg>
