<svg width="80" height="76" viewBox="0 0 80 76" fill="none" xmlns="http://www.w3.org/2000/svg">
<path d="M16 72H11.2V22.4H17.6C18.08 22.4 18.56 22.24 18.88 21.76C19.2 21.44 19.36 20.96 19.2 20.48L16 1.28C15.84 0.48 15.2 0 14.4 0H4.8C4 0 3.36 0.48 3.2 1.28L0 20.48C0 20.96 -3.09944e-07 21.44 0.32 21.76C0.64 22.08 1.12 22.4 1.6 22.4H8V72H3.2C2.4 72 1.6 72.8 1.6 73.6C1.6 74.4 2.4 75.2 3.2 75.2H16C16.8 75.2 17.6 74.4 17.6 73.6C17.6 72.8 16.96 72 16 72Z" fill="#A3A9BD"/>
<path d="M35.2004 46.4004V49.6004H60.8004V46.4004C60.8004 40.3204 65.7604 35.2004 72.0004 35.2004C72.4804 35.2004 73.1204 35.2004 73.6004 35.3604V30.4004C73.6004 25.9204 70.0804 22.4004 65.6004 22.4004H30.4004C25.9204 22.4004 22.4004 25.9204 22.4004 30.4004V35.3604C22.8804 35.3604 23.3604 35.2004 24.0004 35.2004C30.0804 35.2004 35.2004 40.1604 35.2004 46.4004ZM58.0804 32.3204C57.4404 31.6804 57.4404 30.7204 58.0804 30.0804C58.7204 29.4404 59.6804 29.4404 60.3204 30.0804L60.8004 30.5604L61.2804 30.0804C61.9204 29.4404 62.8804 29.4404 63.5204 30.0804C64.1604 30.7204 64.1604 31.6804 63.5204 32.3204L63.0404 32.8004L63.5204 33.2804C64.1604 33.9204 64.1604 34.8804 63.5204 35.5204C63.2004 35.8404 62.8804 36.0004 62.4004 36.0004C61.9204 36.0004 61.6004 35.8404 61.2804 35.5204L60.8004 35.0404L60.3204 35.5204C60.0004 35.8404 59.6804 36.0004 59.2004 36.0004C58.7204 36.0004 58.4004 35.8404 58.0804 35.5204C57.4404 34.8804 57.4404 33.9204 58.0804 33.2804L58.5604 32.8004L58.0804 32.3204ZM32.4804 32.3204C31.8404 31.6804 31.8404 30.7204 32.4804 30.0804C33.1204 29.4404 34.0804 29.4404 34.7204 30.0804L35.2004 30.5604L35.6804 30.0804C36.3204 29.4404 37.2804 29.4404 37.9204 30.0804C38.5604 30.7204 38.5604 31.6804 37.9204 32.3204L37.4404 32.8004L37.9204 33.2804C38.5604 33.9204 38.5604 34.8804 37.9204 35.5204C37.6004 35.8404 37.2804 36.0004 36.8004 36.0004C36.3204 36.0004 36.0004 35.8404 35.6804 35.5204L35.2004 35.0404L34.7204 35.5204C34.4004 35.8404 34.0804 36.0004 33.6004 36.0004C33.1204 36.0004 32.8004 35.8404 32.4804 35.5204C31.8404 34.8804 31.8404 33.9204 32.4804 33.2804L32.9604 32.8004L32.4804 32.3204Z" fill="#A3A9BD"/>
<path d="M72 38.4004C67.68 38.4004 64 41.9204 64 46.4004V52.8004H32V46.4004C32 42.0804 28.48 38.4004 24 38.4004C19.68 38.4004 16 41.9204 16 46.4004V62.4004C16 64.9604 18.08 67.2004 20.8 67.2004H22.4V72.0004C22.4 72.8004 23.2 73.6004 24 73.6004H30.4C31.2 73.6004 32 72.8004 32 72.0004V67.2004H64V72.0004C64 72.8004 64.8 73.6004 65.6 73.6004H72C72.8 73.6004 73.6 72.8004 73.6 72.0004V67.2004H75.2C77.92 67.2004 80 64.9604 80 62.4004V46.4004C80 41.9204 76.48 38.4004 72 38.4004ZM24 48.0004C23.2 48.0004 22.4 47.2004 22.4 46.4004C22.4 45.6004 23.2 44.8004 24 44.8004C24.8 44.8004 25.6 45.6004 25.6 46.4004C25.6 47.2004 24.96 48.0004 24 48.0004ZM72 48.0004C71.2 48.0004 70.4 47.2004 70.4 46.4004C70.4 45.6004 71.2 44.8004 72 44.8004C72.8 44.8004 73.6 45.6004 73.6 46.4004C73.6 47.2004 72.96 48.0004 72 48.0004Z" fill="#A3A9BD"/>
</svg>
