<svg width="370" height="87" viewBox="0 0 370 87" fill="none" xmlns="http://www.w3.org/2000/svg">
<path d="M98.3087 79.7594H93.7016L92.5622 81.9557H90.1348L96.3271 70.4131H99.0188L101.116 81.9557H98.672L98.3087 79.7594ZM98.0115 77.9602L97.1858 73.0724L94.6428 77.9602H98.0115Z" fill="#666771"/>
<path d="M111.608 73.4429C112.153 73.9548 112.425 74.6842 112.425 75.6309C112.425 75.9839 112.398 76.3031 112.343 76.5893L111.385 81.9561H109.09L109.981 76.9031C110.014 76.7049 110.031 76.5123 110.031 76.3252C110.031 75.7747 109.885 75.3564 109.593 75.0701C109.301 74.7839 108.886 74.6408 108.346 74.6408C107.73 74.6408 107.204 74.8252 106.77 75.194C106.335 75.5628 106.046 76.0947 105.903 76.7875L104.994 81.9561H102.666L104.284 72.8079H106.613L106.414 73.9308C106.789 73.5454 107.235 73.24 107.752 73.0143C108.269 72.7886 108.809 72.6758 109.37 72.6758C110.317 72.6751 111.063 72.931 111.608 73.4429Z" fill="#666771"/>
<path d="M116.736 72.8076L117.958 79.1982L121.509 72.8076H123.969L115.927 86.2822H113.467L116.241 81.7246L114.144 72.8076H116.736Z" fill="#666771"/>
<path d="M126.775 79.1336C126.764 79.1997 126.758 79.2877 126.758 79.3978C126.758 79.618 126.822 79.7749 126.948 79.8684C127.075 79.9627 127.287 80.0088 127.584 80.0088H128.674L128.327 81.9573H126.857C125.206 81.9573 124.381 81.2693 124.381 79.8932C124.381 79.629 124.403 79.3703 124.447 79.1171L125.223 74.7081H124.133L124.463 72.8091H125.569L125.966 70.5469H128.294L127.898 72.8091H129.929L129.599 74.7081H127.551L126.775 79.1336Z" fill="#666771"/>
<path d="M138.937 73.453C139.471 73.9711 139.738 74.6977 139.738 75.6327C139.738 75.9857 139.71 76.305 139.655 76.5912L138.697 81.9579H136.402L137.294 76.9049C137.327 76.7068 137.343 76.5141 137.343 76.3269C137.343 75.7765 137.197 75.3582 136.906 75.072C136.614 74.7858 136.198 74.6426 135.659 74.6426C135.043 74.6426 134.52 74.827 134.09 75.1958C133.661 75.5646 133.375 76.0903 133.232 76.7728L132.307 81.9579H129.979L132.142 69.7383H134.47L133.727 73.9326C134.101 73.5473 134.555 73.2418 135.089 73.0161C135.623 72.7904 136.187 72.6776 136.782 72.6776C137.685 72.6776 138.403 72.9363 138.937 73.453Z" fill="#666771"/>
<path d="M144.841 72.8084L143.223 81.9566H140.895L142.513 72.8084H144.841ZM143.008 71.4048C142.788 71.1957 142.678 70.9315 142.678 70.6122C142.678 70.1719 142.846 69.7948 143.182 69.4811C143.517 69.1673 143.911 69.0098 144.362 69.0098C144.715 69.0098 145.001 69.1143 145.221 69.3235C145.441 69.5334 145.551 69.7969 145.551 70.1162C145.551 70.5565 145.386 70.9335 145.056 71.2473C144.726 71.561 144.335 71.7186 143.883 71.7186C143.52 71.7186 143.228 71.614 143.008 71.4048Z" fill="#666771"/>
<path d="M154.426 73.4429C154.971 73.9548 155.244 74.6842 155.244 75.6309C155.244 75.9839 155.216 76.3031 155.161 76.5893L154.203 81.9561H151.908L152.8 76.9031C152.833 76.7049 152.849 76.5123 152.849 76.3252C152.849 75.7747 152.703 75.3564 152.412 75.0701C152.12 74.7839 151.704 74.6408 151.165 74.6408C150.548 74.6408 150.023 74.8252 149.588 75.194C149.153 75.5628 148.864 76.0947 148.721 76.7875L147.813 81.9561H145.484L147.103 72.8079H149.431L149.233 73.9308C149.607 73.5454 150.053 73.24 150.57 73.0143C151.088 72.7886 151.627 72.6758 152.189 72.6758C153.135 72.6751 153.881 72.931 154.426 73.4429Z" fill="#666771"/>
<path d="M163.377 73.0653C163.855 73.335 164.194 73.6839 164.392 74.1132L164.623 72.8087H166.952L165.333 82.0229C165.179 82.8706 164.871 83.6274 164.409 84.2941C163.946 84.9602 163.341 85.4879 162.592 85.8794C161.844 86.2695 160.985 86.4656 160.016 86.4656C158.728 86.4656 157.723 86.1628 157.003 85.558C156.281 84.9519 155.954 84.127 156.02 83.0804H158.315C158.359 83.4988 158.56 83.8318 158.918 84.0795C159.276 84.3272 159.741 84.451 160.313 84.451C160.996 84.451 161.577 84.2501 162.056 83.8483C162.534 83.4465 162.851 82.8383 163.005 82.0236L163.253 80.6042C162.878 81.0335 162.407 81.3913 161.841 81.6775C161.274 81.9638 160.655 82.1068 159.983 82.1068C159.311 82.1068 158.714 81.9555 158.191 81.6528C157.669 81.3507 157.261 80.9214 156.97 80.3647C156.678 79.8088 156.532 79.1627 156.532 78.4251C156.532 78.0839 156.565 77.7254 156.631 77.3511C156.796 76.4264 157.124 75.6069 157.614 74.8907C158.103 74.1758 158.701 73.6254 159.405 73.2401C160.11 72.8548 160.853 72.6621 161.634 72.6621C162.317 72.6607 162.898 72.7956 163.377 73.0653ZM163.88 76.756C163.88 76.1065 163.69 75.5994 163.31 75.2368C162.931 74.8735 162.454 74.6918 161.882 74.6918C161.453 74.6918 161.037 74.7957 160.635 75.0056C160.234 75.2148 159.884 75.5202 159.587 75.9214C159.29 76.3239 159.091 76.7993 158.992 77.3497C158.959 77.5596 158.943 77.7577 158.943 77.9442C158.943 78.6047 159.13 79.1249 159.504 79.5047C159.879 79.8852 160.352 80.0744 160.924 80.0744C161.354 80.0744 161.772 79.9677 162.179 79.7524C162.587 79.5377 162.936 79.2267 163.228 78.8201C163.52 78.4128 163.715 77.9339 163.814 77.3828C163.858 77.0972 163.88 76.8881 163.88 76.756Z" fill="#666771"/>
<path d="M181.227 75.0778C180.793 75.5236 180.261 75.8457 179.634 76.0438C180.162 76.1539 180.589 76.4181 180.914 76.8358C181.238 77.2541 181.401 77.7501 181.401 78.3219C181.401 78.4767 181.384 78.6474 181.351 78.8338C181.197 79.7696 180.727 80.5236 179.939 81.0961C179.152 81.6685 178.17 81.9548 176.992 81.9548H172.021L174.069 70.4287H178.825C179.871 70.4287 180.677 70.6489 181.244 71.0892C181.811 71.5295 182.094 72.1185 182.094 72.8561C182.094 73.0323 182.078 73.2139 182.045 73.4011C181.935 74.0733 181.662 74.6319 181.227 75.0778ZM179.089 78.2235C179.089 77.8272 178.949 77.5162 178.668 77.2905C178.387 77.0655 177.999 76.952 177.504 76.952H175.225L174.68 80.1225H177.008C177.57 80.1225 178.032 79.9849 178.395 79.7097C178.759 79.4345 178.979 79.0492 179.056 78.5531C179.078 78.3996 179.089 78.2896 179.089 78.2235ZM179.65 73.4506C179.65 73.0653 179.524 72.7687 179.271 72.5589C179.017 72.3497 178.649 72.2451 178.164 72.2451H176.067L175.539 75.2174H177.652C178.192 75.2174 178.638 75.0881 178.99 74.8294C179.342 74.5714 179.557 74.2109 179.634 73.7485C179.645 73.6818 179.65 73.5834 179.65 73.4506Z" fill="#666771"/>
<path d="M192.893 72.8083L191.275 81.9565H188.964L189.161 80.8006C188.809 81.1969 188.373 81.5079 187.857 81.7329C187.339 81.9585 186.794 82.0714 186.222 82.0714C185.274 82.0714 184.526 81.8155 183.976 81.3036C183.426 80.7917 183.15 80.0623 183.15 79.1156C183.15 78.7633 183.178 78.4495 183.233 78.1743L184.174 72.8076H186.486L185.594 77.8441C185.561 78.0415 185.545 78.2342 185.545 78.422C185.545 78.9614 185.694 79.377 185.991 79.6687C186.288 79.9612 186.706 80.1063 187.246 80.1063C187.873 80.1063 188.407 79.9116 188.847 79.5201C189.287 79.13 189.568 78.5706 189.689 77.8441L190.581 72.8076L192.893 72.8083Z" fill="#666771"/>
<path d="M196.757 79.1336C196.746 79.1997 196.741 79.2877 196.741 79.3978C196.741 79.618 196.804 79.7749 196.931 79.8684C197.057 79.9627 197.269 80.0088 197.566 80.0088H198.656L198.31 81.9573H196.839C195.189 81.9573 194.362 81.2693 194.362 79.8932C194.362 79.629 194.384 79.3703 194.428 79.1171L195.205 74.7081H194.115L194.445 72.8091H195.551L195.948 70.5469H198.275L197.879 72.8091H199.911L199.58 74.7081H197.532L196.757 79.1336Z" fill="#666771"/>
<path d="M207.218 81.4522C206.475 81.0393 205.9 80.4669 205.493 79.7355C205.085 79.0034 204.881 78.164 204.881 77.2173C204.881 75.8962 205.175 74.7073 205.764 73.6498C206.353 72.593 207.168 71.7652 208.208 71.1653C209.249 70.5653 210.418 70.2646 211.717 70.2646C212.697 70.2646 213.559 70.469 214.301 70.8763C215.045 71.2836 215.62 71.8533 216.028 72.5847C216.435 73.3168 216.639 74.1507 216.639 75.0864C216.639 76.4295 216.347 77.6294 215.764 78.6863C215.18 79.7431 214.366 80.5715 213.32 81.1715C212.274 81.7714 211.096 82.0714 209.786 82.0714C208.816 82.0721 207.961 81.8657 207.218 81.4522ZM212.303 79.3144C212.936 78.8961 213.426 78.3319 213.773 77.6219C214.12 76.9118 214.293 76.1384 214.293 75.3018C214.293 74.3991 214.041 73.689 213.534 73.1716C213.027 72.6542 212.317 72.3948 211.403 72.3948C210.588 72.3948 209.865 72.6047 209.232 73.0223C208.599 73.4406 208.108 74.0028 207.762 74.7066C207.415 75.4112 207.242 76.1825 207.242 77.0184C207.242 77.9211 207.492 78.634 207.993 79.1562C208.494 79.6798 209.201 79.9412 210.115 79.9412C210.942 79.9419 211.67 79.7327 212.303 79.3144Z" fill="#666771"/>
<path d="M222.401 73.1381C222.93 72.8306 223.502 72.6758 224.119 72.6758L223.689 75.1032H223.078C222.395 75.1032 221.848 75.2518 221.435 75.5491C221.022 75.8463 220.722 76.3527 220.535 77.0683L219.676 81.9561H217.348L218.966 72.8079H221.294L221.014 74.4262C221.411 73.8764 221.873 73.4471 222.401 73.1381Z" fill="#666771"/>
<path d="M225.233 74.8874C225.723 74.1725 226.323 73.6221 227.033 73.2368C227.743 72.8515 228.488 72.6588 229.27 72.6588C229.865 72.6588 230.409 72.7882 230.906 73.0462C231.401 73.3049 231.77 73.6489 232.011 74.0783L232.787 69.7354H235.116L232.952 81.955H230.624L230.871 80.6009C230.509 81.0522 230.043 81.4155 229.476 81.6907C228.91 81.9653 228.285 82.1036 227.602 82.1036C226.929 82.1036 226.333 81.9522 225.81 81.6494C225.287 81.3474 224.879 80.9181 224.588 80.3614C224.296 79.8055 224.15 79.1594 224.15 78.4219C224.15 78.0806 224.183 77.7221 224.25 77.3478C224.416 76.4238 224.743 75.6036 225.233 74.8874ZM231.5 76.754C231.5 76.1045 231.311 75.5974 230.93 75.2348C230.551 74.8716 230.074 74.6899 229.502 74.6899C229.073 74.6899 228.657 74.7938 228.255 75.0037C227.853 75.2128 227.504 75.5183 227.207 75.9194C226.909 76.3219 226.711 76.7974 226.613 77.3478C226.579 77.5577 226.563 77.7558 226.563 77.9423C226.563 78.6028 226.75 79.123 227.125 79.5028C227.498 79.8832 227.972 80.0725 228.544 80.0725C228.974 80.0725 229.391 79.9658 229.799 79.7504C230.206 79.5358 230.556 79.2248 230.848 78.8182C231.14 78.4108 231.334 77.932 231.434 77.3809C231.477 77.0953 231.5 76.8861 231.5 76.754Z" fill="#666771"/>
<path d="M239.162 72.8084L237.543 81.9566H235.215L236.833 72.8084H239.162ZM237.329 71.4048C237.109 71.1957 236.999 70.9315 236.999 70.6122C236.999 70.1719 237.167 69.7948 237.503 69.4811C237.838 69.1673 238.232 69.0098 238.683 69.0098C239.036 69.0098 239.322 69.1143 239.541 69.3235C239.761 69.5334 239.872 69.7969 239.872 70.1162C239.872 70.5565 239.706 70.9335 239.376 71.2473C239.047 71.561 238.655 71.7186 238.204 71.7186C237.842 71.7186 237.549 71.614 237.329 71.4048Z" fill="#666771"/>
<path d="M248.747 73.4429C249.291 73.9548 249.565 74.6842 249.565 75.6309C249.565 75.9839 249.537 76.3031 249.483 76.5893L248.524 81.9561H246.229L247.121 76.9031C247.154 76.7049 247.169 76.5123 247.169 76.3252C247.169 75.7747 247.024 75.3564 246.733 75.0701C246.44 74.7839 246.025 74.6408 245.485 74.6408C244.869 74.6408 244.343 74.8252 243.908 75.194C243.473 75.5628 243.184 76.0947 243.041 76.7875L242.133 81.9561H239.805L241.423 72.8079H243.752L243.553 73.9308C243.928 73.5454 244.373 73.24 244.891 73.0143C245.408 72.7886 245.948 72.6758 246.51 72.6758C247.456 72.6751 248.202 72.931 248.747 73.4429Z" fill="#666771"/>
<path d="M251.936 74.8878C252.426 74.1729 253.023 73.6225 253.727 73.2372C254.432 72.8518 255.175 72.6592 255.957 72.6592C256.639 72.6592 257.214 72.7968 257.682 73.072C258.151 73.3472 258.494 73.694 258.714 74.1123L258.946 72.8078H261.274L259.656 81.956H257.327L257.575 80.6184C257.211 81.0478 256.74 81.4035 256.162 81.6835C255.584 81.9643 254.954 82.1046 254.272 82.1046C253.599 82.1046 253.006 81.9532 252.488 81.6505C251.971 81.3484 251.569 80.9191 251.283 80.3625C250.997 79.8066 250.854 79.1605 250.854 78.4229C250.854 78.0816 250.887 77.7232 250.953 77.3489C251.118 76.4242 251.447 75.604 251.936 74.8878ZM258.202 76.7544C258.202 76.1049 258.013 75.5978 257.633 75.2352C257.253 74.8719 256.777 74.6903 256.205 74.6903C255.775 74.6903 255.36 74.7942 254.958 75.004C254.556 75.2132 254.206 75.5187 253.91 75.9198C253.612 76.3223 253.414 76.7977 253.315 77.3482C253.282 77.558 253.266 77.7562 253.266 77.9427C253.266 78.6032 253.453 79.1233 253.827 79.5031C254.202 79.8836 254.674 80.0728 255.247 80.0728C255.676 80.0728 256.094 79.9662 256.502 79.7508C256.909 79.5361 257.258 79.2252 257.55 78.8185C257.841 78.4119 258.037 77.9323 258.136 77.3812C258.18 77.0957 258.202 76.8865 258.202 76.7544Z" fill="#666771"/>
<path d="M266.97 73.1381C267.499 72.8306 268.071 72.6758 268.687 72.6758L268.258 75.1032H267.646C266.963 75.1032 266.416 75.2518 266.004 75.5491C265.59 75.8463 265.29 76.3527 265.103 77.0683L264.244 81.9561H261.916L263.534 72.8079H265.863L265.582 74.4262C265.979 73.8764 266.441 73.4471 266.97 73.1381Z" fill="#666771"/>
<path d="M271.742 72.8076L272.964 79.1982L276.514 72.8076H278.974L270.932 86.2822H268.473L271.246 81.7246L269.149 72.8076H271.742Z" fill="#666771"/>
<path d="M37.8016 23.0078L26.0079 58.0841H11.793L0 23.0078H11.6898L18.9211 47.1319L26.1042 23.0078H37.8016Z" fill="#374850"/>
<path d="M45.9755 56.6934C43.7311 55.5375 41.9711 53.8793 40.6976 51.712C39.424 49.5515 38.791 47.0127 38.791 44.1091C38.791 41.2056 39.424 38.6667 40.6976 36.5063C41.9711 34.3458 43.7243 32.6876 45.9755 31.5248C48.2185 30.3689 50.7491 29.791 53.5577 29.791C56.3663 29.791 58.8901 30.3689 61.1406 31.5248C63.3836 32.6821 65.1436 34.3389 66.4179 36.5063C67.6908 38.6667 68.3238 41.2056 68.3238 44.1091C68.3238 47.0127 67.6908 49.5515 66.4179 51.712C65.1436 53.8738 63.3905 55.5388 61.1406 56.6934C58.8962 57.8493 56.3656 58.4279 53.5577 58.4279C50.7498 58.4279 48.2185 57.8493 45.9755 56.6934ZM56.131 47.7076C56.8259 46.8943 57.1699 45.6985 57.1699 44.1146C57.1699 42.5321 56.8259 41.3356 56.131 40.523C55.4361 39.718 54.576 39.3121 53.5577 39.3121C52.5325 39.3121 51.6725 39.718 50.9845 40.523C50.2895 41.3363 49.9455 42.5321 49.9455 44.1146C49.9455 45.6985 50.2827 46.8943 50.9638 47.7076C51.6374 48.5195 52.5037 48.9185 53.5632 48.9185C54.576 48.9185 55.4361 48.5126 56.131 47.7076Z" fill="#374850"/>
<path d="M72.1084 36.5063C73.3124 34.3458 74.9981 32.6876 77.1586 31.5248C79.3204 30.3689 81.7891 29.791 84.5619 29.791C88.1948 29.791 91.2565 30.8148 93.7541 32.8596C96.2448 34.9093 97.8273 37.7447 98.4878 41.3776H86.8462C86.4196 39.9258 85.5733 39.1965 84.3211 39.1965C83.4266 39.1965 82.7248 39.6093 82.2157 40.435C81.7065 41.2606 81.4451 42.4854 81.4451 44.1022C81.4451 45.7191 81.6997 46.9438 82.2157 47.7695C82.7235 48.5951 83.4266 49.008 84.3211 49.008C85.5733 49.008 86.4196 48.2786 86.8462 46.8269H98.4878C97.8273 50.4597 96.2517 53.3013 93.7541 55.3448C91.2565 57.3952 88.1948 58.4135 84.5619 58.4135C81.7905 58.4135 79.3204 57.8355 77.1586 56.6796C74.9981 55.5223 73.3124 53.8648 72.1084 51.6982C70.9043 49.5378 70.2988 46.9989 70.2988 44.0954C70.2988 41.1918 70.9043 38.6736 72.1084 36.5063Z" fill="#374850"/>
<path d="M135.002 36.4593C136.007 34.2989 137.389 32.6476 139.137 31.5055C140.885 30.3647 142.853 29.7998 145.034 29.7998C146.85 29.7998 148.419 30.1713 149.74 30.9144C151.061 31.6575 152.065 32.6758 152.76 33.9624V30.1507H163.707V58.092H152.76V54.2803C152.065 55.5669 151.061 56.5852 149.74 57.3283C148.419 58.0714 146.85 58.4429 145.034 58.4429C142.853 58.4429 140.891 57.8719 139.137 56.7373C137.389 55.5951 136.007 53.9493 135.002 51.7834C133.997 49.6216 133.488 47.0689 133.488 44.1324C133.494 41.1724 133.997 38.6266 135.002 36.4593ZM151.625 40.6495C150.867 39.8252 149.89 39.411 148.701 39.411C147.511 39.411 146.539 39.8252 145.777 40.6495C145.018 41.4752 144.635 42.6324 144.635 44.1172C144.635 45.6034 145.013 46.7607 145.777 47.585C146.534 48.4106 147.511 48.8234 148.701 48.8234C149.89 48.8234 150.861 48.4106 151.625 47.585C152.382 46.7593 152.767 45.6034 152.767 44.1172C152.767 42.631 152.382 41.4752 151.625 40.6495Z" fill="#374850"/>
<path d="M101.975 36.4593C102.979 34.2989 104.362 32.6476 106.11 31.5055C107.857 30.3647 109.825 29.7998 112.006 29.7998C113.823 29.7998 115.391 30.1713 116.712 30.9144C118.033 31.6575 119.038 32.6758 119.733 33.9624V30.1507H130.68V58.092H119.733V54.2803C119.038 55.5669 118.033 56.5852 116.712 57.3283C115.391 58.0714 113.823 58.4429 112.006 58.4429C109.825 58.4429 107.864 57.8719 106.11 56.7373C104.362 55.5951 102.979 53.9493 101.975 51.7834C100.97 49.6216 100.461 47.0689 100.461 44.1324C100.466 41.1724 100.97 38.6266 101.975 36.4593ZM118.598 40.6495C117.839 39.8252 116.863 39.411 115.674 39.411C114.483 39.411 113.512 39.8252 112.749 40.6495C111.991 41.4752 111.607 42.6324 111.607 44.1172C111.607 45.6034 111.986 46.7607 112.749 47.585C113.506 48.4106 114.483 48.8234 115.674 48.8234C116.863 48.8234 117.834 48.4106 118.598 47.585C119.355 46.7593 119.74 45.6034 119.74 44.1172C119.74 42.631 119.355 41.4752 118.598 40.6495Z" fill="#374850"/>
<path d="M179.661 21.4248V58.0836H168.666V21.4248H179.661Z" fill="#374850"/>
<path d="M352.81 28.4971C352.968 28.4235 353.117 28.3237 353.255 28.1957L362.276 19.9282C363.449 18.8528 362.718 16.8961 361.125 16.8527L356.102 16.7206C355.666 16.7089 355.252 16.5383 354.933 16.2383L351.962 13.4276C351.374 12.871 350.602 12.8235 349.989 13.1139C349.358 13.4132 348.897 14.073 348.986 14.9035L350.298 27.0784C350.436 28.3361 351.764 28.9932 352.81 28.4971Z" fill="#5264AE"/>
<path d="M234.616 21.4238V58.0826H223.621V21.4238H234.616Z" fill="#374850"/>
<path d="M245.269 56.6924C243.019 55.5365 241.266 53.8783 239.992 51.711C238.719 49.5506 238.086 47.0117 238.086 44.1082C238.086 41.2046 238.719 38.6657 239.992 36.5053C241.266 34.3448 243.019 32.6867 245.269 31.5239C247.512 30.368 250.043 29.79 252.852 29.79C255.659 29.79 258.184 30.368 260.434 31.5239C262.679 32.6812 264.439 34.338 265.711 36.5053C266.986 38.6657 267.618 41.2046 267.618 44.1082C267.618 47.0117 266.985 49.5506 265.711 51.711C264.439 53.8728 262.685 55.5379 260.434 56.6924C258.191 57.8483 255.66 58.427 252.852 58.427C250.043 58.427 247.518 57.8483 245.269 56.6924ZM255.422 47.7066C256.119 46.8933 256.463 45.6975 256.463 44.1137C256.463 42.5312 256.119 41.3346 255.422 40.5221C254.728 39.7171 253.868 39.3111 252.851 39.3111C251.825 39.3111 250.965 39.7171 250.277 40.5221C249.582 41.3353 249.238 42.5312 249.238 44.1137C249.238 45.6975 249.574 46.8933 250.256 47.7066C250.93 48.5185 251.797 48.9176 252.857 48.9176C253.874 48.9176 254.734 48.5116 255.422 47.7066Z" fill="#374850"/>
<path d="M271.4 36.5053C272.604 34.3448 274.289 32.6867 276.45 31.5239C278.61 30.368 281.08 29.79 283.854 29.79C287.486 29.79 290.548 30.8138 293.045 32.8587C295.537 34.9083 297.111 37.7438 297.78 41.3766H286.138C285.711 39.9249 284.865 39.1955 283.613 39.1955C282.718 39.1955 282.017 39.6084 281.505 40.434C280.998 41.2597 280.737 42.4844 280.737 44.1013C280.737 45.7182 280.989 46.9428 281.505 47.7685C282.014 48.5941 282.718 49.007 283.613 49.007C284.865 49.007 285.711 48.2777 286.138 46.8259H297.78C297.118 50.4587 295.543 53.3004 293.045 55.3438C290.548 57.3942 287.486 58.4125 283.854 58.4125C281.08 58.4125 278.61 57.8345 276.45 56.6786C274.289 55.5213 272.604 53.8639 271.4 51.6972C270.196 49.5368 269.59 46.9979 269.59 44.0944C269.59 41.1909 270.196 38.6726 271.4 36.5053Z" fill="#374850"/>
<path d="M301.274 36.4583C302.278 34.2979 303.661 32.6466 305.409 31.5045C307.156 30.3637 309.125 29.7988 311.306 29.7988C313.122 29.7988 314.691 30.1704 316.012 30.9135C317.333 31.6565 318.337 32.6748 319.032 33.9615V30.1497H329.978V58.091H319.032V54.2793C318.337 55.5659 317.333 56.5842 316.012 57.3273C314.691 58.0704 313.122 58.442 311.306 58.442C309.125 58.442 307.163 57.8709 305.409 56.7363C303.661 55.5942 302.278 53.9484 301.274 51.7824C300.269 49.6206 299.76 47.068 299.76 44.1314C299.76 41.1714 300.262 38.6257 301.274 36.4583ZM317.889 40.6485C317.132 39.8243 316.155 39.4101 314.965 39.4101C313.775 39.4101 312.804 39.8243 312.041 40.6485C311.284 41.4742 310.9 42.6314 310.9 44.1162C310.9 45.6024 311.278 46.7597 312.041 47.584C312.799 48.4096 313.775 48.8224 314.965 48.8224C316.155 48.8224 317.126 48.4096 317.889 47.584C318.647 46.7583 319.031 45.6024 319.031 44.1162C319.032 42.6301 318.654 41.4742 317.889 40.6485Z" fill="#374850"/>
<path d="M345.927 21.4238V58.0826H334.934V21.4238H345.927Z" fill="#374850"/>
<path d="M350.492 50.2439C352.064 51.1976 355.318 52.3211 357.845 52.3211C360.426 52.3211 361.492 51.4219 361.492 50.0189C361.492 48.616 360.65 47.9418 357.454 46.8774C351.784 44.9701 349.595 41.8822 349.651 38.6278C349.651 33.5204 354.029 29.6475 360.82 29.6475C364.018 29.6475 366.881 30.3775 368.564 31.2189L367.049 37.1113C365.813 36.4377 363.456 35.5391 361.1 35.5391C359.023 35.5391 357.845 36.3827 357.845 37.7856C357.845 39.0764 358.912 39.7493 362.28 40.9265C367.499 42.723 369.687 45.3609 369.744 49.4011C369.744 54.5091 365.703 58.2693 357.845 58.2693C354.253 58.2693 351.055 57.4828 348.979 56.3613L350.492 50.2439Z" fill="#5264AE"/>
<path d="M188.93 56.2694L186.934 47.0634L197.175 22.7006L209.066 20.1211L213.578 40.9199L217.161 40.1431L219.233 49.6965L215.65 50.474L216.838 55.9467L205.692 58.3651L204.505 52.8917L188.93 56.2694ZM201.546 34.9332L197.953 44.3085L203.328 43.1436L201.546 34.9332Z" fill="#5264AE"/>
<ellipse cx="184.5" cy="5" rx="64.5" ry="5" fill="url(#paint0_radial_33_691)"/>
<defs>
<radialGradient id="paint0_radial_33_691" cx="0" cy="0" r="1" gradientUnits="userSpaceOnUse" gradientTransform="translate(184.5 5) rotate(90) scale(5 64.5)">
<stop stop-color="#D6C8C8"/>
<stop offset="1" stop-color="#D9D9D9" stop-opacity="0"/>
</radialGradient>
</defs>
</svg>
