<svg width="70" height="80" viewBox="0 0 70 80" fill="none" xmlns="http://www.w3.org/2000/svg">
<path d="M41.9053 47.3158H37.8027V39.5015C37.8027 36.401 40.3274 33.8786 43.4303 33.8786H64.307C65.1479 33.8786 65.832 33.1967 65.832 32.3584V13.4098C65.832 12.5717 65.1479 11.8897 64.307 11.8897H52.007V7.78711H64.307C67.4099 7.78711 69.9345 10.3095 69.9345 13.4098V32.3586C69.9345 35.4589 67.4099 37.9813 64.307 37.9813H43.4303C42.5894 37.9813 41.9053 38.6632 41.9053 39.5016V47.3158Z" fill="#A3A9BD"/>
<path d="M50.146 0H3.4612C1.54974 0 0 1.5506 0 3.46342V16.2145C0 18.1274 1.54957 19.6779 3.4612 19.6779H50.1458C52.0574 19.6779 53.607 18.1274 53.607 16.2145V3.46342C53.6072 1.5506 52.0576 0 50.146 0Z" fill="#A3A9BD"/>
<path d="M47.7653 70.966L45.3754 57.5443C44.8508 54.5983 45.0024 51.5775 45.8195 48.6939C46.4021 46.6378 44.7947 44.6113 42.5814 44.6113H37.1275C34.9142 44.6113 33.3069 46.638 33.8894 48.6939C34.7065 51.5775 34.8581 54.5983 34.3335 57.5443L31.9436 70.966C31.1033 75.6874 34.8798 80.0004 39.8547 80.0004C44.8296 80.0004 48.6062 75.6874 47.7653 70.966ZM39.8547 74.0009C38.4058 74.0009 37.2313 72.8558 37.2313 71.4433C37.2313 70.0306 38.4058 68.8857 39.8547 68.8857C41.3036 68.8857 42.4781 70.0308 42.4781 71.4433C42.4781 72.8558 41.3036 74.0009 39.8547 74.0009Z" fill="#A3A9BD"/>
<path d="M35.7734 23.9629H4.07715V38.7437C4.07715 41.4012 6.22997 43.5554 8.8857 43.5554H8.88877C11.5445 43.5554 13.6973 41.4012 13.6973 38.7437V36.3655C13.6973 34.0161 15.6007 32.1116 17.9486 32.1116H18.6322C20.6026 32.1116 22.2001 33.7099 22.2001 35.6815C22.2001 38.3393 24.3536 40.4937 27.0096 40.4931C29.6655 40.4926 31.818 38.3378 31.8173 35.6803L31.816 30.6974C31.8148 27.9097 33.3266 25.3372 35.7734 23.9629Z" fill="#A3A9BD"/>
</svg>
