<svg width="51" height="33" viewBox="0 0 51 33" fill="none" xmlns="http://www.w3.org/2000/svg">
<path d="M4 0.5H47C48.933 0.5 50.5 2.067 50.5 4V29C50.5 30.933 48.933 32.5 47 32.5H4C2.067 32.5 0.5 30.933 0.5 29V4C0.5 2.067 2.067 0.5 4 0.5Z" fill="#F6F6F6" stroke="#EEEEEE"/>
<path fill-rule="evenodd" clip-rule="evenodd" d="M17.3696 10.5H15.6376L14.3463 13.4921L12.9604 10.5H11.2597V14.6574L9.46445 10.5H7.88976L6 14.9094H7.13381L7.54318 13.9329H9.74779L10.1572 14.9094H12.299V11.445L13.8422 14.9094H14.7554L16.2988 11.445V14.9094H17.3696V10.5ZM40.8655 14.9094H39.3541L37.3698 11.6023V14.9094H35.2284L34.8186 13.9329H32.614L32.2046 14.9094H30.976C30.4722 14.9094 29.8107 14.7834 29.4331 14.4053C29.0865 14.0275 28.8975 13.5236 28.8975 12.7361C28.8975 12.0747 28.992 11.4763 29.4641 11.0039C29.779 10.6573 30.3461 10.5 31.0703 10.5H32.0781V11.445H31.0703C30.6927 11.445 30.4719 11.508 30.2516 11.6971C30.0626 11.8861 29.968 12.2325 29.968 12.7048C29.968 13.1772 30.0626 13.5238 30.2516 13.7444C30.4089 13.9017 30.6927 13.9647 30.9758 13.9647H31.4484L32.9601 10.5002H34.535L36.2987 14.6576V10.5H37.9367L39.7949 13.5551V10.5H40.8655V14.9094ZM39.3541 20.1694C39.102 19.9486 38.7239 19.8228 38.1255 19.8228H37.5588C37.4038 19.8228 37.2789 19.7919 37.1549 19.7613L37.1495 19.76C37.0232 19.6967 36.9291 19.6022 36.9291 19.4447C36.9291 19.2872 36.9604 19.1926 37.0864 19.0981C37.181 19.0353 37.3068 19.0353 37.4958 19.0353H39.4486V18.0903H37.3385C36.2045 18.0903 35.8264 18.7833 35.8264 19.4134C35.8264 20.7103 36.9029 20.7381 37.8415 20.7624C37.9056 20.7641 37.969 20.7657 38.0314 20.7678C38.22 20.7678 38.3463 20.7991 38.4091 20.8623C38.4719 20.9251 38.5353 21.0509 38.5353 21.1771C38.5353 21.3029 38.4721 21.3975 38.4091 21.4607C38.3145 21.5235 38.1887 21.5548 37.9997 21.5548H35.9524V22.4998H37.9997C39.0703 22.4998 39.6689 22.0591 39.6689 21.1144C39.6689 20.6735 39.5431 20.3897 39.3541 20.1694ZM43.795 21.1144C43.795 22.0594 43.1966 22.4998 42.1256 22.4998H40.0787V21.5548H42.1256C42.3146 21.5548 42.4722 21.5235 42.5354 21.4607C42.5982 21.3975 42.6612 21.3029 42.6612 21.1771C42.6612 21.0509 42.5984 20.9251 42.5354 20.8623C42.4722 20.7991 42.3464 20.7678 42.1573 20.7678C42.0949 20.7657 42.0315 20.7641 41.9674 20.7624L41.9673 20.7624L41.9671 20.7624C41.029 20.7382 39.9527 20.7103 39.9527 19.4134C39.9527 18.7833 40.3621 18.0903 41.4644 18.0903H43.5745V19.0353H41.6217C41.4331 19.0353 41.3068 19.0353 41.2123 19.0981C41.1178 19.1926 41.055 19.2872 41.055 19.4447C41.055 19.6022 41.1495 19.6967 41.2753 19.76L41.2781 19.7607C41.4034 19.7917 41.5288 19.8228 41.6852 19.8228H42.2518C42.8502 19.8228 43.2283 19.9486 43.4804 20.1694C43.669 20.3897 43.795 20.6735 43.795 21.1144ZM32.8348 21.5867H35.3225V22.5H31.7952V18.0908H35.3225V19.004H32.8348V19.8232H35.2597V20.7048H32.8348V21.5867ZM30.6612 18.3113C30.3146 18.1223 29.9053 18.0906 29.3699 18.0906H26.9449V22.4998H28.0155V20.8936H29.1495C29.5272 20.8936 29.7479 20.9253 29.9055 21.0826C30.0945 21.3029 30.0945 21.681 30.0945 21.9646V22.4998H31.1336V21.6493C31.1336 21.2399 31.1023 21.0509 30.9763 20.8306C30.8818 20.7043 30.6932 20.547 30.4411 20.4525C30.7242 20.3584 31.1971 19.9803 31.1971 19.2872C31.1968 18.7835 31.0078 18.4999 30.6612 18.3113ZM21.3069 18.0906H24.6771C25.496 18.0906 26.441 18.3426 26.4413 19.5394C26.4413 20.7678 25.5275 21.0198 24.6143 21.0198H23.2914V22.4998H21.2441L19.9528 21.0509L18.5984 22.4998H14.4093V18.0906H18.6612L19.9525 19.5394L21.3069 18.0906ZM29.8107 19.9175C29.6534 19.9803 29.4959 19.9803 29.3068 19.9803L28.0155 20.0121V19.0038H29.3068C29.4959 19.0038 29.6849 19.0038 29.8107 19.0983C29.937 19.1616 30.0311 19.2874 30.0311 19.4764C30.0311 19.6655 29.937 19.823 29.8107 19.9175ZM23.2912 20.1379H24.6771C25.0549 20.1379 25.307 19.9175 25.307 19.5394C25.307 19.1616 25.0552 19.0038 24.6771 19.0038H23.2912V20.1379ZM20.614 20.2952L22.2517 18.5632V22.1221L20.614 20.2952ZM15.4486 21.5867H18.0628L19.2596 20.2954L18.0943 19.004H15.4486V19.8232H17.7792V20.7048H15.4486V21.5867ZM27.2915 10.5H28.3621V14.9094H27.2915V10.5ZM26.1257 10.689C25.7791 10.5 25.4015 10.5 24.8661 10.5H22.4407V14.9094H23.48V13.303H24.6138C24.9919 13.303 25.244 13.3345 25.4013 13.4921C25.5676 13.6861 25.563 14.0019 25.5595 14.2465C25.5591 14.28 25.5586 14.3122 25.5586 14.3425V14.9094H26.6292V14.0275C26.6292 13.6496 26.5979 13.4606 26.4406 13.24C26.346 13.114 26.157 12.9564 25.9367 12.8621C26.2198 12.7361 26.6926 12.3898 26.6926 11.6968C26.6929 11.1929 26.4721 10.9094 26.1257 10.689ZM19.2281 13.9962H21.6848V14.9097H18.1573V10.5002H21.6848V11.4135H19.2281V12.2009H21.6533V13.1142H19.2281V13.9962ZM33.7163 11.256L34.441 12.9882H32.9921L33.7163 11.256ZM25.307 12.2955C25.1497 12.39 24.9921 12.39 24.7716 12.39H23.48V11.4137H24.7714C24.9604 11.4137 25.1805 11.4137 25.3068 11.4767C25.4326 11.5713 25.4958 11.6973 25.4958 11.8861C25.4958 12.0749 25.4328 12.2322 25.307 12.2955ZM8.64548 11.256L7.92104 12.9882H9.36993L8.64548 11.256Z" fill="#0077A6"/>
</svg>
