<svg width="51" height="33" viewBox="0 0 51 33" fill="none" xmlns="http://www.w3.org/2000/svg">
<path d="M4 0.5H47C48.933 0.5 50.5 2.067 50.5 4V29C50.5 30.933 48.933 32.5 47 32.5H4C2.067 32.5 0.5 30.933 0.5 29V4C0.5 2.067 2.067 0.5 4 0.5Z" fill="#F6F6F6" stroke="#EEEEEE"/>
<path fill-rule="evenodd" clip-rule="evenodd" d="M32.0415 11.0015L31.6248 13.4717C30.3753 12.7655 27.5316 12.5985 27.5313 13.8991C27.5313 14.4158 28.1747 14.7711 28.9502 15.1994C30.1263 15.849 31.6062 16.6663 31.6062 18.4686C31.6062 21.3486 28.6002 22.4068 26.6076 22.4068C24.6156 22.4068 23.3118 21.7572 23.3118 21.7572L23.7459 19.1745C24.9414 20.1588 28.5639 20.4385 28.5639 18.8775C28.5639 18.2216 27.8508 17.8348 27.0239 17.3863C25.8829 16.7674 24.5253 16.031 24.5253 14.308C24.5253 11.1495 27.9663 10.5 29.4153 10.5C30.7557 10.5 32.0415 11.0015 32.0415 11.0015ZM41.784 22.2083H39.1029L38.7609 20.4997H35.049L34.4403 22.2083H31.3965L35.7513 11.5625C35.7513 11.5625 36.0153 10.7052 37.0992 10.7052H39.4464L41.784 22.2083ZM16.1364 10.7055L13.3527 18.6172L13.0233 16.9135L13.0236 16.9142L12.0411 11.7412C12.0411 11.7412 11.9223 10.7055 10.656 10.7055H6.054L6 10.9003C6 10.9003 7.4073 11.2006 9.0543 12.2151L11.5911 22.2086H14.6334L19.2789 10.7055H16.1364ZM21.5127 22.2083H18.5928L20.4177 10.7055H23.3379L21.5127 22.2083ZM35.8899 18.1394L37.4241 13.8348L38.2872 18.1394H35.8899Z" fill="#2566AF"/>
<path d="M13.0236 16.9137L12.0411 11.7408C12.0411 11.7408 11.9223 10.7051 10.656 10.7051H6.054L6 10.8998C6 10.8998 8.2119 11.37 10.3335 13.1315C12.3621 14.8152 13.0236 16.9137 13.0236 16.9137Z" fill="#E6A540"/>
</svg>
