<svg width="296" height="154" viewBox="0 0 296 154" fill="none" xmlns="http://www.w3.org/2000/svg">
<g filter="url(#filter0_d_20_459)">
<rect x="13" y="10" width="283" height="144" rx="10" fill="url(#paint0_linear_20_459)"/>
<path d="M164.749 142.289L152.302 58.8848H134.13L146.571 142.289" stroke="#080C2D" stroke-width="1.5337" stroke-miterlimit="10"/>
<path d="M153.363 65.9951H135.19" stroke="#080C2D" stroke-width="1.5337" stroke-miterlimit="10"/>
<path d="M154.429 73.1055H136.251" stroke="#080C2D" stroke-width="1.5337" stroke-miterlimit="10"/>
<path d="M155.512 80.3955H137.688" stroke="#080C2D" stroke-width="1.5337" stroke-miterlimit="10"/>
<path d="M156.602 87.6787H138.424" stroke="#080C2D" stroke-width="1.5337" stroke-miterlimit="10"/>
<path d="M157.685 94.9688H139.513" stroke="#080C2D" stroke-width="1.5337" stroke-miterlimit="10"/>
<path d="M158.601 102.259H140.603" stroke="#080C2D" stroke-width="1.5337" stroke-miterlimit="10"/>
<path d="M159.865 109.543H141.687" stroke="#080C2D" stroke-width="1.5337" stroke-miterlimit="10"/>
<path d="M160.948 116.832H142.775" stroke="#080C2D" stroke-width="1.5337" stroke-miterlimit="10"/>
<path d="M162.038 124.122H143.865" stroke="#080C2D" stroke-width="1.5337" stroke-miterlimit="10"/>
<path d="M163.127 131.406H144.949" stroke="#080C2D" stroke-width="1.5337" stroke-miterlimit="10"/>
<path d="M111.363 142.289L123.81 58.8848H141.983L129.541 142.289" stroke="#C4C6FF" stroke-width="1.5337" stroke-miterlimit="10"/>
<path d="M122.744 65.9951H140.922" stroke="#C4C6FF" stroke-width="1.5337" stroke-miterlimit="10"/>
<path d="M121.684 73.1055H139.862" stroke="#C4C6FF" stroke-width="1.5337" stroke-miterlimit="10"/>
<path d="M120.601 80.3955H138.425" stroke="#C4C6FF" stroke-width="1.5337" stroke-miterlimit="10"/>
<path d="M119.51 87.6787H137.688" stroke="#C4C6FF" stroke-width="1.5337" stroke-miterlimit="10"/>
<path d="M118.421 94.9688H136.599" stroke="#C4C6FF" stroke-width="1.5337" stroke-miterlimit="10"/>
<path d="M117.512 102.259H135.51" stroke="#C4C6FF" stroke-width="1.5337" stroke-miterlimit="10"/>
<path d="M116.248 109.543H134.426" stroke="#C4C6FF" stroke-width="1.5337" stroke-miterlimit="10"/>
<path d="M115.165 116.833H133.337" stroke="#C4C6FF" stroke-width="1.5337" stroke-miterlimit="10"/>
<path d="M114.075 124.122H132.248" stroke="#C4C6FF" stroke-width="1.5337" stroke-miterlimit="10"/>
<path d="M112.986 131.406H131.165" stroke="#C4C6FF" stroke-width="1.5337" stroke-miterlimit="10"/>
<path d="M123.469 44.2765H171.264C172.863 44.2765 174.161 42.9784 174.161 41.3791V29.0478C174.161 27.4484 172.863 26.1504 171.264 26.1504H123.469C121.869 26.1504 120.571 27.4484 120.571 29.0478V41.3791C120.571 42.9784 121.869 44.2765 123.469 44.2765Z" fill="#C4C6FF"/>
<path d="M166.188 41.5186H128.551V44.2711H166.188V41.5186Z" fill="#080C2D"/>
<path d="M165.145 43.1172H129.594V44.9831H165.145V43.1172Z" fill="#C4C6FF"/>
<path d="M126.568 26.1504V38.2441H168.169V26.1504" stroke="#080C2D" stroke-width="0.6135" stroke-miterlimit="10"/>
<path d="M164.415 28.1094H130.33V28.6425H164.415V28.1094Z" fill="#080C2D"/>
<path d="M164.415 29.1758H130.33V29.7089H164.415V29.1758Z" fill="#080C2D"/>
<path d="M164.415 30.4219H130.33V30.955H164.415V30.4219Z" fill="#080C2D"/>
<path d="M165.857 37.0036C166.251 37.0036 166.57 36.6845 166.57 36.2909C166.57 35.8972 166.251 35.5781 165.857 35.5781C165.464 35.5781 165.145 35.8972 165.145 36.2909C165.145 36.6845 165.464 37.0036 165.857 37.0036Z" fill="#374850"/>
<path d="M127.275 33.4456L113.188 37.4904C113.188 37.4904 110.726 39.223 113.188 42.0509L118.769 45.7421L120.322 42.5666L118.769 40.9556L127.275 39.5939C127.275 39.5939 129.425 39.223 129.715 36.6733C129.929 34.8074 128.191 33.1849 127.275 33.4456Z" fill="#5264AE"/>
<path d="M113.322 42.1382L118.775 40.9561L120.328 42.567L118.775 45.7425L113.322 42.1382Z" fill="#080C2D"/>
<path d="M129.987 30.7516V26.3997C129.987 24.4816 131.54 22.9229 133.464 22.9229C135.388 22.9229 136.941 24.4759 136.941 26.3997V27.5355L138.129 29.7955H136.941V30.7284C136.941 32.2466 135.712 33.4809 134.188 33.4809H133.168L131.552 36.2798L128.301 33.6084L129.987 30.7516Z" fill="white"/>
<path d="M115.709 97.3159C115.709 97.3159 115.025 85.3207 118.734 79.891C120.71 76.9994 116.19 66.1921 118.003 54.168L129.865 57.4246C129.512 61.0637 126.939 84.8687 119.371 96.1627C118.791 97.0261 118.363 97.9765 118.085 98.9732L118.05 99.1065L119.701 100.045L121.724 100.347C122.216 100.41 122.581 100.833 122.581 101.326V101.847H115.593L115.709 97.3159Z" fill="#080C2D"/>
<path d="M134.658 25.9706C134.658 25.9706 137.81 25.6519 138.257 23.7918C138.703 21.9317 136.344 21.5261 135.504 22.5459C135.504 22.5459 131.894 21.3001 129.906 23.4789C127.919 25.6577 128.927 28.474 129.686 29.5982C129.686 29.5982 128.829 30.5253 129.877 30.9368C130.926 31.3482 132.549 29.4185 132.358 28.4276C132.358 28.4276 134.971 28.416 134.658 25.9706Z" fill="#080C2D"/>
<path d="M132.049 27.2271C131.499 27.3123 131.15 28.007 131.269 28.7787C131.389 29.5504 131.932 30.1068 132.482 30.0216C133.032 29.9363 133.382 29.2416 133.262 28.4699C133.142 27.6983 132.599 27.1418 132.049 27.2271Z" fill="white"/>
<path d="M133.169 33.4811C133.169 33.4811 131.866 32.9016 131.692 31.5225L131.553 36.28L133.169 33.4811Z" fill="#C4C6FF"/>
<path d="M149.487 45.9689C149.487 45.9689 150.698 43.6162 151.904 43.6162C151.904 43.6162 152.228 43.819 151.133 45.175C151.133 45.175 152.68 44.2478 154.227 44.3927C154.227 44.3927 155.415 47.012 151.492 48.1014L149.974 48.4954L149.487 45.9689Z" fill="white"/>
<path d="M126.672 33.5679C127.223 33.2318 127.924 33.2897 128.416 33.7011L133.226 37.6706C133.504 37.8966 133.73 38.1805 133.893 38.4992L138.436 46.8611L149.573 45.8064L150.442 48.4489L137.155 52.1401C135.729 52.54 134.211 51.8967 133.504 50.5929L131.453 46.8089C130.671 50.6393 130.039 54.9622 130.294 58.1435L117.997 54.8811C118.003 54.8811 116.387 39.8262 126.672 33.5679Z" fill="#5264AE"/>
<path d="M120.519 40.3996C120.623 40.191 120.734 39.9882 120.844 39.7796C120.867 39.7332 120.89 39.6869 120.919 39.6463C120.96 39.571 121.006 39.4899 121.052 39.4145C121.081 39.3624 121.11 39.316 121.139 39.2639C121.186 39.1885 121.226 39.1132 121.272 39.0379C122.391 37.1951 123.874 35.4857 125.833 34.1123C125.781 34.1703 123.156 37.311 122.008 39.2523L125.908 40.4112L131.935 36.5867L132.92 37.3979L127.548 41.4659L131.147 48.1762L131.164 48.2921C130.527 51.7168 130.075 55.3617 130.295 58.1259L117.998 54.8634C118.004 54.8808 117.17 47.1042 120.519 40.3996Z" fill="#374850"/>
<path d="M129.402 42.8154L131.459 46.808C130.886 49.6127 130.399 52.6839 130.277 55.3785C129.252 50.5573 129.402 42.8154 129.402 42.8154Z" fill="#080C2D"/>
<path d="M118.004 54.8809L130.3 58.1433C130.3 58.1433 144.782 66.2096 142.551 73.1576C140.32 80.1055 134.067 88.2935 134.067 88.2935L135.817 90.0899L138.187 91.1851C138.767 91.4401 139.068 92.0833 138.888 92.6918L138.703 93.335L129.877 90.7737L131.459 86.5435L134.281 72.7346C134.281 72.723 118.16 69.4663 118.004 54.8809Z" fill="#374850"/>
<path d="M138.702 93.3289L129.877 90.7676L131.152 87.3545L134.067 88.2875L135.817 90.0838L138.187 91.179C138.766 91.434 139.067 92.0772 138.888 92.6857L138.702 93.3289Z" fill="#080C2D"/>
<path d="M124.819 60.2155L125.842 61.1143L129.127 57.3745L128.104 56.4757L124.819 60.2155Z" fill="#5264AE"/>
<path d="M134.281 72.7227H137.637L133.939 74.4089L134.281 72.7227Z" fill="#080C2D"/>
<path d="M237.944 107.155H234.85V89.3828H237.944C241.143 89.3828 243.739 91.9789 243.739 95.1776V101.361C243.739 104.559 241.143 107.155 237.944 107.155Z" fill="#080C2D"/>
<path d="M170.933 112.128H163.817V116.219H170.933V112.128Z" fill="#080C2D"/>
<path d="M233.32 112.128H226.204V116.219H233.32V112.128Z" fill="#080C2D"/>
<path d="M236.015 113.634H161.378C159.778 113.634 158.48 112.336 158.48 110.737V58.7636C158.48 57.1642 159.778 55.8662 161.378 55.8662H236.009C237.608 55.8662 238.906 57.1642 238.906 58.7636V110.737C238.912 112.336 237.614 113.634 236.015 113.634Z" fill="#C4C6FF"/>
<path d="M165.591 105.934V68.1806C165.591 66.5812 166.889 65.2832 168.488 65.2832H204.369C205.969 65.2832 207.267 66.5812 207.267 68.1806V105.934C207.267 107.533 205.969 108.831 204.369 108.831H168.488C166.889 108.831 165.591 107.539 165.591 105.934Z" stroke="#080C2D" stroke-width="0.6135" stroke-miterlimit="10"/>
<path d="M186.429 103.639C196.011 103.639 203.778 95.8709 203.778 86.289C203.778 76.7071 196.011 68.9395 186.429 68.9395C176.847 68.9395 169.079 76.7071 169.079 86.289C169.079 95.8709 176.847 103.639 186.429 103.639Z" fill="#080C2D"/>
<path d="M169.085 70.191C169.773 70.191 170.331 69.6332 170.331 68.9451C170.331 68.257 169.773 67.6992 169.085 67.6992C168.397 67.6992 167.839 68.257 167.839 68.9451C167.839 69.6332 168.397 70.191 169.085 70.191Z" fill="#080C2D"/>
<path d="M203.303 70.191C203.991 70.191 204.548 69.6332 204.548 68.9451C204.548 68.257 203.991 67.6992 203.303 67.6992C202.614 67.6992 202.057 68.257 202.057 68.9451C202.057 69.6332 202.614 70.191 203.303 70.191Z" fill="#080C2D"/>
<path d="M169.085 106.13C169.773 106.13 170.331 105.573 170.331 104.885C170.331 104.196 169.773 103.639 169.085 103.639C168.397 103.639 167.839 104.196 167.839 104.885C167.839 105.573 168.397 106.13 169.085 106.13Z" fill="#080C2D"/>
<path d="M203.303 106.13C203.991 106.13 204.548 105.573 204.548 104.885C204.548 104.196 203.991 103.639 203.303 103.639C202.614 103.639 202.057 104.196 202.057 104.885C202.057 105.573 202.614 106.13 203.303 106.13Z" fill="#080C2D"/>
<path d="M187.054 72.1035C185.182 72.1035 183.392 72.4512 181.74 73.0828C179.017 74.1259 177.139 78.0374 180.135 79.7642C182.812 80.9 184.939 83.0383 186.046 85.727C186.278 86.2891 187.031 86.3934 187.408 85.9183L191.951 80.2278C196.459 72.3527 187.054 72.1035 187.054 72.1035Z" fill="white"/>
<path d="M175.453 96.2444C176.774 97.5656 178.286 98.5912 179.903 99.3098C182.569 100.498 186.66 99.0548 185.767 95.7228C184.678 93.0282 184.69 90.015 185.802 87.3262C186.034 86.7641 185.582 86.1556 184.974 86.2252L177.736 87.0365C168.98 89.4239 175.453 96.2444 175.453 96.2444Z" fill="white"/>
<path d="M199.727 94.7204C200.741 93.1442 201.419 91.4521 201.784 89.7253C202.381 86.8685 200.11 83.1772 197.039 84.7534C194.634 86.3933 191.684 87.0133 188.827 86.4976C188.23 86.3875 187.732 86.9612 187.923 87.5407L190.247 94.4422C194.425 102.491 199.727 94.7204 199.727 94.7204Z" fill="white"/>
<path d="M172.284 68.4932V104.884" stroke="#C4C6FF" stroke-width="1.8944" stroke-miterlimit="10"/>
<path d="M175.842 68.4932V104.884" stroke="#C4C6FF" stroke-width="1.8944" stroke-miterlimit="10"/>
<path d="M179.394 68.4932V104.884" stroke="#C4C6FF" stroke-width="1.8944" stroke-miterlimit="10"/>
<path d="M182.952 68.4932V104.884" stroke="#C4C6FF" stroke-width="1.8944" stroke-miterlimit="10"/>
<path d="M186.504 68.4932V104.884" stroke="#C4C6FF" stroke-width="1.8944" stroke-miterlimit="10"/>
<path d="M190.062 68.4932V104.884" stroke="#C4C6FF" stroke-width="1.8944" stroke-miterlimit="10"/>
<path d="M193.614 68.4932V104.884" stroke="#C4C6FF" stroke-width="1.8944" stroke-miterlimit="10"/>
<path d="M197.166 68.4932V104.884" stroke="#C4C6FF" stroke-width="1.8944" stroke-miterlimit="10"/>
<path d="M200.725 68.4932V104.884" stroke="#C4C6FF" stroke-width="1.8944" stroke-miterlimit="10"/>
<path d="M158.48 60.8555H238.912" stroke="#080C2D" stroke-width="0.6135" stroke-miterlimit="10"/>
<path d="M221.933 74.6533C222.538 74.6533 223.028 74.163 223.028 73.5581C223.028 72.9532 222.538 72.4629 221.933 72.4629C221.328 72.4629 220.838 72.9532 220.838 73.5581C220.838 74.163 221.328 74.6533 221.933 74.6533Z" fill="white"/>
<path d="M221.933 71.1357C222.538 71.1357 223.028 70.6454 223.028 70.0405C223.028 69.4357 222.538 68.9453 221.933 68.9453C221.328 68.9453 220.838 69.4357 220.838 70.0405C220.838 70.6454 221.328 71.1357 221.933 71.1357Z" fill="#374850"/>
<path d="M267.752 117.146L267.619 106.252C269.067 99.5591 267.619 94.0772 267.619 94.0772C267.619 94.0772 270.551 74.1721 268.772 70.7938L262.091 68.0645H258.446C258.446 68.0645 253.613 69.6406 253.12 69.8087L244.811 72.6481L246.937 77.9272C246.937 77.9272 250.078 77.197 252.674 76.5886C252.848 78.2748 253.103 80.0423 253.491 81.5431C254.018 83.5713 254.1 86.3644 254.036 88.7924L249.701 113.791L251.643 138.807C250.403 139.265 245.726 140.499 245.674 141.739H255.774L255.062 138.807C255.479 137.179 259.912 121.22 257.594 117.14L257.078 115.564C257.078 115.564 258.231 113.061 259.715 109.607C259.975 113.125 260.259 116.99 260.259 116.99C260.451 118.421 259.709 125.05 259.993 127.293C260.341 130.074 263.209 138.181 263.817 139.891C263.278 140.221 262.74 140.615 262.282 140.974C261.888 141.281 262.108 141.919 262.606 141.919H267.596C268.024 141.919 268.274 141.432 268.024 141.084C267.694 140.621 267.242 140.065 266.744 139.676C267.271 137.497 269.861 126.012 267.752 117.146Z" fill="#374850"/>
<path d="M263.817 139.902C263.278 140.232 262.739 140.626 262.282 140.986C261.888 141.293 262.108 141.93 262.606 141.93H267.595C268.024 141.93 268.273 141.443 268.024 141.096C267.694 140.632 267.242 140.076 266.744 139.688C265.005 138.633 263.817 139.902 263.817 139.902Z" fill="#080C2D"/>
<path d="M251.619 138.621L251.637 138.812C250.396 139.27 245.72 140.504 245.668 141.744H255.768L255.067 138.864L251.619 138.621Z" fill="#080C2D"/>
<path d="M253.826 69.9995L244.931 72.7694L237.288 66.1865L235.949 67.4382C235.949 67.4382 242.161 76.9416 244.131 77.9905L254.51 75.406C254.51 75.406 257.674 74.9656 257.9 72.6071C258.236 69.1477 253.826 69.9995 253.826 69.9995Z" fill="white"/>
<path d="M235.95 67.4388C235.95 67.4388 234.687 66.6681 235.179 65.4976C235.817 63.9677 235.695 63.1101 235.695 63.1101L236.025 63.1739C236.234 63.2144 236.396 63.3709 236.443 63.5737L236.495 65.0166L238.511 64.1126L238.911 62.8262C238.911 62.8262 239.462 64.3096 239.357 65.1383C239.288 65.7004 238.268 66.5638 238.268 66.5638L238.622 67.3345L236.721 68.592L235.95 67.4388Z" fill="#5264AE"/>
<path d="M262.091 68.0645H258.446C258.446 68.0645 253.613 69.6406 253.12 69.8087L244.811 72.6481L246.937 77.9272C247.343 77.8344 252.28 76.6813 252.674 76.5886C252.767 77.5273 252.894 78.4893 253.051 79.4164L254.181 77.0637H264.31C264.31 77.0637 264.629 80.8825 268.812 84.3072C269.357 78.7442 269.705 72.5438 268.784 70.7938L262.091 68.0645Z" fill="#5264AE"/>
<path d="M264.918 69.2178L263.116 77.0639H264.304C264.304 77.0639 264.31 77.1508 264.339 77.3073L266.089 69.6929L264.918 69.2178Z" fill="#374850"/>
<path d="M254.801 69.252C254.314 69.4084 253.879 69.5533 253.566 69.6576L253.769 77.8572H253.787L254.169 77.0633H254.992L254.801 69.252Z" fill="#374850"/>
<path d="M252.668 76.5887L252.419 73.0713L250.646 77.0639L252.668 76.5887Z" fill="#080C2D"/>
<path d="M263.83 61.9215C263.397 61.692 262.818 61.9369 262.536 62.4684C262.254 62.9999 262.376 63.6168 262.809 63.8462C263.241 64.0757 263.82 63.8308 264.102 63.2993C264.384 62.7678 264.262 62.1509 263.83 61.9215Z" fill="#C4C6FF"/>
<path d="M258.224 57.2399C256.891 57.5645 256.526 58.8393 256.526 59.9867V62.6175C256.526 64.1126 257.749 65.3353 259.244 65.3353H261.127C262.622 65.3353 263.845 64.1126 263.845 62.6175C263.845 62.6175 263.822 60.2648 263.793 59.4709C263.735 58.2772 263.202 56.6141 258.224 57.2399Z" fill="#080C2D"/>
<path d="M260.757 70.3011H259.43C258.416 70.3011 257.593 69.4782 257.593 68.4642L257.854 64.373H262.86L262.599 68.4642C262.594 69.4782 261.771 70.3011 260.757 70.3011Z" fill="white"/>
<path d="M257.656 67.4036C258.155 68.0121 258.844 68.3714 259.69 68.3714H260.699C261.429 68.3714 262.153 68.1454 262.646 67.6702L262.854 64.3672H257.847L257.656 67.4036Z" fill="#C4C6FF"/>
<path d="M261.302 60.2015C260.316 60.2015 259.436 59.9407 258.839 59.5293L257.303 63.2206L257.129 61.8878C256.909 61.8066 256.677 61.8124 256.474 61.9167C256.04 62.1485 255.918 62.7628 256.202 63.2959C256.411 63.6899 256.782 63.9217 257.135 63.9275V64.6577C257.135 66.1527 258.358 67.3754 259.853 67.3754H260.861C262.356 67.3754 263.579 66.1527 263.579 64.6577V60.6593C263.579 60.3348 263.521 60.0276 263.411 59.7379C262.837 60.0276 262.101 60.2015 261.302 60.2015Z" fill="white"/>
<path d="M263.573 64.657V63.7704C263.573 63.7704 261.539 62.7621 257.963 63.7704C257.963 63.7704 257.708 63.3938 257.621 62.455L257.303 63.2199L257.193 62.3623L257.129 63.9269L257.14 64.9352C257.28 66.297 258.444 67.3748 259.841 67.3748H260.849C262.35 67.3748 263.573 66.1521 263.573 64.657Z" fill="#080C2D"/>
<path d="M266.437 73.5351C265.104 75.9515 267.857 85.0899 267.857 85.0899C266.767 91.3482 263.864 95.306 263.864 95.306L261.679 97.3458C261.679 97.3458 260.526 99.3392 260.926 99.7738C261.326 100.208 261.784 99.4841 261.784 99.4841L264.212 100.104L264.809 99.1654C266.02 97.8441 266.118 96.5925 266.118 96.5925C270.441 92.9765 272.04 89.2853 272.695 87.2339C272.863 86.7008 272.904 86.1387 272.811 85.5882L271.849 77.5856C271.218 72.3008 268.204 70.3306 266.437 73.5351Z" fill="white"/>
<path d="M260.926 99.7617C261.332 100.191 261.784 99.472 261.784 99.472L264.212 100.092L264.809 99.1533C266.02 97.8321 266.118 96.5804 266.118 96.5804L263.858 95.2939L261.674 97.3337C261.679 97.3395 260.526 99.3329 260.926 99.7617Z" fill="#5264AE"/>
<path d="M266.854 84.5679H272.863C272.863 84.5679 273.147 71.2863 268.389 70.6373C262.855 69.8723 266.854 84.5679 266.854 84.5679Z" fill="#5264AE"/>
<path d="M259.714 109.613L257.924 100.729L258.625 112.11L259.714 109.613Z" fill="#080C2D"/>
<path d="M262.856 81.5312H255.502V83.5768H262.856V81.5312Z" fill="#5264AE"/>
<path d="M105 142.289H278.565" stroke="#080C2D" stroke-width="1.5337" stroke-miterlimit="10"/>
<path d="M36.8747 73.098C35.9694 73.098 35.1341 72.888 34.3687 72.468C33.6127 72.0387 33.0107 71.446 32.5627 70.69C32.1241 69.9247 31.9047 69.066 31.9047 68.114C31.9047 67.162 32.1241 66.308 32.5627 65.552C33.0107 64.796 33.6127 64.208 34.3687 63.788C35.1341 63.3587 35.9694 63.144 36.8747 63.144C37.7894 63.144 38.6247 63.3587 39.3807 63.788C40.1461 64.208 40.7481 64.796 41.1867 65.552C41.6254 66.308 41.8447 67.162 41.8447 68.114C41.8447 69.066 41.6254 69.9247 41.1867 70.69C40.7481 71.446 40.1461 72.0387 39.3807 72.468C38.6247 72.888 37.7894 73.098 36.8747 73.098ZM36.8747 71.712C37.5187 71.712 38.0927 71.5673 38.5967 71.278C39.1007 70.9793 39.4927 70.5593 39.7727 70.018C40.0621 69.4673 40.2067 68.8327 40.2067 68.114C40.2067 67.3953 40.0621 66.7653 39.7727 66.224C39.4927 65.6827 39.1007 65.2673 38.5967 64.978C38.0927 64.6887 37.5187 64.544 36.8747 64.544C36.2307 64.544 35.6567 64.6887 35.1527 64.978C34.6487 65.2673 34.2521 65.6827 33.9627 66.224C33.6827 66.7653 33.5427 67.3953 33.5427 68.114C33.5427 68.8327 33.6827 69.4673 33.9627 70.018C34.2521 70.5593 34.6487 70.9793 35.1527 71.278C35.6567 71.5673 36.2307 71.712 36.8747 71.712ZM50.4012 65.286V73H48.8052V72.09C48.5532 72.4073 48.2219 72.6593 47.8112 72.846C47.4099 73.0233 46.9806 73.112 46.5232 73.112C45.9166 73.112 45.3706 72.986 44.8852 72.734C44.4092 72.482 44.0312 72.1087 43.7512 71.614C43.4806 71.1193 43.3452 70.522 43.3452 69.822V65.286H44.9272V69.584C44.9272 70.2747 45.0999 70.8067 45.4452 71.18C45.7906 71.544 46.2619 71.726 46.8592 71.726C47.4566 71.726 47.9279 71.544 48.2732 71.18C48.6279 70.8067 48.8052 70.2747 48.8052 69.584V65.286H50.4012ZM54.103 66.406C54.3364 66.014 54.6444 65.7107 55.027 65.496C55.419 65.272 55.881 65.16 56.413 65.16V66.812H56.007C55.3817 66.812 54.9057 66.9707 54.579 67.288C54.2617 67.6053 54.103 68.156 54.103 68.94V73H52.507V65.286H54.103V66.406ZM66.7248 68.002C67.2475 68.0953 67.6908 68.3707 68.0548 68.828C68.4188 69.2853 68.6008 69.8033 68.6008 70.382C68.6008 70.8767 68.4701 71.3247 68.2088 71.726C67.9568 72.118 67.5881 72.4307 67.1028 72.664C66.6175 72.888 66.0528 73 65.4088 73H61.5168V63.27H65.2268C65.8895 63.27 66.4588 63.382 66.9348 63.606C67.4108 63.83 67.7701 64.1333 68.0128 64.516C68.2555 64.8893 68.3768 65.3093 68.3768 65.776C68.3768 66.336 68.2275 66.8027 67.9288 67.176C67.6301 67.5493 67.2288 67.8247 66.7248 68.002ZM63.1128 67.358H65.0868C65.6095 67.358 66.0155 67.2413 66.3048 67.008C66.6035 66.7653 66.7528 66.42 66.7528 65.972C66.7528 65.5333 66.6035 65.1927 66.3048 64.95C66.0155 64.698 65.6095 64.572 65.0868 64.572H63.1128V67.358ZM65.2688 71.698C65.8101 71.698 66.2348 71.5673 66.5428 71.306C66.8508 71.0447 67.0048 70.6807 67.0048 70.214C67.0048 69.738 66.8415 69.36 66.5148 69.08C66.1881 68.8 65.7541 68.66 65.2128 68.66H63.1128V71.698H65.2688ZM77.4052 68.954C77.4052 69.2433 77.3865 69.5047 77.3492 69.738H71.4552C71.5018 70.354 71.7305 70.8487 72.1412 71.222C72.5518 71.5953 73.0558 71.782 73.6532 71.782C74.5118 71.782 75.1185 71.4227 75.4732 70.704H77.1952C76.9618 71.4133 76.5372 71.9967 75.9212 72.454C75.3145 72.902 74.5585 73.126 73.6532 73.126C72.9158 73.126 72.2532 72.9627 71.6652 72.636C71.0865 72.3 70.6292 71.8333 70.2932 71.236C69.9665 70.6293 69.8032 69.9293 69.8032 69.136C69.8032 68.3427 69.9618 67.6473 70.2792 67.05C70.6058 66.4433 71.0585 65.9767 71.6372 65.65C72.2252 65.3233 72.8972 65.16 73.6532 65.16C74.3812 65.16 75.0298 65.3187 75.5992 65.636C76.1685 65.9533 76.6118 66.4013 76.9292 66.98C77.2465 67.5493 77.4052 68.2073 77.4052 68.954ZM75.7392 68.45C75.7298 67.862 75.5198 67.3907 75.1092 67.036C74.6985 66.6813 74.1898 66.504 73.5832 66.504C73.0325 66.504 72.5612 66.6813 72.1692 67.036C71.7772 67.3813 71.5438 67.8527 71.4692 68.45H75.7392ZM81.7758 73.126C81.1691 73.126 80.6231 73.0187 80.1378 72.804C79.6618 72.58 79.2838 72.2813 79.0038 71.908C78.7238 71.5253 78.5744 71.1007 78.5558 70.634H80.2078C80.2358 70.9607 80.3898 71.236 80.6698 71.46C80.9591 71.6747 81.3184 71.782 81.7478 71.782C82.1958 71.782 82.5411 71.698 82.7838 71.53C83.0358 71.3527 83.1618 71.1287 83.1618 70.858C83.1618 70.5687 83.0218 70.354 82.7418 70.214C82.4711 70.074 82.0371 69.92 81.4398 69.752C80.8611 69.5933 80.3898 69.4393 80.0258 69.29C79.6618 69.1407 79.3444 68.912 79.0738 68.604C78.8124 68.296 78.6818 67.89 78.6818 67.386C78.6818 66.9753 78.8031 66.602 79.0458 66.266C79.2884 65.9207 79.6338 65.65 80.0818 65.454C80.5391 65.258 81.0618 65.16 81.6498 65.16C82.5271 65.16 83.2318 65.384 83.7638 65.832C84.3051 66.2707 84.5944 66.8727 84.6318 67.638H83.0358C83.0078 67.2927 82.8678 67.0173 82.6158 66.812C82.3638 66.6067 82.0231 66.504 81.5938 66.504C81.1738 66.504 80.8518 66.5833 80.6278 66.742C80.4038 66.9007 80.2918 67.1107 80.2918 67.372C80.2918 67.5773 80.3664 67.75 80.5158 67.89C80.6651 68.03 80.8471 68.142 81.0618 68.226C81.2764 68.3007 81.5938 68.3987 82.0138 68.52C82.5738 68.6693 83.0311 68.8233 83.3858 68.982C83.7498 69.1313 84.0624 69.3553 84.3238 69.654C84.5851 69.9527 84.7204 70.3493 84.7298 70.844C84.7298 71.2827 84.6084 71.6747 84.3658 72.02C84.1231 72.3653 83.7778 72.636 83.3298 72.832C82.8911 73.028 82.3731 73.126 81.7758 73.126ZM88.3163 66.588V70.858C88.3163 71.1473 88.3816 71.3573 88.5123 71.488C88.6523 71.6093 88.8856 71.67 89.2123 71.67H90.1923V73H88.9323C88.2136 73 87.663 72.832 87.2803 72.496C86.8976 72.16 86.7063 71.614 86.7063 70.858V66.588H85.7963V65.286H86.7063V63.368H88.3163V65.286H90.1923V66.588H88.3163ZM35.8888 94.098C35.2355 94.098 34.6475 93.986 34.1248 93.762C33.6021 93.5287 33.1915 93.202 32.8928 92.782C32.5941 92.362 32.4448 91.872 32.4448 91.312H34.1528C34.1901 91.732 34.3535 92.0773 34.6428 92.348C34.9415 92.6187 35.3568 92.754 35.8888 92.754C36.4395 92.754 36.8688 92.6233 37.1768 92.362C37.4848 92.0913 37.6388 91.746 37.6388 91.326C37.6388 90.9993 37.5408 90.7333 37.3448 90.528C37.1581 90.3227 36.9201 90.164 36.6308 90.052C36.3508 89.94 35.9588 89.8187 35.4548 89.688C34.8201 89.52 34.3021 89.352 33.9008 89.184C33.5088 89.0067 33.1728 88.736 32.8928 88.372C32.6128 88.008 32.4728 87.5227 32.4728 86.916C32.4728 86.356 32.6128 85.866 32.8928 85.446C33.1728 85.026 33.5648 84.704 34.0688 84.48C34.5728 84.256 35.1561 84.144 35.8188 84.144C36.7615 84.144 37.5315 84.382 38.1288 84.858C38.7355 85.3247 39.0715 85.9687 39.1368 86.79H37.3728C37.3448 86.4353 37.1768 86.132 36.8688 85.88C36.5608 85.628 36.1548 85.502 35.6508 85.502C35.1935 85.502 34.8201 85.6187 34.5308 85.852C34.2415 86.0853 34.0968 86.4213 34.0968 86.86C34.0968 87.1587 34.1855 87.406 34.3628 87.602C34.5495 87.7887 34.7828 87.938 35.0628 88.05C35.3428 88.162 35.7255 88.2833 36.2108 88.414C36.8548 88.5913 37.3775 88.7687 37.7788 88.946C38.1895 89.1233 38.5348 89.3987 38.8148 89.772C39.1041 90.136 39.2488 90.626 39.2488 91.242C39.2488 91.7367 39.1135 92.2033 38.8428 92.642C38.5815 93.0807 38.1941 93.4353 37.6808 93.706C37.1768 93.9673 36.5795 94.098 35.8888 94.098ZM48.202 89.954C48.202 90.2433 48.1834 90.5047 48.146 90.738H42.252C42.2987 91.354 42.5274 91.8487 42.938 92.222C43.3487 92.5953 43.8527 92.782 44.45 92.782C45.3087 92.782 45.9154 92.4227 46.27 91.704H47.992C47.7587 92.4133 47.334 92.9967 46.718 93.454C46.1114 93.902 45.3554 94.126 44.45 94.126C43.7127 94.126 43.05 93.9627 42.462 93.636C41.8834 93.3 41.426 92.8333 41.09 92.236C40.7634 91.6293 40.6 90.9293 40.6 90.136C40.6 89.3427 40.7587 88.6473 41.076 88.05C41.4027 87.4433 41.8554 86.9767 42.434 86.65C43.022 86.3233 43.694 86.16 44.45 86.16C45.178 86.16 45.8267 86.3187 46.396 86.636C46.9654 86.9533 47.4087 87.4013 47.726 87.98C48.0434 88.5493 48.202 89.2073 48.202 89.954ZM46.536 89.45C46.5267 88.862 46.3167 88.3907 45.906 88.036C45.4954 87.6813 44.9867 87.504 44.38 87.504C43.8294 87.504 43.358 87.6813 42.966 88.036C42.574 88.3813 42.3407 88.8527 42.266 89.45H46.536ZM51.3687 87.406C51.602 87.014 51.91 86.7107 52.2927 86.496C52.6847 86.272 53.1467 86.16 53.6787 86.16V87.812H53.2727C52.6473 87.812 52.1713 87.9707 51.8447 88.288C51.5273 88.6053 51.3687 89.156 51.3687 89.94V94H49.7727V86.286H51.3687V87.406ZM58.1277 92.572L60.3117 86.286H62.0057L59.0657 94H57.1617L54.2357 86.286H55.9437L58.1277 92.572ZM64.0241 85.264C63.7348 85.264 63.4921 85.166 63.2961 84.97C63.1001 84.774 63.0021 84.5313 63.0021 84.242C63.0021 83.9527 63.1001 83.71 63.2961 83.514C63.4921 83.318 63.7348 83.22 64.0241 83.22C64.3041 83.22 64.5421 83.318 64.7381 83.514C64.9341 83.71 65.0321 83.9527 65.0321 84.242C65.0321 84.5313 64.9341 84.774 64.7381 84.97C64.5421 85.166 64.3041 85.264 64.0241 85.264ZM64.8081 86.286V94H63.2121V86.286H64.8081ZM66.3715 90.136C66.3715 89.3427 66.5302 88.6473 66.8475 88.05C67.1742 87.4433 67.6222 86.9767 68.1915 86.65C68.7608 86.3233 69.4142 86.16 70.1515 86.16C71.0848 86.16 71.8548 86.384 72.4615 86.832C73.0775 87.2707 73.4928 87.9007 73.7075 88.722H71.9855C71.8455 88.3393 71.6215 88.0407 71.3135 87.826C71.0055 87.6113 70.6182 87.504 70.1515 87.504C69.4982 87.504 68.9755 87.7373 68.5835 88.204C68.2008 88.6613 68.0095 89.3053 68.0095 90.136C68.0095 90.9667 68.2008 91.6153 68.5835 92.082C68.9755 92.5487 69.4982 92.782 70.1515 92.782C71.0755 92.782 71.6868 92.376 71.9855 91.564H73.7075C73.4835 92.348 73.0635 92.9733 72.4475 93.44C71.8315 93.8973 71.0662 94.126 70.1515 94.126C69.4142 94.126 68.7608 93.9627 68.1915 93.636C67.6222 93.3 67.1742 92.8333 66.8475 92.236C66.5302 91.6293 66.3715 90.9293 66.3715 90.136ZM82.368 89.954C82.368 90.2433 82.3494 90.5047 82.312 90.738H76.418C76.4647 91.354 76.6934 91.8487 77.104 92.222C77.5147 92.5953 78.0187 92.782 78.616 92.782C79.4747 92.782 80.0814 92.4227 80.436 91.704H82.158C81.9247 92.4133 81.5 92.9967 80.884 93.454C80.2774 93.902 79.5214 94.126 78.616 94.126C77.8787 94.126 77.216 93.9627 76.628 93.636C76.0494 93.3 75.592 92.8333 75.256 92.236C74.9294 91.6293 74.766 90.9293 74.766 90.136C74.766 89.3427 74.9247 88.6473 75.242 88.05C75.5687 87.4433 76.0214 86.9767 76.6 86.65C77.188 86.3233 77.86 86.16 78.616 86.16C79.344 86.16 79.9927 86.3187 80.562 86.636C81.1314 86.9533 81.5747 87.4013 81.892 87.98C82.2094 88.5493 82.368 89.2073 82.368 89.954ZM80.702 89.45C80.6927 88.862 80.4827 88.3907 80.072 88.036C79.6614 87.6813 79.1527 87.504 78.546 87.504C77.9954 87.504 77.524 87.6813 77.132 88.036C76.74 88.3813 76.5067 88.8527 76.432 89.45H80.702ZM86.7387 94.126C86.132 94.126 85.586 94.0187 85.1007 93.804C84.6247 93.58 84.2467 93.2813 83.9667 92.908C83.6867 92.5253 83.5373 92.1007 83.5187 91.634H85.1707C85.1987 91.9607 85.3527 92.236 85.6327 92.46C85.922 92.6747 86.2813 92.782 86.7107 92.782C87.1587 92.782 87.504 92.698 87.7467 92.53C87.9987 92.3527 88.1247 92.1287 88.1247 91.858C88.1247 91.5687 87.9847 91.354 87.7047 91.214C87.434 91.074 87 90.92 86.4027 90.752C85.824 90.5933 85.3527 90.4393 84.9887 90.29C84.6247 90.1407 84.3073 89.912 84.0367 89.604C83.7753 89.296 83.6447 88.89 83.6447 88.386C83.6447 87.9753 83.766 87.602 84.0087 87.266C84.2513 86.9207 84.5967 86.65 85.0447 86.454C85.502 86.258 86.0247 86.16 86.6127 86.16C87.49 86.16 88.1947 86.384 88.7267 86.832C89.268 87.2707 89.5573 87.8727 89.5947 88.638H87.9987C87.9707 88.2927 87.8307 88.0173 87.5787 87.812C87.3267 87.6067 86.986 87.504 86.5567 87.504C86.1367 87.504 85.8147 87.5833 85.5907 87.742C85.3667 87.9007 85.2547 88.1107 85.2547 88.372C85.2547 88.5773 85.3293 88.75 85.4787 88.89C85.628 89.03 85.81 89.142 86.0247 89.226C86.2393 89.3007 86.5567 89.3987 86.9767 89.52C87.5367 89.6693 87.994 89.8233 88.3487 89.982C88.7127 90.1313 89.0253 90.3553 89.2867 90.654C89.548 90.9527 89.6833 91.3493 89.6927 91.844C89.6927 92.2827 89.5713 92.6747 89.3287 93.02C89.086 93.3653 88.7407 93.636 88.2927 93.832C87.854 94.028 87.336 94.126 86.7387 94.126Z" fill="#374850"/>
</g>
<defs>
<filter id="filter0_d_20_459" x="0" y="0" width="296" height="154" filterUnits="userSpaceOnUse" color-interpolation-filters="sRGB">
<feFlood flood-opacity="0" result="BackgroundImageFix"/>
<feColorMatrix in="SourceAlpha" type="matrix" values="0 0 0 0 0 0 0 0 0 0 0 0 0 0 0 0 0 0 127 0" result="hardAlpha"/>
<feOffset dx="-9" dy="-6"/>
<feGaussianBlur stdDeviation="2"/>
<feComposite in2="hardAlpha" operator="out"/>
<feColorMatrix type="matrix" values="0 0 0 0 0 0 0 0 0 0 0 0 0 0 0 0 0 0 0.15 0"/>
<feBlend mode="normal" in2="BackgroundImageFix" result="effect1_dropShadow_20_459"/>
<feBlend mode="normal" in="SourceGraphic" in2="effect1_dropShadow_20_459" result="shape"/>
</filter>
<linearGradient id="paint0_linear_20_459" x1="154.5" y1="10" x2="154.5" y2="154" gradientUnits="userSpaceOnUse">
<stop offset="0.722222" stop-color="white"/>
<stop offset="1" stop-color="#F8BA90"/>
</linearGradient>
</defs>
</svg>
