<svg width="22" height="16" viewBox="0 0 22 16" fill="none" xmlns="http://www.w3.org/2000/svg">
<path d="M0.312818 11.4861C0.759746 12.4694 0.804438 13.3632 2.2793 13.7655C2.77092 13.8995 3.486 13.8995 3.97762 13.8101C2.45807 10.4135 0.893824 9.96657 0.312818 9.92188C0.17874 10.9945 0.268125 11.2627 0.312818 11.4861Z" fill="#8B96A5"/>
<path d="M4.46926 13.7654C6.34635 13.4525 6.97205 12.9162 8.5363 12.9162C11.1285 12.9162 11.6648 14.7039 15.419 14.7039C17.5642 14.7039 19.7989 14.0782 21.0056 12.2905L21.229 11.933C21.229 10.5922 20.067 10.2793 19.2626 10.2346C18.8603 10.1899 18.4581 10.1453 18.0559 10.0559L16.2681 11.2179C16.0447 11.352 15.7318 11.3073 15.5978 11.0838C15.4637 10.8603 15.5084 10.5475 15.7318 10.4134L16.8045 9.74302C16.4469 9.65363 16.1341 9.56424 15.9106 9.47486L14.5251 10.324C14.257 10.4581 13.9888 10.3687 13.8547 10.1453C13.7207 9.92179 13.81 9.60894 14.0335 9.47486L14.8827 8.98324C14.6145 8.80447 14.4804 8.6257 14.257 8.40223L12.9162 9.2067C12.6927 9.34078 12.3799 9.29609 12.2458 9.02793C12.1117 8.80447 12.2011 8.49162 12.4246 8.35754L13.4972 7.73184C13.3184 7.64246 13.1396 7.50838 12.8715 7.3743C12.7821 7.32961 12.7374 7.28491 12.648 7.24022L11.3966 8C11.1285 8.13408 10.8603 8.04469 10.7262 7.82123C10.5922 7.59776 10.6815 7.28492 10.905 7.15084L11.8436 6.61452C11.6201 6.39106 11.4413 6.1676 11.2179 5.94413L10.0112 6.65922C9.78769 6.7933 9.51954 6.7486 9.34077 6.48045C9.20669 6.25698 9.29607 5.94413 9.51954 5.81006L10.6369 5.13966C10.4581 4.87151 10.2793 4.55866 10.1005 4.2905L8.98323 4.96089C8.75976 5.09497 8.44691 5.00559 8.31283 4.78212C8.17876 4.55866 8.26814 4.24581 8.49161 4.11173L9.65362 3.39665C8.40222 0.893855 8.62568 0.402235 7.77652 0C7.68714 0.0446927 7.24021 0.446927 6.25697 0.536313C4.8268 0.715084 4.42457 2.27933 3.97764 2.72626C3.70948 3.0838 2.72624 3.12849 2.05585 3.0838C1.65362 3.0838 1.34077 3.39665 1.34077 3.75419V3.79888C1.34077 4.9162 1.1173 6.07821 0.804456 7.15084C0.580992 7.91061 0.402221 8.71508 0.312836 9.43017C1.1173 9.51955 2.86032 10.1006 4.46926 13.7654Z" fill="#8B96A5"/>
<path d="M21.229 12.6484C21.1844 12.7378 21.095 12.8719 20.9609 12.9613C18.6369 15.6428 13.676 15.6875 10.7709 14.0339C10.6816 14.0339 9.87709 13.3635 7.41899 13.7211C7.15084 13.7658 6.83799 13.8551 6.52514 13.9445C5.76536 14.0786 1.65363 15.5982 0.312849 13.0954C0.268156 13.0507 0.268156 13.006 0.268156 12.9613C0.0893855 13.2294 0 13.5423 0 13.8104C0 13.8104 0.0893855 14.3915 0.893855 14.6596C0.893855 14.6596 1.11732 14.168 1.2067 14.8831L2.72626 15.3747V15.1065H3.21788V15.3747H4.73743C4.73743 15.3747 4.78212 14.9725 4.96089 14.9278C5.13966 14.8831 5.45251 15.3747 5.45251 15.3747H6.97207V14.7043C6.97207 14.7043 7.15084 13.8998 8.84916 14.3468C8.84916 14.3468 9.78771 14.7937 9.96648 14.9725H10.9497V15.33L11.933 15.6875L12.4246 15.5088L12.6034 15.5535V15.911L13.7654 16.0004V15.6875H14.3911V16.0004H15.4637V15.6875L16.3128 15.6428V16.0004H16.9832V15.7769C16.9832 15.7769 17.1173 15.4194 17.4302 15.7769L18.0112 15.6428V15.2853L18.4581 15.2406L18.5922 15.4641L19.2626 15.2853C19.2626 15.2853 19.1285 14.9725 19.486 15.0618L19.5307 15.1512L20.1117 14.8831V14.6149H20.6033C20.6033 14.6149 21.4525 13.8104 21.3631 13.2294L21.229 12.6484Z" fill="#8B96A5"/>
</svg>
