<svg width="60" height="80" viewBox="0 0 60 80" fill="none" xmlns="http://www.w3.org/2000/svg">
<path fill-rule="evenodd" clip-rule="evenodd" d="M8.38853 40H51.8298H53.7735V44.7623H51.8298V75.7509C51.8298 78.09 49.9199 80 47.5808 80H12.6376C10.2985 80 8.38853 78.09 8.38853 75.7509V44.7623H6.7478V40H8.38853ZM23.9207 15.8098V37.7451H34.2278V15.8098H23.9207ZM23.9207 13.0585L27.85 4.47623V1.00968C27.85 0.454354 28.4054 0 29.0701 0C29.7432 0 30.2985 0.454354 30.2985 1.00968V4.47623L34.2278 13.0585H29.0701H23.9207ZM59.3014 5.9066L45.2501 2.20446L35.8854 37.7451H46.7562L46.1588 37.5852L46.5627 36.0454L49.2972 36.7606L49.0364 37.7451H50.9127L59.3014 5.9066ZM56.2808 10.2566L53.5463 9.53302L53.1424 11.0812L55.8685 11.7964L56.2808 10.2566ZM50.1639 33.4455L44.7116 32.0067L44.2993 33.5549L49.76 34.9937L50.1639 33.4455ZM51.0389 30.1388L48.3128 29.4152L47.9005 30.955L50.6351 31.6786L51.0389 30.1388ZM51.914 26.8237L46.4533 25.3849L46.0494 26.9247L51.5101 28.3635L51.914 26.8237ZM52.789 23.5086L50.0545 22.7934L49.6506 24.3332L52.3767 25.0484L52.789 23.5086ZM53.6557 20.1935L48.2034 18.7547L47.7911 20.2945L53.2518 21.7333L53.6557 20.1935ZM54.5307 16.8784L51.8046 16.1632L51.3923 17.703L54.1269 18.4266L54.5307 16.8784ZM55.4058 13.5717L49.9451 12.1329L49.5412 13.6727L55.0019 15.1115L55.4058 13.5717ZM57.1475 6.94152L51.6952 5.50273L51.2829 7.04249L56.7436 8.48128L57.1475 6.94152ZM8.32963 3.03744C11.1651 2.42322 13.9838 4.24905 14.5896 7.08456L21.1441 37.7451H10.3658L4.71162 11.342C4.50969 11.3841 3.93754 11.6618 3.58415 12.3433C3.35697 12.7892 3.24759 13.4034 3.41587 14.2533L8.14452 36.3315L5.69606 36.8532L0.975821 14.7581C0.672918 13.252 0.908509 12.0825 1.36286 11.2074C2.14536 9.68448 3.63463 9.02819 4.18996 8.91039L4.20678 8.90198C3.83657 6.20951 5.62033 3.60959 8.32963 3.03744Z" fill="#A3A9BD"/>
</svg>
