<svg width="16" height="16" viewBox="0 0 16 16" fill="none" xmlns="http://www.w3.org/2000/svg">
<path d="M11.7827 2.37425V1.40443C11.7827 0.631791 11.1509 0 10.3783 0H1.32394C1.31187 0 1.30382 0.00402414 1.29577 0.00804828C1.29175 0.00804828 1.29175 0.00402424 1.28773 0.00402424C0.631791 0.0643864 0.104628 0.619718 0.0160966 1.31187C0.0120724 1.34004 0 1.36821 0 1.4004V13.7746C0 15.002 0.901408 16 2.01207 16H11.1791C11.9557 16 12.5875 15.3159 12.5875 14.4748V3.74245C12.5875 3.13883 12.2575 2.61972 11.7827 2.37425ZM1.76258 15.163C1.21529 15.0302 0.804829 14.4588 0.804829 13.7746V2.87324C0.949698 2.94567 1.10664 2.99799 1.27565 3.01811C1.2998 3.02616 1.33199 3.03018 1.36016 3.03018H1.76258V15.163ZM1.36016 2.22133C1.04628 2.19316 0.804829 1.8833 0.804829 1.51308C0.804829 1.14286 1.04628 0.832998 1.36016 0.808853C1.36016 0.808853 1.36419 0.804829 1.36821 0.804829H10.3783C10.7082 0.804829 10.9779 1.07445 10.9779 1.40443V2.22535H2.16901L1.36016 2.22133ZM10.4266 7.97585C10.4266 8.19718 10.2495 8.37827 10.0241 8.37827H4.34205C4.12072 8.37827 3.93964 8.19718 3.93964 7.97585V4.95372C3.93964 4.73239 4.12072 4.55131 4.34205 4.55131H10.0241C10.2495 4.55131 10.4266 4.73239 10.4266 4.95372V7.97585ZM6.75654 12.4266H3.53722C3.3159 12.4266 3.13481 12.2455 3.13481 12.0241C3.13481 11.8028 3.3159 11.6217 3.53722 11.6217H6.75654C6.97787 11.6217 7.15895 11.8028 7.15895 12.0241C7.15895 12.2455 6.97787 12.4266 6.75654 12.4266ZM8.76861 10.829H3.53722C3.3159 10.829 3.13481 10.6479 3.13481 10.4266C3.13481 10.2012 3.3159 10.0241 3.53722 10.0241H8.76861C8.98994 10.0241 9.17103 10.2012 9.17103 10.4266C9.17103 10.6479 8.98994 10.829 8.76861 10.829Z" fill="#8B96A5"/>
<path d="M14.7928 0H14.4024C13.7384 0 13.1952 0.54326 13.1952 1.20724V12.5272C13.1952 12.5473 13.2032 12.5674 13.2073 12.5875C13.2113 12.6076 13.2073 12.6278 13.2153 12.6479L14.2133 15.7223C14.2696 15.8873 14.4226 16 14.5996 16C14.7727 16 14.9256 15.8873 14.9819 15.7223L15.9799 12.6479C15.9879 12.6278 15.9839 12.6076 15.9879 12.5875C15.992 12.5674 16 12.5473 16 12.5272V1.20724C16 0.54326 15.4568 0 14.7928 0ZM14.5996 14.2978L14.1529 12.9296H15.0423L14.5996 14.2978ZM15.1952 2H14V1.20724C14 0.985915 14.1811 0.804829 14.4024 0.804829H14.7928C15.0141 0.804829 15.1952 0.985915 15.1952 1.20724V2Z" fill="#8B96A5"/>
</svg>
