<svg width="35" height="35" viewBox="0 0 35 35" fill="none" xmlns="http://www.w3.org/2000/svg">
<g filter="url(#filter0_i_244_23436)">
<circle cx="17.5" cy="17.5" r="17.5" fill="#5264AE"/>
</g>
<path d="M29.9621 15.3626L24.8629 10.2633C24.5118 9.91223 23.9433 9.91223 23.609 10.2633C23.2579 10.6144 23.2579 11.1829 23.609 11.5172L27.2035 15.1118H15.2328C14.7479 15.1118 14.3467 15.5131 14.3467 15.9979C14.3467 16.4828 14.7479 16.884 15.2328 16.884H27.1868L23.609 20.4786C23.2579 20.8297 23.2579 21.3981 23.609 21.7325C23.7761 21.8997 24.0102 22 24.2443 22C24.4783 22 24.6957 21.9164 24.8796 21.7325L29.9956 16.6165C30.1628 16.4493 30.2631 16.2153 30.2631 15.9812C30.2296 15.7638 30.1293 15.5298 29.9621 15.3626Z" fill="white"/>
<path d="M5.30055 20.6374L10.3998 25.7367C10.7509 26.0878 11.3194 26.0878 11.6537 25.7367C12.0048 25.3856 12.0048 24.8171 11.6537 24.4828L8.05917 20.8882H20.0299C20.5148 20.8882 20.916 20.4869 20.916 20.0021C20.916 19.5172 20.5148 19.116 20.0299 19.116H8.07589L11.6537 15.5214C12.0048 15.1703 12.0048 14.6019 11.6537 14.2675C11.4865 14.1003 11.2525 14 11.0184 14C10.7844 14 10.567 14.0836 10.3831 14.2675L5.26711 19.3835C5.09993 19.5507 4.99961 19.7847 4.99961 20.0188C5.03305 20.2362 5.13336 20.4702 5.30055 20.6374Z" fill="white"/>
<defs>
<filter id="filter0_i_244_23436" x="0" y="0" width="35" height="39" filterUnits="userSpaceOnUse" color-interpolation-filters="sRGB">
<feFlood flood-opacity="0" result="BackgroundImageFix"/>
<feBlend mode="normal" in="SourceGraphic" in2="BackgroundImageFix" result="shape"/>
<feColorMatrix in="SourceAlpha" type="matrix" values="0 0 0 0 0 0 0 0 0 0 0 0 0 0 0 0 0 0 127 0" result="hardAlpha"/>
<feOffset dy="4"/>
<feGaussianBlur stdDeviation="2"/>
<feComposite in2="hardAlpha" operator="arithmetic" k2="-1" k3="1"/>
<feColorMatrix type="matrix" values="0 0 0 0 0 0 0 0 0 0 0 0 0 0 0 0 0 0 0.25 0"/>
<feBlend mode="normal" in2="shape" result="effect1_innerShadow_244_23436"/>
</filter>
</defs>
</svg>
