<svg width="16" height="17" viewBox="0 0 16 17" fill="none" xmlns="http://www.w3.org/2000/svg">
<path d="M14.2793 3.14667H10.5037C10.331 2.85542 10.1093 2.59619 9.84835 2.38044L11.2867 0.942091C11.3863 0.839723 11.4418 0.702426 11.4413 0.559623C11.4409 0.416821 11.3845 0.279873 11.2843 0.17813C11.1841 0.0763862 11.048 0.0179412 10.9053 0.0153196C10.7625 0.012698 10.6243 0.0661082 10.5205 0.164105L8.84016 1.84442C8.29873 1.68177 7.72144 1.68177 7.18001 1.84442L5.49969 0.164105C5.39652 0.0598231 5.25615 0.000795789 5.10947 7.98745e-06C4.96278 -0.000779814 4.82178 0.0567365 4.7175 0.159904C4.61322 0.263071 4.55419 0.403439 4.55341 0.550128C4.55262 0.696816 4.61013 0.83781 4.7133 0.942091L6.15837 2.38716C5.89437 2.60215 5.66978 2.86142 5.49465 3.15339H1.72066C1.26548 3.15338 0.828839 3.33374 0.506348 3.65497C0.183857 3.97621 0.00179118 4.41213 1.31287e-05 4.86731V13.7125C-0.000871734 13.939 0.042981 14.1635 0.129055 14.373C0.215129 14.5826 0.341731 14.773 0.501596 14.9335C0.66146 15.094 0.851442 15.2214 1.06064 15.3082C1.26984 15.3951 1.49413 15.4399 1.72066 15.4399H3.17917V15.944C3.17917 16.0465 3.21989 16.1448 3.29237 16.2172C3.36485 16.2897 3.46315 16.3304 3.56564 16.3304H4.70994C4.81244 16.3304 4.91074 16.2897 4.98322 16.2172C5.0557 16.1448 5.09641 16.0465 5.09641 15.944V15.4399H10.9053V15.944C10.9053 16.0465 10.946 16.1448 11.0185 16.2172C11.0909 16.2897 11.1892 16.3304 11.2917 16.3304H12.436C12.5385 16.3304 12.6368 16.2897 12.7093 16.2172C12.7818 16.1448 12.8225 16.0465 12.8225 15.944V15.4399H14.281C14.5074 15.4396 14.7315 15.3948 14.9405 15.3078C15.1495 15.2208 15.3393 15.0934 15.499 14.9329C15.6587 14.7725 15.7851 14.5821 15.8711 14.3726C15.9571 14.1632 16.0009 13.9389 16 13.7125V4.86731C16 4.41097 15.8187 3.97332 15.496 3.65063C15.1733 3.32795 14.7357 3.14667 14.2793 3.14667ZM11.6833 12.4808C11.6833 12.7255 11.5861 12.9601 11.4131 13.1331C11.2401 13.3061 11.0054 13.4033 10.7608 13.4033H2.84647C2.60181 13.4033 2.36717 13.3061 2.19417 13.1331C2.02117 12.9601 1.92398 12.7255 1.92398 12.4808V6.09562C1.92398 5.85096 2.02117 5.61632 2.19417 5.44332C2.36717 5.27032 2.60181 5.17313 2.84647 5.17313H10.7624C11.0071 5.17313 11.2417 5.27032 11.4147 5.44332C11.5877 5.61632 11.6849 5.85096 11.6849 6.09562L11.6833 12.4808ZM13.7534 11.5281C13.6381 11.5281 13.5254 11.4939 13.4295 11.4298C13.3336 11.3658 13.2588 11.2747 13.2147 11.1681C13.1706 11.0616 13.159 10.9444 13.1815 10.8313C13.204 10.7182 13.2596 10.6143 13.3411 10.5327C13.4227 10.4512 13.5265 10.3956 13.6397 10.3731C13.7528 10.3507 13.87 10.3622 13.9765 10.4063C14.0831 10.4505 14.1741 10.5252 14.2382 10.6211C14.3023 10.717 14.3365 10.8297 14.3365 10.945C14.3365 11.0997 14.275 11.248 14.1657 11.3573C14.0563 11.4667 13.908 11.5281 13.7534 11.5281ZM13.7534 9.87129C13.6381 9.87129 13.5254 9.8371 13.4295 9.77303C13.3336 9.70896 13.2588 9.6179 13.2147 9.51136C13.1706 9.40481 13.159 9.28758 13.1815 9.17447C13.204 9.06137 13.2596 8.95747 13.3411 8.87593C13.4227 8.79439 13.5265 8.73886 13.6397 8.71636C13.7528 8.69386 13.87 8.70541 13.9765 8.74954C14.0831 8.79367 14.1741 8.8684 14.2382 8.96429C14.3023 9.06017 14.3365 9.1729 14.3365 9.28822C14.336 9.44257 14.2744 9.59045 14.1651 9.69943C14.0558 9.80841 13.9078 9.86961 13.7534 9.86961V9.87129ZM13.7534 8.2145C13.6381 8.2145 13.5254 8.1803 13.4295 8.11624C13.3336 8.05217 13.2588 7.9611 13.2147 7.85456C13.1706 7.74802 13.159 7.63078 13.1815 7.51768C13.204 7.40458 13.2596 7.30068 13.3411 7.21914C13.4227 7.1376 13.5265 7.08206 13.6397 7.05957C13.7528 7.03707 13.87 7.04861 13.9765 7.09275C14.0831 7.13688 14.1741 7.21161 14.2382 7.3075C14.3023 7.40338 14.3365 7.51611 14.3365 7.63143C14.3356 7.78549 14.2738 7.93293 14.1645 8.04155C14.0553 8.15017 13.9075 8.21114 13.7534 8.21114V8.2145ZM10.7507 7.43315C10.7822 7.4927 10.7978 7.55937 10.796 7.62672C10.7942 7.69407 10.7751 7.75981 10.7405 7.8176C10.7058 7.87539 10.6569 7.92326 10.5983 7.95658C10.5397 7.9899 10.4736 8.00755 10.4062 8.00782C9.81642 8.00782 9.53077 7.56926 9.32073 7.24832C9.11069 6.92738 9.03339 6.84168 8.88721 6.84168C8.74102 6.84168 8.65532 6.93746 8.45368 7.24832C8.25205 7.55918 7.95967 8.00782 7.3682 8.00782C6.77673 8.00782 6.48771 7.56926 6.28272 7.24832C6.07772 6.92738 5.99538 6.84168 5.84919 6.84168C5.70301 6.84168 5.61731 6.93746 5.41567 7.24832C5.21403 7.55918 4.92166 8.00782 4.33187 8.00782C3.74208 8.00782 3.46315 7.56926 3.24806 7.24832C3.17467 7.11738 3.08175 6.99839 2.97249 6.89545C2.9254 6.8626 2.8866 6.81922 2.85918 6.76876C2.83177 6.7183 2.81648 6.66215 2.81454 6.60476V6.55099C2.81478 6.48309 2.83355 6.41654 2.86882 6.35852C2.90409 6.3005 2.95453 6.25321 3.0147 6.22174C3.07486 6.19027 3.14248 6.17583 3.21025 6.17995C3.27803 6.18408 3.34339 6.20663 3.39929 6.24517C3.60305 6.40351 3.77423 6.5998 3.90339 6.8232C4.10503 7.13238 4.19072 7.22984 4.33691 7.22984C4.4831 7.22984 4.56879 7.13406 4.77043 6.8232C4.97207 6.51234 5.26444 6.0637 5.85424 6.0637C6.44403 6.0637 6.72632 6.50394 6.93468 6.8232C7.14304 7.14246 7.22201 7.22984 7.3682 7.22984C7.51439 7.22984 7.60008 7.13406 7.80172 6.8232C8.00336 6.51234 8.29574 6.0637 8.88721 6.0637C9.47868 6.0637 9.76265 6.50394 9.97101 6.8232C10.1794 7.14246 10.2567 7.22647 10.3978 7.22984C10.4697 7.22752 10.5409 7.24532 10.6032 7.28124C10.6655 7.31717 10.7166 7.36978 10.7507 7.43315ZM10.7507 9.68814C10.7822 9.74768 10.7978 9.81435 10.796 9.8817C10.7942 9.94905 10.7751 10.0148 10.7405 10.0726C10.7058 10.1304 10.6569 10.1782 10.5983 10.2116C10.5397 10.2449 10.4736 10.2625 10.4062 10.2628C9.81642 10.2628 9.53077 9.82424 9.32073 9.5033C9.11069 9.18236 9.03339 9.09667 8.88721 9.09667C8.74102 9.09667 8.65532 9.19245 8.45368 9.5033C8.25205 9.81416 7.95967 10.2628 7.3682 10.2628C6.77673 10.2628 6.48771 9.82592 6.28272 9.51171C6.07772 9.19749 5.99538 9.10507 5.84919 9.10507C5.70301 9.10507 5.61731 9.20085 5.41567 9.51171C5.21403 9.82256 4.92166 10.2712 4.33187 10.2712C3.74208 10.2712 3.46315 9.82592 3.24806 9.51171C3.17467 9.38076 3.08175 9.26178 2.97249 9.15884C2.9254 9.12598 2.8866 9.08261 2.85918 9.03215C2.83177 8.98169 2.81648 8.92554 2.81454 8.86814V8.81437C2.81364 8.74578 2.83167 8.67826 2.86665 8.61924C2.90163 8.56022 2.95222 8.512 3.01283 8.47987C3.07345 8.44773 3.14175 8.43294 3.21023 8.43711C3.27871 8.44129 3.34471 8.46426 3.40097 8.50352C3.60473 8.66186 3.77591 8.85815 3.90507 9.08154C4.10671 9.39072 4.1924 9.48818 4.33859 9.48818C4.48478 9.48818 4.57047 9.3924 4.77211 9.08154C4.97375 8.77069 5.26613 8.32204 5.85592 8.32204C6.44571 8.32204 6.73136 8.7606 6.93972 9.08154C7.14808 9.40248 7.22705 9.48818 7.37324 9.48818C7.51943 9.48818 7.60512 9.3924 7.80676 9.08154C8.0084 8.77069 8.30078 8.32204 8.89225 8.32204C9.48372 8.32204 9.76769 8.7606 9.97773 9.08154C10.1878 9.40248 10.2634 9.48482 10.4045 9.48818C10.4751 9.48696 10.5447 9.5051 10.6058 9.54065C10.6668 9.5762 10.7169 9.62779 10.7507 9.68982V9.68814ZM10.7507 11.9431C10.7822 12.0027 10.7978 12.0693 10.796 12.1367C10.7942 12.204 10.7751 12.2698 10.7405 12.3276C10.7058 12.3854 10.6569 12.4332 10.5983 12.4665C10.5397 12.4999 10.4736 12.5175 10.4062 12.5178C9.81642 12.5178 9.53077 12.0792 9.32073 11.7583C9.11069 11.4373 9.03171 11.3601 8.88553 11.3601C8.73934 11.3601 8.65364 11.4558 8.452 11.7667C8.25037 12.0775 7.95799 12.5262 7.36652 12.5262C6.77505 12.5262 6.48771 12.0809 6.28272 11.76C6.07772 11.439 5.99538 11.3601 5.85087 11.3601C5.70637 11.3601 5.61899 11.4558 5.41735 11.7667C5.21572 12.0775 4.92334 12.5262 4.33355 12.5262C3.74376 12.5262 3.46315 12.0809 3.24806 11.76C3.17467 11.629 3.08175 11.51 2.97249 11.4071C2.9254 11.3742 2.8866 11.3309 2.85918 11.2804C2.83177 11.23 2.81648 11.1738 2.81454 11.1164V11.0626C2.81478 10.9947 2.83355 10.9282 2.86882 10.8702C2.90409 10.8122 2.95453 10.7649 3.0147 10.7334C3.07486 10.7019 3.14248 10.6875 3.21025 10.6916C3.27803 10.6957 3.34339 10.7183 3.39929 10.7568C3.60305 10.9152 3.77423 11.1115 3.90339 11.3348C4.10503 11.644 4.19072 11.7415 4.33691 11.7415C4.4831 11.7415 4.56879 11.6457 4.77043 11.3348C4.97207 11.024 5.26444 10.5753 5.85424 10.5753C6.44403 10.5753 6.72968 11.0139 6.93804 11.3348C7.1464 11.6558 7.22537 11.7415 7.37156 11.7415C7.51775 11.7415 7.60345 11.6457 7.80508 11.3348C8.00672 11.024 8.2991 10.5753 8.89057 10.5753C9.48204 10.5753 9.76601 11.0139 9.97605 11.3348C10.1861 11.6558 10.2617 11.7381 10.4029 11.7415C10.4739 11.7401 10.544 11.7584 10.6054 11.7942C10.6667 11.8301 10.717 11.8822 10.7507 11.9448V11.9431Z" fill="#8B96A5"/>
</svg>
