<svg width="21" height="17" viewBox="0 0 21 17" fill="none" xmlns="http://www.w3.org/2000/svg">
<path d="M20.6602 1.98772C19.8852 2.32446 19.0652 2.54631 18.2261 2.64626C19.1079 2.12992 19.7711 1.30962 20.0912 0.339207C19.2575 0.826697 18.3469 1.16874 17.3984 1.35069C16.9991 0.932123 16.5187 0.599139 15.9866 0.371981C15.4546 0.144823 14.8818 0.0282349 14.3033 0.0293042C11.9609 0.0293042 10.0654 1.89733 10.0654 4.20008C10.0637 4.52038 10.1004 4.83973 10.1747 5.1513C8.49507 5.07256 6.85036 4.64409 5.34581 3.8933C3.84126 3.1425 2.50999 2.08592 1.43717 0.791148C1.0608 1.42564 0.861758 2.14957 0.86084 2.88729C0.86084 4.33351 1.61537 5.61185 2.75469 6.36078C2.07967 6.34476 1.41849 6.16611 0.827268 5.83998V5.89163C0.827268 7.9146 2.2907 9.59754 4.22759 9.98062C3.86336 10.0777 3.48803 10.1269 3.11108 10.127C2.84361 10.1274 2.57674 10.1015 2.31437 10.0495C2.85283 11.7066 4.41999 12.9118 6.27639 12.9462C4.76793 14.1087 2.91593 14.7371 1.01149 14.7325C0.673443 14.732 0.335713 14.7118 0 14.6722C1.9374 15.9093 4.18947 16.5637 6.48815 16.5574C14.2943 16.5574 18.5589 10.2001 18.5589 4.68645C18.5589 4.50567 18.5541 4.3249 18.5455 4.14842C19.3733 3.55964 20.0893 2.82794 20.6602 1.98772V1.98772Z" fill="#5264AE"/>
</svg>
