<svg width="233" height="40" viewBox="0 0 233 40" fill="none" xmlns="http://www.w3.org/2000/svg">
<path d="M104.271 34.4479H102.103L101.566 35.4816H100.424L103.338 30.0488H104.605L105.592 35.4816H104.442L104.271 34.4479ZM104.131 33.6011L103.743 31.3005L102.546 33.6011H104.131Z" fill="#666771"/>
<path d="M110.531 31.4763C110.787 31.7173 110.916 32.0605 110.916 32.5061C110.916 32.6723 110.903 32.8225 110.877 32.9572L110.426 35.4832H109.346L109.765 33.1049C109.781 33.0116 109.789 32.921 109.789 32.8329C109.789 32.5738 109.72 32.3769 109.583 32.2422C109.445 32.1075 109.25 32.0401 108.996 32.0401C108.706 32.0401 108.458 32.1269 108.254 32.3005C108.049 32.4741 107.913 32.7244 107.846 33.0505L107.418 35.4832H106.322L107.084 31.1774H108.18L108.087 31.7059C108.263 31.5246 108.473 31.3808 108.716 31.2746C108.96 31.1683 109.214 31.1152 109.478 31.1152C109.923 31.1149 110.274 31.2354 110.531 31.4763Z" fill="#666771"/>
<path d="M112.945 31.1758L113.52 34.1836L115.191 31.1758H116.349L112.564 37.5179H111.406L112.712 35.3728L111.725 31.1758H112.945Z" fill="#666771"/>
<path d="M117.67 34.1529C117.665 34.184 117.663 34.2254 117.663 34.2772C117.663 34.3808 117.692 34.4547 117.752 34.4987C117.812 34.5431 117.911 34.5648 118.051 34.5648H118.564L118.401 35.4819H117.709C116.932 35.4819 116.543 35.1581 116.543 34.5104C116.543 34.386 116.554 34.2643 116.574 34.1451L116.94 32.0699H116.427L116.582 31.1761H117.103L117.289 30.1113H118.385L118.199 31.1761H119.155L118.999 32.0699H118.036L117.67 34.1529Z" fill="#666771"/>
<path d="M123.394 31.4789C123.645 31.7227 123.771 32.0647 123.771 32.5048C123.771 32.671 123.758 32.8212 123.732 32.9559L123.281 35.4819H122.201L122.621 33.1036C122.636 33.0103 122.644 32.9197 122.644 32.8316C122.644 32.5725 122.575 32.3756 122.438 32.2409C122.301 32.1062 122.105 32.0388 121.851 32.0388C121.561 32.0388 121.315 32.1256 121.113 32.2992C120.911 32.4728 120.776 32.7202 120.709 33.0414L120.274 35.4819H119.178L120.196 29.7305H121.292L120.942 31.7046C121.118 31.5233 121.332 31.3795 121.583 31.2732C121.835 31.167 122.1 31.1139 122.38 31.1139C122.805 31.1139 123.143 31.2357 123.394 31.4789Z" fill="#666771"/>
<path d="M126.173 31.1766L125.411 35.4824H124.315L125.077 31.1766H126.173ZM125.31 30.516C125.207 30.4175 125.155 30.2932 125.155 30.1429C125.155 29.9357 125.234 29.7582 125.392 29.6105C125.55 29.4628 125.735 29.3887 125.948 29.3887C126.113 29.3887 126.248 29.4379 126.352 29.5363C126.455 29.6351 126.507 29.7592 126.507 29.9094C126.507 30.1167 126.429 30.2941 126.274 30.4418C126.119 30.5895 125.935 30.6636 125.722 30.6636C125.551 30.6636 125.414 30.6144 125.31 30.516Z" fill="#666771"/>
<path d="M130.684 31.4763C130.941 31.7173 131.069 32.0605 131.069 32.5061C131.069 32.6723 131.056 32.8225 131.03 32.9572L130.579 35.4832H129.499L129.919 33.1049C129.934 33.0116 129.942 32.921 129.942 32.8329C129.942 32.5738 129.873 32.3769 129.736 32.2422C129.599 32.1075 129.403 32.0401 129.149 32.0401C128.859 32.0401 128.612 32.1269 128.407 32.3005C128.202 32.4741 128.066 32.7244 127.999 33.0505L127.571 35.4832H126.476L127.237 31.1774H128.333L128.24 31.7059C128.416 31.5246 128.626 31.3808 128.869 31.2746C129.113 31.1683 129.367 31.1152 129.631 31.1152C130.077 31.1149 130.428 31.2354 130.684 31.4763Z" fill="#666771"/>
<path d="M134.896 31.2972C135.122 31.4241 135.281 31.5883 135.374 31.7904L135.483 31.1764H136.579L135.817 35.5133C135.745 35.9123 135.6 36.2685 135.382 36.5823C135.164 36.8958 134.879 37.1442 134.527 37.3284C134.175 37.5121 133.77 37.6044 133.314 37.6044C132.708 37.6044 132.235 37.4619 131.896 37.1772C131.557 36.8919 131.403 36.5036 131.434 36.0111H132.514C132.535 36.208 132.629 36.3647 132.798 36.4813C132.966 36.5978 133.185 36.6561 133.454 36.6561C133.776 36.6561 134.049 36.5616 134.274 36.3725C134.5 36.1833 134.649 35.8971 134.721 35.5136L134.838 34.8455C134.662 35.0476 134.44 35.216 134.173 35.3507C133.906 35.4855 133.615 35.5528 133.299 35.5528C132.983 35.5528 132.702 35.4816 132.456 35.3391C132.21 35.1969 132.017 34.9948 131.88 34.7328C131.743 34.4712 131.675 34.1671 131.675 33.8199C131.675 33.6593 131.69 33.4906 131.721 33.3144C131.799 32.8792 131.953 32.4935 132.184 32.1564C132.414 31.8199 132.695 31.5608 133.027 31.3795C133.359 31.1981 133.708 31.1074 134.076 31.1074C134.397 31.1068 134.671 31.1703 134.896 31.2972ZM135.133 33.0343C135.133 32.7286 135.044 32.4899 134.865 32.3192C134.686 32.1483 134.462 32.0628 134.193 32.0628C133.991 32.0628 133.795 32.1117 133.606 32.2104C133.417 32.3089 133.252 32.4527 133.112 32.6415C132.972 32.8309 132.879 33.0547 132.833 33.3138C132.817 33.4125 132.809 33.5058 132.809 33.5936C132.809 33.9045 132.897 34.1493 133.074 34.328C133.25 34.5071 133.473 34.5962 133.742 34.5962C133.944 34.5962 134.141 34.546 134.333 34.4446C134.524 34.3436 134.689 34.1972 134.826 34.0058C134.963 33.8141 135.055 33.5887 135.102 33.3293C135.123 33.1949 135.133 33.0965 135.133 33.0343Z" fill="#666771"/>
<path d="M143.299 32.2448C143.094 32.4547 142.844 32.6063 142.549 32.6995C142.798 32.7513 142.998 32.8757 143.151 33.0723C143.304 33.2692 143.38 33.5026 143.38 33.7718C143.38 33.8446 143.373 33.9249 143.357 34.0127C143.285 34.4531 143.063 34.808 142.693 35.0775C142.322 35.3469 141.86 35.4816 141.305 35.4816H138.966L139.93 30.0566H142.168C142.66 30.0566 143.04 30.1603 143.307 30.3675C143.573 30.5748 143.707 30.852 143.707 31.1992C143.707 31.2821 143.699 31.3676 143.684 31.4556C143.632 31.772 143.503 32.035 143.299 32.2448ZM142.292 33.7254C142.292 33.5389 142.226 33.3925 142.094 33.2863C141.962 33.1804 141.779 33.127 141.546 33.127H140.474L140.217 34.6192H141.313C141.577 34.6192 141.795 34.5545 141.966 34.425C142.137 34.2954 142.241 34.1141 142.277 33.8806C142.287 33.8083 142.292 33.7565 142.292 33.7254ZM142.557 31.4789C142.557 31.2976 142.497 31.158 142.378 31.0593C142.259 30.9608 142.085 30.9116 141.857 30.9116H140.87L140.621 32.3106H141.616C141.87 32.3106 142.08 32.2497 142.246 32.1279C142.411 32.0065 142.513 31.8368 142.549 31.6192C142.554 31.5878 142.557 31.5414 142.557 31.4789Z" fill="#666771"/>
<path d="M148.79 31.1761L148.028 35.4819H146.94L147.033 34.9379C146.867 35.1244 146.662 35.2708 146.419 35.3767C146.175 35.4829 145.919 35.536 145.65 35.536C145.204 35.536 144.852 35.4155 144.593 35.1746C144.334 34.9337 144.204 34.5904 144.204 34.1448C144.204 33.9789 144.217 33.8313 144.243 33.7017L144.686 31.1758H145.774L145.354 33.5463C145.339 33.6393 145.331 33.7299 145.331 33.8183C145.331 34.0722 145.401 34.2678 145.541 34.4051C145.681 34.5428 145.877 34.6111 146.132 34.6111C146.427 34.6111 146.678 34.5194 146.886 34.3352C147.092 34.1516 147.225 33.8883 147.282 33.5463L147.702 31.1758L148.79 31.1761Z" fill="#666771"/>
<path d="M150.609 34.1529C150.603 34.184 150.601 34.2254 150.601 34.2772C150.601 34.3808 150.631 34.4547 150.69 34.4987C150.75 34.5431 150.85 34.5648 150.99 34.5648H151.503L151.339 35.4819H150.647C149.87 35.4819 149.481 35.1581 149.481 34.5104C149.481 34.386 149.492 34.2643 149.513 34.1451L149.878 32.0699H149.365L149.52 31.1761H150.041L150.228 30.1113H151.323L151.137 31.1761H152.093L151.938 32.0699H150.973L150.609 34.1529Z" fill="#666771"/>
<path d="M155.533 35.2461C155.183 35.0518 154.912 34.7824 154.721 34.4381C154.528 34.0936 154.433 33.6985 154.433 33.2529C154.433 32.6311 154.571 32.0715 154.848 31.5738C155.125 31.0763 155.509 30.6868 155.999 30.4044C156.488 30.122 157.039 29.9805 157.65 29.9805C158.111 29.9805 158.517 30.0766 158.867 30.2684C159.216 30.4601 159.487 30.7282 159.679 31.0724C159.871 31.417 159.967 31.8095 159.967 32.25C159.967 32.8821 159.829 33.4469 159.555 33.9443C159.28 34.4417 158.897 34.8316 158.405 35.114C157.912 35.3964 157.358 35.5376 156.741 35.5376C156.285 35.5379 155.882 35.4408 155.533 35.2461ZM157.926 34.2399C158.224 34.0431 158.455 33.7775 158.618 33.4433C158.781 33.1091 158.863 32.7451 158.863 32.3513C158.863 31.9264 158.744 31.5922 158.505 31.3487C158.267 31.1052 157.933 30.9831 157.503 30.9831C157.119 30.9831 156.779 31.0819 156.481 31.2784C156.183 31.4753 155.952 31.7399 155.789 32.0712C155.625 32.4028 155.544 32.7658 155.544 33.1593C155.544 33.5842 155.662 33.9197 155.897 34.1655C156.133 34.4119 156.466 34.535 156.896 34.535C157.285 34.5353 157.628 34.4368 157.926 34.2399Z" fill="#666771"/>
<path d="M162.678 31.3309C162.927 31.1861 163.197 31.1133 163.487 31.1133L163.285 32.2558H162.997C162.676 32.2558 162.418 32.3258 162.224 32.4657C162.029 32.6056 161.888 32.8439 161.8 33.1807L161.396 35.4813H160.3L161.061 31.1755H162.157L162.025 31.9371C162.212 31.6784 162.43 31.4763 162.678 31.3309Z" fill="#666771"/>
<path d="M164.012 32.1554C164.242 31.8189 164.525 31.5598 164.859 31.3785C165.193 31.1971 165.544 31.1065 165.912 31.1065C166.191 31.1065 166.448 31.1674 166.681 31.2888C166.915 31.4106 167.088 31.5725 167.202 31.7746L167.567 29.7305H168.663L167.645 35.4819H166.549L166.665 34.8446C166.495 35.057 166.276 35.228 166.009 35.3575C165.742 35.4868 165.448 35.5519 165.126 35.5519C164.81 35.5519 164.529 35.4806 164.283 35.3381C164.037 35.1959 163.845 34.9939 163.708 34.7319C163.571 34.4702 163.502 34.1661 163.502 33.819C163.502 33.6584 163.517 33.4896 163.549 33.3134C163.627 32.8785 163.781 32.4925 164.012 32.1554ZM166.961 33.034C166.961 32.7283 166.872 32.4896 166.693 32.3189C166.514 32.1479 166.29 32.0625 166.021 32.0625C165.819 32.0625 165.623 32.1114 165.434 32.2101C165.245 32.3086 165.08 32.4524 164.94 32.6412C164.801 32.8306 164.707 33.0544 164.661 33.3134C164.645 33.4122 164.638 33.5055 164.638 33.5933C164.638 33.9041 164.725 34.149 164.902 34.3277C165.078 34.5068 165.301 34.5959 165.57 34.5959C165.772 34.5959 165.969 34.5457 166.161 34.4443C166.352 34.3433 166.517 34.1969 166.654 34.0055C166.792 33.8138 166.883 33.5884 166.93 33.329C166.951 33.1946 166.961 33.0962 166.961 33.034Z" fill="#666771"/>
<path d="M170.567 31.1766L169.805 35.4824H168.709L169.471 31.1766H170.567ZM169.704 30.516C169.601 30.4175 169.549 30.2932 169.549 30.1429C169.549 29.9357 169.628 29.7582 169.786 29.6105C169.943 29.4628 170.129 29.3887 170.341 29.3887C170.507 29.3887 170.642 29.4379 170.745 29.5363C170.849 29.6351 170.901 29.7592 170.901 29.9094C170.901 30.1167 170.823 30.2941 170.668 30.4418C170.512 30.5895 170.328 30.6636 170.116 30.6636C169.945 30.6636 169.808 30.6144 169.704 30.516Z" fill="#666771"/>
<path d="M175.079 31.4763C175.335 31.7173 175.464 32.0605 175.464 32.5061C175.464 32.6723 175.451 32.8225 175.425 32.9572L174.974 35.4832H173.894L174.314 33.1049C174.329 33.0116 174.337 32.921 174.337 32.8329C174.337 32.5738 174.268 32.3769 174.131 32.2422C173.993 32.1075 173.798 32.0401 173.544 32.0401C173.254 32.0401 173.006 32.1269 172.802 32.3005C172.597 32.4741 172.461 32.7244 172.393 33.0505L171.966 35.4832H170.87L171.632 31.1774H172.728L172.634 31.7059C172.811 31.5246 173.02 31.3808 173.264 31.2746C173.507 31.1683 173.761 31.1152 174.026 31.1152C174.471 31.1149 174.822 31.2354 175.079 31.4763Z" fill="#666771"/>
<path d="M176.579 32.1564C176.81 31.8199 177.09 31.5608 177.422 31.3795C177.754 31.1981 178.103 31.1074 178.471 31.1074C178.792 31.1074 179.063 31.1722 179.283 31.3017C179.504 31.4313 179.666 31.5945 179.769 31.7914L179.878 31.1774H180.974L180.212 35.4832H179.116L179.233 34.8536C179.062 35.0557 178.84 35.2231 178.568 35.3549C178.296 35.4871 177.999 35.5531 177.678 35.5531C177.362 35.5531 177.082 35.4819 176.839 35.3394C176.595 35.1972 176.406 34.9952 176.271 34.7332C176.137 34.4715 176.069 34.1674 176.069 33.8203C176.069 33.6596 176.085 33.4909 176.116 33.3147C176.194 32.8795 176.348 32.4935 176.579 32.1564ZM179.528 33.0349C179.528 32.7292 179.439 32.4906 179.26 32.3199C179.081 32.1489 178.857 32.0634 178.588 32.0634C178.386 32.0634 178.19 32.1123 178.001 32.2111C177.812 32.3095 177.647 32.4533 177.508 32.6421C177.368 32.8316 177.274 33.0553 177.228 33.3144C177.213 33.4132 177.205 33.5064 177.205 33.5942C177.205 33.9051 177.293 34.1499 177.469 34.3287C177.645 34.5078 177.868 34.5968 178.137 34.5968C178.339 34.5968 178.536 34.5466 178.728 34.4453C178.919 34.3442 179.084 34.1979 179.221 34.0065C179.358 33.8151 179.451 33.5894 179.497 33.33C179.518 33.1956 179.528 33.0971 179.528 33.0349Z" fill="#666771"/>
<path d="M183.655 31.3309C183.904 31.1861 184.173 31.1133 184.463 31.1133L184.261 32.2558H183.973C183.652 32.2558 183.395 32.3258 183.2 32.4657C183.006 32.6056 182.864 32.8439 182.776 33.1807L182.372 35.4813H181.276L182.038 31.1755H183.134L183.002 31.9371C183.189 31.6784 183.406 31.4763 183.655 31.3309Z" fill="#666771"/>
<path d="M185.902 31.1758L186.477 34.1836L188.148 31.1758H189.306L185.521 37.5179H184.363L185.669 35.3728L184.682 31.1758H185.902Z" fill="#666771"/>
<path d="M75.7922 7.73828L70.2412 24.2478H63.5506L58 7.73828H63.5021L66.9057 19.0928L70.2866 7.73828H75.7922Z" fill="#374850"/>
<path d="M79.6394 23.5919C78.583 23.0479 77.7546 22.2674 77.1552 21.2473C76.5557 20.2304 76.2578 19.0355 76.2578 17.6688C76.2578 16.3022 76.5557 15.1072 77.1552 14.0904C77.7546 13.0735 78.5798 12.293 79.6394 11.7458C80.6951 11.2017 81.8862 10.9297 83.2081 10.9297C84.53 10.9297 85.7179 11.2017 86.7772 11.7458C87.8329 12.2905 88.6613 13.0703 89.261 14.0904C89.8602 15.1072 90.1581 16.3022 90.1581 17.6688C90.1581 19.0355 89.8602 20.2304 89.261 21.2473C88.6613 22.2648 87.8361 23.0485 86.7772 23.5919C85.7208 24.136 84.5297 24.4083 83.2081 24.4083C81.8865 24.4083 80.6951 24.136 79.6394 23.5919ZM84.4193 19.3625C84.7464 18.9797 84.9083 18.4169 84.9083 17.6714C84.9083 16.9266 84.7464 16.3634 84.4193 15.981C84.0922 15.6021 83.6874 15.411 83.2081 15.411C82.7256 15.411 82.3208 15.6021 81.9969 15.981C81.6699 16.3637 81.5079 16.9266 81.5079 17.6714C81.5079 18.4169 81.6666 18.9797 81.9872 19.3625C82.3043 19.7447 82.712 19.9325 83.2107 19.9325C83.6874 19.9325 84.0922 19.7414 84.4193 19.3625Z" fill="#374850"/>
<path d="M91.9396 14.0904C92.5063 13.0735 93.2997 12.293 94.3166 11.7458C95.3341 11.2017 96.4961 10.9297 97.8011 10.9297C99.511 10.9297 100.952 11.4116 102.128 12.374C103.3 13.3387 104.045 14.6733 104.356 16.3832H98.8763C98.6755 15.6999 98.2772 15.3566 97.6878 15.3566C97.2668 15.3566 96.9365 15.5509 96.6968 15.9395C96.4572 16.3281 96.3341 16.9046 96.3341 17.6656C96.3341 18.4266 96.454 19.0031 96.6968 19.3917C96.9358 19.7803 97.2668 19.9746 97.6878 19.9746C98.2772 19.9746 98.6755 19.6313 98.8763 18.948H104.356C104.045 20.6579 103.303 21.9954 102.128 22.9572C100.952 23.9222 99.511 24.4015 97.8011 24.4015C96.4967 24.4015 95.3341 24.1295 94.3166 23.5854C93.2997 23.0407 92.5063 22.2606 91.9396 21.2408C91.3729 20.2239 91.0879 19.029 91.0879 17.6624C91.0879 16.2957 91.3729 15.1105 91.9396 14.0904Z" fill="#374850"/>
<path d="M121.541 14.068C122.013 13.0512 122.664 12.274 123.487 11.7364C124.309 11.1995 125.236 10.9336 126.262 10.9336C127.117 10.9336 127.855 11.1085 128.477 11.4582C129.099 11.808 129.572 12.2872 129.899 12.8928V11.0988H135.051V24.25H129.899V22.4559C129.572 23.0615 129.099 23.5408 128.477 23.8905C127.855 24.2403 127.117 24.4151 126.262 24.4151C125.236 24.4151 124.312 24.1464 123.487 23.6123C122.664 23.0748 122.013 22.3001 121.541 21.2807C121.068 20.2632 120.828 19.0617 120.828 17.6795C120.831 16.2864 121.068 15.0882 121.541 14.068ZM129.365 16.0403C129.008 15.6523 128.548 15.4573 127.988 15.4573C127.428 15.4573 126.971 15.6523 126.612 16.0403C126.255 16.4289 126.074 16.9736 126.074 17.6724C126.074 18.3719 126.252 18.9166 126.612 19.3046C126.968 19.6932 127.428 19.8875 127.988 19.8875C128.548 19.8875 129.005 19.6932 129.365 19.3046C129.721 18.916 129.902 18.3719 129.902 17.6724C129.902 16.9729 129.721 16.4289 129.365 16.0403Z" fill="#374850"/>
<path d="M105.997 14.068C106.469 13.0512 107.12 12.274 107.943 11.7364C108.765 11.1995 109.692 10.9336 110.718 10.9336C111.573 10.9336 112.312 11.1085 112.933 11.4582C113.555 11.808 114.028 12.2872 114.355 12.8928V11.0988H119.507V24.25H114.355V22.4559C114.028 23.0615 113.555 23.5408 112.933 23.8905C112.312 24.2403 111.573 24.4151 110.718 24.4151C109.692 24.4151 108.768 24.1464 107.943 23.6123C107.12 23.0748 106.469 22.3001 105.997 21.2807C105.524 20.2632 105.284 19.0617 105.284 17.6795C105.287 16.2864 105.524 15.0882 105.997 14.068ZM113.821 16.0403C113.464 15.6523 113.004 15.4573 112.444 15.4573C111.884 15.4573 111.427 15.6523 111.068 16.0403C110.711 16.4289 110.53 16.9736 110.53 17.6724C110.53 18.3719 110.709 18.9166 111.068 19.3046C111.424 19.6932 111.884 19.8875 112.444 19.8875C113.004 19.8875 113.461 19.6932 113.821 19.3046C114.177 18.916 114.358 18.3719 114.358 17.6724C114.358 16.9729 114.177 16.4289 113.821 16.0403Z" fill="#374850"/>
<path d="M142.562 6.99219V24.2465H137.387V6.99219H142.562Z" fill="#374850"/>
<path d="M224.058 10.323C224.132 10.2884 224.202 10.2414 224.268 10.1812L228.513 6.28989C229.066 5.78372 228.722 4.86272 227.972 4.84232L225.608 4.78014C225.403 4.77463 225.207 4.69432 225.057 4.55313L223.659 3.23023C223.382 2.96824 223.019 2.9459 222.731 3.08256C222.433 3.22343 222.216 3.534 222.258 3.92487L222.876 9.65526C222.941 10.2472 223.566 10.5565 224.058 10.323Z" fill="#5264AE"/>
<path d="M168.427 6.99219V24.2465H163.252V6.99219H168.427Z" fill="#374850"/>
<path d="M173.44 23.5919C172.382 23.0479 171.556 22.2674 170.957 21.2473C170.357 20.2304 170.06 19.0355 170.06 17.6688C170.06 16.3022 170.357 15.1072 170.957 14.0904C171.556 13.0735 172.382 12.293 173.44 11.7458C174.496 11.2017 175.688 10.9297 177.01 10.9297C178.331 10.9297 179.519 11.2017 180.578 11.7458C181.635 12.2905 182.463 13.0703 183.062 14.0904C183.662 15.1072 183.96 16.3022 183.96 17.6688C183.96 19.0355 183.662 20.2304 183.062 21.2473C182.463 22.2648 181.638 23.0485 180.578 23.5919C179.523 24.136 178.331 24.4083 177.01 24.4083C175.688 24.4083 174.499 24.136 173.44 23.5919ZM178.219 19.3625C178.547 18.9797 178.709 18.4169 178.709 17.6714C178.709 16.9266 178.547 16.3634 178.219 15.981C177.892 15.6021 177.488 15.411 177.009 15.411C176.526 15.411 176.122 15.6021 175.798 15.981C175.471 16.3637 175.309 16.9266 175.309 17.6714C175.309 18.4169 175.467 18.9797 175.788 19.3625C176.105 19.7447 176.513 19.9325 177.012 19.9325C177.491 19.9325 177.896 19.7414 178.219 19.3625Z" fill="#374850"/>
<path d="M185.74 14.0904C186.306 13.0735 187.1 12.293 188.117 11.7458C189.133 11.2017 190.296 10.9297 191.601 10.9297C193.311 10.9297 194.752 11.4116 195.927 12.374C197.1 13.3387 197.841 14.6733 198.156 16.3832H192.676C192.475 15.6999 192.077 15.3566 191.488 15.3566C191.067 15.3566 190.737 15.5509 190.496 15.9395C190.257 16.3281 190.134 16.9046 190.134 17.6656C190.134 18.4266 190.253 19.0031 190.496 19.3917C190.736 19.7803 191.067 19.9746 191.488 19.9746C192.077 19.9746 192.475 19.6313 192.676 18.948H198.156C197.845 20.6579 197.103 21.9954 195.927 22.9572C194.752 23.9222 193.311 24.4015 191.601 24.4015C190.296 24.4015 189.133 24.1295 188.117 23.5854C187.1 23.0407 186.306 22.2606 185.74 21.2408C185.173 20.2239 184.888 19.029 184.888 17.6624C184.888 16.2957 185.173 15.1105 185.74 14.0904Z" fill="#374850"/>
<path d="M199.802 14.068C200.274 13.0512 200.925 12.274 201.748 11.7364C202.57 11.1995 203.497 10.9336 204.523 10.9336C205.378 10.9336 206.117 11.1085 206.738 11.4582C207.36 11.808 207.833 12.2872 208.16 12.8928V11.0988H213.312V24.25H208.16V22.4559C207.833 23.0615 207.36 23.5408 206.738 23.8905C206.117 24.2403 205.378 24.4151 204.523 24.4151C203.497 24.4151 202.573 24.1464 201.748 23.6123C200.925 23.0748 200.274 22.3001 199.802 21.2807C199.329 20.2632 199.089 19.0617 199.089 17.6795C199.089 16.2864 199.325 15.0882 199.802 14.068ZM207.622 16.0403C207.266 15.6523 206.806 15.4573 206.245 15.4573C205.686 15.4573 205.228 15.6523 204.869 16.0403C204.513 16.4289 204.332 16.9736 204.332 17.6724C204.332 18.3719 204.51 18.9166 204.869 19.3046C205.226 19.6932 205.686 19.8875 206.245 19.8875C206.806 19.8875 207.263 19.6932 207.622 19.3046C207.979 18.916 208.159 18.3719 208.159 17.6724C208.16 16.9729 207.982 16.4289 207.622 16.0403Z" fill="#374850"/>
<path d="M220.818 6.99219V24.2465H215.644V6.99219H220.818Z" fill="#374850"/>
<path d="M222.967 20.5575C223.707 21.0063 225.239 21.5352 226.428 21.5352C227.643 21.5352 228.145 21.1119 228.145 20.4516C228.145 19.7913 227.749 19.4739 226.244 18.9729C223.576 18.0752 222.545 16.6218 222.572 15.0901C222.572 12.6862 224.632 10.8633 227.828 10.8633C229.333 10.8633 230.681 11.2069 231.473 11.6029L230.76 14.3763C230.179 14.0593 229.069 13.6363 227.96 13.6363C226.983 13.6363 226.428 14.0334 226.428 14.6937C226.428 15.3012 226.931 15.6179 228.515 16.172C230.972 17.0176 232.002 18.2592 232.028 20.1608C232.028 22.565 230.127 24.3348 226.428 24.3348C224.737 24.3348 223.232 23.9646 222.255 23.4368L222.967 20.5575Z" fill="#5264AE"/>
<path d="M146.925 23.3949L145.985 19.0619L150.806 7.59495L156.403 6.38086L158.526 16.1703L160.212 15.8047L161.188 20.3012L159.502 20.6672L160.061 23.243L154.815 24.3813L154.256 21.8051L146.925 23.3949ZM152.863 13.3525L151.172 17.7652L153.702 17.2169L152.863 13.3525Z" fill="#5264AE"/>
<path d="M25.818 36.0054C25.7152 35.6712 25.5569 35.3634 25.3545 35.0915C24.7881 34.3259 23.8824 33.8398 22.8814 33.8398C22.7831 33.8398 22.6847 33.8446 22.5854 33.8542C22.3301 33.8781 22.0871 33.9366 21.8546 34.0183C21.5241 34.1345 21.2198 34.3034 20.9539 34.5165C20.7299 34.6961 20.5347 34.9044 20.368 35.137C19.9536 35.7189 19.7368 36.4462 19.8099 37.2127C19.9622 38.8069 21.3022 40.0009 22.8725 40.0009C22.9696 40.0009 23.069 39.9962 23.1683 39.9866C24.7878 39.8322 25.9905 38.4512 25.9519 36.8498C25.9507 36.7755 25.9494 36.7026 25.9423 36.6282C25.9248 36.4114 25.8805 36.2042 25.818 36.0054Z" fill="#5264AE"/>
<path d="M42.1783 32.8813C41.951 32.6957 41.698 32.5424 41.425 32.4274C41.0874 32.2848 40.7206 32.2022 40.3398 32.1902C40.305 32.189 40.2715 32.1855 40.2367 32.1855C40.1397 32.1855 40.0403 32.1902 39.9409 32.1998C38.9098 32.298 38.0484 32.8959 37.5669 33.7295C37.3813 34.0505 37.2546 34.4074 37.1947 34.7835C37.1552 35.035 37.142 35.2937 37.1671 35.5584C37.1707 35.592 37.1767 35.6231 37.1815 35.6566C37.3781 37.2017 38.6931 38.3468 40.2298 38.3468C40.3268 38.3468 40.4262 38.342 40.5256 38.3324C42.2195 38.1707 43.4615 36.6678 43.2996 34.9739C43.2169 34.1198 42.7929 33.3831 42.1783 32.8813Z" fill="#5264AE"/>
<path d="M14.4799 17.1006L13.9445 11.476C13.6846 8.7487 11.3825 6.69922 8.69603 6.69922C8.52942 6.69922 8.36054 6.7076 8.19166 6.72329L3.1539 7.20359C1.8172 7.33056 0.836121 8.51753 0.9644 9.85423C1.08418 11.1131 2.14299 12.0557 3.38159 12.0557C3.45932 12.0557 3.53742 12.0521 3.61503 12.0449L8.65303 11.5646C8.66609 11.5634 8.67938 11.5621 8.69256 11.5621C8.90336 11.5621 9.08422 11.7226 9.10435 11.937L9.63986 17.5617C9.73916 18.6037 9.91882 19.6195 10.1706 20.6029C10.464 20.3034 10.8317 20.0722 11.2522 19.9416L14.7542 18.86C14.6296 18.2876 14.5376 17.6995 14.4799 17.1006Z" fill="#374850"/>
<path d="M42.1351 20.1211L39.6055 13.4891L37.1189 14.4377L31.6104 0L23.3556 3.1489L19.6113 17.9939L20.2388 17.8262C20.3622 17.7891 20.4857 17.7735 20.6055 17.7747C21.4019 17.7843 22.0236 18.5904 21.7302 19.4048L19.8042 24.7479L21.0943 28.1292V28.1304L21.1003 28.1447L21.111 28.1411L31.9124 24.021L33.3618 27.8203L41.0981 24.869L39.6488 21.0697L42.1351 20.1211ZM26.2732 18.5748L27.829 11.4529L30.0041 17.1519L26.2732 18.5748Z" fill="#5264AE"/>
<path d="M49.1068 13.8012L48.8289 10.887C48.7091 9.62938 47.6503 8.68555 46.4118 8.68555C46.335 8.68555 46.2573 8.68914 46.1783 8.69633C44.8416 8.82329 43.8606 10.0103 43.9888 11.347L44.2666 14.2611C44.3062 14.6779 44.324 15.0922 44.3289 15.5044C44.3936 20.6499 41.8055 25.3212 37.7496 28.0725C35.7409 29.4357 33.3744 30.3279 30.7919 30.5736C30.3116 30.6191 29.8349 30.6416 29.3618 30.6416C27.4766 30.6416 25.6596 30.2848 23.9793 29.6319C22.3791 29.0104 20.9047 28.1167 19.6156 27.0064L19.2038 28.1886C18.8397 29.2353 17.8875 29.9122 16.7784 29.9122C15.7124 29.9122 14.7733 29.2704 14.3865 28.276L13.5145 26.035L12.0352 25.2864C13.8999 28.6402 16.7029 31.3725 20.0528 33.1653C20.739 32.6478 21.5536 32.3233 22.4316 32.2395C22.58 32.2253 22.7322 32.2178 22.8819 32.2178C24.9407 32.2178 26.6908 33.5282 27.3232 35.3979C27.9939 35.4674 28.6719 35.5057 29.3582 35.5057C29.9845 35.5057 30.617 35.4757 31.2528 35.4159C32.7622 35.2721 34.2138 34.9559 35.5961 34.4984C35.7288 33.6875 36.069 32.9209 36.6068 32.2717C37.4069 31.304 38.5353 30.7051 39.7856 30.5853C39.9341 30.5709 40.0862 30.5637 40.2359 30.5637C40.8744 30.5637 41.4816 30.6918 42.0374 30.9218C46.8992 26.8675 49.7512 20.5637 49.1068 13.8012Z" fill="#374850"/>
<path d="M19.1135 19.2031C19.0057 19.2031 18.8943 19.2187 18.7829 19.2535L11.5089 21.4992C10.563 21.7915 10.4525 23.0862 11.3367 23.5342L14.1248 24.9464C14.3669 25.0687 14.5548 25.2757 14.6542 25.5297L15.5765 27.9012C15.7587 28.3707 16.1802 28.6031 16.602 28.6031C17.0368 28.6031 17.4716 28.3552 17.6426 27.8641L20.1471 20.6692C20.4059 19.9266 19.8344 19.2031 19.1135 19.2031Z" fill="#5264AE"/>
</svg>
