<svg width="84" height="80" viewBox="0 0 84 80" fill="none" xmlns="http://www.w3.org/2000/svg">
<path d="M24.4726 0L22.2123 1.30551L26.4643 8.67259L28.7247 7.36679L24.4726 0ZM41.9915 1.49358C39.3458 1.49358 36.761 1.76162 34.2647 2.27263C34.1452 2.2946 34.0314 2.34018 33.9297 2.4067C33.8281 2.47323 33.7408 2.55935 33.6729 2.66004C33.605 2.76073 33.5578 2.87397 33.5342 2.99311C33.5106 3.11225 33.511 3.23491 33.5354 3.35389C33.5598 3.47287 33.6077 3.58578 33.6763 3.68603C33.7448 3.78627 33.8327 3.87183 33.9348 3.93769C34.0368 4.00354 34.151 4.04836 34.2706 4.06955C34.3902 4.09073 34.5128 4.08788 34.6312 4.06108C37.008 3.57475 39.4692 3.31988 41.9915 3.31988C44.5137 3.31988 46.9751 3.57475 49.3519 4.06108C51.7287 4.54745 54.021 5.26543 56.205 6.1892C58.389 7.11294 60.4636 8.24233 62.4064 9.55486C64.3492 10.8674 66.1604 12.3622 67.8126 14.0145C69.4649 15.6668 70.9583 17.4765 72.2708 19.4193C73.5834 21.362 74.7142 23.4376 75.638 25.6216C76.5617 27.8057 77.2797 30.0984 77.766 32.4752C78.2524 34.852 78.5072 37.3134 78.5072 39.8357C78.5072 42.358 78.2524 44.8191 77.766 47.1959C77.7393 47.3144 77.7365 47.4369 77.7578 47.5564C77.779 47.676 77.8239 47.7901 77.8897 47.8921C77.9556 47.994 78.0411 48.0818 78.1414 48.1504C78.2416 48.2189 78.3544 48.2668 78.4734 48.2911C78.5923 48.3155 78.7149 48.3159 78.834 48.2923C78.9531 48.2687 79.0663 48.2217 79.167 48.1538C79.2676 48.086 79.3537 47.9987 79.4203 47.8972C79.4868 47.7956 79.5325 47.6819 79.5545 47.5625C80.0654 45.0662 80.3336 42.4813 80.3336 39.8357C80.3336 37.1901 80.0655 34.605 79.5545 32.1087C79.0437 29.6124 78.2903 27.2057 77.32 24.9118C76.3498 22.6179 75.1627 20.4373 73.7847 18.3976C72.4067 16.3579 70.8381 14.4578 69.1037 12.7234C67.3693 10.9891 65.4692 9.42044 63.4295 8.04243C61.3898 6.66442 59.2093 5.47735 56.9153 4.50706C54.6214 3.53681 52.2133 2.78341 49.717 2.27263C47.2207 1.76181 44.6371 1.49358 41.9915 1.49358ZM21.0588 2.96048C21.0587 2.96048 21.0589 2.96048 21.0588 2.96048ZM21.0588 2.96048C20.9827 3.0766 20.9039 3.19141 20.8194 3.30305C20.341 3.93376 19.7308 4.48207 19.0041 4.90176C18.2773 5.32145 17.4953 5.57612 16.7099 5.67515C16.0568 5.75773 15.4011 5.73096 14.7667 5.60516L4.51766 11.5366C3.16401 12.3856 2.04853 13.519 1.24779 14.9389C0.443468 16.3652 0.0409637 17.9334 0.00267496 19.5727C-0.0134534 20.2891 0.0436623 21.0189 0.165593 21.7537C0.290104 21.5056 0.422699 21.2626 0.569048 21.0284C1.26915 19.9068 2.22268 18.9539 3.40337 18.2721C4.58407 17.5902 5.88557 17.2408 7.20674 17.1952C8.51217 17.15 9.83599 17.3984 11.1083 17.8962C11.1444 17.9081 11.1798 17.9222 11.2141 17.9385C11.326 17.9885 11.4265 18.0606 11.5099 18.1503C11.5933 18.24 11.6578 18.3456 11.6995 18.4608L14.8419 23.9054L22.2266 19.6412L19.0732 14.1785C18.9517 14.0296 18.8802 13.8461 18.869 13.6542C18.8679 13.6424 18.8669 13.6305 18.8663 13.6187C18.8663 13.6196 18.8663 13.6178 18.8663 13.6187C18.8591 13.4724 18.8872 13.3239 18.9482 13.1907C18.9481 13.1907 18.9484 13.1907 18.9482 13.1907C19.1547 12.4974 19.4833 11.8393 19.9282 11.2526C20.4066 10.6218 21.0183 10.0736 21.7451 9.65389C22.4718 9.23423 23.2524 8.97805 24.0377 8.87902C24.1768 8.86289 24.3151 8.85001 24.4542 8.8426L21.0588 2.96048ZM35.0582 10.9274L28.0474 14.9752L29.0309 16.6786C29.0551 16.7145 29.0768 16.7522 29.0957 16.7912L53.3006 58.7171L60.2488 54.7057C60.8699 54.347 61.5336 54.1205 62.2018 54.0195C64.1707 53.7221 66.1732 54.5184 67.2239 56.2437C67.2454 56.2735 67.2651 56.3045 67.2829 56.3367C67.7984 57.2296 69.166 57.5453 70.4424 56.8083L72.1876 55.8018L77.4745 52.7492L77.1787 51.8606L75.5666 51.3324C75.4313 51.288 75.3084 51.2126 75.2075 51.1122C75.1066 51.0118 75.0306 50.8892 74.9856 50.7541L74.4535 49.1581L72.8413 48.6311C72.706 48.5866 72.5829 48.511 72.4821 48.4103C72.3812 48.3097 72.3052 48.1869 72.2603 48.0516L71.728 46.4573L70.1161 45.9291C69.9809 45.8847 69.858 45.8092 69.7572 45.7088C69.6563 45.6084 69.5804 45.4858 69.5353 45.3508L69.0028 43.7551L67.3909 43.2278C67.2555 43.1832 67.1326 43.1076 67.0317 43.007C66.9309 42.9064 66.855 42.7835 66.8101 42.6483L66.2778 41.054L64.6668 40.5256C64.5315 40.4813 64.4083 40.406 64.3073 40.3056C64.2062 40.2052 64.13 40.0826 64.0849 39.9475L63.5525 38.3518L61.9416 37.8246C61.806 37.7802 61.6827 37.7046 61.5816 37.604C61.4805 37.5033 61.4044 37.3804 61.3594 37.2451L60.8285 35.6507L59.2166 35.1223C59.0812 35.0781 58.9579 35.0028 58.8568 34.9024C58.7556 34.8021 58.6794 34.6794 58.6341 34.5443L58.1033 32.9485L56.4914 32.4198C56.3559 32.3756 56.2328 32.3003 56.1317 32.1999C56.0306 32.0995 55.9544 31.9769 55.9091 31.8418L55.378 30.2475L53.7661 29.7191C53.6305 29.6747 53.5072 29.5991 53.4061 29.4985C53.305 29.3979 53.2289 29.2749 53.1839 29.1395L52.6528 27.5452L51.0406 27.0165C50.9053 26.9723 50.7821 26.8969 50.6811 26.7966C50.58 26.6962 50.5038 26.5736 50.4587 26.4385L49.9273 24.8442L48.3154 24.3157C48.1798 24.2714 48.0565 24.1958 47.9554 24.0951C47.8543 23.9945 47.7782 23.8716 47.7332 23.7362L47.2021 22.142L45.5904 21.6132C45.4549 21.569 45.3317 21.4937 45.2306 21.3934C45.1294 21.293 45.0532 21.1703 45.0079 21.0352L44.4771 19.4407L42.8652 18.9125C42.7295 18.8681 42.6062 18.7926 42.505 18.6919C42.4039 18.5913 42.3277 18.4684 42.2827 18.333L41.7519 16.7386L40.1399 16.21C40.0045 16.1657 39.8813 16.0904 39.7803 15.9901C39.6792 15.8898 39.6029 15.7672 39.5577 15.6321L39.0266 14.0361L37.4145 13.5092C37.2789 13.4648 37.1557 13.3892 37.0546 13.2885C36.9535 13.1879 36.8775 13.065 36.8325 12.9296L36.3011 11.3348L35.0582 10.9274ZM41.9915 14.2745C41.7715 14.2745 41.5503 14.2767 41.3298 14.2809C41.2317 14.2836 41.1343 14.2874 41.0365 14.2906L41.1446 14.6154L42.7565 15.1441C42.8917 15.1885 43.0147 15.264 43.1155 15.3643C43.2164 15.4647 43.2924 15.5872 43.3375 15.7222L43.8699 17.318L45.482 17.845C45.6173 17.8895 45.7404 17.9651 45.8413 18.0658C45.9422 18.1664 46.0181 18.2892 46.063 18.4245L46.5951 20.0188L48.2058 20.5474C48.3412 20.5916 48.4645 20.6669 48.5656 20.7673C48.6667 20.8677 48.743 20.9903 48.7882 21.1255L49.3206 22.7212L50.931 23.2482C51.0666 23.2926 51.1899 23.3681 51.291 23.4688C51.3921 23.5694 51.4682 23.6923 51.5132 23.8277L52.0443 25.4225L53.6562 25.9506C53.7917 25.9949 53.9149 26.0703 54.016 26.1707C54.1171 26.2711 54.1933 26.3938 54.2385 26.529L54.7696 28.1248L56.3817 28.6514C56.5173 28.6959 56.6405 28.7715 56.7416 28.8722C56.8427 28.9729 56.9187 29.0958 56.9637 29.2312L57.4946 30.8258L59.1067 31.354C59.2423 31.3983 59.3656 31.4738 59.4668 31.5744C59.5679 31.675 59.6441 31.7979 59.6892 31.9333L60.2201 33.528L61.832 34.0562C61.9675 34.1004 62.0907 34.1758 62.1919 34.2762C62.293 34.3766 62.3692 34.4993 62.4145 34.6345L62.9453 36.2291L64.5572 36.7572C64.6928 36.8017 64.8161 36.8773 64.9172 36.978C65.0183 37.0786 65.0944 37.2016 65.1394 37.337L65.6705 38.9313L67.2825 39.4595C67.3785 39.4911 67.4687 39.5384 67.5492 39.5995C67.5428 38.7963 67.4999 38.0017 67.4199 37.2183C67.3328 36.3589 67.2028 35.5122 67.0328 34.6804C66.8625 33.8486 66.6523 33.0319 66.4034 32.2317C66.1547 31.4315 65.8669 30.6481 65.5436 29.8837C65.2204 29.1194 64.8617 28.3736 64.4682 27.6493C64.0747 26.925 63.647 26.2225 63.1876 25.5425C62.7282 24.8625 62.2368 24.2061 61.7158 23.5747C61.1948 22.9434 60.6431 22.336 60.0648 21.7576C59.4864 21.1793 58.8807 20.6291 58.2494 20.1081C57.6181 19.5871 56.9615 19.0957 56.2815 18.6363C55.6015 18.1769 54.898 17.7492 54.1736 17.3557C53.4494 16.9622 52.7045 16.6036 51.9402 16.2803C51.1758 15.957 50.3926 15.6694 49.5925 15.4206C48.7923 15.1719 47.9754 14.9614 47.1435 14.7912C46.3117 14.6208 45.465 14.4918 44.6056 14.4043C43.7462 14.3169 42.8745 14.2745 41.9915 14.2745ZM33.892 14.4815C34.0694 14.4783 34.2465 14.4977 34.417 14.5454C34.8717 14.6677 35.2802 14.9611 35.5304 15.3944C36.0307 16.261 35.7291 17.3965 34.8616 17.8974C33.994 18.3983 32.8589 18.0932 32.3586 17.2264C31.8583 16.3598 32.1609 15.2228 33.0286 14.722C33.2996 14.5655 33.5964 14.4876 33.892 14.4815ZM33.9462 16.2974C33.9462 16.2974 33.9464 16.3005 33.94 16.302C33.9303 16.3084 33.9303 16.2987 33.9387 16.3116C33.9451 16.3245 33.9369 16.3213 33.9484 16.3149C33.958 16.3084 33.9548 16.3181 33.9484 16.3052C33.9451 16.2987 33.9457 16.2974 33.9462 16.2974ZM27.9565 18.4711C27.8714 18.5273 27.7853 18.5824 27.7007 18.6395C27.0208 19.0989 26.363 19.5902 25.7316 20.1113C25.134 20.6045 24.5601 21.1246 24.0099 21.6692L41.9857 52.8098C42.8833 52.7762 43.7745 53.2322 44.2505 54.0569C44.7473 54.9175 44.6657 55.9675 44.1299 56.7398L50.3003 64.0169C50.3619 63.9975 50.4235 63.974 50.4851 63.9524C50.5835 63.9175 50.6828 63.8833 50.7806 63.8475C50.8783 63.8117 50.9757 63.775 51.0731 63.7379C51.1706 63.7008 51.2677 63.6627 51.3641 63.6249C51.4609 63.5869 51.5567 63.5482 51.6525 63.5092C51.7486 63.4698 51.8454 63.4298 51.9405 63.3892C52.4621 63.1685 52.9739 62.93 53.4769 62.6766L27.9565 18.4711ZM22.0292 21.8889L16.3714 25.1559L34.5961 56.7279L40.2542 53.461L22.0292 21.8889ZM7.49487 24.3419C7.31558 24.3448 7.14112 24.4004 6.99322 24.5018C6.84533 24.6032 6.73055 24.7459 6.66325 24.9121C5.69297 27.2061 4.9391 29.6127 4.42828 32.109C3.91746 34.6053 3.64947 37.1904 3.64947 39.8361C3.64947 42.4817 3.91749 45.0665 4.42828 47.5628C4.9391 50.0591 5.69297 52.4662 6.66325 54.7602C7.63347 57.0541 8.82037 59.2344 10.1983 61.2741C11.5764 63.3138 13.1449 65.2139 14.8793 66.9483C16.6137 68.6827 18.5136 70.2515 20.5533 71.6295C22.593 73.0076 24.7721 74.1942 27.066 75.1644C29.3599 76.1346 31.7685 76.8886 34.2648 77.3994C35.5129 77.6548 36.7835 77.8492 38.0723 77.9801C38.1924 77.9937 38.3139 77.9834 38.43 77.9497C38.546 77.916 38.6542 77.8596 38.7483 77.7838C38.8424 77.708 38.9205 77.6143 38.9781 77.5081C39.0357 77.4018 39.0717 77.2853 39.0839 77.165C39.0961 77.0448 39.0843 76.9234 39.0492 76.8077C39.0142 76.6921 38.9565 76.5846 38.8796 76.4914C38.8027 76.3982 38.708 76.3213 38.6011 76.265C38.4942 76.2086 38.3772 76.174 38.2568 76.1633C37.0292 76.0388 35.8197 75.8539 34.6313 75.6106C32.2545 75.1243 29.9617 74.4061 27.7777 73.4823C25.5936 72.5586 23.5176 71.4296 21.5748 70.1171C19.632 68.8047 17.8226 67.3093 16.1703 65.657C14.518 64.0047 13.0229 62.1955 11.7104 60.2527C10.3979 58.3099 9.26754 56.2339 8.34377 54.0498C7.42 51.8658 6.70349 49.5731 6.21713 47.1963C5.73079 44.8195 5.47425 42.3583 5.47425 39.8361C5.47425 37.3138 5.73069 34.8523 6.21713 32.4756C6.70349 30.0988 7.42 27.806 8.34377 25.622C8.40526 25.482 8.43061 25.3288 8.4175 25.1765C8.40439 25.0242 8.35326 24.8776 8.26876 24.7502C8.18425 24.6228 8.06909 24.5186 7.93387 24.4473C7.79864 24.3759 7.64775 24.3397 7.49487 24.3419ZM17.861 31.3872C17.763 31.6675 17.6675 31.9499 17.5788 32.2347C17.3301 33.0349 17.1196 33.8516 16.9494 34.6834C16.7791 35.5152 16.6481 36.3619 16.5611 37.2213C16.474 38.0807 16.4288 38.9531 16.4288 39.8361C16.4288 40.719 16.4737 41.5916 16.5611 42.451C16.6482 43.3105 16.7792 44.1568 16.9494 44.9887C17.1197 45.8205 17.33 46.6375 17.5788 47.4376C17.8275 48.2378 18.1153 49.0212 18.4385 49.7856C18.7617 50.5499 19.1205 51.2957 19.514 52.02C19.9075 52.7443 20.3352 53.4469 20.7946 54.1268C21.2539 54.8068 21.7453 55.4632 22.2663 56.0946C22.7874 56.7259 23.3376 57.3318 23.9159 57.9102C24.4943 58.4885 25.1002 59.0402 25.7315 59.5612C26.3629 60.0823 27.0207 60.5735 27.7007 61.033C28.3807 61.4923 29.0832 61.9197 29.8076 62.3131C30.5319 62.7066 31.2777 63.0657 32.042 63.389C32.8064 63.7122 33.5898 63.9999 34.3899 64.2488C35.1179 64.4752 35.8603 64.6678 36.6146 64.8293L35.5035 61.724C34.5652 61.8043 33.6127 61.3492 33.115 60.487C32.6395 59.6632 32.6927 58.6653 33.1676 57.904L17.861 31.3872ZM42.1398 54.6238C42.0136 54.6173 41.882 54.6463 41.7585 54.7173L34.9346 58.658C34.6057 58.848 34.4996 59.2334 34.6959 59.5736C34.6954 59.5736 34.6963 59.5736 34.6959 59.5736C34.8923 59.9137 35.2794 60.0165 35.6084 59.8267L42.4319 55.8845C42.7607 55.6945 42.8659 55.3097 42.6696 54.9695C42.5715 54.7995 42.4257 54.6886 42.2637 54.6446C42.2234 54.635 42.1817 54.627 42.1398 54.6238ZM63.1232 55.773C62.4791 55.7569 61.8002 55.9185 61.1614 56.2872L54.2138 60.2992L64.5078 78.1298L70.0798 74.9125C70.0945 74.9046 70.1095 74.8971 70.1246 74.89C70.1394 74.8831 70.1544 74.8767 70.1695 74.8706C70.1824 74.8649 70.1954 74.8596 70.2085 74.8545C70.2216 74.8499 70.2349 74.8456 70.2482 74.8416C70.2649 74.8357 70.2818 74.8304 70.2988 74.8255C70.31 74.8231 70.3212 74.821 70.3324 74.819C70.3506 74.8142 70.369 74.8099 70.3875 74.8061C70.4012 74.8037 70.415 74.8015 70.4288 74.7997C70.4448 74.7982 70.4608 74.7971 70.4769 74.7964C70.4901 74.7957 70.5033 74.7953 70.5166 74.7951C70.5342 74.7946 70.5518 74.7946 70.5695 74.7951C70.5831 74.7957 70.5968 74.7966 70.6104 74.7978C70.6263 74.7985 70.6421 74.7995 70.6578 74.801C70.6736 74.8027 70.6893 74.8049 70.7049 74.8075C70.719 74.8093 70.733 74.8114 70.7469 74.8139C70.7611 74.8179 70.7752 74.8222 70.7891 74.8268C70.8051 74.8307 70.8208 74.835 70.8365 74.8397C70.8508 74.8448 70.8648 74.8501 70.8788 74.8558C70.892 74.8609 70.9052 74.8663 70.9181 74.872C70.9333 74.8791 70.9482 74.8866 70.963 74.8946C70.9753 74.9007 70.9874 74.9072 70.9994 74.9139C71.0143 74.9221 71.0289 74.9307 71.0433 74.9397C71.0531 74.946 71.0628 74.9524 71.0723 74.9591C71.0862 74.9698 71.0998 74.981 71.113 74.9926C71.1228 75.001 71.1325 75.0096 71.142 75.0184C71.1534 75.0278 71.1646 75.0375 71.1756 75.0475C71.1877 75.0592 71.1996 75.0712 71.2111 75.0836C71.2199 75.0946 71.2285 75.1058 71.2368 75.1171C71.2457 75.1288 71.2543 75.1406 71.2627 75.1526C71.2728 75.1673 71.2825 75.1822 71.2917 75.1975C71.2983 75.207 71.3048 75.2167 71.311 75.2265C71.3143 75.2307 71.3175 75.2351 71.3207 75.2394C71.716 75.924 72.8699 76.1952 74.0095 75.5371L83.6328 69.98L76.7939 58.1344C76.0538 56.8525 74.712 56.4412 73.8247 56.9536L73.0944 57.3754L71.3473 58.3836C69.3787 59.5202 66.8626 59.1436 65.7448 57.3233C65.7268 57.2972 65.7102 57.2701 65.6951 57.2423C65.166 56.326 64.1898 55.7948 63.1163 55.7656L63.1232 55.773ZM42.6777 57.8517L37.1918 61.0201L42.8917 76.9504C43.4444 78.4949 44.7244 79.4405 46.3248 79.8238C47.9253 80.2072 49.8054 79.9635 51.2887 79.1067C52.7721 78.25 53.9228 76.7441 54.3912 75.1659C54.8597 73.5876 54.6812 72.0055 53.6203 70.7546L42.6777 57.8517ZM62.3134 59.6649C62.4817 59.6581 62.6486 59.6981 62.7957 59.7803C62.9427 59.8626 63.0641 59.9839 63.1465 60.1309L64.4295 62.3552C64.4936 62.4591 64.5363 62.5749 64.5548 62.6956C64.5734 62.8164 64.5676 62.9396 64.5376 63.058C64.5077 63.1765 64.4544 63.2877 64.3807 63.3851C64.307 63.4825 64.2146 63.5642 64.1088 63.6252C64.003 63.6863 63.886 63.7255 63.7648 63.7405C63.6436 63.7555 63.5206 63.7461 63.4031 63.7128C63.2856 63.6794 63.176 63.6228 63.0807 63.5463C62.9855 63.4698 62.9066 63.375 62.8486 63.2675L61.5656 61.045C61.4845 60.909 61.4402 60.7543 61.4369 60.5961C61.4336 60.4378 61.4715 60.2814 61.5469 60.1422C61.6223 60.003 61.7326 59.8858 61.867 59.8021C62.0014 59.7185 62.1552 59.6712 62.3134 59.6649ZM59.1328 61.5017C59.301 61.4953 59.4676 61.5355 59.6144 61.6178C59.7612 61.7001 59.8823 61.8215 59.9645 61.9683L61.2475 64.1921C61.3106 64.296 61.3522 64.4115 61.37 64.5317C61.3878 64.652 61.3814 64.7746 61.3512 64.8923C61.321 65.0101 61.2676 65.1206 61.1941 65.2175C61.1206 65.3143 61.0285 65.3955 60.9232 65.4562C60.818 65.517 60.7016 65.5561 60.581 65.5713C60.4604 65.5865 60.3379 65.5775 60.2209 65.5447C60.1038 65.512 59.9945 65.4561 59.8992 65.3806C59.804 65.305 59.7249 65.2112 59.6664 65.1046L58.3834 62.8819C58.3022 62.7458 58.2578 62.591 58.2546 62.4325C58.2514 62.2741 58.2895 62.1176 58.3651 61.9784C58.4407 61.8392 58.5513 61.722 58.6859 61.6384C58.8205 61.5549 58.9745 61.5078 59.1328 61.5017ZM75.2459 61.9343C76.2224 61.9118 77.1862 62.4095 77.7048 63.3078C78.4592 64.6145 78.0077 66.314 76.701 67.0684L67.157 72.579C65.8504 73.3334 64.1527 72.8748 63.3983 71.5681C62.644 70.2615 63.0961 68.5627 64.4029 67.8083L73.947 62.2977C74.3553 62.0619 74.802 61.9444 75.2459 61.9343ZM75.3904 63.7502C75.2139 63.7405 75.031 63.7792 74.86 63.8795L65.3154 69.3901C64.8595 69.6533 64.7141 70.1951 64.9797 70.6551C65.2452 71.1151 65.7875 71.2609 66.2434 70.9976L75.788 65.4868C76.244 65.2236 76.3898 64.6804 76.1242 64.2204C75.9584 63.933 75.684 63.7685 75.3904 63.7502Z" fill="#A3A9BD"/>
</svg>
