<svg width="13" height="12" viewBox="0 0 13 12" fill="none" xmlns="http://www.w3.org/2000/svg">
<path fill-rule="evenodd" clip-rule="evenodd" d="M3.60013 9.59961C2.94013 9.59961 2.40613 10.1396 2.40613 10.7996C2.40613 11.4596 2.94013 11.9996 3.60013 11.9996C4.26013 11.9996 4.80013 11.4596 4.80013 10.7996C4.80013 10.1396 4.26013 9.59961 3.60013 9.59961ZM0 0.6C0 0.93 0.27 1.2 0.6 1.2H1.2L3.36 5.754L2.55 7.218C2.112 8.022 2.688 9 3.6 9H10.2C10.53 9 10.8 8.73 10.8 8.4C10.8 8.07 10.53 7.8 10.2 7.8H3.6L4.26 6.6H8.73C9.18 6.6 9.576 6.354 9.78 5.982L11.928 2.088C12.15 1.692 11.862 1.2 11.406 1.2H2.526L2.124 0.342C2.028 0.132 1.812 0 1.584 0H0.6C0.27 0 0 0.27 0 0.6ZM9.60013 9.59961C8.94013 9.59961 8.40613 10.1396 8.40613 10.7996C8.40613 11.4596 8.94013 11.9996 9.60013 11.9996C10.2601 11.9996 10.8001 11.4596 10.8001 10.7996C10.8001 10.1396 10.2601 9.59961 9.60013 9.59961Z" fill="#5264AE"/>
</svg>
