<svg width="11" height="16" viewBox="0 0 11 16" fill="none" xmlns="http://www.w3.org/2000/svg">
<path d="M3.05176e-05 6.85757C3.05176e-05 6.52094 0.272924 6.24805 0.609554 6.24805H10.3619C10.6986 6.24805 10.9715 6.52094 10.9715 6.85757V15.3909C10.9715 15.7275 10.6986 16.0004 10.3619 16.0004H0.609554C0.272924 16.0004 3.05176e-05 15.7275 3.05176e-05 15.3909V6.85757ZM4.98671 11.1716C5.04042 11.1987 5.04042 11.2505 5.03103 11.2789C4.86316 11.7863 4.61136 12.5475 4.27563 13.5623H6.65369C6.34817 12.5489 6.11903 11.7888 5.96627 11.2821C5.95739 11.2527 5.95739 11.2046 6.01168 11.165C6.68908 10.8817 6.84472 10.4154 6.84472 9.99784C6.84472 9.20917 6.17979 8.69474 5.50769 8.68625C4.82097 8.67757 4.12677 9.192 4.12677 9.99784C4.12677 10.3782 4.31608 10.8329 4.98671 11.1716Z" fill="#5264AE"/>
<path d="M3.04771 6.85714V3.80952C3.04771 0.355556 7.9239 0.355556 7.9239 3.80952V4.41905C7.9239 4.75568 8.19679 5.02857 8.53342 5.02857C8.87005 5.02857 9.14295 4.75568 9.14295 4.41905V3.80952C9.14295 -1.26984 1.82866 -1.26984 1.82866 3.80952V6.85714C1.82866 7.19377 2.10155 7.46667 2.43818 7.46667C2.77481 7.46667 3.04771 7.19377 3.04771 6.85714Z" fill="#5264AE"/>
</svg>
