<svg width="16" height="16" viewBox="0 0 16 16" fill="none" xmlns="http://www.w3.org/2000/svg">
<path d="M15.3122 1.3166L14.6873 0.691771C14.241 0.245467 13.6609 0 13.036 0C12.4112 0 11.831 0.245467 11.3847 0.691771L1.58833 10.4658C1.38749 10.6667 1.27591 10.9121 1.2536 11.1799L0.0262631 15.2859C-0.0406825 15.4867 0.026263 15.6876 0.160154 15.8438C0.27173 15.9554 0.405622 16 0.561828 16C0.606458 16 0.673404 16 0.718034 15.9777L4.82403 14.7503C5.0695 14.7057 5.33728 14.5941 5.5158 14.4156L15.2899 4.64156C16.2271 3.70432 16.2271 2.23152 15.3122 1.3166ZM1.96769 12.5858L3.37354 13.9916L1.36518 14.5941L1.96769 12.5858ZM14.5088 3.83821L13.884 4.46304L11.5186 2.09763L12.1434 1.4728C12.3666 1.24965 12.679 1.11576 13.0137 1.11576C13.3484 1.11576 13.6385 1.24965 13.884 1.4728L14.5088 2.09763C14.9998 2.56625 14.9998 3.34728 14.5088 3.83821Z" fill="#5264AE"/>
</svg>
