<svg width="24" height="17" viewBox="0 0 24 17" fill="none" xmlns="http://www.w3.org/2000/svg">
<path d="M22.4215 0H1.57825C0.70804 0 0 0.708041 0 1.57825V15.0947C0 15.9649 0.70804 16.673 1.57825 16.673H22.4215C23.2917 16.673 23.9998 15.9649 23.9998 15.0947L24 1.57825C24 0.708041 23.292 0 22.4218 0H22.4215ZM21.3642 13.8861C21.2931 13.9568 21.2004 13.9919 21.1074 13.9919C21.0139 13.9919 20.92 13.9561 20.8489 13.8846L15.6889 8.69292L12.2507 11.9584C12.2481 11.9608 12.2446 11.9617 12.2418 11.964C12.2095 11.9929 12.1737 12.0163 12.1353 12.0317C12.1319 12.033 12.1288 12.0336 12.1254 12.0349C12.0848 12.0497 12.0426 12.0586 11.9999 12.0586C11.9571 12.0586 11.9149 12.0499 11.8743 12.0349C11.8709 12.0336 11.8678 12.0332 11.8644 12.0317C11.8258 12.0163 11.7902 11.9929 11.7579 11.964C11.7553 11.9617 11.7516 11.9608 11.749 11.9584L8.31078 8.69292L3.1506 13.8846C3.07949 13.9561 2.98583 13.9919 2.89219 13.9919C2.7994 13.9919 2.7064 13.9563 2.63529 13.8861C2.49286 13.7443 2.492 13.5137 2.63378 13.3708L7.78247 8.19107L2.64155 3.30899C2.49565 3.17024 2.48979 2.94002 2.62811 2.7939C2.76642 2.64779 2.99708 2.64215 3.14319 2.78046L12.0001 11.1917L20.857 2.78046C21.0026 2.64215 21.2331 2.64779 21.3721 2.7939C21.5104 2.9398 21.5047 3.17024 21.3586 3.30899L16.2175 8.19085L21.3658 13.3706C21.5078 13.5134 21.5071 13.7441 21.3645 13.8859L21.3642 13.8861Z" fill="#979DB4"/>
</svg>
