<svg width="145" height="125" viewBox="0 0 145 125" fill="none" xmlns="http://www.w3.org/2000/svg">
<path d="M74.0807 80.5499C73.8508 79.8023 73.4966 79.1136 73.0437 78.5053C71.7765 76.7925 69.7504 75.7051 67.5108 75.7051C67.2911 75.7051 67.0708 75.7158 66.8486 75.7372C66.2776 75.7906 65.7339 75.9216 65.2138 76.1044C64.4742 76.3643 63.7936 76.7421 63.1987 77.2188C62.6976 77.6208 62.2608 78.0868 61.8878 78.6072C60.9606 79.9089 60.4756 81.536 60.6393 83.251C60.9799 86.8176 63.9779 89.4887 67.4909 89.4887C67.7083 89.4887 67.9307 89.4783 68.1528 89.4568C71.776 89.1114 74.4666 86.0218 74.3803 82.4391C74.3777 82.2729 74.3747 82.1097 74.3589 81.9433C74.3198 81.4583 74.2206 80.9947 74.0807 80.5499Z" fill="#5264AE"/>
<path d="M110.682 73.5625C110.174 73.1471 109.608 72.8041 108.997 72.5469C108.242 72.228 107.421 72.0431 106.569 72.0163C106.491 72.0136 106.416 72.0059 106.339 72.0059C106.121 72.0059 105.899 72.0163 105.677 72.0378C103.37 72.2575 101.443 73.5952 100.366 75.4599C99.9502 76.1781 99.6667 76.9766 99.5327 77.818C99.4443 78.3808 99.4148 78.9596 99.4711 79.5518C99.4791 79.6268 99.4925 79.6965 99.5033 79.7715C99.943 83.2283 102.885 85.79 106.323 85.79C106.54 85.79 106.762 85.7793 106.985 85.7579C110.774 85.3961 113.553 82.0337 113.191 78.2441C113.006 76.3332 112.057 74.685 110.682 73.5625Z" fill="#5264AE"/>
<path d="M48.7151 38.2567L47.5173 25.6731C46.9358 19.5715 41.7855 14.9863 35.7753 14.9863C35.4026 14.9863 35.0247 15.0051 34.6469 15.0402L23.3763 16.1147C20.3858 16.3988 18.1909 19.0543 18.4779 22.0448C18.7458 24.8611 21.1146 26.97 23.8857 26.97C24.0596 26.97 24.2343 26.962 24.4079 26.9459L35.6791 25.8714C35.7083 25.8687 35.7381 25.8657 35.7675 25.8657C36.2392 25.8657 36.6438 26.2248 36.6888 26.7045L37.8869 39.2881C38.109 41.6194 38.511 43.8921 39.0742 46.092C39.7308 45.4221 40.5534 44.9047 41.494 44.6126L49.3288 42.1929C49.0501 40.9123 48.8443 39.5966 48.7151 38.2567Z" fill="#374850"/>
<path d="M110.586 45.0156L104.926 30.1783L99.3631 32.3006L87.0394 0L68.5715 7.04481L60.1946 40.2565L61.5984 39.8813C61.8745 39.7983 62.1507 39.7634 62.4187 39.7661C64.2004 39.7875 65.5914 41.5909 64.9349 43.4131L60.626 55.3668L63.5123 62.9315V62.9341L63.5257 62.9663L63.5498 62.9583L87.7149 53.7405L90.9576 62.2404L108.265 55.6377L105.023 47.1378L110.586 45.0156ZM75.0988 41.5561L78.5794 25.6229L83.4457 38.3727L75.0988 41.5561Z" fill="#5264AE"/>
<path d="M126.185 30.8784L125.563 24.3588C125.295 21.5452 122.926 19.4336 120.155 19.4336C119.984 19.4336 119.81 19.4416 119.633 19.4577C116.642 19.7418 114.448 22.3973 114.734 25.3878L115.356 31.9074C115.445 32.8399 115.484 33.7668 115.495 34.6889C115.64 46.2007 109.85 56.6513 100.776 62.8068C96.2821 65.8565 90.9876 67.8526 85.21 68.4022C84.1354 68.504 83.0689 68.5544 82.0105 68.5544C77.793 68.5544 73.7279 67.7561 69.9686 66.2954C66.3886 64.905 63.09 62.9057 60.2061 60.4216L59.2848 63.0664C58.4702 65.4082 56.3399 66.9225 53.8585 66.9225C51.4736 66.9225 49.3728 65.4867 48.5073 63.2621L46.5565 58.2484L43.2468 56.5736C47.4188 64.0767 53.6897 70.1895 61.1842 74.2004C62.7194 73.0428 64.5418 72.3166 66.506 72.1293C66.838 72.0974 67.1786 72.0808 67.5135 72.0808C72.1196 72.0808 76.0348 75.0124 77.4497 79.1953C78.9503 79.3507 80.467 79.4365 82.0024 79.4365C83.4036 79.4365 84.8188 79.3695 86.2411 79.2355C89.618 78.9139 92.8655 78.2065 95.9581 77.1829C96.255 75.3687 97.016 73.6538 98.2192 72.2014C100.009 70.0362 102.534 68.6964 105.331 68.4284C105.663 68.3963 106.004 68.3802 106.339 68.3802C107.767 68.3802 109.125 68.6667 110.369 69.1811C121.246 60.1108 127.626 46.0077 126.185 30.8784Z" fill="#374850"/>
<path d="M59.0822 42.9609C58.841 42.9609 58.5918 42.9958 58.3426 43.0737L42.069 48.0978C39.9526 48.7517 39.7056 51.6484 41.6837 52.6506L47.9214 55.8099C48.463 56.0835 48.8834 56.5468 49.1058 57.1149L51.1691 62.4206C51.5767 63.471 52.5197 63.9909 53.4635 63.9909C54.4362 63.9909 55.4089 63.4362 55.7916 62.3375L61.3947 46.2408C61.9735 44.5794 60.6951 42.9609 59.0822 42.9609Z" fill="#5264AE"/>
<path d="M38.7865 121.417H36.9922L36.5484 122.273H35.603L38.0147 117.777H39.063L39.8798 122.273H38.928L38.7865 121.417ZM38.6707 120.717L38.3491 118.813L37.3587 120.717H38.6707Z" fill="#666771"/>
<path d="M43.9664 118.957C44.1786 119.156 44.2847 119.44 44.2847 119.809C44.2847 119.947 44.274 120.071 44.2526 120.182L43.8796 122.273H42.9856L43.3329 120.305C43.3458 120.227 43.3522 120.152 43.3522 120.079C43.3522 119.865 43.2954 119.702 43.1818 119.591C43.0682 119.479 42.9063 119.424 42.6962 119.424C42.4561 119.424 42.2514 119.495 42.082 119.639C41.9127 119.783 41.8001 119.99 41.7444 120.26L41.3907 122.273H40.4839L41.1141 118.71H42.0209L41.9438 119.147C42.0895 118.997 42.2632 118.878 42.4647 118.79C42.6662 118.702 42.8763 118.658 43.0949 118.658C43.4637 118.658 43.7541 118.758 43.9664 118.957Z" fill="#666771"/>
<path d="M45.964 118.709L46.4399 121.198L47.8227 118.709H48.7809L45.6489 123.957H44.6907L45.7711 122.182L44.9543 118.709H45.964Z" fill="#666771"/>
<path d="M49.874 121.172C49.8697 121.198 49.8675 121.232 49.8675 121.275C49.8675 121.361 49.8922 121.422 49.9415 121.459C49.9908 121.495 50.0733 121.513 50.1891 121.513H50.6135L50.4785 122.272H49.9061C49.263 122.272 48.9414 122.004 48.9414 121.468C48.9414 121.365 48.95 121.265 48.9672 121.166L49.2694 119.449H48.845L48.9736 118.709H49.4045L49.5588 117.828H50.4656L50.3113 118.709H51.1023L50.9737 119.449H50.1762L49.874 121.172Z" fill="#666771"/>
<path d="M54.6102 118.96C54.8182 119.162 54.9222 119.445 54.9222 119.809C54.9222 119.947 54.9114 120.071 54.89 120.183L54.517 122.273H53.6231L53.9703 120.305C53.9832 120.228 53.9896 120.153 53.9896 120.08C53.9896 119.865 53.9328 119.702 53.8192 119.591C53.7056 119.479 53.5438 119.424 53.3337 119.424C53.0936 119.424 52.8899 119.496 52.7227 119.639C52.5555 119.783 52.444 119.988 52.3883 120.253L52.0281 122.273H51.1213L51.9638 117.514H52.8706L52.5812 119.147C52.727 118.997 52.9038 118.878 53.1118 118.79C53.3197 118.702 53.5395 118.658 53.771 118.658C54.1226 118.658 54.4023 118.759 54.6102 118.96Z" fill="#666771"/>
<path d="M56.9091 118.71L56.2789 122.273H55.3721L56.0023 118.71H56.9091ZM56.1953 118.163C56.1095 118.082 56.0666 117.979 56.0666 117.855C56.0666 117.683 56.132 117.536 56.2628 117.414C56.3935 117.292 56.5468 117.23 56.7226 117.23C56.8598 117.23 56.9713 117.271 57.057 117.353C57.1428 117.434 57.1857 117.537 57.1857 117.661C57.1857 117.833 57.1213 117.98 56.9927 118.102C56.8641 118.224 56.7119 118.285 56.5361 118.285C56.3946 118.285 56.281 118.245 56.1953 118.163Z" fill="#666771"/>
<path d="M60.6424 118.957C60.8546 119.156 60.9607 119.44 60.9607 119.809C60.9607 119.947 60.95 120.071 60.9286 120.182L60.5556 122.273H59.6616L60.0089 120.305C60.0218 120.227 60.0282 120.152 60.0282 120.079C60.0282 119.865 59.9714 119.702 59.8578 119.591C59.7442 119.479 59.5823 119.424 59.3722 119.424C59.1321 119.424 58.9274 119.495 58.7581 119.639C58.5887 119.783 58.4762 119.99 58.4204 120.26L58.0667 122.273H57.1599L57.7902 118.71H58.697L58.6198 119.147C58.7656 118.997 58.9392 118.878 59.1407 118.79C59.3422 118.702 59.5523 118.658 59.771 118.658C60.1397 118.658 60.4302 118.758 60.6424 118.957Z" fill="#666771"/>
<path d="M64.1276 118.809C64.3141 118.914 64.4459 119.05 64.5231 119.217L64.6132 118.709H65.52L64.8897 122.298C64.8297 122.628 64.7096 122.923 64.5295 123.183C64.3495 123.442 64.1137 123.648 63.8221 123.8C63.5306 123.952 63.1962 124.028 62.8189 124.028C62.3172 124.028 61.9257 123.91 61.6452 123.675C61.3643 123.439 61.2368 123.117 61.2625 122.71H62.1564C62.1736 122.873 62.2518 123.003 62.3912 123.099C62.5305 123.195 62.7117 123.244 62.9346 123.244C63.2004 123.244 63.4266 123.165 63.6131 123.009C63.7996 122.852 63.9229 122.616 63.9829 122.298L64.0794 121.745C63.9336 121.913 63.75 122.052 63.5295 122.164C63.3087 122.275 63.0675 122.331 62.806 122.331C62.5442 122.331 62.3119 122.272 62.1082 122.154C61.9046 122.036 61.7457 121.869 61.6323 121.652C61.5187 121.436 61.4619 121.184 61.4619 120.897C61.4619 120.764 61.4747 120.624 61.5005 120.479C61.5648 120.118 61.6923 119.799 61.8831 119.52C62.0739 119.242 62.3065 119.028 62.5809 118.877C62.8553 118.727 63.1447 118.652 63.4491 118.652C63.7149 118.652 63.9414 118.704 64.1276 118.809ZM64.3237 120.247C64.3237 119.994 64.2498 119.796 64.1019 119.655C63.954 119.514 63.7683 119.443 63.5456 119.443C63.3784 119.443 63.2165 119.483 63.06 119.565C62.9035 119.647 62.7674 119.765 62.6516 119.922C62.5359 120.078 62.4587 120.264 62.4201 120.478C62.4073 120.56 62.4008 120.637 62.4008 120.71C62.4008 120.967 62.4737 121.169 62.6195 121.317C62.7653 121.465 62.9496 121.539 63.1726 121.539C63.3398 121.539 63.5027 121.498 63.6613 121.414C63.82 121.33 63.9561 121.209 64.0697 121.051C64.1833 120.892 64.2594 120.706 64.298 120.491C64.3152 120.38 64.3237 120.298 64.3237 120.247Z" fill="#666771"/>
<path d="M71.0798 119.594C70.9104 119.767 70.7035 119.893 70.4592 119.97C70.665 120.013 70.8311 120.116 70.9576 120.279C71.0841 120.441 71.1473 120.635 71.1473 120.857C71.1473 120.918 71.1409 120.984 71.128 121.057C71.068 121.421 70.8847 121.715 70.5781 121.938C70.2716 122.161 69.8889 122.272 69.4302 122.272H67.4944L68.2919 117.783H70.144C70.5513 117.783 70.8654 117.869 71.0862 118.04C71.307 118.212 71.4174 118.441 71.4174 118.729C71.4174 118.797 71.411 118.868 71.3981 118.941C71.3552 119.203 71.2491 119.42 71.0798 119.594ZM70.2469 120.819C70.2469 120.665 70.1923 120.544 70.0829 120.456C69.9736 120.368 69.8225 120.324 69.6295 120.324H68.742L68.5298 121.559H69.4366C69.6553 121.559 69.8353 121.505 69.9768 121.398C70.1183 121.291 70.2041 121.141 70.2341 120.947C70.2426 120.888 70.2469 120.845 70.2469 120.819ZM70.4656 118.96C70.4656 118.81 70.4163 118.695 70.3177 118.613C70.2191 118.531 70.0754 118.491 69.8868 118.491H69.07L68.8642 119.648H69.6874C69.8975 119.648 70.0711 119.598 70.2083 119.497C70.3455 119.397 70.4292 119.256 70.4592 119.076C70.4635 119.05 70.4656 119.012 70.4656 118.96Z" fill="#666771"/>
<path d="M75.6237 118.709L74.9935 122.272H74.0934L74.1703 121.822C74.0331 121.976 73.8635 122.097 73.6622 122.185C73.4605 122.273 73.2485 122.317 73.0255 122.317C72.6566 122.317 72.3653 122.217 72.1509 122.018C71.9365 121.818 71.8293 121.534 71.8293 121.166C71.8293 121.028 71.8401 120.906 71.8615 120.799L72.2281 118.709H73.1284L72.7812 120.67C72.768 120.747 72.7619 120.822 72.7619 120.896C72.7619 121.106 72.82 121.268 72.9355 121.381C73.0513 121.495 73.2139 121.552 73.4243 121.552C73.6687 121.552 73.8766 121.476 74.0481 121.323C74.2193 121.171 74.3287 120.953 74.3758 120.67L74.7234 118.709L75.6237 118.709Z" fill="#666771"/>
<path d="M77.1286 121.172C77.124 121.198 77.1222 121.232 77.1222 121.275C77.1222 121.361 77.1468 121.422 77.1961 121.459C77.2454 121.495 77.328 121.513 77.4437 121.513H77.8682L77.7331 122.272H77.1605C76.5176 122.272 76.1958 122.004 76.1958 121.468C76.1958 121.365 76.2041 121.265 76.2215 121.166L76.5241 119.449H76.0996L76.228 118.709H76.6589L76.8132 117.828H77.7197L77.5654 118.709H78.3567L78.2281 119.449H77.4303L77.1286 121.172Z" fill="#666771"/>
<path d="M81.2032 122.076C80.9138 121.915 80.6898 121.692 80.5312 121.407C80.3723 121.122 80.293 120.795 80.293 120.427C80.293 119.912 80.4077 119.449 80.637 119.037C80.8661 118.626 81.1837 118.303 81.5889 118.07C81.994 117.836 82.4495 117.719 82.9555 117.719C83.3371 117.719 83.6728 117.798 83.9619 117.957C84.2513 118.116 84.4754 118.337 84.6343 118.622C84.7929 118.907 84.8722 119.232 84.8722 119.597C84.8722 120.12 84.7586 120.587 84.5316 120.999C84.3041 121.41 83.9871 121.733 83.5796 121.967C83.1722 122.2 82.7135 122.317 82.2033 122.317C81.8257 122.317 81.4926 122.237 81.2032 122.076ZM83.1838 121.243C83.4303 121.08 83.6211 120.861 83.7561 120.584C83.8912 120.308 83.9587 120.006 83.9587 119.681C83.9587 119.329 83.8604 119.052 83.6629 118.851C83.4654 118.649 83.1891 118.548 82.8333 118.548C82.5157 118.548 82.2341 118.63 81.9876 118.793C81.741 118.956 81.55 119.175 81.4149 119.449C81.2799 119.723 81.2124 120.024 81.2124 120.349C81.2124 120.701 81.3099 120.978 81.505 121.182C81.7003 121.386 81.9755 121.487 82.3314 121.487C82.6535 121.488 82.937 121.406 83.1838 121.243Z" fill="#666771"/>
<path d="M87.1157 118.838C87.3217 118.718 87.5444 118.658 87.7845 118.658L87.6173 119.604H87.3791C87.1133 119.604 86.9002 119.661 86.7395 119.777C86.5784 119.893 86.4616 120.09 86.3887 120.369L86.0543 122.273H85.1475L85.7777 118.71H86.6845L86.5752 119.34C86.7298 119.126 86.9099 118.959 87.1157 118.838Z" fill="#666771"/>
<path d="M88.2189 119.52C88.4094 119.242 88.6433 119.027 88.9196 118.877C89.1962 118.727 89.4866 118.652 89.791 118.652C90.0226 118.652 90.2348 118.703 90.428 118.803C90.6209 118.904 90.7646 119.038 90.8586 119.205L91.1609 117.514H92.0677L91.2252 122.273H90.3184L90.4146 121.745C90.2734 121.921 90.0922 122.063 89.8714 122.17C89.6506 122.277 89.4073 122.331 89.1412 122.331C88.8794 122.331 88.6471 122.272 88.4434 122.154C88.2398 122.036 88.0809 121.869 87.9675 121.652C87.8539 121.436 87.7971 121.184 87.7971 120.897C87.7971 120.764 87.81 120.624 87.836 120.478C87.9005 120.119 88.0278 119.799 88.2189 119.52ZM90.6595 120.247C90.6595 119.994 90.5858 119.797 90.4377 119.656C90.2897 119.514 90.1043 119.443 89.8814 119.443C89.7144 119.443 89.5523 119.484 89.3958 119.565C89.2393 119.647 89.1032 119.766 88.9874 119.922C88.8717 120.079 88.7945 120.264 88.7562 120.478C88.743 120.56 88.7369 120.637 88.7369 120.71C88.7369 120.967 88.8095 121.17 88.9555 121.318C89.101 121.466 89.2854 121.54 89.5083 121.54C89.6756 121.54 89.8382 121.498 89.9971 121.414C90.1557 121.331 90.2919 121.209 90.4055 121.051C90.5191 120.892 90.5949 120.706 90.6338 120.491C90.6507 120.38 90.6595 120.299 90.6595 120.247Z" fill="#666771"/>
<path d="M93.6438 118.71L93.0132 122.273H92.1064L92.7367 118.71H93.6438ZM92.9299 118.163C92.8442 118.082 92.8013 117.979 92.8013 117.855C92.8013 117.683 92.8667 117.536 92.9974 117.414C93.1279 117.292 93.2815 117.23 93.4573 117.23C93.5945 117.23 93.7059 117.271 93.7914 117.353C93.8772 117.434 93.92 117.537 93.92 117.661C93.92 117.833 93.8557 117.98 93.7271 118.102C93.5987 118.224 93.4463 118.285 93.2705 118.285C93.1295 118.285 93.0157 118.245 92.9299 118.163Z" fill="#666771"/>
<path d="M97.377 118.957C97.589 119.156 97.6954 119.44 97.6954 119.809C97.6954 119.947 97.6847 120.071 97.6635 120.182L97.2902 122.273H96.3963L96.7436 120.305C96.7564 120.227 96.7626 120.152 96.7626 120.079C96.7626 119.865 96.706 119.702 96.5924 119.591C96.4785 119.479 96.3167 119.424 96.1066 119.424C95.8665 119.424 95.6618 119.495 95.4924 119.639C95.3231 119.783 95.2105 119.99 95.1545 120.26L94.8011 122.273H93.8943L94.5245 118.71H95.4316L95.3542 119.147C95.5002 118.997 95.6736 118.878 95.8751 118.79C96.0766 118.702 96.2867 118.658 96.5056 118.658C96.8741 118.658 97.1645 118.758 97.377 118.957Z" fill="#666771"/>
<path d="M98.6178 119.52C98.8089 119.242 99.0412 119.028 99.3156 118.877C99.59 118.727 99.8794 118.652 100.184 118.652C100.449 118.652 100.673 118.706 100.856 118.813C101.038 118.92 101.172 119.055 101.258 119.218L101.348 118.71H102.255L101.624 122.273H100.717L100.814 121.752C100.672 121.919 100.489 122.058 100.264 122.167C100.039 122.276 99.7934 122.331 99.5275 122.331C99.2657 122.331 99.0345 122.272 98.833 122.154C98.6315 122.036 98.475 121.869 98.3635 121.652C98.252 121.436 98.1963 121.184 98.1963 120.897C98.1963 120.764 98.2091 120.625 98.2349 120.479C98.2995 120.119 98.4273 119.799 98.6178 119.52ZM101.058 120.247C101.058 119.994 100.984 119.797 100.837 119.656C100.689 119.514 100.503 119.443 100.281 119.443C100.113 119.443 99.9512 119.484 99.7947 119.566C99.6382 119.647 99.5021 119.766 99.3866 119.922C99.2706 120.079 99.1934 120.264 99.1548 120.479C99.1422 120.56 99.1358 120.637 99.1358 120.71C99.1358 120.967 99.2087 121.17 99.3542 121.318C99.5002 121.466 99.6843 121.54 99.9073 121.54C100.074 121.54 100.237 121.498 100.396 121.414C100.555 121.331 100.691 121.21 100.804 121.051C100.917 120.893 100.994 120.706 101.033 120.491C101.05 120.38 101.058 120.299 101.058 120.247Z" fill="#666771"/>
<path d="M104.474 118.838C104.68 118.718 104.903 118.658 105.143 118.658L104.975 119.604H104.737C104.471 119.604 104.258 119.661 104.098 119.777C103.937 119.893 103.82 120.09 103.747 120.369L103.412 122.273H102.506L103.136 118.71H104.043L103.933 119.34C104.088 119.126 104.268 118.959 104.474 118.838Z" fill="#666771"/>
<path d="M106.332 118.709L106.808 121.198L108.191 118.709H109.149L106.017 123.957H105.059L106.139 122.182L105.322 118.709H106.332Z" fill="#666771"/>
<path d="M15.2216 99.3164L10.6284 112.977H5.09219L0.499268 99.3164H5.052L7.86832 108.712L10.6659 99.3164H15.2216Z" fill="#374850"/>
<path d="M18.405 112.434C17.5309 111.984 16.8455 111.339 16.3495 110.494C15.8535 109.653 15.6069 108.664 15.6069 107.533C15.6069 106.403 15.8535 105.414 16.3495 104.572C16.8455 103.731 17.5282 103.085 18.405 102.632C19.2786 102.182 20.2642 101.957 21.358 101.957C22.4518 101.957 23.4347 102.182 24.3113 102.632C25.1848 103.083 25.8703 103.728 26.3666 104.572C26.8623 105.414 27.1088 106.403 27.1088 107.533C27.1088 108.664 26.8623 109.653 26.3666 110.494C25.8703 111.336 25.1875 111.985 24.3113 112.434C23.4372 112.885 22.4516 113.11 21.358 113.11C20.2644 113.11 19.2786 112.885 18.405 112.434ZM22.3602 108.935C22.6308 108.618 22.7648 108.152 22.7648 107.536C22.7648 106.919 22.6308 106.453 22.3602 106.137C22.0896 105.823 21.7546 105.665 21.358 105.665C20.9587 105.665 20.6238 105.823 20.3558 106.137C20.0852 106.453 19.9512 106.919 19.9512 107.536C19.9512 108.152 20.0825 108.618 20.3478 108.935C20.6101 109.251 20.9475 109.406 21.3602 109.406C21.7546 109.406 22.0896 109.248 22.3602 108.935Z" fill="#374850"/>
<path d="M28.5827 104.572C29.0516 103.731 29.7081 103.085 30.5495 102.632C31.3915 102.182 32.353 101.957 33.4329 101.957C34.8477 101.957 36.0402 102.356 37.0129 103.152C37.9829 103.95 38.5992 105.055 38.8565 106.47H34.3225C34.1564 105.904 33.8268 105.62 33.3391 105.62C32.9907 105.62 32.7174 105.781 32.5191 106.102C32.3208 106.424 32.219 106.901 32.219 107.531C32.219 108.16 32.3181 108.637 32.5191 108.959C32.7169 109.281 32.9907 109.441 33.3391 109.441C33.8268 109.441 34.1564 109.157 34.3225 108.592H38.8565C38.5992 110.007 37.9856 111.113 37.0129 111.909C36.0402 112.708 34.8477 113.104 33.4329 113.104C32.3535 113.104 31.3915 112.879 30.5495 112.429C29.7081 111.978 29.0516 111.333 28.5827 110.489C28.1137 109.648 27.8779 108.659 27.8779 107.528C27.8779 106.397 28.1137 105.416 28.5827 104.572Z" fill="#374850"/>
<path d="M53.0768 104.555C53.4681 103.713 54.0067 103.07 54.6873 102.625C55.3679 102.181 56.1343 101.961 56.9838 101.961C57.6912 101.961 58.3022 102.106 58.8167 102.395C59.3311 102.684 59.7224 103.081 59.993 103.582V102.098H64.2564V112.98H59.993V111.495C59.7224 111.996 59.3311 112.393 58.8167 112.682C58.3022 112.972 57.6912 113.116 56.9838 113.116C56.1343 113.116 55.3703 112.894 54.6873 112.452C54.0067 112.007 53.4681 111.366 53.0768 110.523C52.6856 109.681 52.4873 108.687 52.4873 107.543C52.4894 106.39 52.6856 105.399 53.0768 104.555ZM59.5509 106.186C59.2556 105.865 58.8753 105.704 58.412 105.704C57.9484 105.704 57.5701 105.865 57.2732 106.186C56.9779 106.508 56.8284 106.959 56.8284 107.537C56.8284 108.116 56.9757 108.567 57.2732 108.888C57.5679 109.209 57.9484 109.37 58.412 109.37C58.8753 109.37 59.2534 109.209 59.5509 108.888C59.8456 108.566 59.9957 108.116 59.9957 107.537C59.9957 106.958 59.8456 106.508 59.5509 106.186Z" fill="#374850"/>
<path d="M40.2145 104.555C40.6058 103.713 41.1444 103.07 41.825 102.625C42.5056 102.181 43.272 101.961 44.1215 101.961C44.8289 101.961 45.4399 102.106 45.9543 102.395C46.4688 102.684 46.8601 103.081 47.1307 103.582V102.098H51.3941V112.98H47.1307V111.495C46.8601 111.996 46.4688 112.393 45.9543 112.682C45.4399 112.972 44.8289 113.116 44.1215 113.116C43.272 113.116 42.508 112.894 41.825 112.452C41.1444 112.007 40.6058 111.366 40.2145 110.523C39.8233 109.681 39.625 108.687 39.625 107.543C39.6271 106.39 39.8233 105.399 40.2145 104.555ZM46.6886 106.186C46.3933 105.865 46.013 105.704 45.5497 105.704C45.0861 105.704 44.7078 105.865 44.4109 106.186C44.1156 106.508 43.966 106.959 43.966 107.537C43.966 108.116 44.1134 108.567 44.4109 108.888C44.7056 109.209 45.0861 109.37 45.5497 109.37C46.013 109.37 46.3911 109.209 46.6886 108.888C46.9833 108.566 47.1334 108.116 47.1334 107.537C47.1334 106.958 46.9833 106.508 46.6886 106.186Z" fill="#374850"/>
<path d="M70.4706 98.6992V112.976H66.1885V98.6992H70.4706Z" fill="#374850"/>
<path d="M137.906 101.454C137.967 101.425 138.025 101.386 138.079 101.337L141.592 98.1168C142.049 97.6979 141.765 96.9359 141.144 96.919L139.188 96.8675C139.018 96.863 138.857 96.7965 138.733 96.6797L137.576 95.585C137.347 95.3683 137.046 95.3498 136.807 95.4628C136.561 95.5794 136.382 95.8364 136.416 96.1598L136.928 100.901C136.981 101.391 137.498 101.647 137.906 101.454Z" fill="#5264AE"/>
<path d="M91.8732 98.6992V112.976H87.5911V98.6992H91.8732Z" fill="#374850"/>
<path d="M96.0219 112.434C95.1457 111.984 94.4629 111.339 93.9666 110.494C93.4709 109.653 93.2244 108.664 93.2244 107.533C93.2244 106.403 93.4709 105.414 93.9666 104.572C94.4629 103.731 95.1457 103.085 96.0219 102.632C96.8955 102.182 97.8813 101.957 98.9752 101.957C100.068 101.957 101.052 102.182 101.928 102.632C102.802 103.083 103.488 103.728 103.983 104.572C104.48 105.414 104.726 106.403 104.726 107.533C104.726 108.664 104.479 109.653 103.983 110.494C103.488 111.336 102.805 111.985 101.928 112.434C101.055 112.885 100.069 113.11 98.9752 113.11C97.8813 113.11 96.8979 112.885 96.0219 112.434ZM99.9763 108.935C100.247 108.618 100.381 108.152 100.381 107.536C100.381 106.919 100.247 106.453 99.9763 106.137C99.7056 105.823 99.3707 105.665 98.9746 105.665C98.5754 105.665 98.2404 105.823 97.9724 106.137C97.7018 106.453 97.5678 106.919 97.5678 107.536C97.5678 108.152 97.6986 108.618 97.9641 108.935C98.2267 109.251 98.5644 109.406 98.9773 109.406C99.3734 109.406 99.7083 109.248 99.9763 108.935Z" fill="#374850"/>
<path d="M106.199 104.572C106.668 103.731 107.324 103.085 108.166 102.632C109.007 102.182 109.969 101.957 111.049 101.957C112.463 101.957 113.656 102.356 114.629 103.152C115.599 103.95 116.212 105.055 116.472 106.47H111.938C111.772 105.904 111.443 105.62 110.955 105.62C110.606 105.62 110.333 105.781 110.134 106.102C109.937 106.424 109.835 106.901 109.835 107.531C109.835 108.16 109.933 108.637 110.134 108.959C110.333 109.281 110.606 109.441 110.955 109.441C111.443 109.441 111.772 109.157 111.938 108.592H116.472C116.215 110.007 115.602 111.113 114.629 111.909C113.656 112.708 112.463 113.104 111.049 113.104C109.969 113.104 109.007 112.879 108.166 112.429C107.324 111.978 106.668 111.333 106.199 110.489C105.73 109.648 105.494 108.659 105.494 107.528C105.494 106.397 105.73 105.416 106.199 104.572Z" fill="#374850"/>
<path d="M117.834 104.555C118.225 103.713 118.764 103.07 119.444 102.625C120.125 102.181 120.891 101.961 121.741 101.961C122.448 101.961 123.059 102.106 123.574 102.395C124.088 102.684 124.479 103.081 124.75 103.582V102.098H129.013V112.98H124.75V111.495C124.479 111.996 124.088 112.393 123.574 112.682C123.059 112.972 122.448 113.116 121.741 113.116C120.891 113.116 120.127 112.894 119.444 112.452C118.764 112.007 118.225 111.366 117.834 110.523C117.442 109.681 117.244 108.687 117.244 107.543C117.244 106.39 117.44 105.399 117.834 104.555ZM124.305 106.186C124.01 105.865 123.629 105.704 123.166 105.704C122.703 105.704 122.324 105.865 122.027 106.186C121.732 106.508 121.583 106.959 121.583 107.537C121.583 108.116 121.73 108.567 122.027 108.888C122.322 109.209 122.703 109.37 123.166 109.37C123.629 109.37 124.008 109.209 124.305 108.888C124.6 108.566 124.75 108.116 124.75 107.537C124.75 106.958 124.603 106.508 124.305 106.186Z" fill="#374850"/>
<path d="M135.224 98.6992V112.976H130.943V98.6992H135.224Z" fill="#374850"/>
<path d="M137.003 109.924C137.615 110.295 138.883 110.733 139.867 110.733C140.872 110.733 141.287 110.383 141.287 109.836C141.287 109.29 140.959 109.027 139.714 108.613C137.506 107.87 136.654 106.667 136.676 105.4C136.676 103.411 138.381 101.902 141.025 101.902C142.271 101.902 143.386 102.187 144.041 102.514L143.451 104.809C142.97 104.547 142.052 104.197 141.134 104.197C140.326 104.197 139.867 104.525 139.867 105.072C139.867 105.575 140.282 105.837 141.594 106.295C143.627 106.995 144.479 108.022 144.501 109.596C144.501 111.585 142.927 113.049 139.867 113.049C138.468 113.049 137.222 112.743 136.414 112.306L137.003 109.924Z" fill="#5264AE"/>
<path d="M74.0811 112.272L73.3037 108.686L77.2924 99.198L81.9236 98.1934L83.6807 106.294L85.076 105.991L85.8831 109.712L84.4878 110.015L84.9503 112.146L80.6095 113.088L80.147 110.956L74.0811 112.272ZM78.9948 103.962L77.5954 107.613L79.6885 107.16L78.9948 103.962Z" fill="#5264AE"/>
</svg>
