<svg width="79" height="80" viewBox="0 0 79 80" fill="none" xmlns="http://www.w3.org/2000/svg">
<path d="M76.7597 65.9699C76.0748 64.6476 74.6169 62.871 73.8879 61.4097C73.1589 59.9518 68.5105 52.7944 67.7341 51.2924C67.3544 50.4617 66.9543 49.7463 66.778 49.509C66.0999 48.6037 64.4385 45.1928 63.8655 42.5652C63.3502 40.1986 61.6142 35.5909 61.0344 34.1431C61.0514 34.1262 61.0717 34.1126 61.0887 34.0957C61.4413 33.7702 61.6481 32.9158 61.3769 32.3394C61.1768 31.9122 61.0412 30.3254 60.9531 29.271L60.926 28.959C61.4515 28.5657 61.2989 26.8027 61.2379 26.2602C61.1599 25.5753 60.8276 24.9142 60.5089 24.2767C60.2241 23.7105 59.9597 23.1748 59.8681 22.6561C59.6545 21.3982 58.0644 20.6319 57.2066 20.2217L56.9794 20.1098C56.4505 19.8453 54.6365 18.1433 53.4838 15.6919C52.3852 13.366 48.5167 6.99187 47.1164 5.20168C46.74 4.72022 46.3467 4.19469 45.9602 3.67255C44.9431 2.30618 43.9768 1.01778 43.3258 0.522762C42.3832 -0.192637 41.8645 -0.0434541 41.0101 0.207444L40.8337 0.265083C40.1726 0.454952 39.1995 1.2958 38.301 2.2621C36.7312 1.50601 34.4426 0.929625 33.8255 0.997435C33.3373 1.05168 32.7914 1.63146 32.5405 2.03493C32.5473 2.03493 32.5643 2.03832 32.571 2.03832C32.093 2.14004 30.9029 2.57742 30.374 2.95037L30.2418 3.03853C29.7671 3.3708 29.7128 3.42505 29.3636 4.09298C29.1093 4.21165 29.0313 4.27268 28.7398 4.49984L28.5872 4.61851C26.3393 4.44559 25.4679 4.58121 25.139 4.67615C24.7356 4.79482 24.583 5.39494 24.6813 6.45956C24.661 6.54771 24.583 6.78166 24.3863 6.78166C23.6574 6.78166 23.4709 7.42247 23.359 7.80221L23.3488 7.83272C23.064 7.99547 22.9488 8.304 22.8437 8.57863C22.7589 8.80919 22.6673 9.04653 22.4876 9.28047C21.8367 9.61613 21.423 10.0637 21.2569 10.6163C21.0094 11.4538 21.4366 12.1929 21.4739 12.2573C21.6468 12.4879 23.949 15.1054 24.939 15.6343C25.3967 15.8818 25.1526 18.8621 25.0644 19.9843C25.0102 20.6523 24.9627 21.2287 24.9627 21.6186C24.9627 22.6154 24.2812 23.7343 23.6235 24.8124C23.4099 25.1617 23.203 25.5041 23.0233 25.8296C22.7928 26.2432 22.0808 26.84 21.1925 27.5927C21.1959 27.5893 21.2094 27.5689 21.2094 27.5689C21.2094 27.5689 18.3037 29.4405 15.9134 31.0137C13.4417 32.4208 12.6416 35.3298 12.8823 37.8354C12.8484 38.9509 12.9908 40.0121 13.4621 40.7479C13.6621 41.0632 13.9944 41.6057 14.364 42.2227C15.4015 44.8707 16.1033 48.5325 16.0491 52.3468C15.9779 56.9952 14.408 60.7553 14.7505 61.169C16.7475 61.3012 18.6394 61.1622 20.3991 60.8977C20.8195 62.4608 21.5485 64.0882 22.4741 65.7394C19.5888 65.6716 8.60347 65.8716 4.65352 66.8888C0.232285 68.028 -0.269512 70.0318 0.0966639 72.6289C0.459449 75.2261 1.03923 76.8806 3.74147 77.6876C11.4379 79.9897 12.5873 79.5218 15.71 79.4642C15.6693 79.4133 15.6083 79.3048 15.5608 79.2201C15.6015 79.3218 15.6422 79.4337 15.7541 79.4608C16.4424 79.6168 19.7142 79.6473 23.3014 79.671C24.4101 79.6778 25.2679 79.6812 25.5188 79.6948C25.6747 79.7049 25.9121 79.7253 26.2104 79.749C27.5938 79.8575 30.174 80.0745 31.5098 79.7761C31.9167 79.6609 32.1506 79.532 32.4558 79.2981C32.6863 79.5998 33.0491 79.8033 33.3746 79.905C33.8188 80.0474 34.229 80.0236 34.5443 79.8745C34.6833 79.949 34.8596 79.9999 35.0665 79.9999C35.2869 79.9999 35.5479 79.9423 35.8395 79.8066C36.0735 79.8575 36.2091 79.8473 36.3413 79.8372C36.5074 79.8202 36.7143 79.81 36.8533 79.7626C36.9652 79.7287 37.0737 79.6948 37.3381 79.6846C38.2366 79.4608 38.0671 78.4572 37.9925 78.0266C37.9823 77.952 37.9654 77.8876 37.9654 77.8537C37.9654 77.8368 37.9721 77.7723 37.9755 77.735C38.3824 77.6096 38.9215 77.3553 39.8437 77.0502C41.0745 76.6399 45.95 77.457 47.3639 77.735C48.7777 78.0063 59.7596 78.6912 62.2211 78.1894C64.6826 77.6876 69.192 78.0978 72.2469 78.0063C75.3018 77.9147 76.441 77.6401 77.9904 74.175C79.5399 70.7099 77.4412 67.2922 76.7597 65.9699ZM60.6479 33.56C60.6208 33.5498 60.5937 33.5803 60.5632 33.5803C60.3394 33.5328 60.1495 33.4549 60.0275 33.2887C59.7223 32.8751 59.763 32.1529 59.8071 31.9088C59.8139 31.8613 59.7867 31.824 59.7766 31.78C60.1733 31.6308 60.3191 31.1798 60.3801 30.634C60.475 31.5664 60.5801 32.2885 60.7463 32.6411C60.8887 32.9395 60.7598 33.4142 60.6479 33.56ZM58.5322 26.172C58.4814 25.9889 58.3085 25.8601 58.1084 25.9245C57.922 25.972 57.8135 26.1619 57.8609 26.3483L58.4509 28.603C58.4644 28.681 58.4441 28.7251 58.4339 28.7827C58.3458 28.8302 57.7931 29.1286 57.5287 28.7183C57.2099 28.2301 56.7793 26.5009 56.6403 25.8771C56.5895 25.4397 56.542 25.0701 56.4979 24.8124L56.4606 24.626C56.2403 23.5105 56.3115 23.2223 56.3521 23.1646C56.3488 23.1646 56.4471 23.1545 56.6912 23.3104C57.2235 23.6495 58.2203 24.6124 58.6645 25.1684C59.0578 25.6567 59.6749 26.8773 59.841 27.4977C59.919 27.7825 59.902 28.3589 59.8003 28.8946C59.7596 29.1082 59.7528 29.3964 59.7427 29.7253C59.7325 30.1152 59.7054 31.0239 59.5223 31.1459C59.5053 31.1527 59.2714 31.2171 58.9696 30.8408C58.912 30.6645 58.7187 30.0169 58.8984 29.4778C59.0103 29.3354 59.2137 28.9929 59.1256 28.4572L58.5322 26.172ZM34.2426 11.3283C34.2663 11.2707 36.4973 5.80519 37.4568 4.38117C38.5011 2.8351 40.2336 1.16018 41.0236 0.933015L41.2067 0.878767C42.0035 0.644821 42.2476 0.577011 42.9054 1.07881C43.4783 1.51618 44.4548 2.82492 45.4042 4.09298C45.7941 4.61851 46.1908 5.14743 46.5671 5.63227C47.8419 7.26311 51.6868 13.522 52.8531 15.9903C54.0161 18.462 55.9283 20.3641 56.6675 20.7336L56.9048 20.8489C57.5931 21.1812 59.0307 21.8695 59.1832 22.7747C59.2917 23.3986 59.5935 24.0055 59.8885 24.5887C60.1936 25.2023 60.4818 25.7787 60.5462 26.3416C60.6242 27.0298 60.6072 27.5655 60.5666 27.9521C60.5666 27.7283 60.5666 27.4943 60.5157 27.3146C60.3224 26.5992 59.6613 25.2973 59.2103 24.7345C58.7798 24.1954 57.7321 23.1443 57.0642 22.7239C56.62 22.4391 56.2538 22.3916 55.9758 22.5815C55.4672 22.9307 55.6096 23.8902 55.7825 24.7616L55.8131 24.9311C55.9182 25.5278 56.0402 26.6603 56.1758 28.2945C56.2233 28.8539 56.1114 29.0167 56.0707 29.0302C55.8436 29.0913 55.2638 28.6641 55.1451 28.4708C54.9146 28.0911 54.7756 27.2977 54.6501 26.5992C54.5687 26.1449 54.4941 25.7143 54.3958 25.4024C54.0941 24.4632 52.6802 22.0186 52.6429 21.961L51.402 18.8722C50.3645 16.2921 45.6822 12.1692 45.6957 12.1828C45.6551 12.1522 42.9528 9.76193 42.3934 9.81956L42.39 9.81617L42.3866 9.81956C42.2883 9.82974 42.1798 9.81617 42.0984 9.88059C41.5356 10.3214 38.0908 17.8449 38.0027 18.8282L37.9891 18.9977C37.5653 24.0462 37.0228 24.982 36.8126 25.1515C35.792 25.9584 35.3987 27.0197 35.6395 28.3148C35.6802 28.5318 35.7039 28.8912 35.7175 29.3015C35.4394 31.8139 34.7918 34.333 32.51 34.333C29.4552 34.333 26.3122 33.1463 24.9424 31.4172C23.6947 29.8474 25.7324 26.2432 26.6512 24.7887C26.6546 24.7819 26.6444 24.7751 26.6444 24.7684C26.6783 24.748 26.719 24.7514 26.7461 24.7209C27.1394 24.2632 28.2617 23.0053 28.7126 22.6595C28.8279 22.5713 28.9432 22.4899 29.0585 22.4086C29.8281 21.8661 30.6995 21.2524 31.3844 19.1842C31.5505 18.6824 31.8082 17.9704 32.0726 17.2312C32.4151 16.2921 32.7643 15.319 32.9644 14.6748C33.2559 13.7322 34.0663 11.7589 34.2426 11.3283ZM54.484 28.6539C54.3212 28.4945 54.1483 28.3284 53.9415 28.1385C52.9006 27.179 51.4698 25.8635 51.4969 24.5242C51.5478 22.2628 49.0456 19.8657 47.7911 18.662C47.469 18.3501 47.1571 18.0416 46.8587 17.7466C46.1874 17.0753 45.5974 16.4887 45.0888 16.1124C45.0176 15.736 44.9973 15.658 44.9736 15.3936C44.9939 15.319 45.0414 15.2444 45.0414 15.2444C45.0414 15.2444 45.255 14.4341 45.394 14.2645C45.689 14.0441 45.9704 13.7831 46.1569 13.4915C47.4758 14.6612 49.9 17.0007 50.7578 19.1333L52.0191 22.2662C52.036 22.2899 53.4566 24.748 53.7313 25.616C53.816 25.8838 53.8906 26.2907 53.9652 26.7247C54.0941 27.4435 54.2399 28.1589 54.484 28.6539ZM33.2186 2.06206C33.2186 2.06206 33.2186 2.06545 33.222 2.06545C33.2152 2.06206 33.2085 2.06545 33.1983 2.06206C33.2051 2.05867 33.2119 2.06206 33.2186 2.06206ZM23.6336 26.1653C23.8099 25.8465 24.01 25.5143 24.2168 25.1786C24.9254 24.0191 25.6578 22.8154 25.6578 21.6253C25.6578 21.2626 25.7019 20.6997 25.7561 20.0454C25.9731 17.377 26.0646 15.458 25.2679 15.0274C24.4541 14.59 22.2401 12.1251 22.0537 11.8776C22.0503 11.8708 21.7587 11.3521 21.9248 10.813C22.0401 10.4332 22.3554 10.1179 22.864 9.86703C22.9081 9.84669 22.9454 9.81617 22.9793 9.77888C23.2675 9.43644 23.3929 9.09738 23.498 8.82275C23.5997 8.5549 23.6472 8.44301 23.732 8.41928C23.8405 8.38877 23.932 8.304 23.9659 8.19551L24.0269 7.99547C24.1524 7.56487 24.2134 7.47672 24.3863 7.47672C25.0543 7.47672 25.3255 6.85964 25.3764 6.53415C25.3831 6.50364 25.3831 6.47312 25.3798 6.44261C25.3357 5.99845 25.3526 5.49665 25.4103 5.32374C25.6917 5.26271 26.5258 5.15421 28.6652 5.32374C28.7601 5.34747 28.8381 5.30339 28.9025 5.25254L29.167 5.0491C29.4823 4.80499 29.4891 4.79821 29.7603 4.67615C29.8315 4.64224 29.8892 4.58799 29.9264 4.52018C30.2655 3.87259 30.2655 3.87259 30.6452 3.60813L30.7775 3.5132C31.2928 3.15041 32.5982 2.70965 32.7643 2.68591C32.7914 2.68591 32.8152 2.68591 32.8525 2.67913C32.8592 2.73677 32.866 2.83171 32.8592 2.9775C32.8457 3.27247 32.649 3.6217 32.4592 3.96075C32.1744 4.47272 31.8489 5.0491 32.0557 5.63566C32.2523 6.19849 31.2081 8.14126 30.7707 8.40233C30.435 8.60237 30.2825 9.00923 30.3604 9.48729C30.4384 9.96197 30.7537 10.4943 31.2827 10.6129C31.659 10.6977 31.9709 10.5723 32.2252 10.4739C32.5609 10.3417 32.5778 10.3654 32.6321 10.4299C32.9203 10.7655 33.2831 11.1012 33.5034 11.2944C33.222 11.9827 32.5643 13.6068 32.2964 14.4714C32.0998 15.0986 31.7539 16.0649 31.4149 16.9973C31.1436 17.7432 30.8826 18.4654 30.7198 18.9672C30.1129 20.815 29.3738 21.3372 28.6584 21.8423C28.5363 21.9271 28.4143 22.0153 28.2956 22.1068C27.6921 22.5645 26.2816 24.1954 26.224 24.2666C26.207 24.2835 26.2138 24.3106 26.2037 24.331C25.8816 24.5005 24.4948 25.7211 23.0708 26.8671C23.3149 26.6094 23.5218 26.3653 23.6336 26.1653ZM37.25 78.9997C36.9618 78.9997 36.7787 79.054 36.6465 79.0946C36.4396 79.1591 36.3854 79.1387 36.2938 79.1421C36.1718 79.1523 36.0938 79.1523 35.8768 79.1014C35.792 79.0777 35.7039 79.0879 35.6293 79.1319C35.1173 79.3964 34.8766 79.2777 34.8427 79.2303C34.7817 79.1489 34.6901 79.098 34.5884 79.0912C34.5782 79.0912 34.5715 79.0912 34.5613 79.0912C34.4697 79.0912 34.3816 79.1252 34.3172 79.1896C34.1917 79.3116 33.89 79.332 33.5814 79.237C33.2322 79.1285 32.961 78.9048 32.9203 78.6878C32.8965 78.5691 32.8118 78.4674 32.6965 78.4267C32.588 78.3928 32.4524 78.4064 32.3574 78.4843C31.8624 78.8878 31.7302 78.9861 31.3403 79.098C30.1197 79.3693 27.6141 79.1624 26.2647 79.0539C25.9595 79.0268 25.712 79.0065 25.5527 78.9997C25.295 78.9861 24.427 78.9794 23.3048 78.9726C21.5349 78.9624 18.9378 78.9455 17.3103 78.8844C17.3171 78.664 17.0493 77.8198 17.0493 77.8198C16.9747 75.2837 17.8325 73.6698 18.6801 72.8018C18.9581 72.7137 19.1548 72.673 19.1988 72.6696C19.3243 72.6696 19.626 72.3814 19.9888 71.9745C20.772 71.7779 21.6163 71.9203 22.2435 72.1203C23.1081 72.395 26.3901 73.0799 27.1666 72.8493C27.943 72.6221 28.5329 72.5747 28.9432 71.6185C29.3534 70.6624 30.7537 70.7268 30.9945 70.8455C31.4963 71.093 32.0998 72.3204 32.6117 72.6425C33.0152 72.8968 33.7747 72.9408 34.4121 73.2562C35.0529 73.5783 34.9614 75.1277 35.3716 75.3515C35.7819 75.5821 36.1006 75.6261 36.6024 76.2195C36.9109 76.3212 37.111 76.3178 37.3483 76.945C37.2974 77.4807 37.2635 77.8232 37.2635 77.8334C37.2635 77.9012 37.2805 78.0029 37.3008 78.1283C37.4059 78.7319 37.3686 78.959 37.25 78.9997ZM35.8293 62.2336C34.2799 64.0102 31.954 67.5194 28.9025 68.1568C26.2376 68.7163 24.5457 67.3804 23.5523 66.2446C22.4063 64.373 21.579 62.5421 21.1009 60.7892C24.505 60.1925 27.3022 59.0974 29.0415 58.3582C31.7777 57.1953 34.168 56.1713 34.168 56.1713C34.2934 56.1069 34.4596 56.0595 34.6325 56.0188C34.8529 56.212 35.0766 56.3748 35.3072 56.5002C35.887 56.8121 36.443 57.1478 36.9719 57.4631C37.6399 57.8632 38.2332 58.1921 38.7927 58.4599C38.0671 59.4025 37.0058 60.8875 35.8293 62.2336ZM55.4265 66.4717C54.0127 66.4717 51.2799 65.241 49.822 64.8307C48.5913 61.0469 44.4887 59.0431 42.8918 58.86C41.2982 58.6769 40.5184 58.1514 39.3758 57.7445C39.3419 57.7818 39.2843 57.8598 39.247 57.9039C38.674 57.6462 38.0501 57.3004 37.3246 56.8664C36.7889 56.5443 36.2226 56.2052 35.6361 55.8899C35.6157 55.8798 35.5954 55.8594 35.5751 55.8459C35.7446 55.8119 35.8734 55.7713 35.8734 55.717C35.8734 55.5339 34.7783 54.215 34.7342 53.8048C34.6901 53.3945 34.0968 53.5301 33.8696 52.7571C33.9137 52.0281 32.9576 50.9364 32.8219 50.6143C32.6829 50.2956 32.9576 49.8853 32.6829 49.9294C32.5948 49.6107 32.4558 47.8341 32.5948 46.6948C32.8219 46.3321 32.5948 46.1015 32.5948 45.1454C32.9135 44.8741 32.5948 44.0977 32.7779 43.3687C33.0491 43.1416 32.9576 42.5957 32.8219 42.4126C32.6829 42.2295 33.0966 41.3649 33.2763 41.1344C33.4594 40.9072 33.1847 39.8121 33.2763 39.1306C33.3678 38.4457 34.0968 38.2626 34.1409 37.3065C34.3612 37.1946 34.6935 36.2826 34.8122 35.5265C36.521 33.326 36.5481 29.4846 36.3108 28.1962C36.1175 27.1621 36.4193 26.3483 37.233 25.7041C37.6975 25.338 38.0535 24.1513 38.3451 22.0526C38.9418 21.9068 39.4063 21.6253 39.5657 21.4423C39.8403 21.1236 41.8 19.3469 43.2105 18.2518C43.8615 17.7466 44.248 17.1058 44.526 16.526C44.5464 16.5497 44.5498 16.5803 44.5735 16.5972C45.0583 16.9329 45.6652 17.5364 46.3671 18.2348C46.6654 18.5366 46.9808 18.8485 47.3605 19.2147C48.4014 20.2149 50.8426 22.5544 50.8019 24.5073C50.768 26.1619 52.3276 27.5994 53.4668 28.6471C53.8839 29.0336 54.2805 29.3964 54.3992 29.5998C54.84 30.4204 55.2129 30.8069 55.4435 30.9866C55.4367 31.329 55.4401 32.0953 55.5418 33.204C55.6842 34.8009 55.4842 38.4389 54.3246 40.063C53.46 41.8261 53.2396 43.1755 53.6533 44.1892C54.0635 45.1861 54.9688 45.62 55.891 45.9421C57.2133 46.4066 57.7287 46.766 58.3593 48.0883C58.7289 48.8682 59.5765 51.1974 60.3191 53.2487C60.5462 53.8692 60.7293 54.3778 60.8954 54.8287C60.8887 54.8456 60.8514 54.8829 60.8514 54.8931C60.8514 55.2118 61.3972 56.8054 61.8075 58.4938C62.628 62.5014 64.13 66.743 65.3641 67.9263C64.3605 68.0687 56.8404 66.4717 55.4265 66.4717ZM61.4311 54.2693C61.282 53.8658 61.1294 53.4454 60.9734 53.0148C60.2207 50.9499 59.3697 48.6037 58.9832 47.7934C58.2508 46.2507 57.5422 45.793 56.1216 45.2878C55.4062 45.0403 54.6196 44.708 54.3009 43.9282C53.9686 43.1212 54.189 41.9244 54.9213 40.4224C56.2301 38.5983 56.3725 34.6619 56.2369 33.1429C56.1012 31.6884 56.1453 30.8306 56.1453 30.8238C56.1521 30.6848 56.064 30.5492 55.9419 30.4882C55.9385 30.4882 55.5689 30.2813 55.0332 29.3083C55.3858 29.5795 55.8537 29.827 56.2843 29.6948C56.6098 29.5897 56.7522 29.2506 56.8133 28.8065C56.8573 28.9014 56.9014 29.0302 56.9455 29.0981C57.2066 29.4981 57.5693 29.6304 57.9152 29.6304C58.0101 29.6304 58.0983 29.6032 58.1898 29.5863C58.0644 30.3559 58.3254 31.1052 58.3424 31.1425C58.3526 31.1697 58.3695 31.2002 58.3898 31.2239C58.6509 31.5697 58.9052 31.702 59.1358 31.7698C59.1324 31.7766 59.1256 31.78 59.1222 31.7867C59.1154 31.8342 58.9222 32.9565 59.468 33.699C59.6748 33.9804 59.9732 34.1398 60.3157 34.2347C60.7463 35.2552 62.6416 40.2257 63.1874 42.7178C63.7875 45.4776 65.4964 48.9563 66.2219 49.926C66.2219 49.926 66.2219 49.926 66.2219 49.9294C66.4525 50.2379 66.7339 50.7635 67.0018 51.3399C64.9878 51.567 62.5263 53.2928 61.4311 54.2693Z" fill="#A3A9BD"/>
</svg>
