<svg width="16" height="16" viewBox="0 0 16 16" fill="none" xmlns="http://www.w3.org/2000/svg">
<path d="M16.0005 6.13333C16.0005 5.69227 15.6416 5.33333 15.2005 5.33333H14.4627C15.0456 4.656 15.1904 3.56613 15.1984 3.49973C15.208 3.424 15.1843 3.34773 15.1339 3.29013C15.0832 3.2328 15.0104 3.2 14.9336 3.2H14.6669V1.33333C14.6669 0.598133 14.0688 0 13.3336 0H12.8003C12.212 0 11.7336 0.4784 11.7336 1.06667C11.7336 1.21413 11.8531 1.33333 12.0003 1.33333C12.1475 1.33333 12.2669 1.21413 12.2669 1.06667C12.2669 0.772533 12.5061 0.533333 12.8003 0.533333H13.3336C13.7747 0.533333 14.1336 0.892267 14.1336 1.33333V2.82293L13.7888 2.47813C13.6848 2.37387 13.5157 2.37387 13.4117 2.47813C13.3075 2.5824 13.3075 2.75093 13.4117 2.8552L13.7565 3.2H9.60027C9.52373 3.2 9.45093 3.2328 9.40027 3.29013C9.3496 3.34773 9.32613 3.424 9.33547 3.49973C9.34373 3.56613 9.48853 4.656 10.0712 5.33333H8.53333V4.6152C8.53333 4.15707 8.1808 3.78373 7.73333 3.7416V3.2H8C8.1472 3.2 8.26667 3.0808 8.26667 2.93333C8.26667 2.78587 8.1472 2.66667 8 2.66667H7.46667H5.86667H5.33333C5.18613 2.66667 5.06667 2.78587 5.06667 2.93333C5.06667 3.0808 5.18613 3.2 5.33333 3.2H5.6V3.73333H3.73333V3.2H4C4.1472 3.2 4.26667 3.0808 4.26667 2.93333C4.26667 2.78587 4.1472 2.66667 4 2.66667H3.46667H1.86667H1.33333C1.18613 2.66667 1.06667 2.78587 1.06667 2.93333C1.06667 3.0808 1.18613 3.2 1.33333 3.2H1.6V3.7416C1.15253 3.78373 0.8 4.1568 0.8 4.6152V5.33333C0.358933 5.33333 0 5.69227 0 6.13333C0 6.48053 0.223467 6.77387 0.533333 6.88427V13.6C0.533333 13.7475 0.6528 13.8667 0.8 13.8667H1.06667V14.6667C1.06667 14.8141 1.18613 14.9333 1.33333 14.9333H1.6V15.4667H1.33333C1.18613 15.4667 1.06667 15.5859 1.06667 15.7333C1.06667 15.8808 1.18613 16 1.33333 16H2.4C2.5472 16 2.66667 15.8808 2.66667 15.7333C2.66667 15.5859 2.5472 15.4667 2.4 15.4667H2.13333V14.9333H2.4C2.5472 14.9333 2.66667 14.8141 2.66667 14.6667V13.8667H13.3333V14.6667C13.3333 14.8141 13.4528 14.9333 13.6 14.9333H13.8667V15.4667H13.6C13.4528 15.4667 13.3333 15.5859 13.3333 15.7333C13.3333 15.8808 13.4528 16 13.6 16H14.6667C14.8139 16 14.9333 15.8808 14.9333 15.7333C14.9333 15.5859 14.8139 15.4667 14.6667 15.4667H14.4V14.9333H14.6667C14.8139 14.9333 14.9333 14.8141 14.9333 14.6667V13.8667H15.2C15.3472 13.8667 15.4667 13.7475 15.4667 13.6V6.88427C15.7768 6.77387 16.0005 6.48053 16.0005 6.13333ZM6.13387 3.2H7.20053V3.73333H6.13387V3.2ZM3.20053 3.2V3.73333H2.13387V3.2H3.20053ZM2.13387 14.4H1.60053V13.8667H2.13387V14.4ZM7.4672 10.1333V12.5333C7.4672 12.6808 7.34773 12.8 7.20053 12.8H1.8672C1.72 12.8 1.60053 12.6808 1.60053 12.5333V10.1333V7.73333C1.60053 7.58587 1.72 7.46667 1.8672 7.46667H7.20053C7.34773 7.46667 7.4672 7.58587 7.4672 7.73333V10.1333ZM8.53387 12.5333V7.73333C8.53387 7.58587 8.65333 7.46667 8.80053 7.46667H14.1339C14.2811 7.46667 14.4005 7.58587 14.4005 7.73333V12.5333C14.4005 12.6808 14.2811 12.8 14.1339 12.8H8.80053C8.65333 12.8 8.53387 12.6808 8.53387 12.5333ZM14.4005 14.4H13.8672V13.8667H14.4005V14.4ZM15.2005 6.4H0.800533C0.6536 6.4 0.533867 6.28053 0.533867 6.13333C0.533867 5.98613 0.6536 5.86667 0.800533 5.86667H1.0672H8.2672H11.1747H13.36H15.2003C15.3475 5.86667 15.4669 5.98613 15.4669 6.13333C15.4669 6.28053 15.3477 6.4 15.2005 6.4Z" fill="#8B96A5"/>
<path d="M2.13385 12.2671H6.93385V10.4004H2.13385V12.2671ZM3.73385 10.6671H5.33385C5.48105 10.6671 5.60052 10.7863 5.60052 10.9337C5.60052 11.0812 5.48105 11.2004 5.33385 11.2004H4.80052V11.4671C4.80052 11.6145 4.68105 11.7337 4.53385 11.7337C4.38665 11.7337 4.26718 11.6145 4.26718 11.4671V11.2004H3.73385C3.58665 11.2004 3.46718 11.0812 3.46718 10.9337C3.46718 10.7863 3.58665 10.6671 3.73385 10.6671Z" fill="#8B96A5"/>
<path d="M2.13385 9.86667H6.93385V8H2.13385V9.86667ZM3.73385 8.26667H5.33385C5.48105 8.26667 5.60052 8.38587 5.60052 8.53333C5.60052 8.6808 5.48105 8.8 5.33385 8.8H4.80052V9.06667C4.80052 9.21413 4.68105 9.33333 4.53385 9.33333C4.38665 9.33333 4.26718 9.21413 4.26718 9.06667V8.8H3.73385C3.58665 8.8 3.46718 8.6808 3.46718 8.53333C3.46718 8.38587 3.58665 8.26667 3.73385 8.26667Z" fill="#8B96A5"/>
<path d="M9.0672 12.2667H13.8672V8H9.0672V12.2667ZM10.1339 9.06667C10.1339 8.9192 10.2533 8.8 10.4005 8.8H12.5339C12.6811 8.8 12.8005 8.9192 12.8005 9.06667V9.6C12.8005 9.74747 12.6811 9.86667 12.5339 9.86667C12.3867 9.86667 12.2672 9.74747 12.2672 9.6V9.33333H10.6672V9.6C10.6672 9.74747 10.5477 9.86667 10.4005 9.86667C10.2533 9.86667 10.1339 9.74747 10.1339 9.6V9.06667Z" fill="#8B96A5"/>
<path d="M1.33387 1.06667H1.8672V1.6C1.8672 1.74747 1.98667 1.86667 2.13387 1.86667C2.28107 1.86667 2.40053 1.74747 2.40053 1.6V1.06667H3.4672V1.6C3.4672 1.74747 3.58667 1.86667 3.73387 1.86667C3.88107 1.86667 4.00053 1.74747 4.00053 1.6V1.06667H5.0672V1.6C5.0672 1.74747 5.18667 1.86667 5.33387 1.86667C5.48107 1.86667 5.60053 1.74747 5.60053 1.6V1.06667H6.6672V1.6C6.6672 1.74747 6.78667 1.86667 6.93387 1.86667C7.08107 1.86667 7.20053 1.74747 7.20053 1.6V1.06667H7.73387C7.88107 1.06667 8.00053 0.947467 8.00053 0.8C8.00053 0.652533 7.88107 0.533333 7.73387 0.533333H7.20053V0.266667C7.20053 0.1192 7.08107 0 6.93387 0C6.78667 0 6.6672 0.1192 6.6672 0.266667V0.533333H5.60053V0.266667C5.60053 0.1192 5.48107 0 5.33387 0C5.18667 0 5.0672 0.1192 5.0672 0.266667V0.533333H4.00053V0.266667C4.00053 0.1192 3.88107 0 3.73387 0C3.58667 0 3.4672 0.1192 3.4672 0.266667V0.533333H2.40053V0.266667C2.40053 0.1192 2.28107 0 2.13387 0C1.98667 0 1.8672 0.1192 1.8672 0.266667V0.533333H1.33387C1.18667 0.533333 1.0672 0.652533 1.0672 0.8C1.0672 0.947467 1.18667 1.06667 1.33387 1.06667Z" fill="#8B96A5"/>
</svg>
