<svg width="63" height="60" viewBox="0 0 63 60" fill="none" xmlns="http://www.w3.org/2000/svg">
<path fill-rule="evenodd" clip-rule="evenodd" d="M18.5264 0V54.202H44.0955V0H18.5264ZM22.5134 6.92863C22.561 6.92401 22.609 6.92401 22.6567 6.92863H24.0174C24.2144 6.93351 24.4019 7.01659 24.54 7.16028C24.6782 7.30397 24.7562 7.497 24.7576 7.69848V13.8091C24.7562 14.0106 24.6782 14.2036 24.54 14.3473C24.4019 14.491 24.2144 14.5741 24.0174 14.579H22.6567C22.4555 14.5805 22.262 14.5002 22.1187 14.3558C21.9755 14.2114 21.8941 14.0148 21.8927 13.8091V7.69848C21.891 7.51601 21.9523 7.33877 22.0659 7.19796C22.1794 7.05715 22.3378 6.96179 22.5134 6.92863ZM30.4873 6.92863C30.535 6.92402 30.5829 6.92402 30.6305 6.92863H31.9914C32.1926 6.92715 32.3861 7.0074 32.5293 7.15177C32.6726 7.29615 32.7539 7.49282 32.7554 7.69848V13.8091C32.7539 14.0148 32.6726 14.2114 32.5293 14.3558C32.3861 14.5002 32.1926 14.5805 31.9914 14.579H30.6305C30.4294 14.5804 30.2359 14.5002 30.0926 14.3558C29.9494 14.2114 29.8681 14.0148 29.8666 13.8091V7.69848C29.8649 7.516 29.9263 7.33877 30.0398 7.19796C30.1533 7.05715 30.3118 6.96177 30.4873 6.92863ZM38.4613 6.92863C38.5168 6.92233 38.5729 6.92233 38.6284 6.92863H39.9653C40.1665 6.92715 40.36 7.0074 40.5033 7.15177C40.6465 7.29615 40.7278 7.49282 40.7293 7.69848V13.8091C40.7278 14.0148 40.6465 14.2114 40.5033 14.3558C40.36 14.5002 40.1665 14.5805 39.9653 14.579H38.6284C38.4272 14.5805 38.2337 14.5002 38.0905 14.3558C37.9472 14.2114 37.8659 14.0148 37.8644 13.8091V7.69848C37.8617 7.51944 37.9196 7.34496 38.0284 7.20463C38.1372 7.06431 38.2901 6.96678 38.4613 6.92863ZM22.5134 17.8027C22.5372 17.8016 22.5611 17.8016 22.585 17.8027C22.6089 17.8016 22.6328 17.8016 22.6567 17.8027H24.0174C24.2144 17.8076 24.4019 17.8907 24.54 18.0344C24.6782 18.1781 24.7562 18.3711 24.7576 18.5726V24.6832C24.7562 24.8847 24.6782 25.0777 24.54 25.2214C24.4019 25.3651 24.2144 25.4482 24.0174 25.4531H22.6567C22.4555 25.4546 22.262 25.3743 22.1187 25.2299C21.9755 25.0855 21.8941 24.8889 21.8927 24.6832V18.5726C21.891 18.3901 21.9523 18.2129 22.0659 18.0721C22.1794 17.9313 22.3378 17.8359 22.5134 17.8027ZM30.4873 17.8027C30.5112 17.8016 30.5351 17.8016 30.5589 17.8027C30.5828 17.8016 30.6067 17.8016 30.6305 17.8027H31.9914C32.1926 17.8012 32.3861 17.8815 32.5293 18.0259C32.6726 18.1702 32.7539 18.3669 32.7554 18.5726V24.6832C32.7539 24.8889 32.6726 25.0855 32.5293 25.2299C32.3861 25.3743 32.1926 25.4546 31.9914 25.4531H30.6305C30.4293 25.4545 30.2359 25.3743 30.0926 25.2299C29.9494 25.0855 29.8681 24.8889 29.8666 24.6832V18.5726C29.8649 18.3901 29.9263 18.2129 30.0398 18.0721C30.1533 17.9312 30.3118 17.8359 30.4873 17.8027ZM38.5329 17.8027C38.5647 17.8007 38.5966 17.8007 38.6284 17.8027H39.9653C40.1665 17.8012 40.36 17.8815 40.5033 18.0259C40.6465 18.1702 40.7278 18.3669 40.7293 18.5726V24.6832C40.7278 24.8889 40.6465 25.0855 40.5033 25.2299C40.36 25.3743 40.1665 25.4546 39.9653 25.4531H38.6284C38.4272 25.4546 38.2337 25.3743 38.0905 25.2299C37.9472 25.0855 37.8659 24.8889 37.8644 24.6832V18.5726C37.8645 18.3829 37.9325 18.1997 38.0557 18.0579C38.1789 17.916 38.3487 17.8252 38.5329 17.8027ZM22.5134 28.6768C22.5372 28.6756 22.5611 28.6756 22.585 28.6768C22.6089 28.6756 22.6328 28.6756 22.6567 28.6768H24.0174C24.2144 28.6817 24.4019 28.7648 24.54 28.9085C24.6782 29.0522 24.7562 29.2451 24.7576 29.4466V35.5573C24.76 35.6591 24.7427 35.7604 24.7068 35.8554C24.6709 35.9504 24.6171 36.0373 24.5483 36.111C24.4796 36.1847 24.3973 36.2439 24.3063 36.2851C24.2152 36.3264 24.117 36.3488 24.0174 36.3512H22.6567C22.5551 36.352 22.4543 36.3319 22.3605 36.2921C22.2666 36.2523 22.1815 36.1937 22.1103 36.1196C22.039 36.0456 21.983 35.9577 21.9457 35.8611C21.9083 35.7645 21.8903 35.6611 21.8927 35.5573V29.4466C21.891 29.2642 21.9523 29.087 22.0659 28.9462C22.1794 28.8053 22.3378 28.7099 22.5134 28.6768ZM30.4873 28.6768C30.5112 28.6756 30.5351 28.6756 30.5589 28.6768C30.5828 28.6756 30.6067 28.6756 30.6305 28.6768H31.9914C32.1926 28.6753 32.3861 28.7556 32.5293 28.9C32.6726 29.0443 32.7539 29.241 32.7554 29.4466V35.5573C32.7578 35.6611 32.7398 35.7645 32.7024 35.8611C32.665 35.9577 32.6091 36.0456 32.5378 36.1196C32.4665 36.1937 32.3815 36.2523 32.2876 36.2921C32.1937 36.3319 32.093 36.352 31.9914 36.3512H30.6305C30.5289 36.352 30.4282 36.3319 30.3343 36.2921C30.2405 36.2523 30.1554 36.1936 30.0842 36.1196C30.0129 36.0455 29.9569 35.9576 29.9196 35.861C29.8822 35.7644 29.8642 35.6611 29.8666 35.5573V29.4466C29.8649 29.2641 29.9263 29.0869 30.0398 28.9461C30.1533 28.8053 30.3118 28.7099 30.4873 28.6768ZM38.5329 28.6768C38.5647 28.6747 38.5966 28.6747 38.6284 28.6768H39.9653C40.1665 28.6753 40.36 28.7556 40.5033 28.9C40.6465 29.0443 40.7278 29.241 40.7293 29.4466V35.5573C40.7317 35.6611 40.7137 35.7645 40.6763 35.8611C40.639 35.9577 40.583 36.0456 40.5117 36.1196C40.4405 36.1937 40.3554 36.2523 40.2615 36.2921C40.1677 36.3319 40.0669 36.352 39.9653 36.3512H38.6284C38.5268 36.352 38.4261 36.3319 38.3322 36.2921C38.2383 36.2523 38.1533 36.1937 38.082 36.1196C38.0107 36.0456 37.9548 35.9577 37.9174 35.8611C37.88 35.7645 37.862 35.6611 37.8644 35.5573V29.4466C37.8645 29.2569 37.9325 29.0738 38.0557 28.932C38.1789 28.7901 38.3487 28.6993 38.5329 28.6768ZM22.585 39.5509C22.6089 39.5497 22.6328 39.5497 22.6567 39.5509H24.0174C24.2185 39.5558 24.4095 39.6422 24.5483 39.7911C24.6871 39.94 24.7624 40.1392 24.7576 40.3448V46.4554C24.7562 46.6569 24.6782 46.8499 24.54 46.9936C24.4019 47.1373 24.2144 47.2204 24.0174 47.2252H22.6567C22.4555 47.2267 22.262 47.1465 22.1187 47.0021C21.9755 46.8578 21.8941 46.6611 21.8927 46.4554V40.3448C21.8874 40.1472 21.9561 39.9549 22.0848 39.8074C22.2134 39.6598 22.3924 39.5681 22.585 39.5509ZM30.5589 39.5509C30.5828 39.5497 30.6067 39.5497 30.6305 39.5509H31.9914C32.093 39.5501 32.1937 39.5702 32.2876 39.61C32.3814 39.6498 32.4665 39.7084 32.5378 39.7825C32.609 39.8565 32.665 39.9445 32.7024 40.041C32.7398 40.1376 32.7578 40.2409 32.7554 40.3448V46.4554C32.7539 46.6611 32.6726 46.8578 32.5293 47.0021C32.3861 47.1465 32.1926 47.2267 31.9914 47.2252H30.6305C30.4294 47.2267 30.2359 47.1464 30.0926 47.0021C29.9494 46.8577 29.8681 46.6611 29.8666 46.4554V40.3448C29.8613 40.1472 29.93 39.9549 30.0587 39.8074C30.1874 39.6598 30.3663 39.5681 30.5589 39.5509ZM38.5567 39.5509C38.5806 39.5497 38.6045 39.5497 38.6284 39.5509H39.9653C40.0669 39.5501 40.1676 39.5702 40.2615 39.61C40.3553 39.6498 40.4404 39.7084 40.5117 39.7825C40.5829 39.8565 40.6389 39.9445 40.6763 40.041C40.7137 40.1376 40.7317 40.2409 40.7293 40.3448V46.4554C40.7278 46.6611 40.6465 46.8578 40.5033 47.0021C40.36 47.1465 40.1665 47.2267 39.9653 47.2252H38.6284C38.4272 47.2267 38.2337 47.1465 38.0905 47.0021C37.9472 46.8578 37.8659 46.6611 37.8644 46.4554V40.3448C37.8591 40.1472 37.9278 39.9549 38.0565 39.8074C38.1852 39.6598 38.3641 39.5681 38.5567 39.5509Z" fill="#5264AE"/>
<path fill-rule="evenodd" clip-rule="evenodd" d="M12.1963 5.58594H16.9934V54.1942H12.2333L12.1963 5.58594Z" fill="#5264AE"/>
<path fill-rule="evenodd" clip-rule="evenodd" d="M45.6318 5.58594H50.3913V54.1942H45.6318V5.58594Z" fill="#5264AE"/>
<path fill-rule="evenodd" clip-rule="evenodd" d="M5.01353 41.3555C2.66932 41.3555 0.763983 43.2938 0.763983 45.758C0.763983 48.0085 2.34955 49.7953 4.41669 50.0885L4.4406 55.7419H0.811729C0.751994 55.7419 0.565598 55.8174 0.358044 56.1991C0.150566 56.5812 0 57.1968 0 57.8832C0 58.5695 0.150566 59.1851 0.358044 59.5672C0.565598 59.9493 0.751993 60.0003 0.811729 60.0003H61.8339C61.8866 60.0003 62.0549 59.9502 62.2636 59.5672C62.4722 59.1845 62.6456 58.5683 62.6456 57.8832C62.6456 57.198 62.4722 56.5819 62.2636 56.1991C62.0549 55.8164 61.8866 55.7419 61.8339 55.7419H58.2051V50.0885C60.2953 49.7953 61.8578 48.0085 61.8578 45.758C61.8578 43.2938 59.9843 41.3555 57.6082 41.3555C55.264 41.3555 53.3586 43.2938 53.3586 45.758C53.3586 48.014 54.9369 49.8019 57.0113 50.0885V55.7419H5.63429V50.0885C7.71296 49.7854 9.28707 48.0002 9.28707 45.758C9.28707 43.2938 7.38959 41.3555 5.01353 41.3555Z" fill="#5264AE"/>
</svg>
