<svg width="20" height="19" viewBox="0 0 20 19" fill="none" xmlns="http://www.w3.org/2000/svg">
<path d="M13.6585 1.57655C14.7231 1.57961 15.7431 1.98819 16.4958 2.71306C17.2486 3.43792 17.6729 4.42018 17.6761 5.44529V13.182C17.6729 14.2071 17.2486 15.1893 16.4958 15.9142C15.7431 16.6391 14.7231 17.0476 13.6585 17.0507H5.6243C4.55976 17.0476 3.53973 16.6391 2.78698 15.9142C2.03423 15.1893 1.60994 14.2071 1.60676 13.182V5.44529C1.60994 4.42018 2.03423 3.43792 2.78698 2.71306C3.53973 1.98819 4.55976 1.57961 5.6243 1.57655H13.6585V1.57655ZM13.6585 0.0292969H5.6243C2.53087 0.0292969 0 2.46643 0 5.44529V13.182C0 16.1608 2.53087 18.5979 5.6243 18.5979H13.6585C16.752 18.5979 19.2828 16.1608 19.2828 13.182V5.44529C19.2828 2.46643 16.752 0.0292969 13.6585 0.0292969V0.0292969Z" fill="#5264AE"/>
<path d="M14.8638 5.44608C14.6254 5.44608 14.3924 5.37802 14.1942 5.2505C13.996 5.12297 13.8416 4.94172 13.7504 4.72966C13.6591 4.5176 13.6353 4.28425 13.6818 4.05913C13.7283 3.83401 13.8431 3.62722 14.0116 3.46491C14.1802 3.30261 14.3949 3.19208 14.6287 3.1473C14.8625 3.10252 15.1048 3.1255 15.325 3.21334C15.5452 3.30118 15.7334 3.44993 15.8659 3.64078C15.9983 3.83163 16.069 4.05601 16.069 4.28554C16.0693 4.43804 16.0384 4.5891 15.9779 4.73005C15.9175 4.871 15.8287 4.99907 15.7167 5.1069C15.6048 5.21473 15.4718 5.3002 15.3254 5.35841C15.179 5.41661 15.0222 5.44641 14.8638 5.44608V5.44608ZM9.64151 6.2195C10.2772 6.2195 10.8986 6.40101 11.4271 6.74109C11.9556 7.08116 12.3676 7.56452 12.6108 8.13004C12.8541 8.69556 12.9177 9.31784 12.7937 9.9182C12.6697 10.5186 12.3636 11.07 11.9141 11.5028C11.4646 11.9357 10.892 12.2304 10.2685 12.3499C9.64507 12.4693 8.99886 12.408 8.41158 12.1737C7.82431 11.9395 7.32236 11.5428 6.96921 11.0339C6.61606 10.5249 6.42756 9.92653 6.42756 9.31441C6.42847 8.49386 6.76738 7.70717 7.36991 7.12695C7.97245 6.54673 8.7894 6.22038 9.64151 6.2195V6.2195ZM9.64151 4.67225C8.68806 4.67225 7.75603 4.94451 6.96327 5.45459C6.17051 5.96468 5.55263 6.68969 5.18776 7.53793C4.82289 8.38618 4.72742 9.31956 4.91343 10.2201C5.09944 11.1205 5.55857 11.9477 6.23275 12.5969C6.90694 13.2461 7.76591 13.6883 8.70104 13.8674C9.63616 14.0465 10.6054 13.9546 11.4863 13.6032C12.3672 13.2519 13.1201 12.6569 13.6498 11.8935C14.1795 11.1301 14.4622 10.2325 14.4622 9.31441C14.4622 8.08323 13.9543 6.90248 13.0503 6.03191C12.1462 5.16133 10.92 4.67225 9.64151 4.67225V4.67225Z" fill="#5264AE"/>
</svg>
