<svg width="24" height="24" viewBox="0 0 24 24" fill="none" xmlns="http://www.w3.org/2000/svg">
<path d="M22.8541 8.10869C21.3552 3.33164 16.7523 -0.0252122 11.6877 0.0017245C5.39232 -0.112105 -0.106189 5.42579 0.00155738 11.7069C-0.103853 17.9528 5.32914 23.4562 11.5701 23.4121C12.4821 23.5243 12.9317 22.2905 12.141 21.8093C10.4075 20.2358 9.10699 18.2597 8.37539 16.085C8.35492 16.0255 8.34133 15.9641 8.32163 15.9042H11.6229C12.0966 15.9042 12.48 15.5209 12.48 15.0472C12.48 14.5735 12.0966 14.1901 11.6229 14.1901H7.88638C7.73601 13.3784 7.65222 12.5515 7.65222 11.7126C7.65222 10.8685 7.7362 10.0381 7.88696 9.22345H15.4929C15.5572 9.58982 15.6121 9.96132 15.6463 10.34C15.6873 10.7844 16.0607 11.1192 16.4992 11.1192C16.5252 11.1192 16.551 11.1184 16.5778 11.1159C17.049 11.0732 17.3965 10.6556 17.3538 10.1844C17.3243 9.86069 17.283 9.54026 17.2342 9.22343H21.393C21.6032 10.0244 21.7146 10.8561 21.7146 11.7068C21.7146 12.4853 21.6208 13.2796 21.4366 14.067C21.3287 14.5273 21.6149 14.9886 22.0762 15.0965C22.534 15.2019 22.9977 14.9182 23.1056 14.4569C23.3199 13.5421 23.4287 12.6163 23.4287 11.7067C23.4286 10.4631 23.2336 9.24792 22.8537 8.10865L22.8541 8.10869ZM19.5169 5.46551C20.0271 6.0951 20.4434 6.78095 20.7788 7.50947H16.8479C16.7808 7.26956 16.7268 7.03578 16.6451 6.7905C16.0563 5.03658 15.1466 3.40735 13.9834 1.97692C16.1502 2.47912 18.096 3.69029 19.5167 5.46546L19.5169 5.46551ZM3.91614 5.4613C5.3286 3.6972 7.25835 2.49313 9.4269 1.98672C8.2576 3.40834 7.3441 5.02782 6.7537 6.77297C6.67067 7.01536 6.60563 7.26332 6.53503 7.50952H2.65121C2.98581 6.78291 3.40323 6.09495 3.91635 5.46135L3.91614 5.4613ZM6.75272 16.6366C7.33833 18.3771 8.25432 20.0014 9.43263 21.4337C7.27618 20.9296 5.3338 19.7194 3.91355 17.949C3.40273 17.3184 2.98683 16.6324 2.65164 15.9043H6.53488C6.60509 16.1491 6.66975 16.3955 6.75259 16.6366H6.75272ZM6.1394 14.1901H2.03729C1.82703 13.3891 1.71569 12.5575 1.71569 11.7067C1.71569 10.8586 1.82627 10.0289 2.03748 9.22328L6.13979 9.22347C6.00663 10.04 5.93833 10.8714 5.93833 11.7126C5.93833 12.5492 6.00643 13.3768 6.1394 14.1901ZM8.37642 7.32517C9.05405 5.32099 10.2042 3.50085 11.7167 2.01375C13.2101 3.5081 14.3473 5.33264 15.0195 7.33448C15.0394 7.39436 15.0498 7.45003 15.0689 7.50934H8.3215C8.3414 7.4485 8.35556 7.38594 8.37622 7.3253L8.37642 7.32517Z" fill="#979DB4"/>
<path d="M22.2341 16.2537L15.8888 11.8108C15.4302 11.4902 14.8543 11.4408 14.3494 11.6761C13.843 11.9122 13.5117 12.3852 13.4623 12.9434L12.7878 20.6595C12.7283 21.3358 13.0933 21.9459 13.7168 22.2137C14.3413 22.484 15.0325 22.3276 15.4838 21.8204L15.9751 21.2664L16.1455 21.6322C16.1457 21.6324 16.1457 21.6327 16.1457 21.6331C16.1459 21.6333 16.1461 21.6335 16.1461 21.6337L16.8337 23.1087C17.0958 23.6702 17.654 24.0008 18.2373 24.0008C18.4558 24.0008 18.6775 23.9539 18.8885 23.856L20.7617 22.9822C21.1359 22.8081 21.4196 22.4977 21.5609 22.1093C21.7016 21.7217 21.6832 21.3016 21.5091 20.9276L20.6503 19.0862L21.3901 19.0661C22.0688 19.0468 22.633 18.615 22.828 17.9647C23.0231 17.3141 22.7897 16.6428 22.2339 16.2536L22.2341 16.2537Z" fill="#979DB4"/>
</svg>
