<svg width="16" height="16" viewBox="0 0 16 16" fill="none" xmlns="http://www.w3.org/2000/svg">
<path d="M3.56377 10.5582C3.46564 10.6045 3.37317 10.662 3.28819 10.7295L0.678354 12.8016C0.386811 13.0331 0.174511 13.3495 0.0708898 13.7071C-0.0327313 14.0646 -0.0225386 14.4456 0.100055 14.797C0.222648 15.1485 0.451567 15.4532 0.755071 15.6687C1.05858 15.8843 1.42163 16 1.79388 16C1.82791 16 1.86199 15.999 1.89615 15.9971C2.14853 15.9825 2.39499 15.9148 2.6194 15.7984C2.84381 15.682 3.04111 15.5196 3.19838 15.3217L5.27053 12.7118C5.33802 12.6268 5.39551 12.5344 5.44187 12.4362C5.71125 11.8578 6.04965 11.3141 6.44968 10.817L5.18305 9.55034C4.68592 9.95036 4.14221 10.2888 3.56377 10.5582ZM4.16115 12.7388L2.60231 14.5468C2.52904 14.6315 2.43912 14.7003 2.33814 14.7489C2.23716 14.7974 2.12728 14.8247 2.01533 14.8289C2.00541 14.8293 1.99549 14.8295 1.98556 14.8295C1.81926 14.8296 1.65693 14.7787 1.52036 14.6838C1.3838 14.589 1.27954 14.4545 1.22159 14.2987C1.16364 14.1428 1.15477 13.9729 1.19618 13.8119C1.23759 13.6508 1.32729 13.5063 1.45323 13.3977L3.26124 11.8388C3.38324 11.7337 3.5405 11.6785 3.70146 11.6845C3.86242 11.6904 4.01518 11.757 4.12908 11.8709C4.24297 11.9848 4.30958 12.1376 4.31553 12.2986C4.32148 12.4595 4.26633 12.6168 4.16115 12.7388ZM10.4396 5.35333C10.3412 5.25501 10.2743 5.12973 10.2471 4.99336C10.22 4.85698 10.2339 4.71562 10.2872 4.58715C10.3404 4.45869 10.4305 4.34889 10.5461 4.27163C10.6617 4.19438 10.7976 4.15315 10.9367 4.15315C11.0757 4.15315 11.2117 4.19438 11.3273 4.27163C11.4429 4.34889 11.533 4.45869 11.5862 4.58715C11.6394 4.71562 11.6533 4.85698 11.6262 4.99336C11.5991 5.12973 11.5321 5.25501 11.4338 5.35333C11.3019 5.48499 11.1231 5.55893 10.9367 5.55893C10.7503 5.55893 10.5715 5.48499 10.4396 5.35333ZM8.6347 2.00741C8.74285 2.0074 8.84858 2.03947 8.93851 2.09955C9.02844 2.15963 9.09853 2.24503 9.13992 2.34495C9.18131 2.44488 9.19214 2.55483 9.17104 2.6609C9.14994 2.76698 9.09786 2.86441 9.02138 2.94089C8.95779 3.00448 8.87947 3.0514 8.79342 3.07751C8.70737 3.10361 8.6162 3.10809 8.528 3.09055C8.4398 3.07301 8.35729 3.03398 8.28778 2.97693C8.21826 2.91988 8.16389 2.84657 8.12948 2.76349C8.09507 2.68041 8.08167 2.59012 8.09049 2.50063C8.09931 2.41113 8.13006 2.3252 8.18002 2.25043C8.22998 2.17566 8.29761 2.11436 8.37692 2.07197C8.45623 2.02958 8.54477 2.00741 8.6347 2.00741ZM12.852 7.54482C12.7626 7.45537 12.7069 7.33767 12.6945 7.21178C12.6821 7.08588 12.7137 6.95958 12.784 6.8544C12.8543 6.74922 12.9589 6.67166 13.0799 6.63493C13.201 6.59821 13.331 6.6046 13.4479 6.65301C13.5648 6.70143 13.6612 6.78886 13.7209 6.90043C13.7805 7.012 13.7996 7.14079 13.7749 7.26486C13.7503 7.38894 13.6833 7.50061 13.5855 7.58086C13.4877 7.66112 13.3651 7.70498 13.2386 7.70498C13.0936 7.70491 12.9546 7.64731 12.852 7.54482ZM7.10977 1.52447C6.7247 1.90902 6.40254 2.35177 6.15509 2.83647L13.1636 9.84493C14.3703 9.22814 15.2888 8.16497 15.7238 6.88148L9.11855 0.276222C8.3616 0.531715 7.67407 0.958946 7.10977 1.52447ZM12.5206 6.44008C12.6626 6.29805 12.8435 6.20132 13.0405 6.16213C13.2375 6.12294 13.4417 6.14304 13.6273 6.2199C13.8128 6.29676 13.9714 6.42692 14.083 6.59392C14.1946 6.76092 14.2542 6.95727 14.2542 7.15812C14.2542 7.35898 14.1947 7.55532 14.0831 7.72233C13.9715 7.88934 13.8129 8.0195 13.6273 8.09637C13.4417 8.17323 13.2376 8.19335 13.0406 8.15417C12.8436 8.11498 12.6626 8.01826 12.5206 7.87624C12.4255 7.78238 12.35 7.67058 12.2985 7.54731C12.2469 7.42404 12.2204 7.29177 12.2204 7.15816C12.2204 7.02456 12.2469 6.89228 12.2984 6.76901C12.35 6.64574 12.4255 6.53394 12.5206 6.44008ZM10.1081 4.02764C10.272 3.86395 10.4806 3.75251 10.7078 3.7074C10.935 3.6623 11.1704 3.68555 11.3844 3.77423C11.5983 3.86291 11.7812 4.01303 11.9098 4.20561C12.0385 4.39819 12.1071 4.62459 12.1071 4.85619C12.1071 5.08779 12.0385 5.31418 11.9098 5.50677C11.7812 5.69935 11.5983 5.84947 11.3844 5.93814C11.1704 6.02682 10.935 6.05008 10.7078 6.00497C10.4806 5.95987 10.272 5.84843 10.1081 5.68474C9.88871 5.46481 9.76549 5.16684 9.76549 4.85619C9.76549 4.54554 9.88871 4.24756 10.1081 4.02764ZM9.65025 2.55422C9.65026 2.78918 9.5688 3.01687 9.41976 3.1985C9.27071 3.38013 9.06329 3.50446 8.83285 3.5503C8.60241 3.59615 8.3632 3.56068 8.15599 3.44992C7.94877 3.33917 7.78637 3.16 7.69645 2.94293C7.60653 2.72586 7.59465 2.48433 7.66285 2.25949C7.73105 2.03464 7.8751 1.84041 8.07046 1.70987C8.26582 1.57933 8.50039 1.52057 8.73422 1.54359C8.96804 1.56662 9.18665 1.67001 9.35279 1.83614C9.4474 1.93022 9.5224 2.04212 9.57346 2.16538C9.62452 2.28865 9.65062 2.4208 9.65025 2.55422ZM5.94916 3.29337L12.7066 10.0509C11.7622 10.4242 10.7292 10.5133 9.73474 10.3071C8.74032 10.1008 7.82789 9.60837 7.10977 8.89025C6.39164 8.17213 5.89917 7.2597 5.69296 6.26527C5.48675 5.27085 5.57581 4.23783 5.94916 3.29337ZM6.77835 9.22168C7.27158 9.71633 7.85207 10.1154 8.49052 10.3989L8.39767 10.4917C8.29193 10.5975 8.1664 10.6813 8.02824 10.7386C7.89009 10.7958 7.74201 10.8252 7.59247 10.8252C7.44293 10.8252 7.29486 10.7958 7.1567 10.7386C7.01854 10.6813 6.89301 10.5975 6.78727 10.4917L5.50828 9.21275C5.29505 8.99903 5.1753 8.70945 5.1753 8.40755C5.1753 8.10565 5.29505 7.81608 5.50828 7.60236L5.60293 7.50771C5.88563 8.14667 6.28415 8.72777 6.77835 9.22168ZM15.8693 6.36409L9.63592 0.130748C10.4946 -0.0654447 11.3891 -0.0404948 12.2355 0.203261C13.082 0.447017 13.8527 0.901605 14.4756 1.52445C15.0984 2.1473 15.553 2.91803 15.7967 3.76448C16.0405 4.61092 16.0655 5.50538 15.8693 6.36409Z" fill="#8B96A5"/>
</svg>
