<svg width="18" height="16" viewBox="0 0 18 16" fill="none" xmlns="http://www.w3.org/2000/svg">
<path d="M11.1939 10.0019C10.7545 10.0019 10.3916 10.3649 10.3916 10.8042V13.0774H7.90831V2.89589H10.3725V5.16905C10.3725 5.60841 10.7354 5.97135 11.1748 5.97135C11.6141 5.97135 11.9771 5.60841 11.9771 5.16905V2.0745C11.9771 1.63515 11.6141 1.27221 11.1748 1.27221H7.90831V0.813754C7.90831 0.565425 7.7937 0.336199 7.60267 0.183381C7.41165 0.0305636 7.16332 -0.0267431 6.9341 0.0114613L0.649475 1.29131C0.267431 1.36772 0 1.69245 0 2.0936V13.9179C0 14.2999 0.267431 14.6437 0.649475 14.7202L6.9341 15.9809C6.9914 16 7.04871 16 7.08692 16C7.27794 16 7.44986 15.9427 7.60267 15.809C7.7937 15.6562 7.90831 15.4269 7.90831 15.1786V14.7202H11.1748C11.6141 14.7202 11.9771 14.3572 11.9771 13.9179V10.8233C11.9962 10.3649 11.6332 10.0019 11.1939 10.0019ZM5.46323 8.85578C4.98567 8.85578 4.60363 8.47373 4.60363 7.99618C4.60363 7.51862 4.98567 7.13658 5.46323 7.13658C5.94078 7.13658 6.32283 7.51862 6.32283 7.99618C6.32283 8.47373 5.94078 8.85578 5.46323 8.85578Z" fill="#5264AE"/>
<path d="M16.9178 7.42277L14.5492 5.0541C14.2244 4.72936 13.7278 4.72936 13.403 5.0541C13.0783 5.37884 13.0783 5.87549 13.403 6.20023L14.3772 7.17444H9.10503C8.66568 7.17444 8.30273 7.53739 8.30273 7.97674C8.30273 8.41609 8.66568 8.77903 9.10503 8.77903H14.3772L13.403 9.75324C13.0783 10.078 13.0783 10.5746 13.403 10.8994C13.5558 11.0522 13.766 11.1286 13.9761 11.1286C14.1862 11.1286 14.3963 11.0522 14.5492 10.8994L16.9178 8.5689C17.2235 8.24417 17.2235 7.74751 16.9178 7.42277Z" fill="#5264AE"/>
</svg>
