<svg width="33" height="33" viewBox="0 0 33 33" fill="none" xmlns="http://www.w3.org/2000/svg">
<circle cx="16.5" cy="16.5" r="16.5" fill="white"/>
<path d="M26.1472 13.5207L20.3159 8.11192C20.2018 8.00628 20.0369 7.97244 19.889 8.0232L6.28257 12.7601C6.14742 12.8065 6.04591 12.9206 6.01207 13.0601C5.97823 13.1996 6.0162 13.3475 6.11771 13.4531L11.2982 18.8577C11.3784 18.9423 11.4884 18.9887 11.6025 18.9887C11.6448 18.9887 11.6912 18.9802 11.7335 18.9633L25.9949 14.2305C26.1344 14.1841 26.24 14.0657 26.2739 13.9221C26.3034 13.7744 26.2571 13.6222 26.1472 13.5207Z" fill="#8B96A5"/>
<path d="M17.3573 11.8076V12.2289H18V12.9593H17.3119C17.2313 13.3759 17.0347 13.6943 16.7221 13.9143C16.4096 14.1297 15.9534 14.2374 15.3535 14.2374V14.5183C15.3535 14.7008 15.3913 14.8436 15.4669 14.9466C15.5425 15.0449 15.6736 15.0941 15.8601 15.0941C16.0365 15.0941 16.1626 15.0449 16.2382 14.9466C16.3138 14.8483 16.3516 14.7008 16.3516 14.5042H17.5463C17.5261 14.9771 17.3749 15.3446 17.0926 15.6067C16.8154 15.8689 16.4146 16 15.8904 16C15.3258 16 14.8922 15.8642 14.5898 15.5927C14.2924 15.3165 14.1437 14.9045 14.1437 14.3567V13.4508C14.6679 13.4508 15.0536 13.4415 15.3006 13.4228C15.5526 13.3993 15.7391 13.3549 15.8601 13.2893C15.9861 13.2191 16.0693 13.1091 16.1096 12.9593H14V12.2289H16.1474V11.8076H14V11H18V11.8076H17.3573Z" fill="white"/>
<path d="M26.2738 18.9919C26.2399 19.1355 26.1343 19.2539 25.9907 19.3003L11.7335 23.978C11.6912 23.9947 11.6448 23.999 11.6025 23.999C11.4884 23.999 11.3784 23.9567 11.2982 23.8724L6.11771 18.5101C6.01619 18.4044 5.97823 18.2567 6.01207 18.1172C6.04591 17.9778 6.14722 17.8639 6.28257 17.8172L6.61228 17.7031L10.6858 21.9203C10.9225 22.1697 11.2479 22.309 11.6027 22.309C11.7506 22.309 11.8858 22.2879 12.0125 22.2413L25.3611 17.8637L26.147 18.5904C26.257 18.6919 26.3034 18.8439 26.2739 18.9919L26.2738 18.9919Z" fill="#8B96A5"/>
<path d="M25.3629 15.3308L12.0164 19.7595C11.8843 19.8082 11.742 19.8337 11.6025 19.8337C11.2575 19.8337 10.9233 19.6897 10.6854 19.4392L6.5966 15.1738L6.28257 15.2828C6.14742 15.3292 6.04591 15.4435 6.01207 15.5828C5.97823 15.7222 6.0162 15.87 6.11771 15.9756L11.2984 21.3379C11.3787 21.4225 11.4886 21.4646 11.6027 21.4646C11.645 21.4646 11.6914 21.4602 11.7337 21.4435L25.9909 16.7657C26.1345 16.7193 26.2401 16.6008 26.274 16.4572C26.3035 16.3093 26.2571 16.1572 26.1473 16.0557L25.3629 15.3308Z" fill="#8B96A5"/>
</svg>
