<svg width="14" height="16" viewBox="0 0 14 16" fill="none" xmlns="http://www.w3.org/2000/svg">
<path d="M0.257545 3.85251L2.92236 5.38528L9.61078 1.53886L6.93541 0L0.257545 3.85251Z" fill="#5264AE"/>
<path d="M3.62742 5.79053L3.80067 5.89022L10.4796 2.03843L10.3053 1.93945L3.62742 5.79053Z" fill="#5264AE"/>
<path d="M4.47398 6.2774L6.93565 7.66538L13.5903 3.82772L11.1529 2.42578L4.47398 6.2774Z" fill="#5264AE"/>
<path d="M6.93935 8.00104L4.31786 6.49315V8.67293L2.72942 7.75924V5.57946L0 4.0007V11.9579L6.97927 15.9996L13.8708 11.9803V3.93555L6.93935 8.00104ZM9.12039 12.7488V13.8016L8.28509 14.2887V13.236L7.90852 13.4234L8.69155 11.9357L9.48586 12.5398L9.12039 12.7488Z" fill="#5264AE"/>
</svg>
