<svg width="51" height="33" viewBox="0 0 51 33" fill="none" xmlns="http://www.w3.org/2000/svg">
<path d="M4 0.5H47C48.933 0.5 50.5 2.067 50.5 4V29C50.5 30.933 48.933 32.5 47 32.5H4C2.067 32.5 0.5 30.933 0.5 29V4C0.5 2.067 2.067 0.5 4 0.5Z" fill="#F6F6F6" stroke="#EEEEEE"/>
<path fill-rule="evenodd" clip-rule="evenodd" d="M22.6346 16.279C22.6346 13.5236 23.9076 11.0704 25.8897 9.48286C24.4281 8.31218 22.5818 7.61133 20.5724 7.61133C15.838 7.61133 12 11.492 12 16.279C12 21.066 15.838 24.9467 20.5724 24.9467C22.5818 24.9467 24.4281 24.2458 25.8897 23.0752C23.9076 21.4876 22.6346 19.0344 22.6346 16.279" fill="#EB001B"/>
<path fill-rule="evenodd" clip-rule="evenodd" d="M22.6348 16.2786C22.6348 19.0339 23.9078 21.4871 25.8899 23.0747C27.872 21.4871 29.145 19.0339 29.145 16.2786C29.145 13.5232 27.872 11.07 25.8899 9.48242C23.9078 11.07 22.6348 13.5232 22.6348 16.2786" fill="#FF5E00"/>
<path fill-rule="evenodd" clip-rule="evenodd" d="M31.2069 7.61133C29.1975 7.61133 27.3511 8.31218 25.8896 9.48286C27.8717 11.0706 29.1447 13.5236 29.1447 16.279C29.1447 19.0344 27.8717 21.4876 25.8896 23.0752C27.3511 24.2458 29.1975 24.9467 31.2069 24.9467C35.9412 24.9467 39.7793 21.066 39.7793 16.279C39.7793 11.492 35.9412 7.61133 31.2069 7.61133" fill="#F79E1C"/>
</svg>
