<svg width="20" height="20" viewBox="0 0 20 20" fill="none" xmlns="http://www.w3.org/2000/svg">
<path d="M9.79664 0.0292969C4.38662 0.0292969 0 4.41396 0 9.82156C0 13.8303 2.41417 17.2751 5.86486 18.792C5.83862 18.11 5.86049 17.2882 6.03543 16.545C6.22349 15.7494 7.295 11.2073 7.295 11.2073C7.295 11.2073 6.9801 10.5822 6.9801 9.65982C6.9801 8.20846 7.81982 7.12432 8.86946 7.12432C9.76165 7.12432 10.1903 7.79316 10.1903 8.59316C10.1903 9.48933 9.61732 10.827 9.3243 12.0685C9.07938 13.109 9.84475 13.9527 10.8725 13.9527C12.7269 13.9527 13.9777 11.5702 13.9777 8.74616C13.9777 6.59973 12.5301 4.99537 9.9016 4.99537C6.932 4.99537 5.07763 7.21175 5.07763 9.68604C5.07763 10.5385 5.3313 11.1418 5.72491 11.6052C5.90422 11.8194 5.93046 11.9068 5.86486 12.1516C5.81675 12.3308 5.71179 12.7636 5.66368 12.9385C5.59808 13.1877 5.3969 13.2751 5.17385 13.1833C3.80494 12.6237 3.16641 11.1287 3.16641 9.44124C3.16641 6.66093 5.51498 3.32544 10.1684 3.32544C13.9077 3.32544 16.37 6.03143 16.37 8.93414C16.37 12.7767 14.2314 15.6445 11.0824 15.6445C10.0241 15.6445 9.03128 15.0718 8.69014 14.4248C8.69014 14.4248 8.12159 16.6805 7.99913 17.1177C7.79357 17.874 7.38684 18.6259 7.01509 19.216C7.91686 19.4819 8.85208 19.6174 9.79226 19.6182C15.2023 19.6182 19.5889 15.2335 19.5889 9.82593C19.5889 4.41833 15.2067 0.0292969 9.79664 0.0292969Z" fill="#5264AE"/>
</svg>
