<svg width="197" height="54" viewBox="0 0 197 54" fill="none" xmlns="http://www.w3.org/2000/svg">
<path d="M192.323 1.67437L183.477 32.3211L183.198 32.2863L152.976 28.6145C152.976 28.6145 166.973 25.704 168.428 24.0226C169.799 22.439 184.334 3.66035 188.586 1.65262C188.847 1.52863 189.069 1.46989 189.247 1.48077C192.323 1.67436 192.323 1.67437 192.323 1.67437Z" fill="#739AF0"/>
<path d="M183.198 32.287L152.976 28.6152C152.976 28.6152 166.973 25.7047 168.428 24.0233C169.799 22.4397 184.334 3.66105 188.586 1.65332C184.823 7.11965 176.098 20.2558 176.468 24.0755C176.82 27.7146 181.075 30.9079 183.198 32.287Z" fill="#2B478B"/>
<path d="M186.462 41.5162C185.431 41.8686 182.347 42.841 178.116 44.0721C165.952 47.609 144.317 53.2885 134.77 52.5881C126.207 51.9595 80.912 48.5009 49.5801 45.7536C57.1607 32.439 66.6142 25.0846 75.2651 21.0518C111.767 24.0427 159.505 28.0842 165.58 29.2567C175.571 31.1883 188.827 32.7588 188.827 32.7588C188.827 32.7588 188.916 33.1634 189.003 33.8073C189.284 35.8955 189.521 40.4634 186.462 41.5162Z" fill="#E58638"/>
<path d="M189.158 36.0237C189.156 36.0977 189.156 36.1782 189.153 36.2543C189.127 37.9162 188.788 39.7695 187.613 40.8375C187.574 40.8745 187.533 40.9093 187.489 40.9441C187.407 41.0115 187.317 41.0789 187.228 41.1377C187.228 41.1377 187.228 41.1377 187.226 41.1377V41.1398C187.183 41.1681 187.135 41.1964 187.085 41.2269C187.039 41.253 186.991 41.2812 186.939 41.3073C186.939 41.3073 186.939 41.3073 186.937 41.3073C186.889 41.3334 186.839 41.3574 186.785 41.3813C186.732 41.4052 186.68 41.4291 186.624 41.4509C186.571 41.4727 186.515 41.4922 186.458 41.5118C186.441 41.5183 186.426 41.5227 186.408 41.527V41.5292C186.391 41.5336 186.373 41.5401 186.356 41.5466C186.339 41.5531 186.319 41.5575 186.302 41.564V41.5662C186.282 41.5705 186.263 41.5771 186.243 41.5836V41.5858C186.223 41.5901 186.202 41.5966 186.182 41.6053C186.16 41.6119 186.139 41.6184 186.119 41.6249C186.119 41.6249 186.119 41.6249 186.117 41.6249V41.6271C186.095 41.6336 186.073 41.6401 186.052 41.6489C186.028 41.6554 186.006 41.6641 185.982 41.6706H185.98C185.956 41.6793 185.934 41.6858 185.908 41.6945C185.884 41.7032 185.858 41.7098 185.834 41.7185C185.782 41.7359 185.727 41.7533 185.673 41.7707H185.671C185.645 41.7794 185.616 41.7881 185.59 41.7968H185.588V41.7989C185.56 41.8076 185.532 41.8163 185.503 41.825C185.482 41.8316 185.462 41.8381 185.44 41.8446C185.212 41.9186 184.957 42.0012 184.679 42.0882C184.627 42.1035 184.577 42.1187 184.52 42.1361C183.789 42.3667 182.902 42.6407 181.882 42.9475C181.777 42.9779 181.671 43.0105 181.562 43.0432C181.384 43.0975 181.201 43.1519 181.016 43.2085C180.977 43.2194 180.938 43.2324 180.894 43.2433C180.84 43.2607 180.779 43.2781 180.722 43.2955C180.666 43.3129 180.609 43.3281 180.548 43.3455C180.487 43.3629 180.431 43.3803 180.372 43.3977C180.315 43.4151 180.255 43.4325 180.194 43.4499C180.135 43.4673 180.076 43.4847 180.015 43.5021C179.954 43.5195 179.893 43.5391 179.833 43.5565C179.772 43.5739 179.709 43.5913 179.65 43.6087C179.648 43.6087 179.648 43.6109 179.648 43.6109C179.587 43.6283 179.524 43.6457 179.463 43.6631C179.419 43.6762 179.376 43.6892 179.328 43.7044C179.311 43.7066 179.293 43.7131 179.276 43.7197C179.213 43.7371 179.15 43.7545 179.086 43.7719C178.771 43.8654 178.447 43.9611 178.116 44.0546C177.927 44.1112 177.733 44.1656 177.538 44.2243C177.37 44.2722 177.203 44.32 177.033 44.3701C176.907 44.407 176.779 44.444 176.648 44.481C176.146 44.6246 175.63 44.7703 175.101 44.9204C174.993 44.9508 174.888 44.9791 174.784 45.0096C174.599 45.0618 174.414 45.1118 174.229 45.1662C174.062 45.214 173.894 45.2597 173.722 45.3098C173.533 45.362 173.344 45.4142 173.155 45.4685C166.833 47.2239 159.17 49.1903 152.064 50.6195C151.816 50.6695 151.566 50.7173 151.318 50.7696C151.194 50.7935 151.072 50.8174 150.948 50.8413C150.7 50.8892 150.454 50.9349 150.208 50.9827C149.473 51.1241 148.744 51.2568 148.026 51.383C147.787 51.4243 147.55 51.4656 147.313 51.507C147.193 51.5265 147.076 51.5461 146.958 51.5657C146.724 51.6048 146.489 51.6418 146.256 51.6831C146.023 51.7201 145.79 51.7549 145.56 51.7897C145.331 51.8245 145.103 51.8593 144.875 51.892C144.648 51.9268 144.42 51.9594 144.198 51.9898C143.972 52.0203 143.75 52.0508 143.53 52.0812C143.308 52.1095 143.089 52.1378 142.871 52.166C142.765 52.1791 142.654 52.1921 142.547 52.2052C142.116 52.2574 141.69 52.3053 141.277 52.3509C141.172 52.3618 141.068 52.3727 140.966 52.3814C140.759 52.401 140.557 52.4205 140.352 52.4401C139.948 52.4749 139.554 52.5075 139.167 52.5315C138.878 52.5532 138.593 52.5685 138.312 52.5815C138.125 52.5924 137.94 52.5989 137.759 52.6054C137.488 52.6163 137.22 52.6228 136.961 52.625C136.613 52.6315 136.274 52.6294 135.95 52.6228C135.784 52.6207 135.626 52.6141 135.467 52.6076C135.388 52.6054 135.31 52.6033 135.232 52.5967C135.075 52.5902 134.925 52.5815 134.775 52.5706C134.723 52.5663 134.666 52.5619 134.608 52.5576C134.594 52.5576 134.581 52.5554 134.568 52.5554C134.534 52.5511 134.497 52.5489 134.46 52.5467C134.318 52.5358 134.172 52.5271 134.014 52.5141C133.972 52.5119 133.931 52.5075 133.885 52.5054C133.833 52.501 133.781 52.4967 133.724 52.4923C133.644 52.488 133.557 52.4815 133.472 52.4749C133.426 52.4706 133.381 52.4684 133.333 52.464C133.287 52.4619 133.239 52.4575 133.191 52.4532C133.096 52.4466 132.998 52.4401 132.9 52.4314C132.802 52.4249 132.7 52.4162 132.598 52.4097C132.545 52.4053 132.493 52.4031 132.439 52.3988C132.308 52.3879 132.178 52.3792 132.041 52.3683C131.978 52.364 131.912 52.3596 131.849 52.3531C131.715 52.3444 131.577 52.3335 131.436 52.3227C131.377 52.3183 131.319 52.3161 131.256 52.3096C131.082 52.2966 130.907 52.2835 130.725 52.2705C130.222 52.2335 129.687 52.1922 129.119 52.1486C129.052 52.1421 128.98 52.1378 128.908 52.1312C128.767 52.1225 128.626 52.1117 128.478 52.1008C128.262 52.0834 128.041 52.0682 127.814 52.0508C127.723 52.0421 127.629 52.0355 127.54 52.029C127.327 52.0138 127.11 51.9964 126.892 51.9812C126.814 51.9746 126.731 51.9681 126.653 51.9637C126.503 51.9507 126.353 51.9398 126.198 51.9289L125.698 51.8898C125.609 51.8833 125.519 51.8767 125.43 51.8702C125.348 51.8637 125.263 51.8572 125.18 51.8506C125.045 51.8419 124.913 51.8311 124.776 51.8202C123.997 51.7615 123.185 51.6984 122.341 51.6353C122.217 51.6244 122.098 51.6157 121.972 51.607C121.785 51.5918 121.595 51.5766 121.406 51.5635C120.967 51.5287 120.516 51.4961 120.062 51.4613C120.027 51.4569 119.992 51.4547 119.957 51.4526C119.562 51.4221 119.163 51.3917 118.759 51.3612C118.739 51.359 118.72 51.3569 118.702 51.3569C116.29 51.1698 113.688 50.9675 110.943 50.7543C110.804 50.7434 110.667 50.7326 110.526 50.7217C109.971 50.6804 109.408 50.6369 108.842 50.5912C108.485 50.5629 108.129 50.5346 107.77 50.5063C107.75 50.5063 107.731 50.5042 107.711 50.502C107.302 50.4715 106.889 50.4389 106.475 50.4063C106.425 50.4041 106.375 50.3976 106.321 50.3954C105.594 50.3389 104.857 50.2801 104.111 50.2214C103.92 50.2062 103.728 50.1909 103.539 50.1757C103.48 50.1714 103.424 50.167 103.363 50.1627C102.712 50.1126 102.053 50.0604 101.392 50.006C101.103 49.9843 100.815 49.9625 100.524 49.9386C100.33 49.9234 100.139 49.9082 99.9476 49.8951C99.556 49.8625 99.1667 49.832 98.7729 49.8016C98.1835 49.7559 97.594 49.7102 97.0002 49.6602C96.948 49.658 96.8957 49.6515 96.8413 49.6493C96.5955 49.6276 96.3519 49.6102 96.1083 49.5906C96.0909 49.5884 96.0735 49.5884 96.0561 49.5862C95.3274 49.5297 94.5965 49.4688 93.8591 49.4122C93.8395 49.41 93.82 49.4079 93.7982 49.4057C93.7221 49.3992 93.646 49.3948 93.5698 49.3883C93.137 49.3557 92.7019 49.3209 92.2669 49.286C91.9406 49.2599 91.61 49.236 91.2815 49.2077C91.077 49.1925 90.8725 49.1773 90.6681 49.1599C89.8132 49.0946 88.9584 49.0228 88.097 48.9554L88.0752 48.9532C86.6505 48.8358 85.217 48.7227 83.7748 48.6052C83.5769 48.59 83.3811 48.5748 83.1832 48.5574L83.1418 48.5552C82.5088 48.5051 81.8802 48.4529 81.245 48.4007C81.0493 48.3855 80.8557 48.3703 80.6599 48.3529C80.1161 48.3094 79.5701 48.2659 79.0263 48.2202C77.9191 48.1288 76.8098 48.0375 75.7047 47.9483C75.0043 47.8917 74.3039 47.8352 73.6056 47.7764C73.1663 47.7395 72.7268 47.7025 72.2896 47.6677C71.2412 47.5828 70.1993 47.4958 69.1573 47.411C69.1073 47.4067 69.0594 47.4023 69.0072 47.398C68.3547 47.3436 67.6999 47.2914 67.0517 47.2348C66.1251 47.1587 65.1984 47.0782 64.2783 47.0021C63.9085 46.9716 63.5409 46.9412 63.1733 46.9107C63.0602 46.902 62.9492 46.8911 62.8383 46.8824C62.0944 46.8215 61.357 46.7563 60.6196 46.6954C60.5108 46.6867 60.402 46.678 60.2955 46.6693C59.7908 46.6258 59.2883 46.5844 58.7859 46.5387C56.6628 46.3582 54.5768 46.1798 52.5386 46.0036C52.2928 45.9841 52.0492 45.9623 51.8034 45.9406C51.6533 45.9275 51.5054 45.9145 51.3575 45.9036C51.1574 45.884 50.9594 45.8688 50.7593 45.8514C50.3634 45.8166 49.9697 45.7839 49.5782 45.7491C41.9823 45.0835 35.2065 44.4571 29.9751 43.9263C29.4421 43.8741 28.9223 43.8219 28.4241 43.7675C27.1821 43.637 26.0444 43.5152 25.0199 43.3955C22.1225 43.0693 20.1474 42.793 19.3643 42.5972C15.1335 41.5292 8.07493 38.7232 3.74842 35.8084C1.14033 34.0486 -0.47368 32.2519 0.124506 30.7684C0.885833 28.8825 2.54118 27.7427 4.2422 26.9052C5.71482 26.1765 7.22225 25.6762 8.20762 25.1041C8.26418 25.0715 8.31856 25.0389 8.37512 25.0062C8.55784 24.8931 8.71663 24.7735 8.85367 24.6495C8.87542 24.6277 8.89718 24.6103 8.92328 24.5842C9.30829 24.2362 9.9391 23.6511 10.8527 22.9659C11.4618 22.5091 12.1926 22.0088 13.0605 21.4998C13.0671 21.4954 13.0692 21.4954 13.0736 21.4911C16.8585 19.2745 23.1905 16.9296 32.8333 17.6257C32.8333 17.6257 51.7077 19.1157 75.2566 21.0473C75.2588 21.0473 75.2588 21.0473 75.2588 21.0473C77.6059 21.2387 79.9986 21.4367 82.424 21.6368C82.4262 21.6368 82.4262 21.6368 82.4262 21.6368C83.2332 21.7021 84.0467 21.7695 84.8624 21.8369C86.0849 21.937 87.3161 22.0414 88.5494 22.1415C88.5494 22.1415 88.5494 22.1415 88.5516 22.1415C90.6093 22.3133 92.6802 22.483 94.7597 22.657C95.1751 22.6918 95.5928 22.7266 96.0082 22.7592C96.8414 22.8288 97.6723 22.9006 98.5054 22.9681C100.174 23.1094 101.84 23.2487 103.508 23.39C104.339 23.4597 105.168 23.5314 105.999 23.5989C108.964 23.849 111.911 24.0992 114.817 24.3493H114.83C123.225 25.0693 131.277 25.7719 138.419 26.4201C138.421 26.4201 138.421 26.4201 138.421 26.4201C138.799 26.4528 139.173 26.4876 139.545 26.5202C143.737 26.903 147.596 27.2619 150.996 27.5926C152.623 27.7535 154.148 27.9036 155.553 28.0472C160.643 28.5649 164.193 28.9825 165.578 29.2501C169.178 29.9462 173.2 30.5966 176.872 31.1404C177.174 31.186 177.477 31.2295 177.773 31.273C177.788 31.2774 177.803 31.2774 177.818 31.2796C178.273 31.347 178.721 31.4123 179.163 31.4753C179.176 31.4775 179.189 31.4797 179.202 31.4819C179.711 31.5537 180.209 31.6254 180.694 31.6929C181.403 31.7907 182.084 31.8843 182.728 31.9713C183.006 32.0083 183.276 32.0453 183.541 32.0801C186.713 32.502 188.823 32.7522 188.823 32.7522C188.823 32.7522 188.836 32.8087 188.855 32.9153C188.858 32.924 188.86 32.9327 188.862 32.9414C188.866 32.9697 188.873 33.0002 188.879 33.035C188.89 33.1024 188.905 33.1829 188.918 33.2721C188.938 33.3895 188.96 33.5266 188.979 33.681C188.979 33.681 188.979 33.6832 188.982 33.6832C188.986 33.7202 188.992 33.7593 188.997 33.8006C189.014 33.929 189.032 34.0639 189.047 34.2118C189.058 34.3118 189.069 34.4206 189.079 34.5272C189.084 34.5859 189.09 34.649 189.095 34.7099C189.101 34.7773 189.106 34.8469 189.11 34.9144C189.116 35.0122 189.123 35.1145 189.129 35.2167C189.132 35.258 189.134 35.2994 189.134 35.3429C189.138 35.4147 189.14 35.4908 189.143 35.5626C189.145 35.6017 189.145 35.6387 189.145 35.6757C189.147 35.7496 189.149 35.828 189.149 35.9019C189.156 35.9432 189.156 35.9846 189.158 36.0237Z" fill="#CBD9FF"/>
<path d="M186.463 41.5134C185.432 41.868 182.347 42.8382 178.119 44.0693C176.705 38.1571 172.154 35.6882 172.154 35.6882L189.004 33.8066C189.284 35.8927 189.521 40.4628 186.463 41.5134Z" fill="#374850"/>
<path d="M96.3734 33.712C95.823 33.6642 95.4184 33.1204 95.475 32.5048L95.5816 31.3171C95.6381 30.7015 96.1341 30.2338 96.6844 30.2817C97.2347 30.3295 97.6393 30.8733 97.5828 31.4889L97.4762 32.6766C97.4196 33.2944 96.9237 33.7599 96.3734 33.712Z" fill="#2B478B"/>
<path d="M91.2142 33.2657C90.6639 33.2179 90.2593 32.6741 90.3158 32.0585L90.4224 30.8708C90.479 30.2552 90.9749 29.7875 91.5253 29.8354C92.0756 29.8833 92.4802 30.4271 92.4236 31.0426L92.317 32.2303C92.2583 32.8481 91.7623 33.3136 91.2142 33.2657Z" fill="#2B478B"/>
<path d="M86.0521 32.8224C85.5018 32.7745 85.0972 32.2307 85.1537 31.6151L85.2603 30.4274C85.3169 29.8119 85.8128 29.3442 86.3632 29.392C86.9135 29.4399 87.3181 29.9837 87.2615 30.5993L87.1549 31.787C87.0984 32.4025 86.6024 32.868 86.0521 32.8224Z" fill="#2B478B"/>
<path d="M80.8919 32.3761C80.3416 32.3282 79.937 31.7844 79.9936 31.1688L80.1001 29.9812C80.1567 29.3656 80.6527 28.8979 81.203 28.9458C81.7533 28.9936 82.1579 29.5374 82.1014 30.153L81.9948 31.3407C81.9382 31.9563 81.4423 32.4239 80.8919 32.3761Z" fill="#2B478B"/>
<path d="M75.7298 31.9298C75.1795 31.8819 74.7749 31.3381 74.8314 30.7225L74.938 29.5349C74.9946 28.9193 75.4905 28.4516 76.0409 28.4995C76.5912 28.5473 76.9958 29.0911 76.9392 29.7067L76.8326 30.8944C76.7761 31.5121 76.2801 31.9776 75.7298 31.9298Z" fill="#2B478B"/>
<path d="M70.5697 31.4845C70.0193 31.4366 69.6147 30.8928 69.6713 30.2772L69.7779 29.0896C69.8344 28.474 70.3304 28.0063 70.8807 28.0542C71.431 28.102 71.8356 28.6458 71.7791 29.2614L71.6725 30.4491C71.6159 31.0668 71.12 31.5323 70.5697 31.4845Z" fill="#2B478B"/>
<path d="M65.4085 31.0382C64.8582 30.9903 64.4536 30.4465 64.5102 29.8309L64.6168 28.6433C64.6733 28.0277 65.1693 27.56 65.7196 27.6079C66.2699 27.6557 66.6745 28.1995 66.618 28.8151L66.5114 30.0028C66.4548 30.6205 65.9589 31.086 65.4085 31.0382Z" fill="#2B478B"/>
<path d="M60.2484 30.5919C59.698 30.544 59.2934 30.0002 59.35 29.3847L59.4566 28.197C59.5131 27.5814 60.0091 27.1137 60.5594 27.1616C61.1098 27.2094 61.5144 27.7532 61.4578 28.3688L61.3512 29.5565C61.2947 30.1743 60.7987 30.6398 60.2484 30.5919Z" fill="#2B478B"/>
<path d="M55.0882 30.1466C54.5379 30.0987 54.1333 29.5549 54.1898 28.9393L54.2964 27.7517C54.353 27.1361 54.849 26.6684 55.3993 26.7163C55.9496 26.7641 56.3542 27.3079 56.2977 27.9235L56.191 29.1112C56.1345 29.7289 55.6385 30.1944 55.0882 30.1466Z" fill="#2B478B"/>
<path d="M50.0306 29.711C49.4803 29.6632 49.0757 29.1194 49.1322 28.5038L49.2388 27.3161C49.2954 26.7005 49.7913 26.2329 50.3417 26.2807C50.892 26.3286 51.2966 26.8724 51.24 27.488L51.1334 28.6756C51.0769 29.2912 50.5809 29.7567 50.0306 29.711Z" fill="#2B478B"/>
<path d="M44.8685 29.2657C44.3182 29.2179 43.9136 28.6741 43.9701 28.0585L44.0767 26.8708C44.1333 26.2552 44.6292 25.7875 45.1795 25.8354C45.7299 25.8833 46.1345 26.4271 46.0779 27.0426L45.9713 28.2303C45.9148 28.8459 45.4188 29.3114 44.8685 29.2657Z" fill="#2B478B"/>
<path d="M39.7074 28.8194C39.157 28.7716 38.7524 28.2278 38.809 27.6122L38.9156 26.4245C38.9721 25.8089 39.4681 25.3413 40.0184 25.3891C40.5687 25.437 40.9733 25.9808 40.9168 26.5964L40.8102 27.784C40.7536 28.4018 40.2577 28.8673 39.7074 28.8194Z" fill="#2B478B"/>
<path d="M33.3138 28.2062C32.7635 28.1583 32.3589 27.6145 32.4154 26.9989L32.522 25.8112C32.5786 25.1957 33.0745 24.728 33.6248 24.7758C34.1752 24.8237 34.5798 25.3675 34.5232 25.9831L34.4166 27.1708C34.3601 27.7885 33.8641 28.254 33.3138 28.2062Z" fill="#2B478B"/>
<path d="M152.681 39.1749C152.131 39.1271 151.726 38.5833 151.783 37.9677L151.891 36.78C151.948 36.1644 152.444 35.6967 152.994 35.7446C153.545 35.7924 153.949 36.3362 153.893 36.9518L153.786 38.1395C153.727 38.7573 153.231 39.2228 152.681 39.1749Z" fill="#2B478B"/>
<path d="M147.522 38.7306C146.971 38.6827 146.567 38.1389 146.623 37.5233L146.73 36.3357C146.787 35.7201 147.283 35.2524 147.833 35.3002C148.383 35.3481 148.788 35.8919 148.731 36.5075L148.625 37.6952C148.568 38.3129 148.072 38.7784 147.522 38.7306Z" fill="#2B478B"/>
<path d="M142.36 38.2862C141.809 38.2384 141.405 37.6946 141.461 37.079L141.568 35.8913C141.624 35.2757 142.12 34.8081 142.671 34.8559C143.221 34.9038 143.626 35.4476 143.569 36.0632L143.463 37.2508C143.406 37.8664 142.91 38.3319 142.36 38.2862Z" fill="#2B478B"/>
<path d="M13.9973 21.556L10.4799 24.8754L8.38086 25.0125C8.56358 24.8972 8.72453 24.7797 8.8594 24.6557C8.88332 24.634 8.90508 24.6144 8.93118 24.5905C9.3162 24.2403 9.94919 23.6573 10.8606 22.9721C11.4697 22.5153 12.2005 22.015 13.0685 21.5038C13.0728 21.5017 13.0772 21.4995 13.0815 21.4951L13.9973 21.556Z" fill="#2B478B"/>
<path d="M14.7638 21.6758L11.3291 25.0278L15.2293 25.8544L16.4604 22.0303L14.7638 21.6758Z" fill="#2B478B"/>
<path d="M16.8289 22.1475L15.9219 25.7409L18.8127 24.9187L18.9998 22.415L16.8289 22.1475Z" fill="#2B478B"/>
<path d="M87.2086 49.6891C88.7247 49.0953 89.1228 46.4589 87.8677 45.3256C86.6147 44.1945 84.8985 43.0568 82.9669 42.9176C78.9993 42.6305 80.609 50.7093 81.925 50.8768C82.7015 50.9768 85.1922 50.4787 87.2086 49.6891Z" fill="#2B478B"/>
<path d="M171.814 34.0859C171.973 33.8705 186.743 29.0024 196.397 31.1188L187.1 36.9724L172.154 35.6868C172.154 35.689 171.018 35.1604 171.814 34.0859Z" fill="#355DAF"/>
<path d="M164.682 0C164.682 0 154.796 21.8501 152.914 25.1651C151.032 28.4823 146.917 30.5988 146.917 30.5988L146.893 30.6075L120.697 41.2509C120.697 41.2509 88.0228 38.6733 80.912 37.888C80.912 37.888 80.912 37.888 80.9098 37.888C80.2659 37.8162 79.8309 37.7575 79.6504 37.7205C77.4904 37.2594 76.4789 36.2588 76.8943 35.4692C77.3098 34.6817 127.544 28.6564 133.106 28.0364C133.159 28.0299 133.213 28.0234 133.265 28.019C138.679 27.3817 139.182 25.5393 139.182 25.5393L159.907 1.78368C160.173 1.34429 160.608 1.01366 161.108 0.765682C162.602 0.0261069 164.682 0 164.682 0Z" fill="#D7E2FF"/>
<path d="M161.112 0.767578C155.535 7.53687 140.108 26.2068 138.642 27.4771C137.067 28.8453 91.988 36.091 80.9139 37.8899C80.9139 37.8899 80.9139 37.8899 80.9117 37.8899C80.2679 37.8181 79.8328 37.7594 79.6523 37.7224C77.4923 37.2613 76.4808 36.2607 76.8963 35.4711C77.3118 34.6836 127.546 28.6583 133.108 28.0383C138.67 27.4184 139.184 25.5412 139.184 25.5412L159.909 1.78558C160.175 1.34836 160.61 1.01773 161.112 0.767578Z" fill="#739AF0"/>
<path d="M164.681 0C164.681 0 154.795 21.8501 152.913 25.1651C151.032 28.4823 146.916 30.5988 146.916 30.5988L146.892 30.6075C141.202 30.4705 136.406 29.1588 133.265 28.0212C138.679 27.3839 139.181 25.5415 139.181 25.5415L159.907 1.78586C160.172 1.34647 160.607 1.01583 161.107 0.767859C162.602 0.026109 164.681 0 164.681 0Z" fill="#D7E2FF"/>
<path d="M83.8667 41.0108L82.8726 52.0326C82.8726 52.0326 78.6613 53.5487 72.0748 53.1963C68.0441 52.981 65.3577 52.0978 63.8807 51.4453C62.9454 51.032 62.4951 50.7101 62.4951 50.7101L63.537 39.1575C63.909 38.8421 64.4245 38.6115 65.0532 38.4527C70.2585 37.1171 83.0575 40.5692 83.0575 40.5692L83.8667 41.0108Z" fill="#C0D3FB"/>
<path d="M65.0541 38.4512L63.8817 51.4459C62.9464 51.0326 62.4961 50.7107 62.4961 50.7107L63.538 39.1581C63.9078 38.8405 64.4255 38.61 65.0541 38.4512Z" fill="#355DAF"/>
</svg>
