<svg width="16" height="16" viewBox="0 0 16 16" fill="none" xmlns="http://www.w3.org/2000/svg">
<path d="M10.214 7.66837C10.1865 8.67457 9.93766 10.7239 9.93766 10.7239L11.485 10.8345C11.1813 6.73197 13.9951 2.88489 14.0155 2.85704C12.6936 1.31234 10.7885 0.283588 8.64032 0.111328C10.4632 4.27855 10.214 7.66837 10.214 7.66837Z" fill="#8B96A5"/>
<path d="M11.5749 10.924L9.845 10.8005L9.85544 10.7141C9.85793 10.6935 10.1041 8.65692 10.1313 7.66614C10.134 7.62867 10.3573 4.243 8.56457 0.144576L8.50903 0.0175781L8.64714 0.0286862C10.764 0.198459 12.693 1.18377 14.0787 2.80308L14.1215 2.85298L14.0827 2.90587C13.9676 3.06288 11.2695 6.79705 11.5681 10.8282L11.5749 10.924ZM10.0304 10.6474L11.3958 10.7449C11.1553 6.90266 13.5593 3.35666 13.9101 2.8616C12.5867 1.33995 10.7688 0.401225 8.77182 0.206085C10.5219 4.28677 10.2993 7.64061 10.2968 7.67426C10.2729 8.55197 10.0778 10.2462 10.0304 10.6474Z" fill="#8B96A5"/>
<path d="M14.0734 2.92383C14.3007 3.20584 14.7474 3.86653 14.7902 3.9297C14.5773 3.5754 14.3375 3.23933 14.0734 2.92383Z" fill="#8B96A5"/>
<path d="M14.7215 3.97661C14.6721 3.90332 14.2314 3.25225 14.0089 2.97637L14.1369 2.87109C14.4038 3.18991 14.6475 3.53195 14.8613 3.88757L14.7215 3.97661Z" fill="#8B96A5"/>
<path d="M15.9161 8.00027C15.9161 6.51476 15.5061 5.12541 14.7943 3.9375C12.0529 7.07017 12.4797 10.8072 12.4797 10.8072C14.8711 10.6697 15.5583 10.3385 15.5656 10.335C15.7932 9.59687 15.9161 8.81299 15.9161 8.00027Z" fill="#8B96A5"/>
<path d="M12.4064 10.8942L12.3976 10.8162C12.3933 10.7784 11.9982 7.00664 14.7321 3.88259L14.8072 3.79688L14.8657 3.89453C15.6073 5.13201 15.9993 6.5517 15.9993 7.99991C15.9993 8.80301 15.8802 9.59683 15.6453 10.359L15.6347 10.3936L15.6019 10.4094C15.5727 10.4233 14.8598 10.7531 12.4849 10.8895L12.4064 10.8942ZM14.7817 4.07872C12.3918 6.88014 12.5163 10.1733 12.5556 10.7193C14.589 10.5969 15.3402 10.3374 15.4977 10.2736C15.7204 9.53831 15.8333 8.77367 15.8333 7.99974C15.8333 6.62018 15.4701 5.26697 14.7817 4.07872Z" fill="#8B96A5"/>
<path d="M13.1626 14L12.3986 14.5836C12.6655 14.4047 12.9199 14.2091 13.1626 14Z" fill="#8B96A5"/>
<path d="M12.4448 14.652L12.3483 14.5172L13.1123 13.9336L13.2167 14.0622C12.9657 14.2786 12.7059 14.4771 12.4448 14.652Z" fill="#8B96A5"/>
<path d="M8.90681 10.641C9.20209 10.0885 9.2195 7.51252 9.2195 7.51252C9.19231 2.63686 7.39461 0.160237 7.35863 0.111328C5.6115 0.251424 4.02518 0.957871 2.78223 2.0483C8.77683 5.88924 7.42312 10.3095 7.42312 10.3095L8.90681 10.641Z" fill="#8B96A5"/>
<path d="M8.95003 10.736L7.31779 10.3711L7.34382 10.2855C7.35708 10.2419 8.60451 5.87774 2.73741 2.11837L2.64456 2.05902L2.72746 1.9864C4.02944 0.84408 5.62852 0.16731 7.35178 0.029038L7.3977 0.0253906L7.42522 0.0625282C7.50066 0.165155 9.27498 2.63034 9.30217 7.5123C9.30151 7.6194 9.28128 10.1163 8.9797 10.6805L8.95003 10.736ZM7.5242 10.2474L8.85967 10.5458C9.11715 9.91498 9.13621 7.537 9.13638 7.51213C9.11085 2.9485 7.55139 0.533714 7.31828 0.198148C5.68522 0.338741 4.16754 0.974227 2.91994 2.03895C8.33792 5.56124 7.6706 9.60826 7.5242 10.2474Z" fill="#8B96A5"/>
<path d="M12.3925 14.586C11.919 14.1369 11.5405 11.8016 11.5405 11.8016L9.82717 11.7188C9.06899 14.96 8.43367 15.8175 8.34613 15.9079C9.8396 15.8435 11.2255 15.366 12.3925 14.586Z" fill="#8B96A5"/>
<path d="M8.14215 15.9998L8.28672 15.8504C8.29319 15.8438 8.94111 15.1435 9.74654 11.7001L9.76229 11.6328L11.6117 11.7223L11.6225 11.7887C11.7264 12.4306 12.0779 14.1734 12.4496 14.5261L12.5249 14.5975L12.4385 14.6552C11.2254 15.4661 9.81153 15.928 8.34972 15.991L8.14215 15.9998ZM9.8921 11.8051C9.27353 14.4281 8.73553 15.4686 8.51386 15.816C9.85281 15.7287 11.145 15.2998 12.2673 14.5693C11.8523 14.026 11.5333 12.2547 11.4696 11.8813L9.8921 11.8051Z" fill="#8B96A5"/>
<path d="M0.19873 6.65546L0.874174 7.27752C3.19528 9.13706 6.51116 10.0877 6.51116 10.0877C6.98085 8.20878 5.84798 6.44026 5.84798 6.44026C4.0347 3.61016 2.00721 2.86376 1.98433 2.85547C1.07611 3.91638 0.444437 5.21952 0.19873 6.65546Z" fill="#8B96A5"/>
<path d="M6.57087 10.1912L6.48847 10.1675C6.45514 10.1578 3.12982 9.19094 0.822471 7.34217L0.109558 6.68596L0.117185 6.64153C0.359409 5.22532 0.983291 3.89764 1.92135 2.80158L1.95882 2.75781L2.01287 2.77754C2.09759 2.80855 4.10717 3.56954 5.91797 6.39549C5.92958 6.4134 7.06477 8.21591 6.59176 10.1078L6.57087 10.1912ZM0.288284 6.62512L0.930568 7.2165C3.00465 8.87792 5.92311 9.82112 6.451 9.9831C6.85239 8.19286 5.78932 6.5021 5.77838 6.48502C4.13735 3.92417 2.34545 3.09305 2.00906 2.95444C1.1214 4.00723 0.527358 5.27439 0.288284 6.62512Z" fill="#8B96A5"/>
<path d="M3.77356 14.6925C4.798 15.3406 5.98077 15.7607 7.25158 15.8799C7.96316 15.1497 8.9067 11.58 8.9067 11.58L7.08247 11.3066C6.14176 14.2412 3.81252 14.6852 3.77356 14.6925Z" fill="#8B96A5"/>
<path d="M7.28331 15.9668L7.24385 15.9632C6.00106 15.8466 4.7858 15.4316 3.72936 14.7633L3.55096 14.6506L3.75837 14.6118C3.85287 14.5942 6.08545 14.1464 7.00362 11.282L7.02517 11.2148L9.01055 11.5124L8.98684 11.602C8.94805 11.7485 8.02938 15.2012 7.31083 15.9385L7.28331 15.9668ZM3.98435 14.7255C4.96751 15.3131 6.08081 15.6813 7.21882 15.7941C7.84204 15.0964 8.65293 12.1972 8.80248 11.6489L7.13957 11.3997C6.3295 13.8408 4.57507 14.5514 3.98435 14.7255Z" fill="#8B96A5"/>
<path d="M8.61015 0.109683C8.40838 0.0944295 8.20512 0.0839844 7.99953 0.0839844C7.79395 0.0839844 7.59069 0.0944295 7.38892 0.109683H8.61015Z" fill="#8B96A5"/>
<path d="M8.61015 0.192238H7.38908L7.38278 0.0266099C7.84783 -0.00886996 8.15157 -0.00886996 8.61645 0.0266099L8.61015 0.192238Z" fill="#8B96A5"/>
<path d="M7.27594 15.8809C7.51435 15.9024 7.75558 15.9152 7.99963 15.9152C8.04008 15.9152 8.24583 15.9127 8.28629 15.912C8.00775 15.9037 7.38304 15.8852 7.27594 15.8809Z" fill="#8B96A5"/>
<path d="M7.99955 15.9989C7.76479 15.9989 7.52571 15.9877 7.2684 15.9643L7.27918 15.7988C7.37551 15.8026 7.89046 15.8181 8.19519 15.8272L8.28853 15.83L8.28737 15.9958C8.24692 15.9965 8.04017 15.9989 7.99955 15.9989Z" fill="#8B96A5"/>
<path d="M12.5627 11.7742C12.5077 12.3785 13.1664 13.969 13.1744 13.9885C13.9657 13.304 14.6202 12.4659 15.0908 11.5195C14.824 11.6236 12.5627 11.7742 12.5627 11.7742Z" fill="#8B96A5"/>
<path d="M13.1418 14.127L13.0977 14.0206C13.0287 13.8536 12.4251 12.3724 12.4801 11.7673L12.4866 11.6968L12.5572 11.6922C13.4611 11.632 14.8735 11.5159 15.0607 11.4432L15.2607 11.3652L15.1652 11.5574C14.6907 12.5117 14.0391 13.3511 13.2289 14.0521L13.1418 14.127ZM12.6424 11.8525C12.6428 12.3197 12.9855 13.2964 13.2073 13.85C13.9167 13.2181 14.4977 12.4756 14.9369 11.6395C14.4015 11.729 13.0185 11.827 12.6424 11.8525Z" fill="#8B96A5"/>
<path d="M15.0963 11.5094C15.2822 11.1345 15.44 10.7434 15.5652 10.3379L15.0963 11.5094Z" fill="#8B96A5"/>
<path d="M15.1705 11.5458L15.0193 11.4781L15.4881 10.3066L15.6443 10.3618C15.5206 10.7631 15.3611 11.1613 15.1705 11.5458Z" fill="#8B96A5"/>
<path d="M2.76803 2.06055C2.49248 2.30343 2.23434 2.56506 1.99493 2.84376L2.76803 2.06055Z" fill="#8B96A5"/>
<path d="M2.05387 2.90162L1.93201 2.78938C2.1739 2.50786 2.43685 2.2416 2.71323 1.99805L2.82713 2.11841L2.05387 2.90162Z" fill="#8B96A5"/>
<path d="M2.71915 13.8984C3.04261 14.1882 3.39061 14.4509 3.75867 14.6848L2.71915 13.8984Z" fill="#8B96A5"/>
<path d="M3.7143 14.7543C3.3411 14.5169 2.98763 14.2497 2.664 13.9599L2.76928 13.832L3.80881 14.6184L3.7143 14.7543Z" fill="#8B96A5"/>
<path d="M0.0828857 7.99926L0.196289 6.66992C0.123008 7.10248 0.0828857 7.54614 0.0828857 7.99926Z" fill="#8B96A5"/>
<path d="M0.165462 8.00631L0 7.99934C0 7.55717 0.0384642 7.10522 0.114398 6.65625L0.278699 6.67714L0.165462 8.00631Z" fill="#8B96A5"/>
<path d="M6.17962 11.0004C2.61505 10.116 0.0828857 8 0.0828857 8C0.0828857 10.3384 1.09738 12.4395 2.70955 13.8887C5.62023 13.5989 6.17962 11.0004 6.17962 11.0004Z" fill="#8B96A5"/>
<path d="M2.68138 13.9744L2.65402 13.95C0.967406 12.4335 0 10.2647 0 7.9995V7.82227L0.136116 7.93583C0.161317 7.95689 2.69597 10.0502 6.19969 10.9193L6.27761 10.9387L6.2607 11.0173C6.2549 11.0438 5.65456 13.6783 2.71769 13.9706L2.68138 13.9744ZM0.167783 8.17259C0.215366 10.3156 1.14547 12.3571 2.73775 13.8019C5.2414 13.5335 5.95614 11.4861 6.07833 11.0597C3.04182 10.2871 0.740434 8.61542 0.167783 8.17259Z" fill="#8B96A5"/>
</svg>
