<svg width="13" height="16" viewBox="0 0 13 16" fill="none" xmlns="http://www.w3.org/2000/svg">
<path d="M7.96909 6.31445H4.87104C4.73379 6.31445 4.61614 6.37328 4.5181 6.47132C3.73378 7.4321 -0.207405 12.3341 0.00828163 15.5694C0.0278895 15.8047 0.223969 16.0008 0.459264 16.0008H2.79261C2.89064 16.0008 2.96908 15.9419 3.00829 15.8439L4.14555 12.7458C4.16516 12.6674 4.28281 12.7066 4.2632 12.7851L4.06712 15.7459C4.06712 15.8831 4.16516 16.0008 4.30241 16.0008H12.4005C12.6358 16.0008 12.8319 15.8243 12.8515 15.5694C13.0672 12.3537 9.12596 7.4321 8.34164 6.47132C8.2436 6.37328 8.10635 6.31445 7.96909 6.31445Z" fill="#8B96A5"/>
<path d="M4.02788 0H3.75337C3.69455 0 3.65533 0.0392158 3.65533 0.0980396V1.13726C3.8122 1.09804 3.96906 1.07844 4.12592 1.05883V0.0980396C4.14553 0.0392158 4.08671 0 4.02788 0Z" fill="#8B96A5"/>
<path d="M9.08672 0H8.81221C8.75339 0 8.71417 0.0392158 8.71417 0.0980396V1.05883C8.89064 1.05883 9.04751 1.09804 9.18476 1.13726V0.0980396C9.18476 0.0392158 9.12594 0 9.08672 0Z" fill="#8B96A5"/>
<path d="M2.94942 2.1568L4.59649 5.39211C4.67492 5.52937 4.81217 5.6274 4.94943 5.6274H6.22394H6.6161H7.87101C8.02787 5.6274 8.16513 5.54897 8.22395 5.39211L9.87102 2.1568C9.96905 1.96072 9.87102 1.68621 9.65533 1.58817C9.06709 1.31366 7.92983 1.01954 6.67493 2.1568C6.53767 2.29406 6.30238 2.29406 6.16512 2.1568C4.91021 1.01954 3.75335 1.31366 3.18472 1.58817C2.94942 1.68621 2.85138 1.94112 2.94942 2.1568Z" fill="#8B96A5"/>
</svg>
