<svg width="85" height="80" viewBox="0 0 85 80" fill="none" xmlns="http://www.w3.org/2000/svg">
<path d="M9.58989 43.3836C9.62204 25.2236 24.4633 10.3663 42.543 10.5029C61.1496 10.6441 75.8852 25.8871 75.2595 44.5293C74.6729 61.9925 60.23 76.2632 42.2341 76.1794C24.3014 76.0945 9.5589 61.321 9.58989 43.3836ZM58.7767 47.839C58.4702 48.4715 58.3875 48.7401 58.2302 48.9537C54.9125 53.4285 52.6694 58.3477 51.5122 63.8351C51.0955 65.8108 50.0279 67.7302 48.9177 69.4579C47.7181 71.3246 45.5117 71.3751 43.9515 69.7805C43.2926 69.1066 42.7393 68.2766 42.3248 67.426C40.9851 64.6754 40.5856 61.6906 40.3756 58.6806C40.1356 55.2366 38.8946 53.7879 35.5345 53.0761C33.8515 52.7191 32.1628 52.3758 30.4971 51.9488C28.371 51.4046 26.7765 50.0902 26.1428 48.0066C25.6755 46.4706 25.3977 44.783 25.4907 43.1896C25.749 38.7836 29.2802 35.823 33.5439 36.3212C34.8778 36.4773 36.2428 36.8137 37.4688 37.3521C39.223 38.1224 40.8462 39.1831 42.5579 40.0556C43.063 40.3139 43.8023 40.6353 44.2236 40.4494C46.3049 39.5333 48.3219 38.4702 50.3413 37.421C50.6237 37.274 50.797 36.9181 51.1127 36.5531C49.7569 36.0411 50.2494 35.4166 50.8154 34.776C51.2665 34.2663 51.7338 33.7658 52.1367 33.2193C52.6028 32.5891 52.4134 32.123 51.6982 31.8038C50.4365 31.2413 49.2725 31.6018 48.6916 32.8875C48.2152 33.9426 47.9167 35.0768 47.4621 36.1421C46.895 37.4738 45.9996 37.7688 44.9181 36.8137C43.8792 35.8953 43.0217 34.7622 42.1412 33.6762C41.5132 32.9025 41.0563 31.9818 40.387 31.2505C39.3734 30.1439 38.2942 30.2036 37.2898 31.3263C36.7835 31.8922 36.3805 32.5523 35.8662 33.1103C34.9272 34.1308 33.7379 34.5533 32.3809 34.2146C32.0147 34.1239 31.73 33.7072 31.4074 33.4397C31.7197 33.1791 31.9975 32.8462 32.3522 32.6763C32.8264 32.449 33.3625 32.348 34.0363 32.1414C33.6001 31.6225 33.25 31.3263 33.0651 30.9486C32.9125 30.6363 32.785 30.1186 32.9389 29.881C34.3107 27.7549 38.7856 25.8837 40.961 27.7606C42.7243 29.2817 44.18 28.6756 44.9193 26.5461C45.2798 25.5094 44.9962 25.0319 43.901 24.8918C43.3465 24.8206 42.7645 24.8815 42.233 24.7414C41.8966 24.653 41.4948 24.3568 41.3777 24.0549C41.3031 23.862 41.628 23.3776 41.8909 23.2157C42.7404 22.6945 43.6026 22.1378 44.537 21.8198C47.3393 20.8658 50.1736 20.0048 53.0046 19.1381C53.745 18.9108 54.3099 18.6525 54.3914 17.7364C54.4729 16.8157 53.9058 16.593 53.2399 16.3462C43.2409 12.645 33.8814 13.8619 25.1578 19.983C24.7813 20.247 24.4426 20.565 23.9203 20.9932C24.3909 21.0219 24.6286 20.9978 24.8444 21.0575C25.4 21.2113 25.9453 21.4019 26.4952 21.5776C26.2909 22.1114 26.2231 22.7783 25.8581 23.156C23.6057 25.4842 21.335 27.7997 18.9586 29.9981C18.3008 30.6065 17.2596 30.7971 16.4009 31.1966C16.2069 31.2873 15.9589 31.4078 15.8809 31.58C14.4229 34.8127 13.6113 38.1993 13.4253 41.9073C13.7835 41.6616 14.0016 41.5021 14.2301 41.3563C15.0325 40.8431 15.9096 40.0338 16.8268 40.7754C17.7223 41.4998 17.5753 42.6512 17.2424 43.6878C17.1207 44.0655 16.9841 44.4673 16.7442 44.7715C16.029 45.6819 15.3103 46.6014 14.4907 47.4154C13.9775 47.9251 13.8019 48.3602 13.9431 49.0903C16.9301 64.5709 32.4108 75.0613 47.8467 71.8802C59.1406 69.5521 66.5497 62.7192 70.2669 51.8282C70.5023 51.1383 70.3829 50.6917 69.9558 50.1017C69.3302 49.2372 68.7217 48.2718 68.4531 47.2581C68.0857 45.8713 67.2741 45.3696 65.9711 45.295C62.5318 45.0976 59.0947 44.8312 55.6519 44.7027C54.8563 44.6728 53.9792 44.9495 53.2583 45.318C52.3238 45.7956 51.883 46.722 52.2136 47.7644C52.5511 48.8285 53.4833 48.6816 54.3386 48.5473C55.7093 48.3315 57.0777 48.111 58.7767 47.839Z" fill="#A3A9BD"/>
<path d="M69.1895 20.8552C70.9826 19.1619 72.7827 17.4606 74.6459 15.6996C73.491 14.6859 72.4153 13.6895 71.2708 12.7814C71.055 12.6104 70.5097 12.6735 70.2112 12.8216C69.5695 13.1384 68.9886 13.5793 68.3078 14.0189C67.9255 13.7296 67.5192 13.422 66.9658 13.003C69.0024 11.3694 70.9608 9.7599 71.389 7.01161C72.6289 7.43292 73.0272 7.97936 72.5542 9.18475C71.901 10.8493 71.9871 10.8815 73.4864 11.8148C74.3704 12.3647 75.2486 12.9238 76.2645 13.5655C77.4068 11.3235 78.5445 9.09177 79.7498 6.72461C80.2618 7.03457 80.7233 7.31353 81.2859 7.65448C80.6016 10.001 79.9507 12.3383 79.2264 14.6526C79.0002 15.3747 79.1311 15.7616 79.7315 16.2575C81.1102 17.394 82.3994 18.6453 83.6737 19.9012C83.9125 20.1366 83.917 20.6096 84.0295 20.9735C83.6243 20.993 83.1318 21.1732 82.8299 21.0056C81.2319 20.1205 79.65 19.1964 78.1312 18.1827C77.5675 17.8062 77.2116 17.7683 76.6583 18.1379C74.9937 19.2515 73.2924 20.3111 71.6048 21.389C70.2663 22.2454 70.2651 22.2443 69.1895 20.8552Z" fill="#A3A9BD"/>
<path d="M46.0451 0C46.0451 1.09059 46.0451 2.18463 46.0451 3.38657C43.6515 3.38657 41.3131 3.38657 38.8438 3.38657C38.8438 2.3132 38.8438 1.22605 38.8438 0C41.1891 0 43.5333 0 46.0451 0Z" fill="#A3A9BD"/>
<path d="M3.45745 39.3833C2.26698 39.0779 1.2005 38.8047 0.0605469 38.512C0.662094 36.0989 1.23724 33.788 1.83075 31.4082C2.97989 31.6975 4.01308 31.9581 5.2311 32.2658C4.63988 34.6421 4.059 36.9725 3.45745 39.3833Z" fill="#A3A9BD"/>
<path d="M49.5928 3.43998C49.8947 2.24147 50.1553 1.20369 50.4503 0.0292969C52.8232 0.61592 55.1272 1.18647 57.5449 1.78457C57.2636 2.94749 57.0134 3.98298 56.7218 5.19181C54.3535 4.60978 52.0483 4.04382 49.5928 3.43998Z" fill="#A3A9BD"/>
<path d="M35.4688 4.35786C33.0408 5.05354 30.7793 5.70101 28.3961 6.38406C28.0746 5.25673 27.7727 4.19714 27.4375 3.02274C29.7783 2.33969 32.0329 1.68189 34.4345 0.980469C34.7743 2.08943 35.0957 3.13869 35.4688 4.35786Z" fill="#A3A9BD"/>
<path d="M6.1822 28.9326C5.12949 28.3494 4.19962 27.8328 3.11133 27.2289C4.30753 25.0661 5.4693 22.963 6.6701 20.791C7.73888 21.3972 8.70089 21.9436 9.73179 22.5279C8.55165 24.6586 7.41629 26.7078 6.1822 28.9326Z" fill="#A3A9BD"/>
<path d="M6.42214 60.5758C5.25579 60.9121 4.22719 61.2095 3.0482 61.5504C2.37318 59.2177 1.71309 56.9355 1.01855 54.5327C2.15392 54.1883 3.20662 53.8692 4.37528 53.5156C5.05489 55.8598 5.71843 58.1466 6.42214 60.5758Z" fill="#A3A9BD"/>
<path d="M60.041 6.15623C60.623 5.10237 61.1546 4.14151 61.7423 3.07617C63.9201 4.28271 65.9979 5.43299 68.1585 6.6292C67.5626 7.69798 67.0265 8.66 66.4525 9.69204C64.2897 8.50043 62.205 7.35014 60.041 6.15623Z" fill="#A3A9BD"/>
<path d="M17.2676 8.8581C19.4109 7.56431 21.4233 6.34974 23.5586 5.06055C24.1509 6.04208 24.7169 6.98228 25.3712 8.06828C23.3003 9.31385 21.266 10.5388 19.0998 11.8429C18.4971 10.8613 17.9242 9.92688 17.2676 8.8581Z" fill="#A3A9BD"/>
<path d="M12.0537 74.6906C12.6667 74.0489 13.4118 73.2694 14.3658 72.2695C15.9775 74.1499 17.5537 75.9879 19.1931 77.9004C18.7258 78.3493 17.9222 79.1207 17.0073 79.999C15.3634 78.2379 13.7286 76.4861 12.0537 74.6906Z" fill="#A3A9BD"/>
<path d="M8.87523 71.6997C7.60441 69.5886 6.37491 67.5451 5.09375 65.4168C6.13268 64.7946 7.08207 64.2263 8.10378 63.6133C9.36772 65.7084 10.5834 67.7242 11.9002 69.9054C10.9118 70.4909 9.94171 71.0672 8.87523 71.6997Z" fill="#A3A9BD"/>
<path d="M0 50.0941C0 47.7086 0 45.4 0 42.9766C1.07337 42.9766 2.16741 42.9766 3.39346 42.9766C3.39346 45.2989 3.39346 47.6397 3.39346 50.0941C2.37519 50.0941 1.28345 50.0941 0 50.0941Z" fill="#A3A9BD"/>
<path d="M11.1062 19.2279C10.6619 18.6826 9.95707 17.8193 9.13281 16.8068C10.7492 15.3798 12.54 13.799 14.3998 12.1562C14.8888 12.6992 15.6281 13.5201 16.465 14.4499C14.7844 15.9481 13.005 17.5346 11.1062 19.2279Z" fill="#A3A9BD"/>
</svg>
