<svg width="15" height="18" viewBox="0 0 15 18" fill="none" xmlns="http://www.w3.org/2000/svg">
<path d="M10.7867 8.81387C10.6729 8.7381 10.5402 8.75701 10.4455 8.83278C9.49762 9.53417 8.34122 9.93231 7.07107 9.93231C5.80093 9.93231 4.64453 9.51525 3.69666 8.83278C3.60184 8.75701 3.45017 8.75701 3.35549 8.81387C1.11859 10.2546 0 13.0793 0 16.321C0 18.5579 14.1422 18.5579 14.1422 16.321C14.142 13.0792 13.0235 10.2546 10.7866 8.81387H10.7867Z" fill="#5264AE"/>
<path d="M11.2985 4.2275C11.2985 6.56227 9.40581 8.455 7.071 8.455C4.7362 8.455 2.84351 6.56217 2.84351 4.2275C2.84351 1.89283 4.7362 0 7.071 0C9.40581 0 11.2985 1.89269 11.2985 4.2275Z" fill="#5264AE"/>
</svg>
