<svg width="12" height="16" viewBox="0 0 12 16" fill="none" xmlns="http://www.w3.org/2000/svg">
<path d="M8.93333 12.9905H11.9619V0H0V16H8.93333V12.9905ZM3.2 2.64762C3.44762 2.41905 3.86667 2.22857 4.47619 2.3619C5.6 2.60952 5.77143 3.58095 5.77143 3.58095C5.77143 3.58095 5.9619 2.60952 7.06667 2.38095C7.65714 2.24762 8.07619 2.45714 8.34286 2.66667C8.60952 2.89524 8.7619 3.2381 8.78095 3.6C8.8 3.92381 8.72381 4.4 8.4 4.95238C7.77143 5.98095 6.01905 7.27619 5.79048 7.44762C5.79048 7.44762 3.79048 5.96191 3.18095 4.93333C2.85714 4.38095 2.78095 3.90476 2.8 3.58095C2.78095 3.21905 2.93333 2.87619 3.2 2.64762ZM8.91429 11.7524H3.04762V11.2571H8.91429V11.7524ZM8.91429 10.5143H3.04762V10.019H8.91429V10.5143ZM3.04762 9.29524V8.8H8.91429V9.29524H3.04762ZM9.40952 15.7524V13.4667H11.6571L9.40952 15.7524Z" fill="#5264AE"/>
</svg>
